<svg width="70" height="70" viewBox="0 0 70 70" fill="none" xmlns="http://www.w3.org/2000/svg">
<g clip-path="url(#clip0)">
<path d="M46.9631 52.8511L41.7149 49.8205L30.7012 38.1415L35.8754 41.1721L46.9631 52.8511Z" fill="#085D5B"/>
<path d="M17.2482 70L12 66.9693L26.7835 34.0021L32.0317 37.0327L17.2482 70Z" fill="#0A817F"/>
<path d="M35.8754 28.4583L30.6272 25.4277L40.0887 4.43506L45.2629 7.46568L35.8754 28.4583Z" fill="#0A817F"/>
<path d="M45.263 7.46568L40.0887 4.43506L47.7762 0L53.0243 3.03062L45.263 7.46568Z" fill="#0D9F9D"/>
<path d="M39.7191 32.5977L54.6504 48.4161L46.963 52.8511L35.8754 41.1721L24.9355 65.565L17.2481 70L32.0316 37.0328L18.5786 22.8406L26.34 18.4055L35.8754 28.4583L45.2629 7.4657L53.0242 3.03064L39.7191 32.5977Z" fill="#0FB9B6"/>
<path d="M32.0317 37.0327L26.7836 34.0021L13.4045 19.8099L18.5787 22.8406L32.0317 37.0327Z" fill="#085D5B"/>
<path d="M18.5787 22.8406L13.4045 19.8099L21.0919 15.3749L26.3401 18.4055L18.5787 22.8406Z" fill="#0D9F9D"/>
</g>
<defs>
<clipPath id="clip0">
<rect width="70" height="70" fill="white"/>
</clipPath>
</defs>
</svg>
