<svg width="64" height="64" viewBox="0 0 64 64" fill="none" xmlns="http://www.w3.org/2000/svg">
<g clip-path="url(#clip0_433_14673)">
<path d="M56.3219 36.9167C56.3219 38.1648 55.8261 39.3617 54.9436 40.2443C54.061 41.1268 52.8641 41.6226 51.616 41.6226H16.7925V7.74023H51.616C52.8641 7.74023 54.061 8.23603 54.9436 9.11856C55.8261 10.0011 56.3219 11.198 56.3219 12.4461V36.9167Z" fill="#FFC610"/>
<path d="M16.7923 41.6226H4.55696C3.30888 41.6226 2.11192 41.1268 1.2294 40.2443C0.346871 39.3617 -0.148926 38.1648 -0.148926 36.9167V12.4461C-0.148926 11.198 0.346871 10.0011 1.2294 9.11856C2.11192 8.23603 3.30888 7.74023 4.55696 7.74023H16.7923V41.6226Z" fill="url(#paint0_linear_433_14673)"/>
<path d="M56.3216 29.1416V36.9167C56.3216 38.1647 55.8258 39.3617 54.9433 40.2442C54.0608 41.1267 52.8638 41.6225 51.6158 41.6225H47.851C47.8522 43.9117 47.2957 46.1667 46.2298 48.1926C45.1639 50.2185 43.6206 51.9542 41.7334 53.2498C43.3174 54.3514 45.1104 55.1166 47.0017 55.4982C48.893 55.8797 50.8424 55.8696 52.7296 55.4684C54.6168 55.0671 56.4018 54.2833 57.9742 53.1653C59.5467 52.0473 60.8733 50.6189 61.8722 48.9682C62.871 47.3175 63.5209 45.4796 63.7818 43.5679C64.0426 41.6562 63.9088 39.7114 63.3887 37.8534C62.8685 35.9954 61.9731 34.2638 60.7576 32.7654C59.5421 31.2671 58.0324 30.0337 56.3216 29.1416V29.1416Z" fill="url(#paint1_linear_433_14673)"/>
<path d="M35.6157 41.6228H19.6157C19.6147 44.1958 20.3171 46.7201 21.647 48.9227C22.9769 51.1254 24.8837 52.9225 27.1611 54.1198C29.4386 55.317 32 55.8689 34.5684 55.7156C37.1368 55.5623 39.6145 54.7097 41.7334 53.2501C39.8463 51.9543 38.3031 50.2185 37.2373 48.1927C36.1714 46.1668 35.6148 43.9119 35.6157 41.6228V41.6228Z" fill="url(#paint2_linear_433_14673)"/>
<path d="M47.851 41.6228H35.6157C35.6148 43.9119 36.1714 46.1668 37.2373 48.1927C38.3031 50.2185 39.8463 51.9543 41.7334 53.2501C43.6206 51.9545 45.1639 50.2187 46.2298 48.1928C47.2957 46.167 47.8522 43.912 47.851 41.6228V41.6228Z" fill="url(#paint3_linear_433_14673)"/>
<path d="M41.7334 29.9962C43.6205 31.2917 45.1637 33.0274 46.2296 35.0531C47.2955 37.0788 47.852 39.3336 47.851 41.6226H51.6158C52.8638 41.6226 54.0608 41.1268 54.9433 40.2443C55.8258 39.3617 56.3216 38.1648 56.3216 36.9167V29.1416C54.0445 27.9361 51.4802 27.3783 48.908 27.529C46.3358 27.6797 43.8542 28.533 41.7334 29.9962V29.9962Z" fill="#FFE60D"/>
<path d="M41.7334 29.9963C39.6146 28.5363 37.137 27.6835 34.5686 27.53C32.0001 27.3765 29.4386 27.9282 27.161 29.1254C24.8835 30.3226 22.9766 32.1198 21.6467 34.3225C20.3168 36.5252 19.6145 39.0496 19.6157 41.6226H35.6157C35.6149 39.3337 36.1715 37.0789 37.2374 35.0532C38.3033 33.0276 39.8464 31.2919 41.7334 29.9963V29.9963Z" fill="#FFE20E"/>
<path d="M41.7334 29.9963C39.8464 31.292 38.3032 33.0276 37.2374 35.0533C36.1715 37.079 35.6149 39.3337 35.6157 41.6227H47.851C47.852 39.3337 47.2955 37.0789 46.2296 35.0532C45.1637 33.0275 43.6205 31.2919 41.7334 29.9963Z" fill="#FFF20A"/>
</g>
<defs>
<linearGradient id="paint0_linear_433_14673" x1="-0.148926" y1="24.6814" x2="16.7923" y2="24.6814" gradientUnits="userSpaceOnUse">
<stop stop-color="#68EAAF"/>
<stop offset="1" stop-color="#CBEA4F"/>
</linearGradient>
<linearGradient id="paint1_linear_433_14673" x1="41.7334" y1="42.4414" x2="68.2981" y2="42.4414" gradientUnits="userSpaceOnUse">
<stop stop-color="#FFE770"/>
<stop offset="1" stop-color="#FFE871" stop-opacity="0"/>
</linearGradient>
<linearGradient id="paint2_linear_433_14673" x1="900.827" y1="1018.92" x2="1537.28" y2="1018.92" gradientUnits="userSpaceOnUse">
<stop stop-color="#FFE770"/>
<stop offset="1" stop-color="#FFE871" stop-opacity="0"/>
</linearGradient>
<linearGradient id="paint3_linear_433_14673" x1="35.6157" y1="47.4365" x2="47.851" y2="47.4365" gradientUnits="userSpaceOnUse">
<stop stop-color="#FFF03E"/>
<stop offset="1" stop-color="#FFFA5C"/>
</linearGradient>
<clipPath id="clip0_433_14673">
<rect width="64" height="48" fill="white" transform="translate(0 8)"/>
</clipPath>
</defs>
</svg>
