<svg width="42" height="70" viewBox="0 0 42 70" fill="none" xmlns="http://www.w3.org/2000/svg">
<path d="M38.8925 48.5441L33.9595 45.6844L33.8165 3.50317L38.7495 6.36292L38.8925 48.5441Z" fill="#086361"/>
<path d="M36.5332 46.7567L31.6001 43.897V32.6725L36.5332 35.5322V46.7567Z" fill="#888888"/>
<path d="M7.79279 66.4891L2.85974 63.6293L33.9594 45.6844L38.8925 48.5442L7.79279 66.4891Z" fill="#0D9F9D"/>
<path d="M20.1612 56.2655L15.2281 53.4057L31.6002 43.8971L36.5332 46.7568L20.1612 56.2655Z" fill="#DBDBDB"/>
<path d="M36.5332 30.3132L31.6001 27.382V24.3793L36.5332 27.239V30.3132Z" fill="#888888"/>
<path d="M36.4617 24.2363L31.6001 21.3765L31.5286 18.3738L36.4617 21.2335V24.2363Z" fill="#888888"/>
<path d="M20.1612 45.0409L15.2281 42.1811L31.6002 32.6725L36.5332 35.5322L20.1612 45.0409Z" fill="#85CEC7"/>
<path d="M20.1612 56.2654L15.2281 53.4056V42.1812L20.1612 45.0409V56.2654Z" fill="#52807B"/>
<path d="M36.4617 18.2309L31.5286 15.3711V12.3684L36.4617 15.2282V18.2309Z" fill="#888888"/>
<path d="M5.86243 69.8493L0.929378 66.9895C0.428923 66.7036 0.142944 66.1316 0.142944 65.2737L5.076 68.1334C5.076 68.9913 5.36198 69.5633 5.86243 69.8493Z" fill="#08605F"/>
<path d="M20.0897 39.7505L15.2281 36.8907L31.6002 27.3821L36.5332 30.3133L20.0897 39.7505Z" fill="#DBDBDB"/>
<path d="M20.0897 36.7477L15.1566 33.8879L31.6001 24.3793L36.5332 27.239L20.0897 36.7477Z" fill="#0D9F9D"/>
<path d="M20.0897 39.7504L15.2281 36.8907L15.1566 33.8879L20.0897 36.7477V39.7504Z" fill="#086361"/>
<path d="M20.0897 33.745L15.1566 30.8852L31.6001 21.3766L36.4617 24.2363L20.0897 33.745Z" fill="#DBDBDB"/>
<path d="M20.0897 33.7449L15.1566 30.8852V27.8824L20.0897 30.7422V33.7449Z" fill="#086361"/>
<path d="M20.0897 30.7422L15.1566 27.8824L31.5286 18.3738L36.4617 21.2335L20.0897 30.7422Z" fill="#0D9F9D"/>
<path d="M20.0897 27.7395L15.1566 24.8797L31.5286 15.3711L36.4617 18.2308L20.0897 27.7395Z" fill="#DBDBDB"/>
<path d="M20.0897 27.7395L15.1566 24.8798V21.8055L20.0897 24.6653V27.7395Z" fill="#086361"/>
<path d="M20.0897 24.6653L15.1566 21.8056L31.5286 12.3684L36.4617 15.2282L20.0897 24.6653Z" fill="#0D9F9D"/>
<path d="M36.4617 15.2281V18.2309L20.0897 27.7395V24.6653L36.4617 15.2281Z" fill="#0FB9B6"/>
<path d="M7.64985 24.3078L2.7168 21.4481L33.8165 3.50317L38.7496 6.36292L7.64985 24.3078Z" fill="#DBDBDB"/>
<path d="M7.79283 66.4891L2.85978 63.6293L2.7168 21.4481L7.64985 24.3079L7.79283 66.4891Z" fill="#888888"/>
<path d="M38.821 3.21718C40.3224 2.35926 41.4663 3.07419 41.4663 4.71855L41.6092 47.0427C41.6092 48.7586 40.3939 50.8319 38.964 51.6183L7.79279 69.6347C6.29142 70.4926 5.14752 69.7777 5.07603 68.1333L4.93304 25.8092C4.93304 24.0933 6.14843 22.02 7.5783 21.1621L38.821 3.21718ZM38.8925 48.5441L38.7495 6.3629L7.6498 24.3078L7.79279 66.489L38.8925 48.5441Z" fill="#0FB9B6"/>
<path d="M36.5332 35.5322V46.7567L20.1611 56.2654V45.0409L36.5332 35.5322Z" fill="#9AEFE7"/>
<path d="M36.4617 21.2335V24.2362L20.0897 33.7449V30.7422L36.4617 21.2335Z" fill="#0FB9B6"/>
<path d="M7.64978 24.3078L38.7495 6.36292L38.8925 48.5441L7.79277 66.489L7.64978 24.3078ZM36.5332 46.7568V35.5323L20.1612 44.9694V56.1939L36.5332 46.7568ZM36.4617 18.2309V15.2281L20.0897 24.6653V27.668L36.4617 18.2309ZM36.4617 24.2363V21.2336L20.0897 30.6707V33.6735L36.4617 24.2363ZM36.5332 30.3133V27.3105L20.1612 36.7477V39.7504L36.5332 30.3133Z" fill="white"/>
<path d="M36.5332 27.239V30.3132L20.0897 39.7504V36.7477L36.5332 27.239Z" fill="#0FB9B6"/>
<path d="M38.8211 3.21716L33.8881 0.357422C34.031 0.285928 34.1025 0.214438 34.2455 0.142944L39.1786 3.00269C39.0356 3.07418 38.8926 3.14567 38.8211 3.21716Z" fill="#0C9492"/>
<path d="M39.1785 3.00273L34.2455 0.14299C34.317 0.0714968 34.46 0.0714936 34.5315 0L39.4645 2.85974C39.393 2.93124 39.25 3.00273 39.1785 3.00273Z" fill="#0C908E"/>
<path d="M39.4645 2.93124L34.5315 0.0714925C34.603 0.0714925 34.6745 0 34.746 0L39.679 2.85974C39.6075 2.85974 39.536 2.93124 39.4645 2.93124Z" fill="#0B8D8A"/>
<path d="M39.679 2.85974L34.7459 0C34.8174 0 34.8889 0 34.9604 0L39.8935 2.85974C39.822 2.85974 39.7505 2.85974 39.679 2.85974Z" fill="#0B8987"/>
<path d="M39.8935 2.85974L34.9604 0C35.0319 0 35.1034 0 35.1034 0L40.0365 2.85974C40.0365 2.85974 39.965 2.85974 39.8935 2.85974Z" fill="#0B8583"/>
<path d="M40.108 2.85974L35.1749 0C35.2464 0 35.3179 0 35.3179 0L40.251 2.85974C40.1795 2.85974 40.108 2.85974 40.108 2.85974Z" fill="#0B827F"/>
<path d="M40.251 2.85974L35.3179 0C35.3894 0 35.3894 0 35.4609 0L40.394 2.85974C40.3225 2.85974 40.3225 2.85974 40.251 2.85974Z" fill="#0A7E7C"/>
<path d="M40.3939 2.93128L35.4609 0.0715332C35.5324 0.0715332 35.5324 0.0715376 35.6039 0.143031L40.5369 3.00277C40.4654 2.93128 40.4654 2.93128 40.3939 2.93128Z" fill="#0A7A78"/>
<path d="M40.5369 2.93128L35.6039 0.0715332C35.6754 0.0715332 35.6754 0.143031 35.7469 0.143031L40.6799 3.00277C40.6084 3.00277 40.6084 3.00277 40.5369 2.93128Z" fill="#0A7674"/>
<path d="M40.6799 3.00269L35.7468 0.142944L40.6799 3.00269Z" fill="#097371"/>
<path d="M5.07604 68.1334L0.142985 65.2737L0 22.9495L4.93305 25.8092L5.07604 68.1334Z" fill="#086361"/>
<path d="M7.57835 21.2335L2.7168 18.3738L33.888 0.357422L38.8211 3.21716L7.57835 21.2335Z" fill="#0D9F9D"/>
<path d="M4.93305 25.8092L0 22.9494C0 22.8064 0 22.592 0 22.449L4.93305 25.3087C4.93305 25.5232 4.93305 25.6662 4.93305 25.8092Z" fill="#08605F"/>
<path d="M5.00454 25.3088L0.0714722 22.449C0.0714722 22.306 0.14297 22.2345 0.14297 22.0916L5.07602 24.9513C5.00453 25.0943 5.00454 25.1658 5.00454 25.3088Z" fill="#086462"/>
<path d="M5.00454 24.9513L0.0714722 22.0915C0.0714722 22.02 0.14297 21.877 0.14297 21.8055L5.07602 24.6653C5.07602 24.7368 5.07603 24.8083 5.00454 24.9513Z" fill="#086866"/>
<path d="M5.076 24.6653L0.142944 21.8055C0.142944 21.734 0.214442 21.591 0.214442 21.5195L5.14749 24.3793C5.14749 24.4508 5.14749 24.5223 5.076 24.6653Z" fill="#096B6A"/>
<path d="M5.21907 24.3792L0.286011 21.5195C0.286011 21.448 0.357509 21.3765 0.357509 21.2335L5.29056 24.0933C5.21907 24.1648 5.21907 24.3077 5.21907 24.3792Z" fill="#096F6D"/>
<path d="M5.29054 24.0934L0.357483 21.2336C0.357483 21.1622 0.42897 21.0907 0.42897 21.0192L5.36203 23.8789C5.36203 23.9504 5.29054 24.0219 5.29054 24.0934Z" fill="#097371"/>
<path d="M5.36202 23.8788L0.428955 21.019C0.428955 20.9476 0.500453 20.8761 0.500453 20.8046L5.43351 23.6643C5.43351 23.7358 5.43351 23.8073 5.36202 23.8788Z" fill="#0A7674"/>
<path d="M5.50501 23.6643L0.57196 20.8046C0.643454 20.7331 0.643452 20.6616 0.714945 20.5901L5.648 23.4498C5.5765 23.5213 5.50501 23.5928 5.50501 23.6643Z" fill="#0A7A78"/>
<path d="M5.5765 23.3784L0.643433 20.5187C0.714926 20.4472 0.714924 20.3757 0.786418 20.3042L5.71948 23.1639C5.71948 23.2354 5.64799 23.3069 5.5765 23.3784Z" fill="#0A7E7C"/>
<path d="M5.7195 23.1639L0.786438 20.3042C0.857932 20.2327 0.85794 20.1612 0.929434 20.0897L5.86249 22.9495C5.79099 23.021 5.79099 23.0925 5.7195 23.1639Z" fill="#0B827F"/>
<path d="M5.8625 22.9493L0.929443 20.0896C1.00094 20.0181 1.00093 19.9466 1.07243 19.8751L6.00548 22.7349C6.00548 22.8064 5.93399 22.8779 5.8625 22.9493Z" fill="#0B8583"/>
<path d="M6.00544 22.735L1.07239 19.8752C1.14388 19.8037 1.21537 19.7323 1.21537 19.6608L6.14843 22.5205C6.14843 22.592 6.07693 22.6635 6.00544 22.735Z" fill="#0B8987"/>
<path d="M6.21998 22.4489L1.28693 19.5892C1.35842 19.5177 1.4299 19.3747 1.5014 19.3032L6.43446 22.163C6.36297 22.306 6.29147 22.3774 6.21998 22.4489Z" fill="#0B8D8A"/>
<path d="M6.43441 22.2345L1.50134 19.3747C1.57284 19.2317 1.71583 19.1602 1.78732 19.0887L6.72038 21.9485C6.64888 22.02 6.5059 22.0915 6.43441 22.2345Z" fill="#0C908E"/>
<path d="M6.72041 21.877L1.78735 19.0173C2.07333 18.7313 2.3593 18.5168 2.64527 18.3024L7.57833 21.1621C7.29235 21.3766 7.00638 21.6626 6.72041 21.877Z" fill="#0C9492"/>
</svg>
