<svg width="70" height="70" viewBox="0 0 70 70" fill="none" xmlns="http://www.w3.org/2000/svg">
<path d="M56.3092 44.5087L50.3972 41.046C50.735 40.8771 51.0729 40.6237 51.3262 40.2859L57.2382 43.7486C56.9848 44.0864 56.647 44.3398 56.3092 44.5087Z" fill="#0C9492"/>
<path d="M57.2382 43.833L51.3262 40.3703C51.4107 40.2858 51.4951 40.1169 51.6641 40.0325L57.576 43.4952C57.4916 43.5797 57.4071 43.6641 57.2382 43.833Z" fill="#0C908E"/>
<path d="M57.576 43.4951L51.6641 40.0324C51.7485 39.948 51.833 39.8635 51.9174 39.7791L57.8294 43.2418C57.7449 43.3262 57.6605 43.4107 57.576 43.4951Z" fill="#0B8D8A"/>
<path d="M57.8294 43.2419L51.9175 39.7791C52.0019 39.6947 52.0019 39.6102 52.0864 39.5258L57.9984 42.9885C57.9139 43.0729 57.8294 43.1574 57.8294 43.2419Z" fill="#0B8987"/>
<path d="M57.9983 42.9884L52.0863 39.5257C52.1708 39.4412 52.1708 39.3568 52.2552 39.2723L58.1672 42.735C58.0827 42.8195 57.9983 42.904 57.9983 42.9884Z" fill="#0B8583"/>
<path d="M58.1671 42.7351L52.2552 39.2724C52.3396 39.188 52.3396 39.1035 52.4241 39.019L58.3361 42.4818C58.2516 42.5662 58.1671 42.6507 58.1671 42.7351Z" fill="#0B827F"/>
<path d="M58.2517 42.4817L52.3397 39.019C52.4242 38.9345 52.4242 38.8501 52.5086 38.7656L58.4206 42.2283C58.4206 42.3128 58.3361 42.3973 58.2517 42.4817Z" fill="#0A7E7C"/>
<path d="M58.4206 42.2283L52.5086 38.7656C52.5086 38.6811 52.5931 38.5967 52.5931 38.5122L58.505 41.9749C58.505 42.0594 58.505 42.1438 58.4206 42.2283Z" fill="#0A7A78"/>
<path d="M58.505 41.975L52.5931 38.5123C52.5931 38.4278 52.6775 38.3434 52.6775 38.2589L58.5895 41.7216C58.5895 41.8061 58.5895 41.8906 58.505 41.975Z" fill="#0A7674"/>
<path d="M58.674 41.7216L52.762 38.2589C52.762 38.1744 52.8465 38.0899 52.8465 38.0055L58.7584 41.4682C58.7584 41.5527 58.674 41.6371 58.674 41.7216Z" fill="#097371"/>
<path d="M58.7584 41.4682L52.8464 38.0054C52.8464 37.921 52.9309 37.8365 52.9309 37.7521L58.8429 41.2148C58.8429 41.2992 58.7584 41.3837 58.7584 41.4682Z" fill="#096F6D"/>
<path d="M58.8429 41.2149L52.9309 37.7522C52.9309 37.6677 53.0154 37.5832 53.0154 37.4988L58.9273 40.9615C58.9273 41.046 58.9273 41.1304 58.8429 41.2149Z" fill="#096B6A"/>
<path d="M58.9273 40.9614L53.0153 37.4987C53.0153 37.4143 53.0998 37.2453 53.0998 37.1609L59.0117 40.6236C59.0117 40.7081 59.0117 40.877 58.9273 40.9614Z" fill="#086866"/>
<path d="M59.0117 40.6236L53.0998 37.1609C53.0998 36.992 53.1842 36.9076 53.1842 36.7386L59.0962 40.2014C59.0962 40.3703 59.0117 40.5392 59.0117 40.6236Z" fill="#086462"/>
<path d="M59.0963 40.2014L53.1843 36.7387C53.1843 36.5698 53.1843 36.4008 53.1843 36.2319L59.0963 39.6947C59.0963 39.8636 59.0963 40.0325 59.0963 40.2014Z" fill="#08605F"/>
<path d="M59.0962 39.6946L53.1842 36.2319L53.0998 12.8374L59.0962 16.3001V39.6946Z" fill="#086361"/>
<path d="M58.5895 17.3136L52.5931 13.8509L53.0998 12.8374L59.0962 16.3001L58.5895 17.3136Z" fill="#B1B1B1"/>
<path d="M45.8366 31.9246L39.9247 28.4618C41.7827 27.3639 43.6408 25.9281 45.4144 24.239L51.3263 27.7017C49.5527 29.3909 47.6947 30.8266 45.8366 31.9246Z" fill="#CCCCCC"/>
<path d="M51.3263 27.7017L45.4144 24.239C46.0056 23.6478 46.6812 22.9722 47.2724 22.2965L53.1844 25.7592C52.5932 26.4349 51.9175 27.0261 51.3263 27.7017Z" fill="#C7C7C7"/>
<path d="M53.1843 25.7593L47.2723 22.2966C47.6946 21.7898 48.1169 21.2831 48.5392 20.6919L54.4511 24.1546C54.0289 24.6613 53.6066 25.2525 53.1843 25.7593Z" fill="#C2C2C2"/>
<path d="M54.4511 24.1546L48.5392 20.6919C48.877 20.2696 49.2148 19.7629 49.5527 19.3406L55.4646 22.8033C55.1268 23.2256 54.789 23.7323 54.4511 24.1546Z" fill="#BDBDBD"/>
<path d="M55.4647 22.7188L49.5527 19.2561C49.8061 18.8338 50.1439 18.4115 50.3973 17.9893L56.3093 21.452C56.0559 21.8743 55.8025 22.381 55.4647 22.7188Z" fill="#B8B8B8"/>
<path d="M56.3092 21.452L50.3973 17.9893C50.6506 17.567 50.904 17.2292 51.1574 16.8069L57.0693 20.2696C56.816 20.6919 56.5626 21.1142 56.3092 21.452Z" fill="#B3B3B3"/>
<path d="M57.0694 20.2696L51.1574 16.8069C51.4108 16.4691 51.5797 16.0468 51.8331 15.6245L57.745 19.0872C57.4917 19.5095 57.2383 19.9318 57.0694 20.2696Z" fill="#ADADAD"/>
<path d="M57.6606 19.1716L51.7486 15.7089C51.9175 15.3711 52.0864 14.9488 52.3398 14.611L58.2518 18.0737C58.0828 18.4115 57.9139 18.7493 57.6606 19.1716Z" fill="#A8A8A8"/>
<path d="M58.2517 18.0737L52.3397 14.6109C52.4242 14.3576 52.5931 14.1042 52.6775 13.9353L58.5895 17.398C58.505 17.5669 58.3361 17.8203 58.2517 18.0737Z" fill="#A3A3A3"/>
<path d="M56.9848 16.9759L50.9884 13.5132L53.0998 8.95251L59.0118 12.4152L56.9848 16.9759Z" fill="#0A817F"/>
<path d="M59.0118 12.4151L53.0998 8.95237V6.33423L59.0118 9.79694V12.4151Z" fill="#086361"/>
<path d="M45.8366 29.7286L39.9247 26.2659C41.5294 25.3369 43.134 24.07 44.5698 22.5498L50.4817 26.0125C49.046 27.5327 47.4413 28.7996 45.8366 29.7286Z" fill="#0C9492"/>
<path d="M50.5662 26.097L44.6542 22.6343C45.2454 22.0431 45.7522 21.4519 46.3434 20.8607L52.2553 24.3234C51.6641 24.9146 51.1574 25.5058 50.5662 26.097Z" fill="#0C908E"/>
<path d="M52.1709 24.3235L46.2589 20.8608C46.6812 20.4385 47.019 19.9318 47.4413 19.425L53.3533 22.8878C53.0154 23.3945 52.5932 23.8168 52.1709 24.3235Z" fill="#0B8D8A"/>
<path d="M53.3533 22.8878L47.4413 19.4251C47.7792 19.0028 48.0325 18.5805 48.3704 18.1582L54.2823 21.6209C54.029 22.0432 53.6911 22.4655 53.3533 22.8878Z" fill="#0B8987"/>
<path d="M54.2823 21.6208L48.3703 18.1581C48.6237 17.8203 48.877 17.398 49.1304 17.0602L55.0424 20.5229C54.789 20.8607 54.5356 21.283 54.2823 21.6208Z" fill="#0B8583"/>
<path d="M55.0424 20.5229L49.1304 17.0602C49.3838 16.7224 49.5527 16.3846 49.8061 16.0468L55.718 19.5095C55.4647 19.8473 55.2958 20.1851 55.0424 20.5229Z" fill="#0B827F"/>
<path d="M55.718 19.5095L49.806 16.0468C49.9749 15.709 50.1439 15.3712 50.3128 15.0333L56.2247 18.496C56.0558 18.8339 55.8869 19.1717 55.718 19.5095Z" fill="#0A7E7C"/>
<path d="M56.2248 18.496L50.3129 15.0333C50.4818 14.6954 50.6507 14.4421 50.7351 14.1042L56.6471 17.567C56.5627 17.9048 56.3937 18.1582 56.2248 18.496Z" fill="#0A7A78"/>
<path d="M56.6471 17.567L50.7352 14.1043C50.8196 13.9353 50.9041 13.682 50.9885 13.5131L56.9005 16.9758C56.9005 17.1447 56.816 17.3981 56.6471 17.567Z" fill="#0A7674"/>
<path d="M59.0118 9.79697L53.0998 6.33426C53.0998 5.4897 52.762 4.81404 52.2552 4.56067L58.1672 8.02339C58.7584 8.27676 59.0118 8.95241 59.0118 9.79697Z" fill="#08605F"/>
<path d="M42.2893 40.0325L36.3774 36.5698V30.4889L42.2893 33.9516V40.0325Z" fill="#888888"/>
<path d="M42.2893 33.9516L36.3774 30.4889L39.9246 28.4619L45.8365 31.9246L42.2893 33.9516Z" fill="#DBDBDB"/>
<path d="M24.469 62.9201L18.5571 59.4574L50.3972 41.0459L56.3091 44.5086L24.469 62.9201Z" fill="#0D9F9D"/>
<path d="M56.2246 8.1923L50.3126 4.72958C50.4815 4.64512 50.566 4.56067 50.7349 4.56067L56.6469 8.02339C56.4779 8.10785 56.3935 8.10785 56.2246 8.1923Z" fill="#CCCCCC"/>
<path d="M56.6469 8.02338L50.7349 4.56066C50.8194 4.4762 50.9883 4.4762 51.0728 4.4762L56.9847 7.93892C56.8158 7.93892 56.7313 7.93892 56.6469 8.02338Z" fill="#C7C7C7"/>
<path d="M56.9847 7.93902L51.0728 4.47629C51.1572 4.47629 51.2417 4.4763 51.3261 4.39185L57.2381 7.85456C57.1536 7.85456 57.0692 7.85456 56.9847 7.93902Z" fill="#C2C2C2"/>
<path d="M57.2381 7.85456L51.3261 4.39185C51.4106 4.39185 51.495 4.39185 51.495 4.39185L57.407 7.85456C57.3225 7.85456 57.2381 7.85456 57.2381 7.85456Z" fill="#BDBDBD"/>
<path d="M57.407 7.85456L51.4951 4.39185C51.5795 4.39185 51.5795 4.39185 51.664 4.39185L57.5759 7.85456C57.4915 7.85456 57.4915 7.85456 57.407 7.85456Z" fill="#B8B8B8"/>
<path d="M57.5759 7.85456L51.6639 4.39185C51.7484 4.39185 51.7484 4.39185 51.8329 4.39185L57.7448 7.85456C57.7448 7.85456 57.6604 7.85456 57.5759 7.85456Z" fill="#B3B3B3"/>
<path d="M57.7448 7.85456L51.8329 4.39185C51.9173 4.39185 51.9173 4.39185 52.0018 4.39185L57.9138 7.85456C57.8293 7.85456 57.8293 7.85456 57.7448 7.85456Z" fill="#ADADAD"/>
<path d="M57.9137 7.85456L52.0018 4.39185C52.0862 4.39185 52.0862 4.39184 52.1707 4.47629L58.0826 7.93902C57.9982 7.93902 57.9982 7.93901 57.9137 7.85456Z" fill="#A8A8A8"/>
<path d="M58.0826 7.93892L52.1707 4.4762C52.2551 4.4762 52.2551 4.56066 52.3396 4.56066L58.2515 8.02338C58.1671 8.02338 58.0826 7.93892 58.0826 7.93892Z" fill="#A3A3A3"/>
<path d="M58.1671 8.02339L52.2552 4.56067L58.1671 8.02339C58.2516 8.02339 58.2516 8.02339 58.1671 8.02339Z" fill="#9E9E9E"/>
<path d="M42.2893 31.8403L36.3774 28.3775L39.9246 26.2661L45.8365 29.7288L42.2893 31.8403Z" fill="#0D9F9D"/>
<path d="M34.0126 44.8464L28.0162 41.3837L36.3774 36.5697L42.2893 40.0324L34.0126 44.8464Z" fill="#DBDBDB"/>
<path d="M35.8707 41.5527L29.8743 38.0899L34.4349 35.4718L40.4313 38.9345L35.8707 41.5527Z" fill="#0D9F9D"/>
<path d="M56.2246 4.56067L50.3126 1.09794C50.566 0.929029 50.9038 0.760116 51.1572 0.675659L57.0691 4.13838C56.8158 4.3073 56.4779 4.39175 56.2246 4.56067Z" fill="#0C9492"/>
<path d="M57.0692 4.13832L51.1572 0.675601C51.4106 0.591144 51.664 0.506698 51.8329 0.422241L57.7448 3.88495C57.4915 3.96941 57.3226 4.05387 57.0692 4.13832Z" fill="#0C908E"/>
<path d="M57.7448 3.88506L51.8329 0.422352C52.0018 0.337896 52.1707 0.337891 52.3396 0.337891L58.2516 3.80061C58.0827 3.80061 57.9138 3.88506 57.7448 3.88506Z" fill="#0B8D8A"/>
<path d="M58.2516 3.8006L52.3396 0.33788C52.5085 0.33788 52.6774 0.337875 52.7619 0.253418L58.6738 3.71614C58.5894 3.8006 58.4205 3.8006 58.2516 3.8006Z" fill="#0B8987"/>
<path d="M58.7583 3.71614L52.8463 0.253418C53.0152 0.253418 53.0997 0.253418 53.2686 0.253418L59.1806 3.71614C59.0116 3.71614 58.8427 3.71614 58.7583 3.71614Z" fill="#0B8583"/>
<path d="M59.0962 3.80061L53.1842 0.337891C53.2687 0.337891 53.4376 0.337896 53.522 0.422352L59.434 3.88506C59.3495 3.80061 59.2651 3.80061 59.0962 3.80061Z" fill="#0B827F"/>
<path d="M59.5184 3.80061L53.6064 0.337891C53.6909 0.337891 53.8598 0.422352 53.9443 0.422352L59.8562 3.88506C59.6873 3.88506 59.6029 3.80061 59.5184 3.80061Z" fill="#0A7E7C"/>
<path d="M59.8563 3.88495L53.9443 0.422241C54.0288 0.422241 54.1977 0.50669 54.2822 0.50669L60.1941 3.96941C60.0252 3.96941 59.9408 3.88495 59.8563 3.88495Z" fill="#0A7A78"/>
<path d="M60.1096 3.96956L54.1976 0.506836C54.2821 0.591292 54.3665 0.59129 54.5355 0.675746L60.4474 4.13847C60.363 4.05401 60.2785 4.05402 60.1096 3.96956Z" fill="#0A7674"/>
<path d="M60.4474 4.13838L54.5355 0.675659L60.4474 4.13838Z" fill="#097371"/>
<path d="M40.4314 38.9346L34.4349 35.4719V28.0397L40.4314 31.5024V38.9346Z" fill="#086361"/>
<path d="M42.2894 31.8402L36.3774 28.3775L36.293 24.7458L42.2894 28.2086V31.8402Z" fill="#888888"/>
<path d="M19.9928 65.4538L14.0808 61.9911L18.557 59.4574L24.469 62.9201L19.9928 65.4538Z" fill="#0D9F9D"/>
<path d="M35.8707 41.5526L29.8743 38.0899V30.6577L35.8707 34.1204V41.5526Z" fill="#52807B"/>
<path d="M34.0126 44.8464L28.0162 41.3837V35.3029L33.9281 38.7656L34.0126 44.8464Z" fill="#086361"/>
<path d="M18.0503 65.7071L12.1383 62.2444L18.0503 65.7071Z" fill="#097371"/>
<path d="M18.0503 65.7071L12.1383 62.2444C12.2228 62.2444 12.2228 62.3288 12.3072 62.3288L18.2192 65.7916C18.1347 65.7071 18.1347 65.7071 18.0503 65.7071Z" fill="#0A7674"/>
<path d="M18.2191 65.7917L12.3072 62.329C12.3916 62.329 12.3916 62.329 12.4761 62.4134L18.3881 65.8762C18.3036 65.7917 18.2191 65.7917 18.2191 65.7917Z" fill="#0A7A78"/>
<path d="M18.3037 65.7917L12.3917 62.329C12.4762 62.329 12.4762 62.329 12.5606 62.329L18.4726 65.7917C18.4726 65.8762 18.3881 65.7917 18.3037 65.7917Z" fill="#0A7E7C"/>
<path d="M18.4726 65.8762L12.5606 62.4135C12.6451 62.4135 12.6451 62.4135 12.7295 62.4135L18.6415 65.8762C18.6415 65.8762 18.557 65.8762 18.4726 65.8762Z" fill="#0B827F"/>
<path d="M18.6415 65.8762L12.7295 62.4135C12.8139 62.4135 12.8139 62.4135 12.8984 62.4135L18.8104 65.8762C18.8104 65.8762 18.7259 65.8762 18.6415 65.8762Z" fill="#0B8583"/>
<path d="M18.8949 65.8762L12.9829 62.4135C13.0674 62.4135 13.1518 62.4135 13.1518 62.4135L19.0638 65.8762C18.9793 65.8762 18.8949 65.8762 18.8949 65.8762Z" fill="#0B8987"/>
<path d="M19.0638 65.8762L13.1518 62.4134C13.2363 62.4134 13.3207 62.4134 13.4052 62.329L19.3171 65.7917C19.2327 65.7917 19.1482 65.8762 19.0638 65.8762Z" fill="#0B8D8A"/>
<path d="M19.3171 65.7916L13.4052 62.3288C13.4896 62.3288 13.6585 62.2444 13.743 62.2444L19.6549 65.7071C19.486 65.7071 19.4016 65.7916 19.3171 65.7916Z" fill="#0C908E"/>
<path d="M19.655 65.7072L13.743 62.2445C13.912 62.16 13.9964 62.16 14.1653 62.0756L20.0773 65.5383C19.9084 65.5383 19.7395 65.6227 19.655 65.7072Z" fill="#0C9492"/>
<path d="M40.4313 31.5023V38.9345L35.8707 41.5527V34.1205L40.4313 31.5023Z" fill="#9AEFE7"/>
<path d="M35.8707 34.1205L29.8743 30.6578L34.4349 28.0397L40.4313 31.5024L35.8707 34.1205Z" fill="#85CEC7"/>
<path d="M18.0503 65.7073L12.1384 62.2445C11.6316 61.9912 11.2938 61.3155 11.2938 60.4709L17.2058 63.9337C17.2058 64.7782 17.5436 65.3694 18.0503 65.7073Z" fill="#507C78"/>
<path d="M30.381 40.877L24.469 37.4143L28.0162 35.3029L33.9281 38.7656L30.381 40.877Z" fill="#DBDBDB"/>
<path d="M33.9281 33.0226L28.0162 29.5599L36.2929 24.7458L42.2893 28.2086L33.9281 33.0226Z" fill="#0D9F9D"/>
<path d="M33.9281 36.6542L28.0162 33.1914V29.5598L33.9281 33.0225V36.6542Z" fill="#086361"/>
<path d="M30.381 38.6811L24.3846 35.2184L28.0162 33.1914L33.9282 36.6541L30.381 38.6811Z" fill="#0D9F9D"/>
<path d="M15.77 69.5922L9.858 66.1295C8.76006 65.5383 8.08441 64.187 8.08441 62.329L13.9964 65.7917C14.0808 67.6497 14.672 68.9166 15.77 69.5922Z" fill="#08605F"/>
<path d="M24.4691 42.9885L18.5571 39.5257C18.6416 39.5257 18.8105 39.5257 18.895 39.4413L24.8069 42.904C24.638 42.904 24.5535 42.9885 24.4691 42.9885Z" fill="#BDBDBD"/>
<path d="M24.8069 42.9039L18.895 39.4412C19.4017 39.3568 19.9084 39.2723 20.4152 39.1034L26.3271 42.5661C25.7359 42.735 25.3137 42.8195 24.8069 42.9039Z" fill="#C2C2C2"/>
<path d="M26.2426 42.5661L20.3307 39.1034C20.9219 38.9345 21.5975 38.6811 22.2732 38.4277L28.1851 41.8904C27.5095 42.2283 26.9183 42.3972 26.2426 42.5661Z" fill="#C7C7C7"/>
<path d="M28.1852 41.975L22.2733 38.5122C23.0334 38.1744 23.709 37.8366 24.4691 37.4143L30.3811 40.877C29.621 41.2993 28.9453 41.6371 28.1852 41.975Z" fill="#CCCCCC"/>
<path d="M45.8365 31.9246C50.9039 29.0531 55.8868 23.3101 58.505 17.3136L59.0117 16.2157L59.0962 39.6102C59.0962 41.3837 57.8293 43.5796 56.3091 44.4242L24.469 62.8357V42.9884C26.327 42.735 28.354 42.0594 30.381 40.877L33.9281 38.8501V44.8465L42.2893 40.0324V34.036L45.8365 31.9246Z" fill="white"/>
<path d="M24.4691 62.9202L18.5571 59.4575L18.4727 39.5258L24.4691 42.9885V62.9202Z" fill="#888888"/>
<path d="M19.0638 42.0594L13.1519 38.5967C13.1519 38.5967 13.2363 38.5967 13.2363 38.6811L19.0638 42.0594C19.1483 42.0594 19.1483 42.0594 19.0638 42.0594Z" fill="#5F948F"/>
<path d="M19.1482 42.0594L13.2363 38.5967C13.4896 38.7656 13.6585 38.85 13.9119 38.9345L19.8239 42.3972C19.655 42.3128 19.4016 42.2283 19.1482 42.0594Z" fill="#639994"/>
<path d="M19.9084 42.4818L13.9964 39.019C14.2498 39.1035 14.5031 39.188 14.7565 39.2724L20.6685 42.7351C20.4151 42.6507 20.1617 42.5662 19.9084 42.4818Z" fill="#669E98"/>
<path d="M20.6685 42.735L14.7565 39.2723C15.0099 39.3568 15.3477 39.4412 15.6011 39.4412L21.5131 42.904C21.1752 42.904 20.9219 42.8195 20.6685 42.735Z" fill="#69A39D"/>
<path d="M21.513 42.904L15.6011 39.4413C15.9389 39.5257 16.1923 39.5257 16.5301 39.5257L22.4421 42.9885C22.1042 42.9885 21.8509 42.9885 21.513 42.904Z" fill="#6CA7A2"/>
<path d="M22.442 42.9885L16.5301 39.5258C16.8679 39.5258 17.2057 39.5258 17.628 39.5258L23.54 42.9885C23.2022 43.0729 22.7799 43.0729 22.442 42.9885Z" fill="#6FACA6"/>
<path d="M23.54 43.0729L17.6281 39.6102C17.8814 39.6102 18.2192 39.6102 18.5571 39.5258L24.469 42.9885C24.1312 42.9885 23.8778 42.9885 23.54 43.0729Z" fill="#72B1AB"/>
<path d="M20.4151 39.6947L14.5032 36.2319H14.5876L20.4151 39.6947C20.4151 39.7791 20.4151 39.7791 20.4151 39.6947Z" fill="#097371"/>
<path d="M20.4995 39.7791L14.5876 36.3164C14.7565 36.4009 15.0099 36.4853 15.1788 36.5698L21.0907 40.0325C20.8374 39.948 20.6685 39.8636 20.4995 39.7791Z" fill="#0A7674"/>
<path d="M21.0909 40.0324L15.1789 36.5697C15.4323 36.6542 15.6012 36.7386 15.8545 36.8231L21.7665 40.2858C21.5131 40.2013 21.2598 40.2013 21.0909 40.0324Z" fill="#0A7A78"/>
<path d="M21.7664 40.2858L15.8544 36.8231C16.1078 36.9076 16.3612 36.992 16.6145 36.992L22.5265 40.4548C22.2731 40.4548 22.0198 40.3703 21.7664 40.2858Z" fill="#0A7E7C"/>
<path d="M22.5265 40.4548L16.6146 36.9921C16.8679 37.0765 17.2058 37.0765 17.4591 37.0765L23.3711 40.5393C23.1177 40.5393 22.7799 40.5392 22.5265 40.4548Z" fill="#0B827F"/>
<path d="M23.3711 40.6237L17.4592 37.161C17.797 37.161 18.1348 37.161 18.4726 37.161L24.3846 40.6237C24.0468 40.6237 23.709 40.6237 23.3711 40.6237Z" fill="#0B8583"/>
<path d="M24.3846 40.6236L18.4726 37.1609H18.5571C18.8949 37.1609 19.2327 37.0764 19.5705 37.0764L25.4825 40.5391C25.1447 40.6236 24.8068 40.6236 24.469 40.6236C24.3846 40.6236 24.3846 40.6236 24.3846 40.6236Z" fill="#0B8987"/>
<path d="M25.4825 40.4547L19.5706 36.992C19.9928 36.9076 20.4151 36.8231 20.9219 36.7386L26.8338 40.2014C26.3271 40.2858 25.9048 40.4547 25.4825 40.4547Z" fill="#0B8D8A"/>
<path d="M26.8338 40.2014L20.9219 36.7387C21.5131 36.5698 22.0198 36.4008 22.611 36.1475L28.523 39.6102C27.9318 39.8636 27.3406 40.0325 26.8338 40.2014Z" fill="#0C908E"/>
<path d="M28.5229 39.6101L22.611 36.1474C23.2022 35.894 23.8778 35.5562 24.469 35.2184L30.381 38.6811C29.7898 39.0189 29.1141 39.3568 28.5229 39.6101Z" fill="#0C9492"/>
<path d="M20.4151 39.6946L14.5032 36.2319C14.0809 35.9785 13.6586 35.7251 13.3208 35.3029L19.2328 38.7656C19.5706 39.1879 19.9929 39.5257 20.4151 39.6946Z" fill="#507C78"/>
<path d="M19.0638 42.0594L13.1519 38.5967C12.6451 38.2589 12.1384 37.9211 11.7161 37.4988L17.6281 40.9615C18.1348 41.3838 18.5571 41.7216 19.0638 42.0594Z" fill="#08605F"/>
<path d="M17.7126 40.9615L11.7162 37.4988L11.2094 36.8231L17.1214 40.2858L17.7126 40.9615Z" fill="#085D5B"/>
<path d="M17.2058 63.9337L11.2939 60.471L11.2094 36.8231L17.1214 40.2858L17.2058 63.9337Z" fill="#52807B"/>
<path d="M17.7126 40.9614C19.3172 42.6506 21.682 43.3262 24.4691 42.9884L24.5535 62.9201L20.0773 65.5383C18.5571 66.4673 17.2903 65.7072 17.2903 63.9336L17.2058 40.3702L17.7126 40.9614Z" fill="#9AEFE7"/>
<path d="M56.2247 8.1924C57.7449 7.26338 59.0117 8.02349 59.0117 9.79707V12.3308L56.9848 16.8914C54.7044 21.9588 50.2282 27.1107 45.8365 29.6444L42.2893 31.6713V28.0397L33.9281 32.8537V36.4853L30.381 38.5123C28.354 39.6947 26.327 40.2859 24.469 40.3703V26.3506L56.2247 8.1924Z" fill="white"/>
<path d="M24.3846 26.6039L18.4727 23.1411L50.3128 4.72961L56.2247 8.19234L24.3846 26.6039Z" fill="#DBDBDB"/>
<path d="M24.4691 40.6236L18.4727 37.1609V23.1411L24.3846 26.6038L24.4691 40.6236Z" fill="#888888"/>
<path d="M19.2328 38.8501L13.3208 35.3873L11.2094 32.8536L17.1214 36.3164L19.2328 38.8501Z" fill="#4D7874"/>
<path d="M19.9084 29.222L13.9964 25.7593L18.4726 23.1411L24.3846 26.6038L19.9084 29.222Z" fill="#85CEC7"/>
<path d="M17.1214 36.3164L11.2094 32.8537V30.4889L17.1214 33.9516V36.3164Z" fill="#52807B"/>
<path d="M19.9084 29.2219L24.3846 26.6038V40.6235C22.2732 40.708 20.4151 40.1168 19.2328 38.85L17.1213 36.3163V33.9515C17.1213 32.1779 18.3882 30.0665 19.9084 29.2219Z" fill="#9AEFE7"/>
<path d="M17.1214 33.9515L11.2095 30.4888C11.2095 30.3199 11.2095 30.151 11.2095 29.9821L17.1214 33.4448C17.1214 33.6137 17.1214 33.7826 17.1214 33.9515Z" fill="#507C78"/>
<path d="M17.2058 33.4448L11.2939 29.9821C11.2939 29.8132 11.2939 29.7287 11.3783 29.5598L17.2903 33.0225C17.2058 33.1914 17.2058 33.3604 17.2058 33.4448Z" fill="#53817D"/>
<path d="M17.2058 33.1071L11.2939 29.6443C11.2939 29.5599 11.3783 29.391 11.3783 29.3065L17.2903 32.7692C17.2903 32.8537 17.2903 32.9381 17.2058 33.1071Z" fill="#568681"/>
<path d="M17.2903 32.7692L11.3783 29.3065C11.3783 29.222 11.4628 29.1376 11.4628 29.0531L17.3747 32.5158C17.3747 32.6003 17.3747 32.6847 17.2903 32.7692Z" fill="#598B86"/>
<path d="M17.3748 32.5158L11.4629 29.0531C11.4629 28.9686 11.5473 28.8841 11.5473 28.7997L17.4593 32.2624C17.4593 32.2624 17.4593 32.4313 17.3748 32.5158Z" fill="#5C8F8B"/>
<path d="M17.4593 32.178L11.5473 28.7153C11.5473 28.6308 11.6318 28.5464 11.6318 28.4619L17.5437 31.9246C17.5437 32.0091 17.5437 32.0935 17.4593 32.178Z" fill="#5F948F"/>
<path d="M17.6281 31.9246L11.7162 28.4619C11.7162 28.3774 11.8006 28.293 11.8006 28.2085L17.7126 31.6712C17.7126 31.8401 17.6281 31.8401 17.6281 31.9246Z" fill="#639994"/>
<path d="M17.7126 31.7558L11.8006 28.293C11.8006 28.2086 11.8851 28.1241 11.8851 28.0397L17.797 31.5024C17.797 31.5868 17.7126 31.6713 17.7126 31.7558Z" fill="#669E98"/>
<path d="M17.7971 31.5023L11.8851 28.0396C11.9696 27.9552 11.9696 27.8707 12.054 27.7863L17.966 31.249C17.8815 31.3334 17.8815 31.4179 17.7971 31.5023Z" fill="#69A39D"/>
<path d="M17.966 31.2489L12.054 27.7862C12.1385 27.7018 12.1385 27.6173 12.2229 27.5328L18.1349 30.9956C18.0504 31.08 18.0504 31.1645 17.966 31.2489Z" fill="#6CA7A2"/>
<path d="M18.1349 30.9956L12.2229 27.5329C12.3074 27.4485 12.3074 27.364 12.3918 27.2795L18.3038 30.7423C18.2193 30.8267 18.1349 30.9112 18.1349 30.9956Z" fill="#6FACA6"/>
<path d="M18.3038 30.7422L12.3918 27.2795C12.4763 27.195 12.4763 27.1106 12.5608 27.0261L18.4727 30.4888C18.3883 30.5733 18.3038 30.6577 18.3038 30.7422Z" fill="#72B1AB"/>
<path d="M18.4727 30.4889L12.5607 27.0262C12.6452 26.9417 12.7296 26.8573 12.8141 26.7728L18.7261 30.2355C18.6416 30.32 18.5571 30.4045 18.4727 30.4889Z" fill="#75B6B0"/>
<path d="M18.7261 30.2355L12.8141 26.7728C12.8986 26.6883 12.9831 26.5194 13.152 26.4349L19.0639 29.8977C18.895 29.9821 18.8106 30.151 18.7261 30.2355Z" fill="#78BAB4"/>
<path d="M18.9794 29.8976L13.0674 26.4349C13.3208 26.1815 13.6586 25.9282 13.9965 25.6748L19.9084 29.1375C19.5706 29.3909 19.3172 29.6443 18.9794 29.8976Z" fill="#7BBFB9"/>
<path d="M13.9964 65.7073L8.08446 62.2445L8 32.3469L13.912 35.8096L13.9964 65.7073Z" fill="#086361"/>
<path d="M19.9084 25.506L13.9964 22.0432L50.2283 1.09802L56.2247 4.56075L19.9084 25.506Z" fill="#0D9F9D"/>
<path d="M56.2247 4.5607C59.5185 2.70266 62.2211 4.22288 62.2211 7.93896L62.3056 37.921C62.3056 41.7216 59.603 46.3667 56.3092 48.2247L19.9929 69.17C16.6991 71.1125 13.9964 69.5078 13.9964 65.7917L13.912 35.8096C13.912 32.0091 16.6146 27.4484 19.9084 25.5059L56.2247 4.5607ZM59.0962 39.6946L59.0118 16.3002L58.505 17.3981C55.8024 23.3101 50.8195 29.0531 45.8366 31.9246L42.2894 33.9516V39.948L33.9282 44.762V38.7656L30.381 40.7926C28.3541 41.9749 26.3271 42.6506 24.4691 42.904C21.7664 43.2418 19.3172 42.5661 17.7125 40.877L17.2058 40.2014L17.2902 63.7647C17.2902 65.5383 18.5571 66.214 20.0773 65.3694L24.5535 62.7513L56.3936 44.3397C57.9138 43.6641 59.0962 41.4682 59.0962 39.6946ZM59.0118 12.4152V9.88147C59.0118 8.10788 57.7449 7.43222 56.2247 8.27678L24.3846 26.6883L19.9084 29.3065C18.3882 30.151 17.1213 32.3469 17.1213 34.1205V36.4853L19.2327 39.019C20.4996 40.2858 22.2732 40.877 24.3846 40.7926C26.2426 40.7081 28.2696 40.0324 30.2966 38.9345L33.8437 36.9076V33.2759L42.2049 28.4619V32.0935L45.7521 30.0666C50.1438 27.5329 54.62 22.381 56.9004 17.3136L59.0118 12.4152ZM35.8707 41.5527L40.4313 38.9345V31.5023L35.8707 34.1205V41.5527Z" fill="#0FB9B6"/>
<path d="M13.912 35.8097L8 32.3469C8 32.0091 8 31.5868 8.08446 31.249L13.9964 34.7117C13.9964 35.0496 13.9964 35.4718 13.912 35.8097Z" fill="#08605F"/>
<path d="M13.9964 34.7117L8.08441 31.249C8.08441 30.9956 8.16887 30.6578 8.25332 30.4044L14.1653 33.8671C14.0808 34.1205 14.0808 34.4583 13.9964 34.7117Z" fill="#086462"/>
<path d="M14.1654 33.8671L8.25342 30.4044C8.33787 30.151 8.33787 29.9821 8.42233 29.7288L14.3343 33.1915C14.2498 33.4448 14.2498 33.6138 14.1654 33.8671Z" fill="#086866"/>
<path d="M14.3343 33.1915L8.4223 29.7288C8.50676 29.5599 8.50676 29.3065 8.59122 29.1376L14.5032 32.6003C14.4187 32.7692 14.4187 32.9381 14.3343 33.1915Z" fill="#096B6A"/>
<path d="M14.5031 32.6003L8.59113 29.1376C8.67558 28.9687 8.76004 28.7998 8.76004 28.5464L14.672 32.0091C14.672 32.178 14.5875 32.3469 14.5031 32.6003Z" fill="#096F6D"/>
<path d="M14.7565 32.0091L8.84454 28.5464C8.929 28.3775 9.01346 28.2086 9.09791 28.0397L15.0099 31.5024C14.841 31.6713 14.7565 31.8402 14.7565 32.0091Z" fill="#097371"/>
<path d="M14.9254 31.5024L9.01343 28.0397C9.09788 27.8708 9.18234 27.7019 9.2668 27.533L15.1788 30.9957C15.0943 31.0801 15.0098 31.3335 14.9254 31.5024Z" fill="#0A7674"/>
<path d="M15.1788 30.9112L9.26685 27.4485C9.3513 27.2796 9.43576 27.1107 9.52022 26.9418L15.4322 30.4045C15.3477 30.5734 15.2633 30.7423 15.1788 30.9112Z" fill="#0A7A78"/>
<path d="M15.4322 30.4044L9.52026 26.9417C9.60472 26.7728 9.68918 26.6038 9.77363 26.4349L15.6856 29.8977C15.6011 30.0666 15.5167 30.2355 15.4322 30.4044Z" fill="#0A7E7C"/>
<path d="M15.77 29.8977L9.85803 26.435C9.94249 26.266 10.0269 26.0971 10.1959 25.9282L16.1078 29.3909C15.9389 29.5598 15.8544 29.7288 15.77 29.8977Z" fill="#0B827F"/>
<path d="M16.0233 29.391L10.1114 25.9283C10.1958 25.7593 10.3648 25.5904 10.4492 25.4215L16.3612 28.8842C16.2767 29.0531 16.1923 29.2221 16.0233 29.391Z" fill="#0B8583"/>
<path d="M16.3612 28.8842L10.4493 25.4215C10.6182 25.2526 10.7026 25.0837 10.8716 24.9148L16.7835 28.3775C16.6146 28.5464 16.5302 28.7153 16.3612 28.8842Z" fill="#0B8987"/>
<path d="M16.7835 28.3774L10.8715 24.9147C11.0404 24.7458 11.2093 24.4924 11.3783 24.3235L17.2902 27.7862C17.1213 27.9551 16.9524 28.124 16.7835 28.3774Z" fill="#0B8D8A"/>
<path d="M17.2902 27.7863L11.3782 24.3236C11.6316 24.0702 11.8005 23.8169 12.0539 23.6479L17.9658 27.1107C17.7125 27.2796 17.4591 27.5329 17.2902 27.7863Z" fill="#0C908E"/>
<path d="M17.9659 27.0262L12.054 23.5634C12.6452 22.9722 13.3208 22.4655 13.9965 22.0432L19.9084 25.5059C19.2328 25.9282 18.5571 26.435 17.9659 27.0262Z" fill="#0C9492"/>
<path d="M43.4718 9.96587L41.0226 8.61457V4.4762L43.3874 5.82751L43.4718 9.96587Z" fill="#086361"/>
<path d="M43.3874 5.82752L41.0226 4.47621C41.0226 3.54718 40.6848 2.95599 40.178 2.61816L42.5428 3.96947C43.0496 4.3073 43.3874 4.89849 43.3874 5.82752Z" fill="#08605F"/>
<path d="M40.5159 2.02702L38.1511 0.675712C38.4045 0.506799 38.6579 0.422347 38.8268 0.337891L41.1916 1.6892C40.9382 1.77366 40.6848 1.85811 40.5159 2.02702Z" fill="#0C9492"/>
<path d="M41.1916 1.68904L38.8268 0.337734C38.9957 0.253277 39.2491 0.168823 39.418 0.168823L41.7828 1.52012C41.5294 1.52012 41.3605 1.60459 41.1916 1.68904Z" fill="#0C908E"/>
<path d="M41.7828 1.43576L39.418 0.0844488C39.5869 0.0844488 39.6713 0 39.8403 0L42.205 1.3513C42.0361 1.43575 41.8672 1.43576 41.7828 1.43576Z" fill="#0B8D8A"/>
<path d="M42.205 1.3513L39.8402 0C39.9247 0 40.0936 0 40.178 0L42.5428 1.3513C42.3739 1.3513 42.2894 1.3513 42.205 1.3513Z" fill="#0B8987"/>
<path d="M42.5429 1.3513L40.1781 0C40.2626 0 40.4315 0 40.5159 0L42.8807 1.3513C42.7118 1.3513 42.6273 1.3513 42.5429 1.3513Z" fill="#0B8583"/>
<path d="M42.8807 1.3513L40.5159 0C40.6004 0 40.6848 0 40.7693 0L43.1341 1.3513C43.0496 1.3513 42.9652 1.3513 42.8807 1.3513Z" fill="#0B827F"/>
<path d="M43.134 1.3513L40.7692 0C40.8537 0 40.9381 -7.73349e-06 41.0226 0.0844488L43.3874 1.43576C43.3029 1.43576 43.2185 1.3513 43.134 1.3513Z" fill="#0A7E7C"/>
<path d="M43.3874 1.43578L41.0226 0.0844727C41.1071 0.0844727 41.1916 0.168934 41.276 0.168934L43.6408 1.52023C43.5563 1.52023 43.4719 1.43578 43.3874 1.43578Z" fill="#0A7A78"/>
<path d="M43.6407 1.52012L41.2759 0.168823C41.3604 0.168823 41.4449 0.253272 41.5293 0.253272L43.8941 1.60458C43.8096 1.60458 43.7252 1.60458 43.6407 1.52012Z" fill="#0A7674"/>
<path d="M27.9318 18.9183L25.567 17.4825V13.4286L27.9318 14.7799V18.9183Z" fill="#086361"/>
<path d="M32.7458 6.50314L30.381 5.06739L38.0665 0.591187L40.5158 2.02695L32.7458 6.50314Z" fill="#0D9F9D"/>
<path d="M40.5158 2.02697C41.7827 1.26687 43.0495 1.18241 43.9786 1.68915C44.9076 2.19589 45.4143 3.29383 45.4143 4.81404V8.95241L43.4718 10.0503V5.91198C43.4718 4.05394 42.1205 3.29383 40.5158 4.22285L32.7458 8.69904C31.1412 9.62806 29.7899 11.9084 29.7899 13.7664V17.9048L27.9318 19.0027V14.8644C27.9318 11.8239 30.1277 8.10784 32.7458 6.58762L40.5158 2.02697Z" fill="#0FB9B6"/>
<path d="M27.9318 14.78L25.567 13.4287C25.567 13.0908 25.567 12.8375 25.6515 12.4996L28.0163 13.8509C27.9318 14.1888 27.9318 14.5266 27.9318 14.78Z" fill="#08605F"/>
<path d="M28.0162 13.8509L25.6514 12.4996C25.6514 12.2462 25.7359 12.0773 25.7359 11.824L28.1007 13.1753C28.0162 13.4286 28.0162 13.682 28.0162 13.8509Z" fill="#086462"/>
<path d="M28.1007 13.1753L25.7359 11.824C25.7359 11.6551 25.8204 11.4862 25.9048 11.2328L28.2696 12.5841C28.1851 12.8375 28.1007 13.0064 28.1007 13.1753Z" fill="#086866"/>
<path d="M28.2696 12.6685L25.9048 11.3172C25.9893 11.1483 25.9893 10.9793 26.0738 10.8104L28.4385 12.1617C28.3541 12.3306 28.2696 12.4996 28.2696 12.6685Z" fill="#096B6A"/>
<path d="M28.354 12.1618L25.9893 10.8105C26.0737 10.6416 26.0737 10.4726 26.1582 10.3882L28.523 11.7395C28.523 11.8239 28.4385 11.9929 28.354 12.1618Z" fill="#096F6D"/>
<path d="M28.5229 11.7395L26.1581 10.3882C26.2426 10.2193 26.2426 10.1349 26.3271 9.96594L28.6918 11.3173C28.6918 11.4017 28.6074 11.5706 28.5229 11.7395Z" fill="#097371"/>
<path d="M28.6919 11.2327L26.3271 9.88139C26.4116 9.71248 26.4116 9.62802 26.4961 9.45911L28.8608 10.8104C28.8608 10.9793 28.7764 11.1482 28.6919 11.2327Z" fill="#0A7674"/>
<path d="M28.9452 10.8104L26.5804 9.45915C26.6649 9.29023 26.7494 9.20578 26.7494 9.03687L29.1141 10.3882C29.0297 10.5571 29.0297 10.726 28.9452 10.8104Z" fill="#0A7A78"/>
<path d="M29.1142 10.4727L26.7494 9.12138C26.8338 8.95247 26.9183 8.86801 27.0028 8.6991L29.3675 10.0504C29.2831 10.1349 29.1986 10.3038 29.1142 10.4727Z" fill="#0A7E7C"/>
<path d="M29.3675 10.0503L27.0027 8.69902C27.0872 8.5301 27.1717 8.44565 27.2561 8.27673L29.6209 9.62804C29.5364 9.7125 29.452 9.88141 29.3675 10.0503Z" fill="#0B827F"/>
<path d="M29.6209 9.62808L27.2561 8.27677C27.3406 8.10786 27.425 8.02341 27.5095 7.85449L29.8743 9.2058C29.7898 9.37472 29.7053 9.45917 29.6209 9.62808Z" fill="#0B8583"/>
<path d="M29.8743 9.20584L27.5095 7.85453C27.594 7.68562 27.7629 7.60116 27.8473 7.43225L30.2121 8.78356C30.1277 8.86802 29.9588 9.03693 29.8743 9.20584Z" fill="#0B8987"/>
<path d="M30.2121 8.78346L27.8473 7.43215C28.0162 7.26323 28.1007 7.09433 28.2696 6.92542L30.6344 8.27671C30.4654 8.44563 30.381 8.61454 30.2121 8.78346Z" fill="#0B8D8A"/>
<path d="M30.6344 8.27672L28.2696 6.92542C28.4385 6.75651 28.6074 6.50314 28.7763 6.33423L31.1411 7.68553C30.9722 7.9389 30.8033 8.10781 30.6344 8.27672Z" fill="#0C908E"/>
<path d="M31.1411 7.68553L28.7764 6.33423C29.2831 5.82749 29.7898 5.40521 30.381 5.06738L32.7458 6.41868C32.1546 6.84096 31.6479 7.26325 31.1411 7.68553Z" fill="#0C9492"/>
</svg>
