<svg width="64" height="64" viewBox="0 0 64 64" fill="none" xmlns="http://www.w3.org/2000/svg">
<g clip-path="url(#clip0_433_14483)">
<path d="M8.61893 21.8444C8.61951 20.5052 8.82086 19.1737 9.21627 17.8943H8.61893C6.31389 17.8943 4.10324 18.81 2.47333 20.4399C0.843411 22.0698 -0.0722656 24.2804 -0.0722656 26.5855C-0.0722656 28.8905 0.843411 31.1012 2.47333 32.7311C4.10324 34.361 6.31389 35.2767 8.61893 35.2767H19.6747C20.0214 35.275 20.3676 35.2525 20.7115 35.2093C17.398 34.8764 14.3261 33.3247 12.0918 30.8553C9.85743 28.3858 8.61981 25.1746 8.61893 21.8444V21.8444Z" fill="#00FFFE"/>
<path d="M56.2347 39.2902C57.0891 42.1069 56.9921 45.1266 55.9587 47.8826C54.9254 50.6387 53.0131 52.9778 50.5174 54.5384C48.9494 55.8771 46.9548 56.6118 44.8931 56.6103H55.2269C57.4497 56.6183 59.5911 55.7741 61.2104 54.2514C62.8297 52.7287 63.8038 50.6433 63.9324 48.4242C64.061 46.2051 63.3341 44.0211 61.9015 42.3216C60.4688 40.6221 58.4393 39.5363 56.2304 39.2876L56.2347 39.2902Z" fill="#00BCC3"/>
<path d="M44.1712 39.232H55.233C55.5684 39.2333 55.9035 39.2541 56.2365 39.2943C55.4019 36.5342 53.7015 34.1158 51.3867 32.3965C49.0719 30.6771 46.2654 29.748 43.3819 29.7463H41.9841C41.4454 31.1212 40.5653 32.3363 39.4269 33.2768C38.2885 34.2174 36.9293 34.8525 35.4775 35.1223V35.2734H29.9521V40.1536C31.1575 39.5473 32.4881 39.2317 33.8374 39.232H44.1712Z" fill="#00E8E8"/>
<path d="M44.8989 39.2322C46.6779 39.2314 48.4142 39.7768 49.8731 40.7947C51.3321 41.8126 52.4434 43.2538 53.0568 44.9237C53.6702 46.5935 53.7562 48.4114 53.3031 50.1317C52.85 51.852 51.8797 53.3917 50.5232 54.5427C53.0189 52.9821 54.9312 50.643 55.9646 47.887C56.998 45.1309 57.095 42.1112 56.2406 39.2945C55.9076 39.2543 55.5725 39.2335 55.2371 39.2322H44.8989Z" fill="url(#paint0_linear_433_14483)"/>
<path d="M35.4801 29.7462H41.9842C42.4704 28.5098 42.666 27.1782 42.556 25.8542C42.4459 24.5302 42.0331 23.2492 41.3494 22.11C40.6657 20.9709 39.7294 20.0041 38.6127 19.2842C37.4961 18.5643 36.229 18.1107 34.9092 17.9583C35.2871 19.2111 35.4795 20.5126 35.4801 21.8213V29.7462Z" fill="#00FFFE"/>
<path d="M35.48 35.1258C36.9318 34.8559 38.291 34.2208 39.4294 33.2802C40.5678 32.3397 41.4479 31.1247 41.9866 29.7498H35.48V35.1258Z" fill="#00F2F1"/>
<path d="M35.4798 35.2768V35.1257C34.9564 35.2242 34.4251 35.2748 33.8926 35.2768H35.4798Z" fill="url(#paint1_linear_433_14483)" fill-opacity="0.49"/>
<path d="M34.9091 17.9584C34.2057 15.63 32.8833 13.5363 31.0831 11.9007C29.2828 10.2651 27.0723 9.14892 24.6873 8.67137C22.3023 8.19382 19.8324 8.37278 17.5412 9.18915C15.25 10.0055 13.2234 11.4287 11.6778 13.3067C10.1321 15.1848 9.12537 17.4473 8.76498 19.8527C8.40459 22.2582 8.70407 24.7164 9.63148 26.9649C10.5589 29.2135 12.0794 31.1681 14.0308 32.6201C15.9821 34.0721 18.2911 34.967 20.7113 35.2094C21.1517 35.2529 21.5971 35.2768 22.0485 35.2768H29.9521V29.7464H35.4817V21.824C35.4808 20.5144 35.2879 19.212 34.9091 17.9584V17.9584ZM28.3632 26.6411V26.5302C28.3632 26.5489 28.3632 26.5668 28.3632 26.5856C28.3632 26.6044 28.3632 26.6223 28.3632 26.6411Z" fill="url(#paint2_linear_433_14483)"/>
<path d="M28.3659 26.5857C28.3659 26.567 28.3659 26.549 28.3659 26.5303V26.6412C28.3633 26.6224 28.3659 26.6028 28.3659 26.5857Z" fill="url(#paint3_linear_433_14483)" fill-opacity="0.49"/>
<path d="M35.48 35.1258V29.7498H29.9521V35.2802H33.8946C34.4266 35.277 34.9573 35.2253 35.48 35.1258V35.1258Z" fill="#00E0F5"/>
<path d="M43.3816 56.6101C41.6185 56.6144 39.872 56.2706 38.2421 55.5985C36.6122 54.9265 35.131 53.9393 33.8833 52.6937C32.6357 51.448 31.6462 49.9684 30.9715 48.3395C30.2969 46.7107 29.9503 44.9647 29.9518 43.2017V40.1536C28.2007 41.0283 26.7964 42.4689 25.9666 44.2417C25.1368 46.0145 24.9301 48.0157 25.3801 49.9207C25.83 51.8257 26.9102 53.5229 28.4455 54.7371C29.9809 55.9512 31.8813 56.6113 33.8387 56.6101H44.1726C44.0386 56.6101 43.9089 56.5964 43.7775 56.5905C43.6461 56.5845 43.5147 56.6101 43.3816 56.6101Z" fill="#2400A7"/>
<path d="M43.3816 56.6101C41.6185 56.6144 39.872 56.2706 38.2421 55.5985C36.6122 54.9265 35.131 53.9393 33.8833 52.6937C32.6357 51.448 31.6462 49.9684 30.9715 48.3395C30.2969 46.7107 29.9503 44.9647 29.9518 43.2017V40.1536C28.2007 41.0283 26.7964 42.4689 25.9666 44.2417C25.1368 46.0145 24.9301 48.0157 25.3801 49.9207C25.83 51.8257 26.9102 53.5229 28.4455 54.7371C29.9809 55.9512 31.8813 56.6113 33.8387 56.6101H44.1726C44.0386 56.6101 43.9089 56.5964 43.7775 56.5905C43.6461 56.5845 43.5147 56.6101 43.3816 56.6101Z" fill="url(#paint4_linear_433_14483)"/>
<path d="M43.7759 56.5906C43.9073 56.5966 44.037 56.6102 44.171 56.6102H44.8989C46.9606 56.6118 48.9552 55.877 50.5232 54.5383C48.4989 55.8152 46.1683 56.524 43.7759 56.5906Z" fill="#2400A7"/>
<path d="M43.7759 56.5906C43.9073 56.5966 44.037 56.6102 44.171 56.6102H44.8989C46.9606 56.6118 48.9552 55.877 50.5232 54.5383C48.4989 55.8152 46.1683 56.524 43.7759 56.5906Z" fill="#0FB9B6"/>
<path d="M43.3819 56.6103C43.515 56.6103 43.6439 56.5941 43.7762 56.5907C41.5247 56.4662 39.4099 55.4711 37.8789 53.8157C36.3478 52.1604 35.5205 49.9745 35.5718 47.7202C35.6231 45.4659 36.549 43.3199 38.1538 41.7359C39.7586 40.1519 41.9165 39.2541 44.1712 39.2322H33.8374C32.4881 39.2319 31.1575 39.5475 29.9522 40.1538V43.2019C29.9507 44.9649 30.2972 46.7109 30.9719 48.3397C31.6465 49.9686 32.636 51.4482 33.8837 52.6939C35.1313 53.9395 36.6125 54.9267 38.2425 55.5988C39.8724 56.2708 41.6189 56.6146 43.3819 56.6103V56.6103Z" fill="url(#paint5_linear_433_14483)" fill-opacity="0.49"/>
<path d="M43.3819 56.6103C43.515 56.6103 43.6439 56.5941 43.7762 56.5907C41.5247 56.4662 39.4099 55.4711 37.8789 53.8157C36.3478 52.1604 35.5205 49.9745 35.5718 47.7202C35.6231 45.4659 36.549 43.3199 38.1538 41.7359C39.7586 40.1519 41.9165 39.2541 44.1712 39.2322H33.8374C32.4881 39.2319 31.1575 39.5475 29.9522 40.1538V43.2019C29.9507 44.9649 30.2972 46.7109 30.9719 48.3397C31.6465 49.9686 32.636 51.4482 33.8837 52.6939C35.1313 53.9395 36.6125 54.9267 38.2425 55.5988C39.8724 56.2708 41.6189 56.6146 43.3819 56.6103V56.6103Z" fill="url(#paint6_linear_433_14483)"/>
<path d="M53.5898 47.9191C53.5886 45.6149 52.6726 43.4055 51.043 41.7766C49.4134 40.1476 47.2036 39.2324 44.8994 39.2322H44.1715C41.9168 39.2541 39.7589 40.1519 38.1541 41.7359C36.5493 43.3199 35.6234 45.4659 35.5721 47.7202C35.5208 49.9745 36.3481 52.1604 37.8792 53.8157C39.4102 55.4711 41.525 56.4662 43.7764 56.5907C46.1685 56.5254 48.499 55.818 50.5237 54.5427C51.4857 53.728 52.2584 52.7133 52.788 51.5694C53.3175 50.4254 53.5911 49.1797 53.5898 47.9191V47.9191Z" fill="url(#paint7_linear_433_14483)" fill-opacity="0.49"/>
<path d="M53.5898 47.9191C53.5886 45.6149 52.6726 43.4055 51.043 41.7766C49.4134 40.1476 47.2036 39.2324 44.8994 39.2322H44.1715C41.9168 39.2541 39.7589 40.1519 38.1541 41.7359C36.5493 43.3199 35.6234 45.4659 35.5721 47.7202C35.5208 49.9745 36.3481 52.1604 37.8792 53.8157C39.4102 55.4711 41.525 56.4662 43.7764 56.5907C46.1685 56.5254 48.499 55.818 50.5237 54.5427C51.4857 53.728 52.2584 52.7133 52.788 51.5694C53.3175 50.4254 53.5911 49.1797 53.5898 47.9191V47.9191Z" fill="url(#paint8_linear_433_14483)"/>
</g>
<defs>
<linearGradient id="paint0_linear_433_14483" x1="56.4616" y1="46.8832" x2="51.8374" y2="46.8832" gradientUnits="userSpaceOnUse">
<stop stop-color="#00BCC3"/>
<stop offset="1" stop-color="#00D8DA"/>
</linearGradient>
<linearGradient id="paint1_linear_433_14483" x1="34.6845" y1="35.3135" x2="34.6939" y2="35.1035" gradientUnits="userSpaceOnUse">
<stop stop-color="#2400A7"/>
<stop offset="1" stop-color="#2400A7" stop-opacity="0"/>
</linearGradient>
<linearGradient id="paint2_linear_433_14483" x1="22.0485" y1="9.35597" x2="22.0485" y2="32.815" gradientUnits="userSpaceOnUse">
<stop stop-color="#0088DB"/>
<stop offset="1" stop-color="#00FFFE"/>
</linearGradient>
<linearGradient id="paint3_linear_433_14483" x1="28.4163" y1="30.9504" x2="28.419" y2="30.9498" gradientUnits="userSpaceOnUse">
<stop stop-color="#2400A7"/>
<stop offset="1" stop-color="#2400A7" stop-opacity="0"/>
</linearGradient>
<linearGradient id="paint4_linear_433_14483" x1="26.5624" y1="48.3814" x2="35.0044" y2="48.3814" gradientUnits="userSpaceOnUse">
<stop stop-color="#0DBBB8"/>
<stop offset="1" stop-color="#1FFCFC"/>
</linearGradient>
<linearGradient id="paint5_linear_433_14483" x1="-18399.3" y1="-5844.87" x2="-18145.6" y2="-5844.87" gradientUnits="userSpaceOnUse">
<stop stop-color="#2400A7"/>
<stop offset="1" stop-color="#2400A7" stop-opacity="0"/>
</linearGradient>
<linearGradient id="paint6_linear_433_14483" x1="31.8781" y1="47.9191" x2="37.6748" y2="47.9191" gradientUnits="userSpaceOnUse">
<stop stop-color="#00C8D9"/>
<stop offset="1" stop-color="#00BBEB"/>
</linearGradient>
<linearGradient id="paint7_linear_433_14483" x1="-18264.6" y1="-7515.03" x2="-17941.9" y2="-7515.03" gradientUnits="userSpaceOnUse">
<stop stop-color="#2400A7"/>
<stop offset="1" stop-color="#2400A7" stop-opacity="0"/>
</linearGradient>
<linearGradient id="paint8_linear_433_14483" x1="38.0796" y1="47.9089" x2="50.0416" y2="47.9089" gradientUnits="userSpaceOnUse">
<stop stop-color="#00CADE"/>
<stop offset="1" stop-color="#00D8DA"/>
</linearGradient>
<clipPath id="clip0_433_14483">
<rect width="64" height="48.64" fill="white" transform="translate(0 8)"/>
</clipPath>
</defs>
</svg>
