<svg width="64" height="64" viewBox="0 0 64 64" fill="none" xmlns="http://www.w3.org/2000/svg">
<g clip-path="url(#clip0_433_14832)">
<path d="M5.20131 55.2256C3.98889 55.2256 2.82613 54.7439 1.96882 53.8866C1.11151 53.0293 0.629884 51.8665 0.629884 50.6541V23.7138C0.629502 23.0992 0.753204 22.491 0.993575 21.9254C1.23395 21.3598 1.58603 20.8486 2.02874 20.4224L12.0859 10.7373C12.9384 9.91714 14.0754 9.45898 15.2585 9.45898C16.4415 9.45898 17.5785 9.91714 18.431 10.7373L28.4882 20.4224C28.9309 20.8486 29.283 21.3598 29.5233 21.9254C29.7637 22.491 29.8874 23.0992 29.887 23.7138V50.6541C29.887 51.8665 29.4054 53.0293 28.5481 53.8866C27.6908 54.7439 26.528 55.2256 25.3156 55.2256H5.20131Z" fill="url(#paint0_linear_433_14832)"/>
<path d="M39.0299 55.2256C37.8175 55.2256 36.6547 54.7439 35.7974 53.8866C34.9401 53.0293 34.4585 51.8665 34.4585 50.6541V23.7138C34.4581 23.0992 34.5818 22.491 34.8222 21.9254C35.0626 21.3598 35.4147 20.8486 35.8574 20.4224L45.9145 10.7373C46.767 9.91714 47.9041 9.45898 49.0871 9.45898C50.2701 9.45898 51.4071 9.91714 52.2596 10.7373L62.3168 20.4224C62.7595 20.8486 63.1116 21.3598 63.352 21.9254C63.5923 22.491 63.716 23.0992 63.7156 23.7138V50.6541C63.7156 51.8665 63.234 53.0293 62.3767 53.8866C61.5194 54.7439 60.3566 55.2256 59.1442 55.2256H39.0299Z" fill="url(#paint1_linear_433_14832)"/>
<path d="M45.0093 19.1442L34.9522 9.08704C34.0934 8.22947 32.9293 7.7478 31.7156 7.7478C30.5019 7.7478 29.3379 8.22947 28.479 9.08704L22.709 14.8571L28.4882 20.4224C28.9309 20.8486 29.283 21.3598 29.5234 21.9254C29.7637 22.491 29.8874 23.0992 29.887 23.7138V50.6541C29.887 51.8665 29.4054 53.0293 28.5481 53.8866C27.6908 54.7439 26.528 55.2256 25.3156 55.2256H41.7728C42.9852 55.2256 44.1479 54.7439 45.0052 53.8866C45.8626 53.0293 46.3442 51.8665 46.3442 50.6541V22.3771C46.3426 21.1657 45.8629 20.0038 45.0093 19.1442V19.1442Z" fill="url(#paint2_linear_433_14832)"/>
<path d="M29.8869 50.6542V23.7139C29.8873 23.0993 29.7636 22.491 29.5232 21.9255C29.2829 21.3599 28.9308 20.8487 28.4881 20.4224L22.7089 14.8572L18.4218 19.1452C17.5682 20.0048 17.0885 21.1667 17.0869 22.3781V50.6542C17.0869 51.8666 17.5685 53.0294 18.4259 53.8867C19.2832 54.744 20.4459 55.2256 21.6583 55.2256H25.3155C26.5279 55.2256 27.6907 54.744 28.548 53.8867C29.4053 53.0294 29.8869 51.8666 29.8869 50.6542V50.6542Z" fill="url(#paint3_linear_433_14832)"/>
<path d="M29.8869 50.6542V23.7139C29.8873 23.0993 29.7636 22.491 29.5232 21.9255C29.2829 21.3599 28.9308 20.8487 28.4881 20.4224L22.7089 14.8572L18.4218 19.1452C17.5682 20.0048 17.0885 21.1667 17.0869 22.3781V50.6542C17.0869 51.8666 17.5685 53.0294 18.4259 53.8867C19.2832 54.744 20.4459 55.2256 21.6583 55.2256H25.3155C26.5279 55.2256 27.6907 54.744 28.548 53.8867C29.4053 53.0294 29.8869 51.8666 29.8869 50.6542V50.6542Z" fill="url(#paint4_linear_433_14832)"/>
</g>
<defs>
<linearGradient id="paint0_linear_433_14832" x1="15.2585" y1="13.2644" x2="15.2585" y2="50.7794" gradientUnits="userSpaceOnUse">
<stop stop-color="#FFFD25"/>
<stop offset="1" stop-color="#FFFD25"/>
</linearGradient>
<linearGradient id="paint1_linear_433_14832" x1="49.0871" y1="9.8843" x2="49.0871" y2="55.2265" gradientUnits="userSpaceOnUse">
<stop stop-color="#FFC819"/>
<stop offset="1" stop-color="#FFC81D" stop-opacity="0"/>
</linearGradient>
<linearGradient id="paint2_linear_433_14832" x1="34.527" y1="53.1794" x2="34.527" y2="13.7014" gradientUnits="userSpaceOnUse">
<stop stop-color="#29F9EF"/>
<stop offset="1" stop-color="#F8C819"/>
</linearGradient>
<linearGradient id="paint3_linear_433_14832" x1="512.306" y1="2897.77" x2="512.306" y2="1154.7" gradientUnits="userSpaceOnUse">
<stop stop-color="#29F9EF"/>
<stop offset="1" stop-color="#F8C819"/>
</linearGradient>
<linearGradient id="paint4_linear_433_14832" x1="23.4869" y1="13.2645" x2="23.4869" y2="50.7795" gradientUnits="userSpaceOnUse">
<stop offset="0.216" stop-color="#C7D42E"/>
<stop offset="1" stop-color="#25FC7C"/>
</linearGradient>
<clipPath id="clip0_433_14832">
<rect width="64" height="47.5429" fill="white" transform="translate(0 8)"/>
</clipPath>
</defs>
</svg>
