<svg width="580" height="129" viewBox="0 0 580 129" fill="none" xmlns="http://www.w3.org/2000/svg">
<g clip-path="url(#clip0_1_27)">
<path d="M186.878 53.8323C184.346 57.2645 180.109 63.2312 177.531 66.7162C176.222 68.4884 173.858 71.706 181.695 71.706C189.987 71.706 222.956 71.706 222.956 71.706C222.956 71.706 229.606 62.6504 235.181 55.0765C242.764 44.7734 235.837 23.3356 208.726 23.3356C184.461 23.3356 101.959 23.3356 101.959 23.3356L83.4463 48.5125C83.4463 48.5125 179.417 48.5125 184.342 48.5125C189.436 48.5125 189.367 50.453 186.878 53.8323ZM156.566 77.9169C148.729 77.9169 151.093 74.6927 152.402 72.9205C154.98 69.4355 159.286 63.5315 161.818 60.0993C164.31 56.72 164.376 54.7795 159.276 54.7795C154.353 54.7795 113.132 54.7795 113.132 54.7795L75.9524 105.358C75.9524 105.358 142.356 105.358 166.621 105.358C196.567 105.358 213.24 84.9693 218.38 77.9202C218.38 77.9169 164.854 77.9169 156.566 77.9169ZM215.548 105.358H268.737L288.901 77.9136L235.718 77.9202C235.702 77.9169 215.548 105.358 215.548 105.358ZM352.782 23.3356L332.381 51.0734H308.643L329.035 23.3356H275.862L240.288 71.706H370.385L405.949 23.3356H352.782ZM292.475 105.358H345.644L365.818 77.9202H312.649C312.629 77.9169 292.475 105.358 292.475 105.358ZM0.0571289 88.7414V94.5695H74.1325L78.4119 88.7414H0.0571289ZM86.374 77.9169H0.0571289V83.7384H82.0847L86.374 77.9169ZM0.0571289 105.358H66.1968L70.4564 99.5627H0.0571289V105.358ZM501.428 94.5662H579.486V88.7381H505.714L501.428 94.5662ZM493.499 105.358H579.486V99.5627H497.755L493.499 105.358ZM513.663 77.9169L509.386 83.745H579.486V77.9169H513.663ZM444.018 71.706L479.589 23.3356H423.274C423.254 23.3356 387.677 71.706 387.677 71.706H444.018ZM383.117 77.9169C383.117 77.9169 379.23 83.2335 377.341 85.7944C370.665 94.8236 376.57 105.358 398.362 105.358C423.538 105.358 483.756 105.358 483.756 105.358L503.93 77.9202H383.117V77.9169Z" fill="#D50029"/>
</g>
<defs>
<clipPath id="clip0_1_27">
<rect width="579.429" height="128" fill="white" transform="translate(0.0571289 0.349976)"/>
</clipPath>
</defs>
</svg>
