<svg width="64" height="64" viewBox="0 0 64 64" fill="none" xmlns="http://www.w3.org/2000/svg">
<g clip-path="url(#clip0_433_14849)">
<path d="M29.9443 27.7334C27.5841 27.336 25.441 26.1155 23.8951 24.2883C22.3493 22.4611 21.5006 20.1454 21.4998 17.752V0.453369C17.4981 2.38458 14.096 5.36634 11.6567 9.08028C9.21746 12.7942 7.83264 17.1009 7.65011 21.5405C7.46758 25.9801 8.49419 30.3859 10.6203 34.2876C12.7465 38.1892 15.8924 41.4402 19.722 43.6934V39.9689C19.7241 37.0554 20.7484 34.235 22.6163 31.9991C24.4843 29.7632 27.0776 28.2536 29.9443 27.7334V27.7334Z" fill="#FFC612"/>
<path d="M56.7014 22.553C56.7028 17.7386 55.2876 13.0303 52.6322 9.01448C49.9768 4.99866 46.1985 1.85287 41.7681 -0.0310059V17.753C41.7669 20.0613 40.9777 22.3001 39.531 24.0988C38.0843 25.8976 36.0669 27.1485 33.8125 27.6445C36.8001 28.0417 39.542 29.5101 41.5284 31.7767C43.5149 34.0434 44.6108 36.9542 44.6125 39.9681V43.6925C48.2943 41.5272 51.3466 38.4376 53.467 34.7297C55.5874 31.0218 56.7023 26.8243 56.7014 22.553V22.553Z" fill="#FFC612"/>
<path d="M19.7236 43.6934V63.9689H44.6125V43.6934C40.8415 45.9148 36.5447 47.0863 32.1681 47.0863C27.7915 47.0863 23.4946 45.9148 19.7236 43.6934V43.6934Z" fill="url(#paint0_linear_433_14849)"/>
<path d="M33.8125 27.6445C32.0557 27.4089 30.2689 27.5517 28.5717 28.0631C26.8746 28.5746 25.3064 29.4429 23.9722 30.6099C22.6381 31.7768 21.5688 33.2156 20.836 34.8295C20.1033 36.4435 19.724 38.1955 19.7236 39.968V43.6925C23.4946 45.9138 27.7915 47.0854 32.1681 47.0854C36.5447 47.0854 40.8415 45.9138 44.6125 43.6925V39.968C44.6108 36.9541 43.5149 34.0433 41.5284 31.7766C39.542 29.51 36.8002 28.0416 33.8125 27.6445V27.6445Z" fill="#82D44A"/>
</g>
<defs>
<linearGradient id="paint0_linear_433_14849" x1="32.1681" y1="62.0258" x2="32.1681" y2="46.88" gradientUnits="userSpaceOnUse">
<stop stop-color="#1FFBFA"/>
<stop offset="1" stop-color="#63EBB3"/>
</linearGradient>
<clipPath id="clip0_433_14849">
<rect width="48.8889" height="64" fill="white" transform="translate(8)"/>
</clipPath>
</defs>
</svg>
