<svg width="70" height="70" viewBox="0 0 70 70" fill="none" xmlns="http://www.w3.org/2000/svg">
<g clip-path="url(#clip0)">
<path d="M26.3874 49.8376L22.1361 47.3455L26.0209 48.5915L30.2722 51.0104L26.3874 49.8376Z" fill="#0A7D7B"/>
<path d="M21.623 48.2985L17.3717 45.8796L22.1361 47.3456L26.3874 49.8378L21.623 48.2985Z" fill="#0A7D7B"/>
<path d="M18.2513 47.1989L14 44.78L17.3717 45.8795L21.623 48.2984L18.2513 47.1989Z" fill="#0A7D7B"/>
<path d="M7.40317 62.2984L3.22516 59.8063L21.11 49.4712L25.288 51.9633L7.40317 62.2984Z" fill="#0D9F9D"/>
<path d="M13.7801 53.6492L9.52881 51.2304L21.11 49.4712L25.288 51.9633L13.7801 53.6492Z" fill="#CDCDCD"/>
<path d="M4.17801 66.1098L0 63.6177L1.83246 59.5129L6.01047 62.0051L4.17801 66.1098Z" fill="#0A807E"/>
<path d="M13.7801 53.6493L9.52881 51.2305V45.5132L13.7801 47.932V53.6493Z" fill="#52807B"/>
<path d="M13.7801 47.9319V53.6492L25.288 51.9633L7.40314 62.2984L13.7801 47.9319Z" fill="white"/>
<path d="M7.40317 62.2985L3.22516 59.8064L9.52882 45.5132L13.7801 47.932L7.40317 62.2985Z" fill="#B1B1B1"/>
<path d="M13.7801 47.932L9.52881 45.5132L21.11 49.4713L25.288 51.9634L13.7801 47.932Z" fill="#67A09B"/>
<path d="M26.3874 49.8378L30.2722 51.0838L25.3612 53.9425L7.40311 64.2043L4.17798 66.0367L6.01044 61.932L12.3141 47.6388L13.4136 45.22L14.8795 45.8064L18.2513 47.199L21.623 48.2985L26.3874 49.8378ZM7.40311 62.2985L25.2879 51.9634L13.7068 48.0053L7.40311 62.2985Z" fill="#0FB9B6"/>
<path d="M13.7801 47.9319L25.2879 51.9633L13.7801 53.6492V47.9319Z" fill="#9AEFE7"/>
<path d="M14.8796 45.8063L10.6283 43.3875L14 44.7801L18.2513 47.199L14.8796 45.8063Z" fill="#0A7977"/>
<path d="M6.01047 62.0053L1.83246 59.5132L8.13612 45.22L12.3141 47.6388L6.01047 62.0053Z" fill="#0A807E"/>
<path d="M13.4136 45.2199L9.16229 42.801L10.6283 43.3874L14.8796 45.8063L13.4136 45.2199Z" fill="#0A7977"/>
<path d="M12.3141 47.6387L8.13611 45.2199L9.16229 42.801L13.4136 45.2199L12.3141 47.6387Z" fill="#0A807E"/>
<path d="M32.3979 3H31.8848V14.5079H32.3979V3Z" fill="#0FB9B6"/>
<path d="M40.0942 7.39791H32.3979V3H40.0942L37.1623 5.19895L40.0942 7.39791Z" fill="#9AEFE7"/>
<path d="M52.8482 41.9214L47.644 38.9895L41.0471 27.5549L46.178 30.5602L52.8482 41.9214Z" fill="#085D5B"/>
<path d="M47.5707 27.9947L42.4398 24.9895L42.733 25.0628L47.8639 28.068L47.5707 27.9947Z" fill="#0A7674"/>
<path d="M38.9215 33.6387L33.7906 30.6335L41.0471 27.5549L46.178 30.5602L38.9215 33.6387Z" fill="#D9D9D9"/>
<path d="M42.5864 25.576L37.4555 22.5708L42.4398 24.9896L47.5707 27.9949L42.5864 25.576Z" fill="#0A7674"/>
<path d="M40.9005 27.9947L35.7697 24.9895L41.0471 27.5549L46.178 30.5602L40.9005 27.9947Z" fill="#629994"/>
<path d="M21.9895 59.733L16.8586 56.7277L47.644 38.9895L52.8482 41.9214L21.9895 59.733Z" fill="#0D9F9D"/>
<path d="M38.9215 33.6387L33.7906 30.6335L31.9581 27.8481L37.089 30.8534L38.9215 33.6387Z" fill="#4D7874"/>
<path d="M18.3979 64.2776L13.1937 61.2724L15.0262 56.5813L20.2304 59.5865L18.3979 64.2776Z" fill="#0A7D7B"/>
<path d="M37.089 30.8535L38.9215 33.6388L46.178 30.5603L52.8482 41.9216L21.9896 59.7331L31.4451 35.9111L37.089 30.8535Z" fill="white"/>
<path d="M21.9895 59.733L16.8586 56.7277L26.3141 32.9058L31.445 35.911L21.9895 59.733Z" fill="#ACACAC"/>
<path d="M31.445 35.911L26.3141 32.9057L31.9581 27.8481L37.089 30.8534L31.445 35.911Z" fill="#D7D7D7"/>
<path d="M40.9005 27.9949L35.7696 24.9896L31.8848 18.7593L37.089 21.7645L40.9005 27.9949Z" fill="#085D5B"/>
<path d="M37.089 21.7644L40.9005 27.9948L46.178 30.5602L38.9214 33.6387L37.089 30.8534L31.445 35.911L37.089 21.7644Z" fill="#9AEFE7"/>
<path d="M31.445 35.9111L26.3141 32.9059L31.8848 18.7593L37.089 21.7645L31.445 35.9111Z" fill="#68A19C"/>
<path d="M20.2304 59.5864L15.0262 56.5812L30.1257 18.5393L35.2566 21.5445L20.2304 59.5864Z" fill="#0A7D7B"/>
<path d="M35.2566 21.5445L30.1257 18.5393L32.0314 13.7749L37.1623 16.7801L35.2566 21.5445Z" fill="#0A7D7B"/>
<path d="M54.6807 39.7959L56.2199 42.3614L52.8482 44.2671L21.9896 62.1519L18.3246 64.2776L20.1571 59.5865L35.1833 21.6179L37.089 16.8535L38.8482 19.6389L42.5131 25.576L47.4974 27.9949L47.7906 28.1415L47.9372 28.4347L54.6807 39.7959ZM21.9896 59.7331L52.8482 41.9216L46.1781 30.5603L40.9006 28.0682L37.089 21.8378L31.4451 35.9844L21.9896 59.7331Z" fill="#0FB9B6"/>
<path d="M40.8272 55.1152L35.623 52.11L61.3508 37.3037L66.555 40.3089L40.8272 55.1152Z" fill="#0D9F9D"/>
<path d="M61.0576 37.8168L55.8534 34.8115L61.3508 37.3037L66.555 40.3089L61.0576 37.8168Z" fill="#A4A4A4"/>
<path d="M66.555 40.309L61.3508 37.3037L57.3927 30.9268L62.5236 33.932L66.555 40.309Z" fill="#085D5B"/>
<path d="M58.3455 40.9686L53.1414 37.9634L55.8534 34.8115L61.0576 37.8168L58.3455 40.9686Z" fill="#CFCFCF"/>
<path d="M62.0837 31.8795L56.8795 28.8743L58.4921 27.5549L63.623 30.5602L62.0837 31.8795Z" fill="#0D9D9B"/>
<path d="M58.7854 37.1571L53.5812 34.1519L57.3927 30.9268L62.5236 33.932L58.7854 37.1571Z" fill="#83CBC4"/>
<path d="M58.7854 34.6648L53.5812 31.6596L56.8796 28.8743L62.0838 31.8795L58.7854 34.6648Z" fill="#0D9D9B"/>
<path d="M50.1361 39.6493L44.9319 36.644L53.1413 37.9634L58.3455 40.9686L50.1361 39.6493Z" fill="#B8B8B8"/>
<path d="M50.1361 39.6492L44.9319 36.644L53.5811 34.1519L58.7853 37.1571L50.1361 39.6492Z" fill="#80C7C0"/>
<path d="M50.1361 39.6491L58.3455 40.9685L61.0576 37.8167L66.555 40.3088L40.8272 55.1151L50.1361 39.6491Z" fill="white"/>
<path d="M40.8272 55.1152L35.623 52.11L44.9319 36.644L50.1361 39.6493L40.8272 55.1152Z" fill="#BFBFBF"/>
<path d="M68.3874 38.11L70 40.6754L66.555 42.6545L40.8272 57.5341L35.5497 60.5393L39.3613 54.2356L48.6702 38.7697L49.4764 37.377L50.5759 37.0838L58.712 34.7383L62.0105 31.9529L63.5497 30.6335L64.2827 31.8063L68.3874 38.11ZM40.8272 55.1152L66.555 40.3089L62.5969 33.932L58.8586 37.1571L50.1361 39.6492L40.8272 55.1152Z" fill="#0FB9B6"/>
<path d="M50.1361 39.6492L58.7853 37.157L62.5235 33.9319L66.555 40.3088L61.0576 37.8167L58.3455 40.9685L50.1361 39.6492Z" fill="#9AEFE7"/>
<path d="M50.6492 37.0105L45.445 34.0052L53.5811 31.6597L58.7853 34.6649L50.6492 37.0105Z" fill="#0C9A98"/>
<path d="M49.5497 37.3769L44.3455 34.3716L45.445 34.0051L50.6492 37.0104L49.5497 37.3769Z" fill="#0C9A98"/>
<path d="M48.6701 38.7695L43.5392 35.7643L44.3455 34.3716L49.5497 37.3768L48.6701 38.7695Z" fill="#0B8B88"/>
<path d="M39.3612 54.2356L34.2303 51.2304L43.5392 35.7644L48.6701 38.7696L39.3612 54.2356Z" fill="#0B8B88"/>
<path d="M35.5497 60.5391L30.4188 57.5339L34.2303 51.2302L39.3612 54.2355L35.5497 60.5391Z" fill="#0B8B88"/>
</g>
<defs>
<clipPath id="clip0">
<rect width="70" height="63.1099" fill="white" transform="translate(0 3)"/>
</clipPath>
</defs>
</svg>
