<svg width="1197" height="751" viewBox="0 0 1197 751" fill="none" xmlns="http://www.w3.org/2000/svg">
<rect width="1197" height="751" rx="16" fill="#3A4B5F"/>
<circle cx="44" cy="44" r="12" fill="#FF5F56"/>
<circle cx="84" cy="44" r="12" fill="#FFBD2E"/>
<circle cx="124" cy="44" r="12" fill="#27C93F"/>
<path d="M37.984 121.672H34.624V137H37.984V121.672ZM36.288 114.008C34.96 114.008 33.952 115.048 33.952 116.376C33.952 117.704 34.96 118.712 36.288 118.712C37.616 118.712 38.656 117.704 38.656 116.376C38.656 115.048 37.616 114.008 36.288 114.008ZM62.1458 121.272C60.2418 121.272 57.8738 121.816 56.5458 124.008C55.4898 122.312 53.5858 121.272 51.2498 121.272C49.6818 121.272 47.7778 121.736 46.5458 123.544V121.672H43.2178V137H46.5778V128.504C46.5778 125.88 48.3858 124.456 50.5458 124.456C52.7858 124.456 54.1138 125.896 54.1138 128.472V137H57.4738V128.504C57.4738 125.88 59.2818 124.456 61.4418 124.456C63.6818 124.456 65.0098 125.896 65.0098 128.472V137H68.3698V127.368C68.3698 123.784 65.7938 121.272 62.1458 121.272ZM81.6118 121.272C79.4358 121.272 77.8678 122.152 76.8118 123.496V121.672H73.4678V143.4H76.8118V135.176C77.8678 136.52 79.4358 137.4 81.6118 137.4C85.8998 137.4 89.2758 134.024 89.2758 129.336C89.2758 124.648 85.8998 121.272 81.6118 121.272ZM81.2118 124.424C84.0918 124.424 85.8358 126.648 85.8358 129.336C85.8358 132.024 84.0918 134.248 81.2118 134.248C78.4438 134.248 76.5878 132.136 76.5878 129.336C76.5878 126.536 78.4438 124.424 81.2118 124.424ZM100.541 121.272C95.8053 121.272 92.3013 124.744 92.3013 129.336C92.3013 133.928 95.8053 137.4 100.541 137.4C105.277 137.4 108.797 133.928 108.797 129.336C108.797 124.744 105.277 121.272 100.541 121.272ZM100.541 124.424C103.277 124.424 105.357 126.44 105.357 129.336C105.357 132.232 103.277 134.248 100.541 134.248C97.8053 134.248 95.7413 132.232 95.7413 129.336C95.7413 126.44 97.8053 124.424 100.541 124.424ZM120.697 121.272C118.825 121.272 117.257 121.944 116.249 123.4V121.672H112.937V137H116.281V128.568C116.281 125.96 117.801 124.456 119.929 124.456C120.745 124.456 121.769 124.648 122.473 125.016L123.273 121.704C122.505 121.4 121.721 121.272 120.697 121.272ZM137.447 121.672H131.575V117.032H128.215V121.672H125.159V124.712H128.215V131.448C128.215 135.528 130.247 137.4 133.719 137.4C135.639 137.4 137.191 136.712 138.423 135.88L137.095 133.208C136.183 133.784 135.047 134.248 134.007 134.248C132.663 134.248 131.575 133.448 131.575 131.384V124.712H137.447V121.672ZM44.464 285.672H39.216V283.08C39.216 281.56 39.92 280.712 41.216 280.712C42.224 280.712 43.296 281.08 44.08 281.528L45.264 278.712C44.128 278.04 42.784 277.56 40.992 277.56C37.408 277.56 35.856 280.008 35.856 283.08V285.672H32.784V288.712H35.856V301H39.216V288.712H44.464V285.672ZM61.922 285.672H58.562V294.2C58.562 297.16 56.914 298.248 54.818 298.248C52.722 298.248 51.074 297.16 51.074 294.2V285.672H47.714V294.504C47.714 299.384 51.218 301.4 54.818 301.4C58.402 301.4 61.922 299.384 61.922 294.504V285.672ZM75.031 285.272C73.463 285.272 71.559 285.736 70.327 287.544V285.672H66.999V301H70.359V292.504C70.359 289.88 72.167 288.456 74.327 288.456C76.567 288.456 77.895 289.896 77.895 292.472V301H81.255V291.368C81.255 287.784 78.679 285.272 75.031 285.272ZM93.3028 285.272C88.4227 285.272 85.2388 288.744 85.2388 293.336C85.2388 297.928 88.4227 301.4 93.3028 301.4C95.5908 301.4 97.6388 300.568 99.0308 298.952L96.9668 296.648C95.9908 297.56 94.6788 298.248 93.2068 298.248C90.6308 298.248 88.6788 296.232 88.6788 293.336C88.6788 290.44 90.6308 288.424 93.2068 288.424C94.6788 288.424 95.8148 289 96.8868 290.008L99.0308 287.72C97.6708 286.104 95.5908 285.272 93.3028 285.272ZM72.484 408.672H69.124V424H72.484V408.672ZM70.788 401.008C69.46 401.008 68.452 402.048 68.452 403.376C68.452 404.704 69.46 405.712 70.788 405.712C72.116 405.712 73.156 404.704 73.156 403.376C73.156 402.048 72.116 401.008 70.788 401.008ZM87.5578 408.672H82.3098V406.08C82.3098 404.56 83.0138 403.712 84.3098 403.712C85.3178 403.712 86.3898 404.08 87.1738 404.528L88.3578 401.712C87.2218 401.04 85.8778 400.56 84.0858 400.56C80.5018 400.56 78.9498 403.008 78.9498 406.08V408.672H75.8778V411.712H78.9498V424H82.3098V411.712H87.5578V408.672ZM72.484 572.672H69.124V588H72.484V572.672ZM70.788 565.008C69.46 565.008 68.452 566.048 68.452 567.376C68.452 568.704 69.46 569.712 70.788 569.712C72.116 569.712 73.156 568.704 73.156 567.376C73.156 566.048 72.116 565.008 70.788 565.008ZM87.5578 572.672H82.3098V570.08C82.3098 568.56 83.0138 567.712 84.3098 567.712C85.3178 567.712 86.3898 568.08 87.1738 568.528L88.3578 565.712C87.2218 565.04 85.8778 564.56 84.0858 564.56C80.5018 564.56 78.9498 567.008 78.9498 570.08V572.672H75.8778V575.712H78.9498V588H82.3098V575.712H87.5578V572.672Z" fill="#F04649"/>
<path d="M184.606 113.944C179.182 116.2 175.598 121.512 175.598 127.912C175.598 134.312 179.182 139.624 184.606 141.88L185.79 138.792C181.63 136.872 179.198 132.6 179.198 127.912C179.198 123.224 181.63 118.952 185.79 117.032L184.606 113.944ZM34.4 223.848C39.824 221.592 43.408 216.28 43.408 209.88C43.408 203.48 39.824 198.168 34.4 195.912L33.216 199C37.376 200.92 39.808 205.192 39.808 209.88C39.808 214.568 37.376 218.84 33.216 220.76L34.4 223.848ZM130.333 285.272C128.429 285.272 126.061 285.816 124.733 288.008C123.677 286.312 121.773 285.272 119.437 285.272C117.869 285.272 115.965 285.736 114.733 287.544V285.672H111.405V301H114.765V292.504C114.765 289.88 116.573 288.456 118.733 288.456C120.973 288.456 122.301 289.896 122.301 292.472V301H125.661V292.504C125.661 289.88 127.469 288.456 129.629 288.456C131.869 288.456 133.197 289.896 133.197 292.472V301H136.557V291.368C136.557 287.784 133.981 285.272 130.333 285.272ZM156.375 285.672H153.031V287.528C151.975 286.168 150.391 285.272 148.215 285.272C143.927 285.272 140.551 288.648 140.551 293.336C140.551 298.024 143.927 301.4 148.215 301.4C150.391 301.4 151.975 300.52 153.031 299.16V301H156.375V285.672ZM148.615 288.424C151.383 288.424 153.239 290.536 153.239 293.336C153.239 296.136 151.383 298.248 148.615 298.248C145.735 298.248 143.991 296.024 143.991 293.336C143.991 290.648 145.735 288.424 148.615 288.424ZM164.984 285.672H161.624V301H164.984V285.672ZM163.288 278.008C161.96 278.008 160.952 279.048 160.952 280.376C160.952 281.704 161.96 282.712 163.288 282.712C164.616 282.712 165.656 281.704 165.656 280.376C165.656 279.048 164.616 278.008 163.288 278.008ZM178.25 285.272C176.682 285.272 174.778 285.736 173.546 287.544V285.672H170.218V301H173.578V292.504C173.578 289.88 175.386 288.456 177.546 288.456C179.786 288.456 181.114 289.896 181.114 292.472V301H184.474V291.368C184.474 287.784 181.898 285.272 178.25 285.272ZM198.138 277.944C192.714 280.2 189.13 285.512 189.13 291.912C189.13 298.312 192.714 303.624 198.138 305.88L199.322 302.792C195.161 300.872 192.73 296.6 192.73 291.912C192.73 287.224 195.161 282.952 199.322 281.032L198.138 277.944ZM202.931 305.848C208.355 303.592 211.939 298.28 211.939 291.88C211.939 285.48 208.355 280.168 202.931 277.912L201.747 281C205.907 282.92 208.339 287.192 208.339 291.88C208.339 296.568 205.907 300.84 201.747 302.76L202.931 305.848ZM235.614 281.704V278.6H234.846C230.222 278.6 227.79 281.224 227.982 285.352L228.062 287.08C228.158 289.16 226.798 290.344 224.574 290.344V293.448C226.798 293.448 228.158 294.632 228.062 296.712L227.982 298.44C227.79 302.568 230.222 305.192 234.846 305.192H235.614V302.088H234.846C232.734 302.088 231.342 300.904 231.438 298.824L231.518 297.096C231.63 294.616 230.51 292.776 228.222 291.896C230.51 291.016 231.63 289.176 231.518 286.696L231.438 284.968C231.342 282.888 232.734 281.704 234.846 281.704H235.614ZM75.684 326.272C71.396 326.272 68.02 329.648 68.02 334.336C68.02 339.024 71.396 342.4 75.684 342.4C77.86 342.4 79.444 341.52 80.5 340.16V342H83.844V318.96H80.5V328.528C79.444 327.168 77.86 326.272 75.684 326.272ZM76.084 329.424C78.852 329.424 80.708 331.536 80.708 334.336C80.708 337.136 78.852 339.248 76.084 339.248C73.204 339.248 71.46 337.024 71.46 334.336C71.46 331.648 73.204 329.424 76.084 329.424ZM95.6208 326.272C91.1088 326.272 87.9888 329.536 87.9888 334.336C87.9888 339.2 91.2368 342.4 95.8288 342.4C98.1488 342.4 100.261 341.84 102.133 340.24L100.469 337.856C99.2048 338.864 97.5728 339.472 96.0368 339.472C93.8608 339.472 91.9248 338.32 91.4768 335.568H102.805C102.837 335.184 102.869 334.752 102.869 334.32C102.853 329.536 99.9088 326.272 95.6208 326.272ZM95.5568 329.248C97.6848 329.248 99.0768 330.64 99.4448 333.024H91.4928C91.8448 330.784 93.1728 329.248 95.5568 329.248ZM120.843 326.672H117.291L112.763 338.528L108.235 326.672H104.587L110.747 342H114.715L120.843 326.672ZM122.73 337.664L121.85 346.384H124.73L126.65 337.664H122.73ZM146.121 326.272C141.609 326.272 138.489 329.536 138.489 334.336C138.489 339.2 141.737 342.4 146.329 342.4C148.649 342.4 150.761 341.84 152.633 340.24L150.969 337.856C149.705 338.864 148.073 339.472 146.537 339.472C144.361 339.472 142.425 338.32 141.977 335.568H153.305C153.337 335.184 153.369 334.752 153.369 334.32C153.353 329.536 150.409 326.272 146.121 326.272ZM146.057 329.248C148.185 329.248 149.577 330.64 149.945 333.024H141.993C142.345 330.784 143.673 329.248 146.057 329.248ZM165.259 326.272C163.387 326.272 161.819 326.944 160.811 328.4V326.672H157.499V342H160.843V333.568C160.843 330.96 162.363 329.456 164.491 329.456C165.307 329.456 166.331 329.648 167.035 330.016L167.835 326.704C167.067 326.4 166.283 326.272 165.259 326.272ZM179.009 326.272C177.137 326.272 175.569 326.944 174.561 328.4V326.672H171.249V342H174.593V333.568C174.593 330.96 176.113 329.456 178.241 329.456C179.057 329.456 180.081 329.648 180.785 330.016L181.585 326.704C180.817 326.4 180.033 326.272 179.009 326.272ZM194.928 326.272C193.44 326.272 192.128 327.552 192.128 329.056C192.128 330.56 193.44 331.872 194.928 331.872C196.416 331.872 197.712 330.56 197.712 329.056C197.712 327.552 196.416 326.272 194.928 326.272ZM194.928 336.8C193.44 336.8 192.128 338.08 192.128 339.584C192.128 341.088 193.44 342.4 194.928 342.4C196.416 342.4 197.712 341.088 197.712 339.584C197.712 338.08 196.416 336.8 194.928 336.8ZM243.145 326.672H239.193L235.433 331.792L231.705 326.672H227.593L233.273 334.176L227.497 342H231.417L235.257 336.672L239.145 342H243.257L237.481 334.144L243.145 326.672ZM252.308 326.272C247.796 326.272 244.676 329.536 244.676 334.336C244.676 339.2 247.924 342.4 252.516 342.4C254.836 342.4 256.948 341.84 258.82 340.24L257.156 337.856C255.892 338.864 254.26 339.472 252.724 339.472C250.548 339.472 248.612 338.32 248.164 335.568H259.492C259.524 335.184 259.556 334.752 259.556 334.32C259.54 329.536 256.596 326.272 252.308 326.272ZM252.244 329.248C254.372 329.248 255.764 330.64 256.132 333.024H248.18C248.532 330.784 249.86 329.248 252.244 329.248ZM271.719 326.272C270.151 326.272 268.247 326.736 267.015 328.544V326.672H263.687V342H267.047V333.504C267.047 330.88 268.855 329.456 271.015 329.456C273.255 329.456 274.583 330.896 274.583 333.472V342H277.943V332.368C277.943 328.784 275.367 326.272 271.719 326.272ZM290.166 326.272C285.43 326.272 281.926 329.744 281.926 334.336C281.926 338.928 285.43 342.4 290.166 342.4C294.902 342.4 298.422 338.928 298.422 334.336C298.422 329.744 294.902 326.272 290.166 326.272ZM290.166 329.424C292.902 329.424 294.982 331.44 294.982 334.336C294.982 337.232 292.902 339.248 290.166 339.248C287.43 339.248 285.366 337.232 285.366 334.336C285.366 331.44 287.43 329.424 290.166 329.424ZM310.594 326.272C309.026 326.272 307.122 326.736 305.89 328.544V326.672H302.562V342H305.922V333.504C305.922 330.88 307.73 329.456 309.89 329.456C312.13 329.456 313.458 330.896 313.458 333.472V342H316.818V332.368C316.818 328.784 314.242 326.272 310.594 326.272ZM323.521 336.8C322.033 336.8 320.721 338.08 320.721 339.584C320.721 341.088 322.033 342.4 323.521 342.4C325.009 342.4 326.305 341.088 326.305 339.584C326.305 338.08 325.009 336.8 323.521 336.8ZM336.218 326.272C332.714 326.272 329.114 329.216 329.114 334.176C329.114 339.136 332.714 342.08 336.218 342.08C338.442 342.08 340.17 341.312 341.322 339.84V341.072C341.322 343.92 339.594 345.648 336.458 345.648C334.586 345.648 332.81 345.04 331.258 344.096L330.042 346.928C331.658 348.08 334.17 348.704 336.458 348.704C341.578 348.704 344.682 345.744 344.682 340.928V326.672H341.322V328.512C340.17 327.056 338.442 326.272 336.218 326.272ZM337.082 329.424C339.786 329.424 341.61 331.488 341.61 334.176C341.61 336.864 339.786 338.928 337.082 338.928C334.25 338.928 332.554 336.752 332.554 334.176C332.554 331.584 334.25 329.424 337.082 329.424ZM356.465 326.272C351.953 326.272 348.833 329.536 348.833 334.336C348.833 339.2 352.081 342.4 356.673 342.4C358.993 342.4 361.105 341.84 362.977 340.24L361.313 337.856C360.049 338.864 358.417 339.472 356.881 339.472C354.705 339.472 352.769 338.32 352.321 335.568H363.649C363.681 335.184 363.713 334.752 363.713 334.32C363.697 329.536 360.753 326.272 356.465 326.272ZM356.401 329.248C358.529 329.248 359.921 330.64 360.289 333.024H352.337C352.689 330.784 354.017 329.248 356.401 329.248ZM378.135 326.672H372.263V322.032H368.903V326.672H365.847V329.712H368.903V336.448C368.903 340.528 370.935 342.4 374.407 342.4C376.327 342.4 377.879 341.712 379.111 340.88L377.783 338.208C376.871 338.784 375.735 339.248 374.695 339.248C373.351 339.248 372.263 338.448 372.263 336.384V329.712H378.135V326.672ZM382.634 319.6V342H391.53C398.538 342 403.162 337.552 403.162 330.8C403.162 324.048 398.538 319.6 391.53 319.6H382.634ZM391.53 323.024C396.794 323.024 399.37 326.24 399.37 330.8C399.37 335.312 396.794 338.576 391.53 338.576H386.25V323.024H391.53ZM414.152 326.272C409.64 326.272 406.52 329.536 406.52 334.336C406.52 339.2 409.768 342.4 414.36 342.4C416.68 342.4 418.792 341.84 420.664 340.24L419 337.856C417.736 338.864 416.104 339.472 414.568 339.472C412.392 339.472 410.456 338.32 410.008 335.568H421.336C421.368 335.184 421.4 334.752 421.4 334.32C421.384 329.536 418.44 326.272 414.152 326.272ZM414.088 329.248C416.216 329.248 417.608 330.64 417.976 333.024H410.024C410.376 330.784 411.704 329.248 414.088 329.248ZM439.374 326.672H435.822L431.294 338.528L426.766 326.672H423.118L429.278 342H433.246L439.374 326.672ZM445.734 326.672H442.374V342H445.734V326.672ZM444.038 319.008C442.71 319.008 441.702 320.048 441.702 321.376C441.702 322.704 442.71 323.712 444.038 323.712C445.366 323.712 446.406 322.704 446.406 321.376C446.406 320.048 445.366 319.008 444.038 319.008ZM457.928 326.272C453.048 326.272 449.864 329.744 449.864 334.336C449.864 338.928 453.048 342.4 457.928 342.4C460.216 342.4 462.264 341.568 463.656 339.952L461.592 337.648C460.616 338.56 459.304 339.248 457.832 339.248C455.256 339.248 453.304 337.232 453.304 334.336C453.304 331.44 455.256 329.424 457.832 329.424C459.304 329.424 460.44 330 461.512 331.008L463.656 328.72C462.296 327.104 460.216 326.272 457.928 326.272ZM473.621 326.272C469.109 326.272 465.989 329.536 465.989 334.336C465.989 339.2 469.237 342.4 473.829 342.4C476.149 342.4 478.261 341.84 480.133 340.24L478.469 337.856C477.205 338.864 475.573 339.472 474.037 339.472C471.861 339.472 469.925 338.32 469.477 335.568H480.805C480.837 335.184 480.869 334.752 480.869 334.32C480.853 329.536 477.909 326.272 473.621 326.272ZM473.557 329.248C475.685 329.248 477.077 330.64 477.445 333.024H469.493C469.845 330.784 471.173 329.248 473.557 329.248ZM493.575 318.944C488.151 321.2 484.567 326.512 484.567 332.912C484.567 339.312 488.151 344.624 493.575 346.88L494.759 343.792C490.599 341.872 488.167 337.6 488.167 332.912C488.167 328.224 490.599 323.952 494.759 322.032L493.575 318.944ZM1153.37 346.848C1158.79 344.592 1162.38 339.28 1162.38 332.88C1162.38 326.48 1158.79 321.168 1153.37 318.912L1152.18 322C1156.34 323.92 1158.78 328.192 1158.78 332.88C1158.78 337.568 1156.34 341.84 1152.18 343.76L1153.37 346.848ZM106.371 408.272C101.859 408.272 98.7388 411.536 98.7388 416.336C98.7388 421.2 101.987 424.4 106.579 424.4C108.899 424.4 111.011 423.84 112.883 422.24L111.219 419.856C109.955 420.864 108.323 421.472 106.787 421.472C104.611 421.472 102.675 420.32 102.227 417.568H113.555C113.587 417.184 113.619 416.752 113.619 416.32C113.603 411.536 110.659 408.272 106.371 408.272ZM106.307 411.248C108.435 411.248 109.827 412.64 110.195 415.024H102.243C102.595 412.784 103.923 411.248 106.307 411.248ZM125.509 408.272C123.637 408.272 122.069 408.944 121.061 410.4V408.672H117.749V424H121.093V415.568C121.093 412.96 122.613 411.456 124.741 411.456C125.557 411.456 126.581 411.648 127.285 412.016L128.085 408.704C127.317 408.4 126.533 408.272 125.509 408.272ZM139.259 408.272C137.387 408.272 135.819 408.944 134.811 410.4V408.672H131.499V424H134.843V415.568C134.843 412.96 136.363 411.456 138.491 411.456C139.307 411.456 140.331 411.648 141.035 412.016L141.835 408.704C141.067 408.4 140.283 408.272 139.259 408.272ZM245.239 404.704V401.6H244.471C239.847 401.6 237.415 404.224 237.607 408.352L237.687 410.08C237.783 412.16 236.423 413.344 234.199 413.344V416.448C236.423 416.448 237.783 417.632 237.687 419.712L237.607 421.44C237.415 425.568 239.847 428.192 244.471 428.192H245.239V425.088H244.471C242.359 425.088 240.967 423.904 241.063 421.824L241.143 420.096C241.255 417.616 240.135 415.776 237.847 414.896C240.135 414.016 241.255 412.176 241.143 409.696L241.063 407.968C240.967 405.888 242.359 404.704 244.471 404.704H245.239ZM67.716 507.088V510.192H68.484C73.108 510.192 75.54 507.568 75.348 503.44L75.268 501.712C75.172 499.632 76.532 498.448 78.756 498.448V495.344C76.532 495.344 75.172 494.16 75.268 492.08L75.348 490.352C75.54 486.224 73.108 483.6 68.484 483.6H67.716V486.704H68.484C70.596 486.704 71.988 487.888 71.892 489.968L71.812 491.696C71.7 494.176 72.82 496.016 75.108 496.896C72.82 497.776 71.7 499.616 71.812 502.096L71.892 503.824C71.988 505.904 70.596 507.088 68.484 507.088H67.716ZM106.371 572.272C101.859 572.272 98.7388 575.536 98.7388 580.336C98.7388 585.2 101.987 588.4 106.579 588.4C108.899 588.4 111.011 587.84 112.883 586.24L111.219 583.856C109.955 584.864 108.323 585.472 106.787 585.472C104.611 585.472 102.675 584.32 102.227 581.568H113.555C113.587 581.184 113.619 580.752 113.619 580.32C113.603 575.536 110.659 572.272 106.371 572.272ZM106.307 575.248C108.435 575.248 109.827 576.64 110.195 579.024H102.243C102.595 576.784 103.923 575.248 106.307 575.248ZM125.509 572.272C123.637 572.272 122.069 572.944 121.061 574.4V572.672H117.749V588H121.093V579.568C121.093 576.96 122.613 575.456 124.741 575.456C125.557 575.456 126.581 575.648 127.285 576.016L128.085 572.704C127.317 572.4 126.533 572.272 125.509 572.272ZM139.259 572.272C137.387 572.272 135.819 572.944 134.811 574.4V572.672H131.499V588H134.843V579.568C134.843 576.96 136.363 575.456 138.491 575.456C139.307 575.456 140.331 575.648 141.035 576.016L141.835 572.704C141.067 572.4 140.283 572.272 139.259 572.272ZM155.178 572.272C153.69 572.272 152.378 573.552 152.378 575.056C152.378 576.56 153.69 577.872 155.178 577.872C156.666 577.872 157.962 576.56 157.962 575.056C157.962 573.552 156.666 572.272 155.178 572.272ZM155.178 582.8C153.69 582.8 152.378 584.08 152.378 585.584C152.378 587.088 153.69 588.4 155.178 588.4C156.666 588.4 157.962 587.088 157.962 585.584C157.962 584.08 156.666 582.8 155.178 582.8ZM196.403 572.272C192.115 572.272 188.739 575.648 188.739 580.336C188.739 585.024 192.115 588.4 196.403 588.4C198.579 588.4 200.163 587.52 201.219 586.16V588H204.563V564.96H201.219V574.528C200.163 573.168 198.579 572.272 196.403 572.272ZM196.803 575.424C199.571 575.424 201.427 577.536 201.427 580.336C201.427 583.136 199.571 585.248 196.803 585.248C193.923 585.248 192.179 583.024 192.179 580.336C192.179 577.648 193.923 575.424 196.803 575.424ZM216.34 572.272C211.828 572.272 208.708 575.536 208.708 580.336C208.708 585.2 211.956 588.4 216.548 588.4C218.868 588.4 220.98 587.84 222.852 586.24L221.188 583.856C219.924 584.864 218.292 585.472 216.756 585.472C214.58 585.472 212.644 584.32 212.196 581.568H223.524C223.556 581.184 223.588 580.752 223.588 580.32C223.572 575.536 220.628 572.272 216.34 572.272ZM216.276 575.248C218.404 575.248 219.796 576.64 220.164 579.024H212.212C212.564 576.784 213.892 575.248 216.276 575.248ZM241.562 572.672H238.01L233.482 584.528L228.954 572.672H225.306L231.466 588H235.434L241.562 572.672ZM245.209 582.8C243.721 582.8 242.409 584.08 242.409 585.584C242.409 587.088 243.721 588.4 245.209 588.4C246.697 588.4 247.993 587.088 247.993 585.584C247.993 584.08 246.697 582.8 245.209 582.8ZM268.99 567.632C266.734 566.128 264.158 565.216 260.894 565.216C256.046 565.216 252.062 567.712 252.062 572.208C252.062 576.368 255.374 577.936 258.702 578.4L260.446 578.64C263.726 579.088 265.486 579.904 265.486 581.664C265.486 583.728 263.182 584.976 260.254 584.976C257.661 584.976 254.766 583.92 253.23 582.512L251.262 585.392C253.582 587.392 257.23 588.4 260.27 588.4C265.118 588.4 269.246 585.904 269.246 581.344C269.246 577.184 265.662 575.68 262.03 575.184L260.478 574.976C257.566 574.56 255.822 573.84 255.822 571.984C255.822 569.936 257.87 568.64 260.862 568.64C263.134 568.64 265.246 569.344 267.149 570.56L268.99 567.632ZM280.371 572.272C275.859 572.272 272.739 575.536 272.739 580.336C272.739 585.2 275.987 588.4 280.579 588.4C282.899 588.4 285.011 587.84 286.883 586.24L285.219 583.856C283.955 584.864 282.323 585.472 280.787 585.472C278.611 585.472 276.675 584.32 276.227 581.568H287.555C287.587 581.184 287.619 580.752 287.619 580.32C287.603 575.536 284.659 572.272 280.371 572.272ZM280.307 575.248C282.435 575.248 283.827 576.64 284.195 579.024H276.243C276.595 576.784 277.923 575.248 280.307 575.248ZM302.041 572.672H296.169V568.032H292.809V572.672H289.753V575.712H292.809V582.448C292.809 586.528 294.841 588.4 298.313 588.4C300.233 588.4 301.785 587.712 303.017 586.88L301.689 584.208C300.777 584.784 299.641 585.248 298.601 585.248C297.257 585.248 296.169 584.448 296.169 582.384V575.712H302.041V572.672ZM314.7 564.944C309.276 567.2 305.692 572.512 305.692 578.912C305.692 585.312 309.276 590.624 314.7 592.88L315.884 589.792C311.724 587.872 309.292 583.6 309.292 578.912C309.292 574.224 311.724 569.952 315.884 568.032L314.7 564.944ZM333.27 572.672H329.318L325.558 577.792L321.83 572.672H317.718L323.398 580.176L317.622 588H321.542L325.382 582.672L329.27 588H333.382L327.606 580.144L333.27 572.672ZM342.433 572.272C337.921 572.272 334.801 575.536 334.801 580.336C334.801 585.2 338.049 588.4 342.641 588.4C344.961 588.4 347.073 587.84 348.945 586.24L347.281 583.856C346.017 584.864 344.385 585.472 342.849 585.472C340.673 585.472 338.737 584.32 338.289 581.568H349.617C349.649 581.184 349.681 580.752 349.681 580.32C349.665 575.536 346.721 572.272 342.433 572.272ZM342.369 575.248C344.497 575.248 345.889 576.64 346.257 579.024H338.305C338.657 576.784 339.985 575.248 342.369 575.248ZM361.844 572.272C360.276 572.272 358.372 572.736 357.14 574.544V572.672H353.812V588H357.172V579.504C357.172 576.88 358.98 575.456 361.14 575.456C363.38 575.456 364.708 576.896 364.708 579.472V588H368.068V578.368C368.068 574.784 365.492 572.272 361.844 572.272ZM380.291 572.272C375.555 572.272 372.051 575.744 372.051 580.336C372.051 584.928 375.555 588.4 380.291 588.4C385.027 588.4 388.547 584.928 388.547 580.336C388.547 575.744 385.027 572.272 380.291 572.272ZM380.291 575.424C383.027 575.424 385.107 577.44 385.107 580.336C385.107 583.232 383.027 585.248 380.291 585.248C377.555 585.248 375.491 583.232 375.491 580.336C375.491 577.44 377.555 575.424 380.291 575.424ZM400.719 572.272C399.151 572.272 397.247 572.736 396.015 574.544V572.672H392.687V588H396.047V579.504C396.047 576.88 397.855 575.456 400.015 575.456C402.255 575.456 403.583 576.896 403.583 579.472V588H406.943V578.368C406.943 574.784 404.367 572.272 400.719 572.272ZM413.646 582.8C412.158 582.8 410.846 584.08 410.846 585.584C410.846 587.088 412.158 588.4 413.646 588.4C415.134 588.4 416.43 587.088 416.43 585.584C416.43 584.08 415.134 582.8 413.646 582.8ZM429.603 579.2C434.771 579.2 437.539 576.592 437.539 572.4C437.539 568.208 434.771 565.6 429.603 565.6H420.915V588H424.531V579.2H429.603ZM429.507 569.008C432.435 569.008 433.779 570.096 433.779 572.4C433.779 574.704 432.435 575.792 429.507 575.792H424.531V569.008H429.507ZM448.354 572.272C443.618 572.272 440.114 575.744 440.114 580.336C440.114 584.928 443.618 588.4 448.354 588.4C453.09 588.4 456.61 584.928 456.61 580.336C456.61 575.744 453.09 572.272 448.354 572.272ZM448.354 575.424C451.09 575.424 453.17 577.44 453.17 580.336C453.17 583.232 451.09 585.248 448.354 585.248C445.618 585.248 443.554 583.232 443.554 580.336C443.554 577.44 445.618 575.424 448.354 575.424ZM473.421 572.672H469.629L465.853 584.32L462.253 572.672H458.685L463.757 588H467.693L471.485 576.448L475.277 588H479.277L484.349 572.672H480.861L477.245 584.384L473.421 572.672ZM494.058 572.272C489.546 572.272 486.426 575.536 486.426 580.336C486.426 585.2 489.674 588.4 494.266 588.4C496.586 588.4 498.698 587.84 500.57 586.24L498.906 583.856C497.642 584.864 496.01 585.472 494.474 585.472C492.298 585.472 490.362 584.32 489.914 581.568H501.242C501.274 581.184 501.306 580.752 501.306 580.32C501.29 575.536 498.346 572.272 494.058 572.272ZM493.994 575.248C496.122 575.248 497.514 576.64 497.882 579.024H489.93C490.282 576.784 491.61 575.248 493.994 575.248ZM513.197 572.272C511.325 572.272 509.757 572.944 508.749 574.4V572.672H505.437V588H508.781V579.568C508.781 576.96 510.301 575.456 512.429 575.456C513.245 575.456 514.269 575.648 514.973 576.016L515.773 572.704C515.005 572.4 514.221 572.272 513.197 572.272ZM530.115 565.184C523.235 565.184 518.387 570.112 518.387 576.8C518.387 583.488 523.235 588.416 530.115 588.416C534.035 588.416 537.395 586.688 539.299 583.888L536.355 581.728C534.963 583.744 532.771 584.944 530.115 584.944C525.539 584.944 522.179 581.632 522.179 576.8C522.179 571.968 525.539 568.656 530.115 568.656C532.787 568.656 535.01 569.904 536.371 571.888L539.395 569.872C537.635 566.96 534.099 565.184 530.115 565.184ZM550.51 572.272C545.774 572.272 542.27 575.744 542.27 580.336C542.27 584.928 545.774 588.4 550.51 588.4C555.246 588.4 558.766 584.928 558.766 580.336C558.766 575.744 555.246 572.272 550.51 572.272ZM550.51 575.424C553.246 575.424 555.326 577.44 555.326 580.336C555.326 583.232 553.246 585.248 550.51 585.248C547.774 585.248 545.71 583.232 545.71 580.336C545.71 577.44 547.774 575.424 550.51 575.424ZM570.937 572.272C569.369 572.272 567.465 572.736 566.233 574.544V572.672H562.905V588H566.265V579.504C566.265 576.88 568.073 575.456 570.233 575.456C572.473 575.456 573.801 576.896 573.801 579.472V588H577.161V578.368C577.161 574.784 574.585 572.272 570.937 572.272ZM594.121 573.904C592.537 572.88 590.313 572.288 587.913 572.288C584.009 572.288 581.577 574.16 581.577 577.2C581.577 579.664 583.385 581.232 586.777 581.696L588.377 581.904C590.201 582.16 591.033 582.736 591.033 583.6C591.033 584.752 589.833 585.472 587.545 585.472C585.049 585.472 583.593 584.752 582.489 583.904L580.937 586.416C583.177 588.08 585.929 588.384 587.513 588.384C591.929 588.384 594.489 586.32 594.489 583.376C594.489 580.752 592.505 579.328 589.161 578.848L587.577 578.608C586.169 578.4 585.049 578.096 585.049 577.024C585.049 575.936 586.121 575.2 587.945 575.2C589.849 575.2 591.753 575.936 592.681 576.512L594.121 573.904ZM608.885 572.672H603.013V568.032H599.653V572.672H596.597V575.712H599.653V582.448C599.653 586.528 601.685 588.4 605.157 588.4C607.077 588.4 608.629 587.712 609.861 586.88L608.533 584.208C607.621 584.784 606.485 585.248 605.445 585.248C604.101 585.248 603.013 584.448 603.013 582.384V575.712H608.885V572.672ZM620.728 572.272C618.856 572.272 617.288 572.944 616.28 574.4V572.672H612.968V588H616.312V579.568C616.312 576.96 617.832 575.456 619.96 575.456C620.776 575.456 621.8 575.648 622.504 576.016L623.304 572.704C622.536 572.4 621.752 572.272 620.728 572.272ZM640.813 572.672H637.469V574.528C636.413 573.168 634.829 572.272 632.653 572.272C628.365 572.272 624.989 575.648 624.989 580.336C624.989 585.024 628.365 588.4 632.653 588.4C634.829 588.4 636.413 587.52 637.469 586.16V588H640.813V572.672ZM633.053 575.424C635.821 575.424 637.677 577.536 637.677 580.336C637.677 583.136 635.821 585.248 633.053 585.248C630.173 585.248 628.429 583.024 628.429 580.336C628.429 577.648 630.173 575.424 633.053 575.424ZM649.422 572.672H646.062V588H649.422V572.672ZM647.726 565.008C646.398 565.008 645.39 566.048 645.39 567.376C645.39 568.704 646.398 569.712 647.726 569.712C649.054 569.712 650.094 568.704 650.094 567.376C650.094 566.048 649.054 565.008 647.726 565.008ZM662.687 572.272C661.119 572.272 659.215 572.736 657.983 574.544V572.672H654.655V588H658.015V579.504C658.015 576.88 659.823 575.456 661.983 575.456C664.223 575.456 665.551 576.896 665.551 579.472V588H668.911V578.368C668.911 574.784 666.335 572.272 662.687 572.272ZM684.291 572.672H678.419V568.032H675.059V572.672H672.003V575.712H675.059V582.448C675.059 586.528 677.091 588.4 680.563 588.4C682.483 588.4 684.035 587.712 685.267 586.88L683.939 584.208C683.027 584.784 681.891 585.248 680.851 585.248C679.507 585.248 678.419 584.448 678.419 582.384V575.712H684.291V572.672ZM696.95 564.944C691.526 567.2 687.942 572.512 687.942 578.912C687.942 585.312 691.526 590.624 696.95 592.88L698.134 589.792C693.974 587.872 691.542 583.6 691.542 578.912C691.542 574.224 693.974 569.952 698.134 568.032L696.95 564.944ZM788.744 592.848C794.168 590.592 797.752 585.28 797.752 578.88C797.752 572.48 794.168 567.168 788.744 564.912L787.56 568C791.72 569.92 794.152 574.192 794.152 578.88C794.152 583.568 791.72 587.84 787.56 589.76L788.744 592.848ZM802.338 592.848C807.762 590.592 811.346 585.28 811.346 578.88C811.346 572.48 807.762 567.168 802.338 564.912L801.154 568C805.314 569.92 807.746 574.192 807.746 578.88C807.746 583.568 805.314 587.84 801.154 589.76L802.338 592.848ZM817.819 572.272C816.331 572.272 815.019 573.552 815.019 575.056C815.019 576.56 816.331 577.872 817.819 577.872C819.307 577.872 820.603 576.56 820.603 575.056C820.603 573.552 819.307 572.272 817.819 572.272ZM816.011 583.664L815.131 592.384H818.011L819.931 583.664H816.011ZM839.402 572.272C834.89 572.272 831.77 575.536 831.77 580.336C831.77 585.2 835.018 588.4 839.61 588.4C841.93 588.4 844.042 587.84 845.914 586.24L844.25 583.856C842.986 584.864 841.354 585.472 839.818 585.472C837.642 585.472 835.706 584.32 835.258 581.568H846.586C846.618 581.184 846.65 580.752 846.65 580.32C846.634 575.536 843.69 572.272 839.402 572.272ZM839.338 575.248C841.466 575.248 842.858 576.64 843.226 579.024H835.274C835.626 576.784 836.954 575.248 839.338 575.248ZM858.54 572.272C856.668 572.272 855.1 572.944 854.092 574.4V572.672H850.78V588H854.124V579.568C854.124 576.96 855.644 575.456 857.772 575.456C858.588 575.456 859.612 575.648 860.316 576.016L861.116 572.704C860.348 572.4 859.564 572.272 858.54 572.272ZM872.29 572.272C870.418 572.272 868.85 572.944 867.842 574.4V572.672H864.53V588H867.874V579.568C867.874 576.96 869.394 575.456 871.522 575.456C872.338 575.456 873.362 575.648 874.066 576.016L874.866 572.704C874.098 572.4 873.314 572.272 872.29 572.272ZM978.27 568.704V565.6H977.502C972.878 565.6 970.446 568.224 970.638 572.352L970.718 574.08C970.814 576.16 969.454 577.344 967.23 577.344V580.448C969.454 580.448 970.814 581.632 970.718 583.712L970.638 585.44C970.446 589.568 972.878 592.192 977.502 592.192H978.27V589.088H977.502C975.39 589.088 973.998 587.904 974.094 585.824L974.174 584.096C974.286 581.616 973.166 579.776 970.878 578.896C973.166 578.016 974.286 576.176 974.174 573.696L974.094 571.968C973.998 569.888 975.39 568.704 977.502 568.704H978.27ZM67.716 671.088V674.192H68.484C73.108 674.192 75.54 671.568 75.348 667.44L75.268 665.712C75.172 663.632 76.532 662.448 78.756 662.448V659.344C76.532 659.344 75.172 658.16 75.268 656.08L75.348 654.352C75.54 650.224 73.108 647.6 68.484 647.6H67.716V650.704H68.484C70.596 650.704 71.988 651.888 71.892 653.968L71.812 655.696C71.7 658.176 72.82 660.016 75.108 660.896C72.82 661.776 71.7 663.616 71.812 666.096L71.892 667.824C71.988 669.904 70.596 671.088 68.484 671.088H67.716ZM33.216 712.088V715.192H33.984C38.608 715.192 41.04 712.568 40.848 708.44L40.768 706.712C40.672 704.632 42.032 703.448 44.256 703.448V700.344C42.032 700.344 40.672 699.16 40.768 697.08L40.848 695.352C41.04 691.224 38.608 688.6 33.984 688.6H33.216V691.704H33.984C36.096 691.704 37.488 692.888 37.392 694.968L37.312 696.696C37.2 699.176 38.32 701.016 40.608 701.896C38.32 702.776 37.2 704.616 37.312 707.096L37.392 708.824C37.488 710.904 36.096 712.088 33.984 712.088H33.216Z" fill="white"/>
<path d="M106.6 163.68L107.48 154.96H104.6L102.68 163.68H106.6ZM112.84 163.68L113.72 154.96H110.84L108.92 163.68H112.84ZM131.489 162.672H127.537L123.777 167.792L120.049 162.672H115.937L121.617 170.176L115.84 178H119.761L123.601 172.672L127.489 178H131.601L125.825 170.144L131.489 162.672ZM140.652 162.272C136.14 162.272 133.02 165.536 133.02 170.336C133.02 175.2 136.268 178.4 140.86 178.4C143.18 178.4 145.292 177.84 147.164 176.24L145.5 173.856C144.236 174.864 142.604 175.472 141.068 175.472C138.892 175.472 136.956 174.32 136.508 171.568H147.836C147.868 171.184 147.9 170.752 147.9 170.32C147.884 165.536 144.94 162.272 140.652 162.272ZM140.588 165.248C142.716 165.248 144.108 166.64 144.476 169.024H136.524C136.876 166.784 138.204 165.248 140.588 165.248ZM160.062 162.272C158.494 162.272 156.59 162.736 155.358 164.544V162.672H152.03V178H155.39V169.504C155.39 166.88 157.198 165.456 159.358 165.456C161.598 165.456 162.926 166.896 162.926 169.472V178H166.286V168.368C166.286 164.784 163.71 162.272 160.062 162.272ZM178.51 162.272C173.774 162.272 170.27 165.744 170.27 170.336C170.27 174.928 173.774 178.4 178.51 178.4C183.246 178.4 186.766 174.928 186.766 170.336C186.766 165.744 183.246 162.272 178.51 162.272ZM178.51 165.424C181.246 165.424 183.326 167.44 183.326 170.336C183.326 173.232 181.246 175.248 178.51 175.248C175.774 175.248 173.71 173.232 173.71 170.336C173.71 167.44 175.774 165.424 178.51 165.424ZM198.937 162.272C197.369 162.272 195.465 162.736 194.233 164.544V162.672H190.905V178H194.265V169.504C194.265 166.88 196.073 165.456 198.233 165.456C200.473 165.456 201.801 166.896 201.801 169.472V178H205.161V168.368C205.161 164.784 202.585 162.272 198.937 162.272ZM216.033 154.96L215.153 163.68H218.033L219.953 154.96H216.033ZM209.793 154.96L208.913 163.68H211.793L213.713 154.96H209.793ZM501.569 327.68L502.449 318.96H499.569L497.649 327.68H501.569ZM507.809 327.68L508.689 318.96H505.809L503.889 327.68H507.809ZM517.872 326.272C513.584 326.272 510.208 329.648 510.208 334.336C510.208 339.024 513.584 342.4 517.872 342.4C520.048 342.4 521.632 341.52 522.688 340.16V342H526.032V318.96H522.688V328.528C521.632 327.168 520.048 326.272 517.872 326.272ZM518.272 329.424C521.04 329.424 522.896 331.536 522.896 334.336C522.896 337.136 521.04 339.248 518.272 339.248C515.392 339.248 513.648 337.024 513.648 334.336C513.648 331.648 515.392 329.424 518.272 329.424ZM541.12 326.672H535.872V324.08C535.872 322.56 536.576 321.712 537.872 321.712C538.88 321.712 539.952 322.08 540.736 322.528L541.92 319.712C540.784 319.04 539.44 318.56 537.648 318.56C534.064 318.56 532.512 321.008 532.512 324.08V326.672H529.44V329.712H532.512V342H535.872V329.712H541.12V326.672ZM557.916 319.6H545.372L545.164 331.568H550.316C554.316 331.568 555.452 333.376 555.452 335.312C555.452 337.232 554.092 339.088 551.196 339.088C549.196 339.088 547.052 338.128 545.724 336.56L543.42 338.816C545.34 341.184 547.964 342.4 551.212 342.4C555.404 342.4 559.068 339.856 559.068 335.008C559.068 331.504 556.636 328.288 551.388 328.288H548.444L548.556 322.88H557.916V319.6ZM565.472 342H569.712L576.16 332.304C577.472 330.352 578.176 328.624 578.176 326.656C578.176 322.4 574.688 319.216 570.048 319.216C565.392 319.216 561.92 322.4 561.92 326.656C561.92 330.912 565.344 334.096 569.44 334.096C570.192 334.096 570.736 334 571.168 333.872L565.472 342ZM570.048 330.88C567.456 330.88 565.504 329.152 565.504 326.656C565.504 324.16 567.456 322.432 570.048 322.432C572.624 322.432 574.592 324.144 574.592 326.656C574.592 329.152 572.624 330.88 570.048 330.88ZM595.104 319.6H582.56L582.352 331.568H587.504C591.504 331.568 592.64 333.376 592.64 335.312C592.64 337.232 591.28 339.088 588.384 339.088C586.384 339.088 584.24 338.128 582.912 336.56L580.608 338.816C582.528 341.184 585.152 342.4 588.4 342.4C592.592 342.4 596.256 339.856 596.256 335.008C596.256 331.504 593.824 328.288 588.576 328.288H585.632L585.744 322.88H595.104V319.6ZM612.396 328.336H608.924V334.352H603.1L611.244 319.632H607.308L598.924 334.976V337.648H608.924V342H612.396V337.648H615.82V334.352H612.396V328.336ZM631.459 328.336H627.987V334.352H622.163L630.307 319.632H626.371L617.987 334.976V337.648H627.987V342H631.459V337.648H634.883V334.352H631.459V328.336ZM645.644 319.248L636.476 323.12V326.736L642.172 324.288V342H645.644V319.248ZM660.158 331.952H650.878V334.992H660.158V331.952ZM678.041 319.6H665.497L665.289 331.568H670.441C674.441 331.568 675.577 333.376 675.577 335.312C675.577 337.232 674.217 339.088 671.321 339.088C669.321 339.088 667.177 338.128 665.849 336.56L663.545 338.816C665.465 341.184 668.089 342.4 671.337 342.4C675.529 342.4 679.193 339.856 679.193 335.008C679.193 331.504 676.761 328.288 671.513 328.288H668.569L668.681 322.88H678.041V319.6ZM684.682 325.008C685.786 323.664 686.986 322.528 689.258 322.528C691.674 322.528 693.146 324.16 693.146 326.4C693.146 328 692.394 329.328 691.146 330.672L683.049 339.28V342H697.385V338.704H688.186L693.802 332.688C695.178 331.2 696.778 329.232 696.778 326.416C696.778 322.208 693.994 319.216 689.354 319.216C685.306 319.216 683.274 321.504 682.202 322.96L684.682 325.008ZM711.214 326.672H705.966V324.08C705.966 322.56 706.67 321.712 707.966 321.712C708.974 321.712 710.046 322.08 710.83 322.528L712.014 319.712C710.878 319.04 709.534 318.56 707.742 318.56C704.158 318.56 702.606 321.008 702.606 324.08V326.672H699.534V329.712H702.606V342H705.966V329.712H711.214V326.672ZM723.018 326.272C720.842 326.272 719.274 327.152 718.218 328.496V318.96H714.874V342H718.218V340.176C719.274 341.52 720.842 342.4 723.018 342.4C727.306 342.4 730.682 339.024 730.682 334.336C730.682 329.648 727.306 326.272 723.018 326.272ZM722.618 329.424C725.498 329.424 727.242 331.648 727.242 334.336C727.242 337.024 725.498 339.248 722.618 339.248C719.85 339.248 717.994 337.136 717.994 334.336C717.994 331.536 719.85 329.424 722.618 329.424ZM743.596 331.952H734.316V334.992H743.596V331.952ZM760.428 328.336H756.956V334.352H751.132L759.276 319.632H755.34L746.956 334.976V337.648H756.956V342H760.428V337.648H763.852V334.352H760.428V328.336ZM775.114 319.216C770.698 319.216 767.114 321.6 767.114 325.616C767.114 328.208 768.618 329.808 770.554 330.704C768.346 331.568 766.586 333.184 766.586 335.92C766.586 339.984 770.41 342.384 775.114 342.384C779.818 342.384 783.642 339.984 783.642 335.92C783.642 333.184 781.866 331.568 779.674 330.704C781.61 329.808 783.114 328.208 783.114 325.616C783.114 321.6 779.53 319.216 775.114 319.216ZM775.114 332.256C777.754 332.256 779.946 333.456 779.946 335.728C779.946 337.984 777.754 339.168 775.114 339.168C772.458 339.168 770.266 337.984 770.266 335.728C770.266 333.456 772.458 332.256 775.114 332.256ZM775.114 322.448C777.498 322.448 779.45 323.616 779.45 325.792C779.45 328.048 777.498 329.216 775.114 329.216C772.73 329.216 770.794 328.048 770.794 325.792C770.794 323.616 772.73 322.448 775.114 322.448ZM794.465 326.272C790.177 326.272 786.801 329.648 786.801 334.336C786.801 339.024 790.177 342.4 794.465 342.4C796.641 342.4 798.225 341.52 799.281 340.16V342H802.625V318.96H799.281V328.528C798.225 327.168 796.641 326.272 794.465 326.272ZM794.865 329.424C797.633 329.424 799.489 331.536 799.489 334.336C799.489 337.136 797.633 339.248 794.865 339.248C791.985 339.248 790.241 337.024 790.241 334.336C790.241 331.648 791.985 329.424 794.865 329.424ZM817.714 326.672H812.466V324.08C812.466 322.56 813.17 321.712 814.466 321.712C815.474 321.712 816.546 322.08 817.33 322.528L818.514 319.712C817.378 319.04 816.034 318.56 814.242 318.56C810.658 318.56 809.106 321.008 809.106 324.08V326.672H806.034V329.712H809.106V342H812.466V329.712H817.714V326.672ZM830.002 331.952H820.722V334.992H830.002V331.952ZM842.893 326.272C840.717 326.272 839.149 327.152 838.093 328.496V318.96H834.749V342H838.093V340.176C839.149 341.52 840.717 342.4 842.893 342.4C847.181 342.4 850.557 339.024 850.557 334.336C850.557 329.648 847.181 326.272 842.893 326.272ZM842.493 329.424C845.373 329.424 847.117 331.648 847.117 334.336C847.117 337.024 845.373 339.248 842.493 339.248C839.725 339.248 837.869 337.136 837.869 334.336C837.869 331.536 839.725 329.424 842.493 329.424ZM861.247 326.272C856.959 326.272 853.583 329.648 853.583 334.336C853.583 339.024 856.959 342.4 861.247 342.4C863.423 342.4 865.007 341.52 866.063 340.16V342H869.407V318.96H866.063V328.528C865.007 327.168 863.423 326.272 861.247 326.272ZM861.647 329.424C864.415 329.424 866.271 331.536 866.271 334.336C866.271 337.136 864.415 339.248 861.647 339.248C858.767 339.248 857.023 337.024 857.023 334.336C857.023 331.648 858.767 329.424 861.647 329.424ZM885.903 319.6H881.663L875.215 329.296C873.903 331.248 873.199 332.976 873.199 334.944C873.199 339.2 876.687 342.384 881.327 342.384C885.983 342.384 889.455 339.2 889.455 334.944C889.455 330.688 886.031 327.504 881.935 327.504C881.183 327.504 880.623 327.616 880.207 327.728L885.903 319.6ZM881.327 330.72C883.919 330.72 885.871 332.448 885.871 334.944C885.871 337.44 883.919 339.168 881.327 339.168C878.751 339.168 876.783 337.456 876.783 334.944C876.783 332.448 878.751 330.72 881.327 330.72ZM905.584 328.336H902.112V334.352H896.288L904.432 319.632H900.496L892.112 334.976V337.648H902.112V342H905.584V337.648H909.008V334.352H905.584V328.336ZM921.502 331.952H912.222V334.992H921.502V331.952ZM926.244 325.008C927.348 323.664 928.548 322.528 930.82 322.528C933.236 322.528 934.708 324.16 934.708 326.4C934.708 328 933.956 329.328 932.708 330.672L924.612 339.28V342H938.948V338.704H929.748L935.364 332.688C936.74 331.2 938.34 329.232 938.34 326.416C938.34 322.208 935.556 319.216 930.916 319.216C926.868 319.216 924.836 321.504 923.764 322.96L926.244 325.008ZM956.873 319.6H941.481V322.88H952.697L943.129 342H947.177L956.873 322.32V319.6ZM970.308 326.672H965.06V324.08C965.06 322.56 965.764 321.712 967.06 321.712C968.068 321.712 969.14 322.08 969.924 322.528L971.108 319.712C969.972 319.04 968.628 318.56 966.836 318.56C963.252 318.56 961.7 321.008 961.7 324.08V326.672H958.628V329.712H961.7V342H965.06V329.712H970.308V326.672ZM982.72 319.216C977.504 319.216 973.28 323.552 973.28 330.8C973.28 338.032 977.504 342.384 982.72 342.384C987.92 342.384 992.176 338.032 992.176 330.8C992.176 323.552 987.92 319.216 982.72 319.216ZM982.72 322.544C985.952 322.544 988.544 325.392 988.544 330.8C988.544 336.208 985.952 339.056 982.72 339.056C979.52 339.056 976.912 336.208 976.912 330.8C976.912 325.392 979.52 322.544 982.72 322.544ZM1004.27 319.248L995.101 323.12V326.736L1000.8 324.288V342H1004.27V319.248ZM1016.56 326.272C1012.27 326.272 1008.9 329.648 1008.9 334.336C1008.9 339.024 1012.27 342.4 1016.56 342.4C1018.74 342.4 1020.32 341.52 1021.38 340.16V342H1024.72V318.96H1021.38V328.528C1020.32 327.168 1018.74 326.272 1016.56 326.272ZM1016.96 329.424C1019.73 329.424 1021.58 331.536 1021.58 334.336C1021.58 337.136 1019.73 339.248 1016.96 339.248C1014.08 339.248 1012.34 337.024 1012.34 334.336C1012.34 331.648 1014.08 329.424 1016.96 329.424ZM1035.82 319.216C1032.3 319.216 1029.86 320.736 1028.58 322.736L1031.07 324.864C1031.94 323.616 1033.5 322.448 1035.6 322.448C1037.92 322.448 1039.82 323.648 1039.82 325.792C1039.82 328.032 1037.87 329.12 1035.46 329.12H1032.77V332.304H1035.47C1038.14 332.304 1040.32 333.488 1040.32 335.744C1040.32 338.048 1038.4 339.152 1035.95 339.152C1033.92 339.152 1031.87 338.304 1030.54 336.864L1028.32 339.184C1029.97 341.2 1032.7 342.384 1036.03 342.384C1040.1 342.384 1043.95 340.272 1043.95 335.904C1043.95 333.456 1042.38 331.632 1040.03 330.704C1042.1 329.744 1043.44 328 1043.44 325.616C1043.44 321.76 1040.38 319.216 1035.82 319.216ZM1061.35 319.6H1048.81L1048.6 331.568H1053.75C1057.75 331.568 1058.89 333.376 1058.89 335.312C1058.89 337.232 1057.53 339.088 1054.63 339.088C1052.63 339.088 1050.49 338.128 1049.16 336.56L1046.86 338.816C1048.78 341.184 1051.4 342.4 1054.65 342.4C1058.84 342.4 1062.51 339.856 1062.51 335.008C1062.51 331.504 1060.07 328.288 1054.83 328.288H1051.88L1051.99 322.88H1061.35V319.6ZM1076.71 326.672H1071.47V324.08C1071.47 322.56 1072.17 321.712 1073.47 321.712C1074.47 321.712 1075.55 322.08 1076.33 322.528L1077.51 319.712C1076.38 319.04 1075.03 318.56 1073.24 318.56C1069.66 318.56 1068.11 321.008 1068.11 324.08V326.672H1065.03V329.712H1068.11V342H1071.47V329.712H1076.71V326.672ZM1086.43 326.272C1081.92 326.272 1078.8 329.536 1078.8 334.336C1078.8 339.2 1082.05 342.4 1086.64 342.4C1088.96 342.4 1091.07 341.84 1092.95 340.24L1091.28 337.856C1090.02 338.864 1088.39 339.472 1086.85 339.472C1084.67 339.472 1082.74 338.32 1082.29 335.568H1093.62C1093.65 335.184 1093.68 334.752 1093.68 334.32C1093.67 329.536 1090.72 326.272 1086.43 326.272ZM1086.37 329.248C1088.5 329.248 1089.89 330.64 1090.26 333.024H1082.31C1082.66 330.784 1083.99 329.248 1086.37 329.248ZM1100 342H1104.24L1110.69 332.304C1112 330.352 1112.71 328.624 1112.71 326.656C1112.71 322.4 1109.22 319.216 1104.58 319.216C1099.92 319.216 1096.45 322.4 1096.45 326.656C1096.45 330.912 1099.88 334.096 1103.97 334.096C1104.72 334.096 1105.27 334 1105.7 333.872L1100 342ZM1104.58 330.88C1101.99 330.88 1100.04 329.152 1100.04 326.656C1100.04 324.16 1101.99 322.432 1104.58 322.432C1107.16 322.432 1109.12 324.144 1109.12 326.656C1109.12 329.152 1107.16 330.88 1104.58 330.88ZM1125.25 319.216C1120.04 319.216 1115.81 323.552 1115.81 330.8C1115.81 338.032 1120.04 342.384 1125.25 342.384C1130.45 342.384 1134.71 338.032 1134.71 330.8C1134.71 323.552 1130.45 319.216 1125.25 319.216ZM1125.25 322.544C1128.48 322.544 1131.08 325.392 1131.08 330.8C1131.08 336.208 1128.48 339.056 1125.25 339.056C1122.05 339.056 1119.44 336.208 1119.44 330.8C1119.44 325.392 1122.05 322.544 1125.25 322.544ZM1145.38 318.96L1144.5 327.68H1147.38L1149.3 318.96H1145.38ZM1139.14 318.96L1138.26 327.68H1141.14L1143.06 318.96H1139.14Z" fill="#FFC612"/>
<path d="M215.956 335.152H201.556V338.192H215.956V335.152ZM215.956 328.752H201.556V331.792H215.956V328.752ZM157.226 401.6H153.098L153.642 416.608H156.682L157.226 401.6ZM155.178 418.8C153.69 418.8 152.378 420.08 152.378 421.584C152.378 423.088 153.69 424.4 155.178 424.4C156.666 424.4 157.962 423.088 157.962 421.584C157.962 420.08 156.666 418.8 155.178 418.8ZM176.206 417.152H161.806V420.192H176.206V417.152ZM176.206 410.752H161.806V413.792H176.206V410.752ZM176.206 581.152H161.806V584.192H176.206V581.152ZM176.206 574.752H161.806V577.792H176.206V574.752ZM890.257 565.6H886.129L886.673 580.608H889.713L890.257 565.6ZM888.209 582.8C886.721 582.8 885.409 584.08 885.409 585.584C885.409 587.088 886.721 588.4 888.209 588.4C889.697 588.4 890.993 587.088 890.993 585.584C890.993 584.08 889.697 582.8 888.209 582.8ZM909.238 581.152H894.838V584.192H909.238V581.152ZM909.238 574.752H894.838V577.792H909.238V574.752Z" fill="#0FB9B6"/>
<path d="M197.875 408.272C196.307 408.272 194.403 408.736 193.171 410.544V408.672H189.843V424H193.203V415.504C193.203 412.88 195.011 411.456 197.171 411.456C199.411 411.456 200.739 412.896 200.739 415.472V424H204.099V414.368C204.099 410.784 201.523 408.272 197.875 408.272ZM212.547 408.672H209.187V424H212.547V408.672ZM210.851 401.008C209.523 401.008 208.515 402.048 208.515 403.376C208.515 404.704 209.523 405.712 210.851 405.712C212.179 405.712 213.219 404.704 213.219 403.376C213.219 402.048 212.179 401.008 210.851 401.008ZM221.14 400.96H217.78V424H221.14V400.96ZM715.104 565.6H702.56L702.352 577.568H707.504C711.504 577.568 712.64 579.376 712.64 581.312C712.64 583.232 711.28 585.088 708.384 585.088C706.384 585.088 704.24 584.128 702.912 582.56L700.608 584.816C702.528 587.184 705.152 588.4 708.4 588.4C712.592 588.4 716.256 585.856 716.256 581.008C716.256 577.504 713.824 574.288 708.576 574.288H705.632L705.744 568.88H715.104V565.6ZM729.376 565.216C724.16 565.216 719.936 569.552 719.936 576.8C719.936 584.032 724.16 588.384 729.376 588.384C734.576 588.384 738.832 584.032 738.832 576.8C738.832 569.552 734.576 565.216 729.376 565.216ZM729.376 568.544C732.608 568.544 735.2 571.392 735.2 576.8C735.2 582.208 732.608 585.056 729.376 585.056C726.176 585.056 723.568 582.208 723.568 576.8C723.568 571.392 726.176 568.544 729.376 568.544ZM752.157 565.216C746.941 565.216 742.717 569.552 742.717 576.8C742.717 584.032 746.941 588.384 752.157 588.384C757.357 588.384 761.613 584.032 761.613 576.8C761.613 569.552 757.357 565.216 752.157 565.216ZM752.157 568.544C755.389 568.544 757.981 571.392 757.981 576.8C757.981 582.208 755.389 585.056 752.157 585.056C748.957 585.056 746.349 582.208 746.349 576.8C746.349 571.392 748.957 568.544 752.157 568.544ZM774.939 565.216C769.723 565.216 765.499 569.552 765.499 576.8C765.499 584.032 769.723 588.384 774.939 588.384C780.139 588.384 784.395 584.032 784.395 576.8C784.395 569.552 780.139 565.216 774.939 565.216ZM774.939 568.544C778.171 568.544 780.763 571.392 780.763 576.8C780.763 582.208 778.171 585.056 774.939 585.056C771.739 585.056 769.131 582.208 769.131 576.8C769.131 571.392 771.739 568.544 774.939 568.544ZM930.906 572.272C929.338 572.272 927.434 572.736 926.202 574.544V572.672H922.874V588H926.234V579.504C926.234 576.88 928.042 575.456 930.202 575.456C932.442 575.456 933.77 576.896 933.77 579.472V588H937.13V578.368C937.13 574.784 934.554 572.272 930.906 572.272ZM945.578 572.672H942.218V588H945.578V572.672ZM943.882 565.008C942.554 565.008 941.546 566.048 941.546 567.376C941.546 568.704 942.554 569.712 943.882 569.712C945.21 569.712 946.25 568.704 946.25 567.376C946.25 566.048 945.21 565.008 943.882 565.008ZM954.172 564.96H950.812V588H954.172V564.96Z" fill="#519EFF"/>
<path d="M117.8 440.36H114.104L100.52 468.2H104.216L117.8 440.36ZM128.331 440.36H124.635L111.051 468.2H114.747L128.331 440.36ZM142.265 441.96H138.905V465H142.265V456.504C142.265 453.88 144.073 452.456 146.233 452.456C148.473 452.456 149.801 453.896 149.801 456.472V465H153.161V455.368C153.161 451.784 150.585 449.272 146.937 449.272C145.385 449.272 143.497 449.736 142.265 451.496V441.96ZM172.969 449.672H169.625V451.528C168.569 450.168 166.985 449.272 164.809 449.272C160.521 449.272 157.145 452.648 157.145 457.336C157.145 462.024 160.521 465.4 164.809 465.4C166.985 465.4 168.569 464.52 169.625 463.16V465H172.969V449.672ZM165.209 452.424C167.977 452.424 169.833 454.536 169.833 457.336C169.833 460.136 167.977 462.248 165.209 462.248C162.329 462.248 160.585 460.024 160.585 457.336C160.585 454.648 162.329 452.424 165.209 452.424ZM186.25 449.272C184.682 449.272 182.778 449.736 181.546 451.544V449.672H178.218V465H181.578V456.504C181.578 453.88 183.386 452.456 185.546 452.456C187.786 452.456 189.114 453.896 189.114 456.472V465H192.474V455.368C192.474 451.784 189.898 449.272 186.25 449.272ZM204.122 449.272C199.834 449.272 196.458 452.648 196.458 457.336C196.458 462.024 199.834 465.4 204.122 465.4C206.298 465.4 207.882 464.52 208.938 463.16V465H212.282V441.96H208.938V451.528C207.882 450.168 206.298 449.272 204.122 449.272ZM204.522 452.424C207.29 452.424 209.146 454.536 209.146 457.336C209.146 460.136 207.29 462.248 204.522 462.248C201.642 462.248 199.898 460.024 199.898 457.336C199.898 454.648 201.642 452.424 204.522 452.424ZM220.89 441.96H217.53V465H220.89V441.96ZM232.652 449.272C228.14 449.272 225.02 452.536 225.02 457.336C225.02 462.2 228.268 465.4 232.86 465.4C235.18 465.4 237.292 464.84 239.164 463.24L237.5 460.856C236.236 461.864 234.604 462.472 233.068 462.472C230.892 462.472 228.956 461.32 228.508 458.568H239.836C239.868 458.184 239.9 457.752 239.9 457.32C239.884 452.536 236.94 449.272 232.652 449.272ZM232.588 452.248C234.716 452.248 236.108 453.64 236.476 456.024H228.524C228.876 453.784 230.204 452.248 232.588 452.248ZM259.183 449.272C254.671 449.272 251.551 452.536 251.551 457.336C251.551 462.2 254.799 465.4 259.391 465.4C261.711 465.4 263.823 464.84 265.695 463.24L264.031 460.856C262.767 461.864 261.135 462.472 259.599 462.472C257.423 462.472 255.487 461.32 255.039 458.568H266.367C266.399 458.184 266.431 457.752 266.431 457.32C266.415 452.536 263.471 449.272 259.183 449.272ZM259.119 452.248C261.247 452.248 262.639 453.64 263.007 456.024H255.055C255.407 453.784 256.735 452.248 259.119 452.248ZM278.322 449.272C276.45 449.272 274.882 449.944 273.874 451.4V449.672H270.562V465H273.906V456.568C273.906 453.96 275.426 452.456 277.554 452.456C278.37 452.456 279.394 452.648 280.098 453.016L280.898 449.704C280.13 449.4 279.346 449.272 278.322 449.272ZM292.072 449.272C290.2 449.272 288.632 449.944 287.624 451.4V449.672H284.312V465H287.656V456.568C287.656 453.96 289.176 452.456 291.304 452.456C292.12 452.456 293.144 452.648 293.848 453.016L294.648 449.704C293.88 449.4 293.096 449.272 292.072 449.272ZM117.8 604.36H114.104L100.52 632.2H104.216L117.8 604.36ZM128.331 604.36H124.635L111.051 632.2H114.747L128.331 604.36ZM142.265 605.96H138.905V629H142.265V620.504C142.265 617.88 144.073 616.456 146.233 616.456C148.473 616.456 149.801 617.896 149.801 620.472V629H153.161V619.368C153.161 615.784 150.585 613.272 146.937 613.272C145.385 613.272 143.497 613.736 142.265 615.496V605.96ZM172.969 613.672H169.625V615.528C168.569 614.168 166.985 613.272 164.809 613.272C160.521 613.272 157.145 616.648 157.145 621.336C157.145 626.024 160.521 629.4 164.809 629.4C166.985 629.4 168.569 628.52 169.625 627.16V629H172.969V613.672ZM165.209 616.424C167.977 616.424 169.833 618.536 169.833 621.336C169.833 624.136 167.977 626.248 165.209 626.248C162.329 626.248 160.585 624.024 160.585 621.336C160.585 618.648 162.329 616.424 165.209 616.424ZM186.25 613.272C184.682 613.272 182.778 613.736 181.546 615.544V613.672H178.218V629H181.578V620.504C181.578 617.88 183.386 616.456 185.546 616.456C187.786 616.456 189.114 617.896 189.114 620.472V629H192.474V619.368C192.474 615.784 189.898 613.272 186.25 613.272ZM204.122 613.272C199.834 613.272 196.458 616.648 196.458 621.336C196.458 626.024 199.834 629.4 204.122 629.4C206.298 629.4 207.882 628.52 208.938 627.16V629H212.282V605.96H208.938V615.528C207.882 614.168 206.298 613.272 204.122 613.272ZM204.522 616.424C207.29 616.424 209.146 618.536 209.146 621.336C209.146 624.136 207.29 626.248 204.522 626.248C201.642 626.248 199.898 624.024 199.898 621.336C199.898 618.648 201.642 616.424 204.522 616.424ZM220.89 605.96H217.53V629H220.89V605.96ZM232.652 613.272C228.14 613.272 225.02 616.536 225.02 621.336C225.02 626.2 228.268 629.4 232.86 629.4C235.18 629.4 237.292 628.84 239.164 627.24L237.5 624.856C236.236 625.864 234.604 626.472 233.068 626.472C230.892 626.472 228.956 625.32 228.508 622.568H239.836C239.868 622.184 239.9 621.752 239.9 621.32C239.884 616.536 236.94 613.272 232.652 613.272ZM232.588 616.248C234.716 616.248 236.108 617.64 236.476 620.024H228.524C228.876 617.784 230.204 616.248 232.588 616.248ZM259.183 613.272C254.671 613.272 251.551 616.536 251.551 621.336C251.551 626.2 254.799 629.4 259.391 629.4C261.711 629.4 263.823 628.84 265.695 627.24L264.031 624.856C262.767 625.864 261.135 626.472 259.599 626.472C257.423 626.472 255.487 625.32 255.039 622.568H266.367C266.399 622.184 266.431 621.752 266.431 621.32C266.415 616.536 263.471 613.272 259.183 613.272ZM259.119 616.248C261.247 616.248 262.639 617.64 263.007 620.024H255.055C255.407 617.784 256.735 616.248 259.119 616.248ZM278.322 613.272C276.45 613.272 274.882 613.944 273.874 615.4V613.672H270.562V629H273.906V620.568C273.906 617.96 275.426 616.456 277.554 616.456C278.37 616.456 279.394 616.648 280.098 617.016L280.898 613.704C280.13 613.4 279.346 613.272 278.322 613.272ZM292.072 613.272C290.2 613.272 288.632 613.944 287.624 615.4V613.672H284.312V629H287.656V620.568C287.656 617.96 289.176 616.456 291.304 616.456C292.12 616.456 293.144 616.648 293.848 617.016L294.648 613.704C293.88 613.4 293.096 613.272 292.072 613.272Z" fill="#BFCCE2"/>
</svg>
