<svg width="349" height="129" viewBox="0 0 349 129" fill="none" xmlns="http://www.w3.org/2000/svg">
<g clip-path="url(#clip0_1101_2)">
<path d="M332.42 0.349976H28.6292C13.1251 0.349976 0.568726 12.9072 0.568726 28.4122V100.158C0.568726 115.663 13.1251 128.22 28.6292 128.22H268.501C312.808 128.22 348.76 92.3124 348.76 47.956V16.621C348.713 7.63827 341.426 0.349976 332.42 0.349976Z" fill="url(#paint0_linear_1101_2)"/>
<path d="M254.064 42.0139C257.948 42.0139 261.097 38.8652 261.097 34.981C261.097 31.0968 257.948 27.948 254.064 27.948C250.18 27.948 247.032 31.0968 247.032 34.981C247.032 38.8652 250.18 42.0139 254.064 42.0139Z" fill="white"/>
<path d="M254.064 46.0063C247.983 46.0063 243.04 41.0391 243.04 34.981C243.04 28.9229 248.007 23.9557 254.064 23.9557C260.145 23.9557 265.089 28.9229 265.089 34.981C265.089 41.0391 260.145 46.0063 254.064 46.0063ZM254.064 25.6733C248.935 25.6733 244.757 29.8281 244.757 34.981C244.757 40.1106 248.912 44.2886 254.064 44.2886C259.194 44.2886 263.371 40.1338 263.371 34.981C263.371 29.8513 259.17 25.6733 254.064 25.6733Z" fill="white"/>
<path d="M80.0386 34.981H38.6326V80.4748V83.9564C38.8647 88.0648 40.6286 93.5194 50.5159 93.5194H80.0618C80.0618 93.5194 80.1082 85.674 72.2169 85.674H46.3382V68.521H61.7726C67.7375 68.521 68.8515 64.4127 69.014 62.1148V60.6989H46.3382V42.8263H72.2169C80.085 42.8263 80.0386 34.981 80.0386 34.981Z" fill="white"/>
<path d="M94.7534 79.291V34.981H87.2335V79.291C87.2335 89.5271 93.6394 93.4962 101.623 93.4962C101.647 93.5194 94.7534 89.0861 94.7534 79.291Z" fill="white"/>
<path d="M137.831 84.7224C131.634 87.206 113.809 89.9913 113.484 76.4825C124.926 77.527 139.919 76.7146 139.919 65.4572C139.919 56.8226 132.4 52.8303 124.764 52.8303C112.3 52.8303 105.941 62.4165 105.941 73.906C105.941 85.4187 112.579 93.4498 124.624 93.4498C127.015 93.4034 129.15 93.1712 131.216 92.6838C137.297 91.0358 137.831 84.7224 137.831 84.7224ZM124.949 58.842C128.779 59.0741 132.794 61.0006 132.539 65.3179C132.214 72.5133 118.033 71.3064 113.46 70.3547C113.716 63.6467 117.87 58.7724 124.949 58.842Z" fill="white"/>
<path d="M177.217 84.235C172.622 85.9062 169.651 86.7882 165.496 86.5561C157.977 86.324 153.102 80.5676 153.102 73.349C153.102 65.991 157.419 60.3971 164.847 59.7937C168.931 59.3991 172.436 60.1882 176.521 61.7898V55.3835C172.042 53.457 168.931 52.8303 165.172 52.8303C153.172 52.8303 145.861 62.0219 145.861 73.349C145.861 84.6296 153.543 93.473 165.172 93.473C166.402 93.473 167.562 93.4034 168.769 93.2409C177.008 91.6393 177.217 84.235 177.217 84.235Z" fill="white"/>
<path d="M207.599 85.4419C205.765 86.1615 203.119 86.881 200.473 85.999C198.152 85.3491 197.363 83.6083 197.363 81.1247V59.8169H202.493C209.525 59.8169 210.129 54.5479 210.175 53.1785V52.8535H197.386V41.3408C191.63 41.3408 190.238 46.5865 189.959 50.0682V53.1089H182.927V59.8169H189.89V81.1247C189.89 89.2021 194.532 93.7515 201.634 93.5194C207.924 93.1248 207.599 85.4419 207.599 85.4419Z" fill="white"/>
<path d="M224.588 61.813L224.426 60.165C224.031 57.6118 222.592 52.8535 217.3 52.8535V85.4419V87.1131C217.509 89.4807 218.739 93.5194 224.727 93.5194V75.1594C224.96 67.2444 231.69 60.3971 241.717 60.3971V52.8767C237.005 52.8767 233.083 54.0837 229.973 56.2423C227.791 57.6582 225.958 59.4919 224.588 61.813Z" fill="white"/>
<path d="M250.304 85.4419V87.1131C250.513 89.4807 251.743 93.5194 257.732 93.5194H257.801V52.8535C257.801 52.8535 250.281 53.782 250.281 62.6022V85.4419H250.304Z" fill="white"/>
<path d="M281.289 69.9602C276.485 68.6835 273.7 67.4766 273.7 64.6912C273.7 61.256 277.692 59.4223 281.22 59.4223C285.049 59.4223 290.016 61.0239 293.544 63.6699L294.751 62.1148C295.795 60.3972 296.585 57.6815 293.033 55.6853C289.157 53.6892 284.887 52.8768 281.034 52.8768C274.559 52.8768 266.598 56.1495 266.598 64.4823C266.598 72.3973 277.065 74.6488 284.701 76.9467C288.786 78.1537 290.132 79.4303 290.132 81.5889C290.132 85.117 286.14 86.9507 282.287 86.9507C279.015 87.0203 273.978 85.8366 270.381 82.7031L270.009 83.1441C268.919 84.4671 266.203 88.4594 270.938 91.0591C274.303 92.7303 277.97 93.5891 282.055 93.5891C286.14 93.5891 297.211 91.5929 297.211 81.6818C297.165 74.2774 288.09 71.8867 281.289 69.9602Z" fill="white"/>
</g>
<defs>
<linearGradient id="paint0_linear_1101_2" x1="44.8766" y1="132.828" x2="295.379" y2="-21.7059" gradientUnits="userSpaceOnUse">
<stop stop-color="#FFD600"/>
<stop offset="0.2" stop-color="#CAC800"/>
<stop offset="0.4" stop-color="#9FB800"/>
<stop offset="0.6" stop-color="#57B36E"/>
<stop offset="0.8" stop-color="#009D94"/>
<stop offset="1" stop-color="#0085A2"/>
</linearGradient>
<clipPath id="clip0_1101_2">
<rect width="348.145" height="128" fill="white" transform="translate(0.546753 0.349976)"/>
</clipPath>
</defs>
</svg>
