<svg width="192" height="86" viewBox="0 0 192 86" fill="none" xmlns="http://www.w3.org/2000/svg">
<path d="M76.589 78.6468C83.2483 78.6468 88.6467 70.7142 88.6467 60.9289C88.6467 51.1435 83.2483 43.2109 76.589 43.2109C69.9297 43.2109 64.5312 51.1435 64.5312 60.9289C64.5312 70.7142 69.9297 78.6468 76.589 78.6468Z" fill="#070813"/>
<path d="M185.643 66.4178C185.643 75.6478 176.053 82.9783 166.825 82.9783C164.617 83 162.426 82.5837 160.38 81.7536C158.333 80.9235 156.472 79.6961 154.903 78.1422C153.333 76.5884 152.088 74.7389 151.238 72.7008C150.388 70.6626 149.95 68.4762 149.95 66.2679C149.95 64.0596 150.388 61.8731 151.238 59.835C152.088 57.7968 153.333 55.9474 154.903 54.3935C156.472 52.8397 158.333 51.6122 160.38 50.7822C162.426 49.9521 164.617 49.5358 166.825 49.5574C176.057 49.5574 185.643 57.1893 185.643 66.4178Z" fill="#070813"/>
<path d="M101.062 85.9805L110.736 85.591C112.505 85.5418 114.197 84.8592 115.505 83.6674C117.512 81.7719 119.089 79.4684 120.13 76.912C121.171 74.3556 121.652 71.6057 121.54 68.8477L101.062 85.9805Z" fill="#06070F"/>
<path d="M114.069 72.1561V64.4361C114.069 64.4361 112.503 41.1045 97.8255 41.1045C79.7117 41.1045 83.7769 72.9689 83.7769 72.9689L114.069 72.1561Z" fill="#06070F"/>
<path d="M100.786 85.9824C110.021 85.9824 117.507 76.8864 117.507 65.666C117.507 54.4456 110.021 45.3496 100.786 45.3496C91.5516 45.3496 84.0654 54.4456 84.0654 65.666C84.0654 76.8864 91.5516 85.9824 100.786 85.9824Z" fill="#0C0C1B"/>
<path d="M100.786 45.3496C94.9129 45.3496 89.7512 49.0365 86.7681 54.5957C88.1544 52.801 89.927 51.3416 91.9545 50.3256C93.9819 49.3097 96.2121 48.7633 98.4796 48.7271C107.355 48.7271 114.55 57.0627 114.55 67.3363C114.55 77.2525 107.851 85.3556 99.4061 85.9118C99.8613 85.9567 100.321 85.9872 100.786 85.9872C110.021 85.9872 117.509 76.8902 117.509 65.6708C117.509 54.4514 110.021 45.3496 100.786 45.3496Z" fill="#413E51"/>
<path d="M99.7604 81.7134C106.622 81.7134 112.184 74.5107 112.184 65.6258C112.184 56.7408 106.622 49.5381 99.7604 49.5381C92.8992 49.5381 87.3371 56.7408 87.3371 65.6258C87.3371 74.5107 92.8992 81.7134 99.7604 81.7134Z" fill="#91969E"/>
<path d="M99.2843 52.2646L99.0005 63.7822L98.2311 64.8802L89.6951 59.9254C90.0431 58.5222 90.7471 57.2325 91.739 56.1808L96.7307 56.2369L99.2843 52.2646Z" fill="#090B17"/>
<path d="M100.817 51.4131L100.015 63.6119L100.838 64.8799L106.929 61.9352L110.904 61.3421L105.571 58.7901L104.77 53.0594C104.77 53.0594 103.936 51.6407 100.817 51.4131Z" fill="#090B17"/>
<path d="M111.029 62.8184C111.308 64.3183 111.308 65.8565 111.029 67.3564L106.831 70.6474L106.717 76.6618L101.165 66.2215L107.235 63.2159L111.029 62.8184Z" fill="#090B17"/>
<path d="M89.28 61.5078L98.1365 66.4883L98.7777 67.7499L92.829 76.0246C91.8033 75.1274 91.0148 73.9909 90.5335 72.716L93.7171 67.2498C92.1302 65.4216 90.6488 63.5045 89.28 61.5078V61.5078Z" fill="#090B17"/>
<path d="M100.488 67.9721L93.778 77.1428L98.4827 75.62L102.841 79.1466C103.942 78.9312 104.966 78.431 105.813 77.6959L100.624 67.8711L100.488 67.9721Z" fill="#090B17"/>
<path d="M92.2263 54.5169L96.4197 54.4416L98.6318 50.9326C96.2131 51.5295 94.0002 52.7678 92.2263 54.5169Z" fill="#090B17"/>
<path d="M106.333 53.6016L106.866 57.7197L110.222 59.7779C110.222 59.7779 108.699 55.2799 106.333 53.6016Z" fill="#090B17"/>
<path d="M110.755 69.1572L107.934 71.5986V76.0966C109.317 73.9891 110.275 71.6319 110.755 69.1572Z" fill="#090B17"/>
<path d="M101.301 79.9099L97.5642 77.0117L94.2092 78.3839C96.2952 79.7706 98.829 80.3158 101.301 79.9099V79.9099Z" fill="#090B17"/>
<path d="M88.7942 62.9805L91.9505 67.6067L89.7208 71.4731C88.6487 68.7783 88.3285 65.843 88.7942 62.9805V62.9805Z" fill="#090B17"/>
<path d="M99.7603 68.4662C100.914 68.4662 101.849 67.1944 101.849 65.6257C101.849 64.0569 100.914 62.7852 99.7603 62.7852C98.6068 62.7852 97.6716 64.0569 97.6716 65.6257C97.6716 67.1944 98.6068 68.4662 99.7603 68.4662Z" fill="#3C3F4E"/>
<path d="M23.1964 68.8509C23.1964 68.8509 23.0986 40.9668 11.557 40.9668C-0.757218 40.9668 3.14768 66.5747 3.14768 66.5747L23.1964 68.8509Z" fill="#06070F"/>
<path d="M12.4002 79.1822C17.69 79.1822 21.9781 71.429 21.9781 61.865C21.9781 52.301 17.69 44.5479 12.4002 44.5479C7.1105 44.5479 2.82233 52.301 2.82233 61.865C2.82233 71.429 7.1105 79.1822 12.4002 79.1822Z" fill="#0C0C1B"/>
<path d="M20.1363 79.1833C25.4262 79.1833 29.7142 71.4296 29.7142 61.871C29.7142 52.3123 25.4262 44.5586 20.1363 44.5586H12.4002C17.6901 44.5586 21.9781 52.3123 21.9781 61.871C21.9781 71.4296 17.6901 79.1833 12.4002 79.1833H20.1363Z" fill="#0C0C1B"/>
<path d="M12.4002 44.5479C9.03391 44.5479 6.07958 47.6865 4.37079 52.4298C6.05073 49.3488 8.43278 47.422 11.0793 47.422C16.1624 47.422 20.2837 54.5233 20.2837 63.2917C20.2837 71.7459 16.4462 78.6532 11.6099 79.1261C11.8714 79.1668 12.1356 79.1882 12.4002 79.1902C17.6901 79.1902 21.9781 71.4365 21.9781 61.8779C21.9781 52.3192 17.6901 44.5479 12.4002 44.5479Z" fill="#413E51"/>
<path d="M11.7526 75.6046C15.4975 75.6046 18.5333 69.4533 18.5333 61.8653C18.5333 54.2773 15.4975 48.126 11.7526 48.126C8.00774 48.126 4.97192 54.2773 4.97192 61.8653C4.97192 69.4533 8.00774 75.6046 11.7526 75.6046Z" fill="#91969E"/>
<path d="M11.4913 50.4551L11.331 60.2911L10.9287 61.7947L6.26715 56.9969C6.436 55.8708 6.81385 54.7862 7.38123 53.7989L10.1063 53.847L11.4913 50.4551Z" fill="#090B17"/>
<path d="M12.3281 49.7266L11.8953 60.146L12.2976 60.7263L15.6415 58.208H17.8392L14.9233 56.0263L14.4953 51.1308C14.2923 50.7246 13.9842 50.3802 13.6031 50.1332C13.222 49.8863 12.7818 49.7459 12.3281 49.7266V49.7266Z" fill="#090B17"/>
<path d="M17.9017 59.4668C18.054 60.7543 18.054 62.0553 17.9017 63.3428L15.611 66.1545L15.5485 71.2841L12.5189 62.3746L15.8323 59.8098L17.9017 59.4668Z" fill="#090B17"/>
<path d="M6.03308 58.3447L10.8661 62.5991L11.5458 63.8398L7.76913 70.5724C7.25189 69.7608 6.89342 68.8583 6.71275 67.913L8.4488 63.2451C8.4488 63.2451 7.08946 60.8294 6.03308 58.3447Z" fill="#090B17"/>
<path d="M12.1486 63.8691L8.4873 71.7014L11.0521 70.403L13.4326 73.4134C14.0967 73.1919 14.6681 72.7553 15.0564 72.1727L12.2255 63.7842L12.1486 63.8691Z" fill="#090B17"/>
<path d="M7.64093 52.3781L9.92841 52.3124L11.1355 49.3164C9.66694 49.927 8.43932 51.0026 7.64093 52.3781Z" fill="#090B17"/>
<path d="M15.3385 51.5957L15.6302 55.1127L17.4609 56.876C17.0857 54.9999 16.3661 53.2096 15.3385 51.5957V51.5957Z" fill="#090B17"/>
<path d="M17.7526 64.8818L16.2122 66.9657V70.8129C16.9972 68.9165 17.5156 66.9205 17.7526 64.8818V64.8818Z" fill="#090B17"/>
<path d="M12.5926 74.0649L10.5536 71.5898L8.72296 72.7616C9.19801 73.2978 9.8052 73.7003 10.4841 73.9289C11.163 74.1576 11.89 74.2045 12.5926 74.0649V74.0649Z" fill="#090B17"/>
<path d="M5.76703 59.6064L7.49025 63.5578L6.26717 66.86C5.67589 64.4903 5.50659 62.0349 5.76703 59.6064V59.6064Z" fill="#090B17"/>
<path d="M11.7526 64.2901C12.382 64.2901 12.8923 63.2043 12.8923 61.8648C12.8923 60.5253 12.382 59.4395 11.7526 59.4395C11.1231 59.4395 10.6129 60.5253 10.6129 61.8648C10.6129 63.2043 11.1231 64.2901 11.7526 64.2901Z" fill="#3C3F4E"/>
<path d="M97.8255 41.1092C79.7117 41.1092 83.7769 72.9736 83.7769 72.9736L23.1964 68.8507C23.1964 68.8507 23.0986 40.9665 11.557 40.9665C-0.757189 40.9665 3.14771 66.5744 3.14771 66.5744C2.09486 65.6948 1.26301 64.5805 0.71902 63.321C0.175025 62.0615 -0.06595 60.692 0.0154565 59.3224V38.2751L1.22732 30.7731C1.45781 29.3593 2.11437 28.0495 3.10924 27.0189L20.9201 8.55233C20.9201 8.55233 34.5729 -2.9668 68.8498 1.86944C68.8498 1.86944 86.4827 10.8286 96.8653 25.7541C108.773 27.5506 120.798 28.4556 132.84 28.4616C152.751 28.4616 162.705 28.1778 162.705 28.1778C162.705 28.1778 172.375 28.7469 165.549 25.4752C165.549 25.4752 177.352 28.4616 182.848 35.5741L187.016 41.8257C187.016 41.8257 190.145 43.3903 190.145 49.0777C190.145 49.0777 191.994 51.0734 191.994 56.0491V69.7339C191.994 70.1029 191.921 70.4682 191.78 70.809C191.638 71.1499 191.431 71.4595 191.17 71.7204C190.909 71.9812 190.6 72.188 190.259 72.329C189.918 72.4701 189.552 72.5426 189.184 72.5424H145.497C145.497 72.5424 142.653 74.9597 131.703 74.9597H116.874C116.505 74.9599 116.14 74.8874 115.799 74.7464C115.458 74.6053 115.148 74.3985 114.887 74.1377C114.626 73.8769 114.419 73.5672 114.278 73.2264C114.137 72.8855 114.064 72.5202 114.064 72.1512V64.436C114.064 64.436 112.503 41.1092 97.8255 41.1092Z" fill="#FEFEFE"/>
<path d="M139.124 40.8252H179.336" stroke="#3C3F4E" stroke-width="0.824" stroke-miterlimit="10"/>
<path d="M189.329 44.6508C189.907 46.0555 190.187 47.5647 190.152 49.083C190.152 49.083 192 51.0788 192 56.0545V69.7393C192 70.1082 191.927 70.4735 191.786 70.8144C191.645 71.1552 191.438 71.4649 191.177 71.7257C190.916 71.9865 190.606 72.1933 190.265 72.3344C189.924 72.4754 189.559 72.5479 189.19 72.5477H145.497C145.497 72.5477 142.653 74.965 131.703 74.965H116.874C116.505 74.9652 116.14 74.8928 115.799 74.7517C115.458 74.6107 115.148 74.4038 114.887 74.143C114.626 73.8822 114.419 73.5725 114.278 73.2317C114.137 72.8909 114.064 72.5255 114.064 72.1566V64.4365C114.064 64.4365 112.498 41.1049 97.8207 41.1049C79.7069 41.1049 83.7721 72.9693 83.7721 72.9693L23.1964 68.8512C23.1964 68.8512 23.0986 40.9671 11.557 40.9671C-0.757189 40.9671 3.14771 66.5749 3.14771 66.5749C2.09486 65.6953 1.26301 64.581 0.71902 63.3215C0.175025 62.062 -0.06595 60.6925 0.0154565 59.323V38.2756L1.22732 30.7736C1.34185 30.0696 1.56236 29.387 1.88135 28.749C1.88135 28.749 59.3392 32.6235 94.0537 39.7857C94.0537 39.7857 126.397 48.1341 146.924 48.7256C167.45 49.3171 178.307 48.5284 178.307 48.5284C178.307 48.5284 186.482 47.9257 188.773 45.3673L189.329 44.6508Z" fill="url(#paint0_linear_2166_29977)"/>
<path d="M11.0008 37.8262C-3.02863 37.8262 3.14611 66.5759 3.14611 66.5759C3.14611 66.5759 -0.760391 40.9664 11.557 40.9664C23.0986 40.9664 23.1996 68.8586 23.1996 68.8586C23.1996 68.8586 25.1921 37.8262 11.0008 37.8262Z" fill="#91969E"/>
<path d="M97.8255 37.8262C77.6278 37.8262 83.7769 72.9751 83.7769 72.9751C83.7769 72.9751 79.7133 41.1107 97.8255 41.1107C112.503 41.1091 114.069 64.4359 114.069 64.4359V72.1511C114.069 72.1511 119.501 37.8262 97.8255 37.8262Z" fill="#91969E"/>
<path d="M181.108 72.5478H145.497L129.547 71.4706C129.13 71.4421 128.723 71.3293 128.351 71.139C127.978 70.9487 127.648 70.6849 127.381 70.3635C127.113 70.0421 126.914 69.6697 126.795 69.269C126.675 68.8683 126.638 68.4475 126.686 68.0321L127.167 63.8755C127.215 63.4579 127.348 63.0546 127.557 62.6901C127.767 62.3257 128.048 62.0078 128.385 61.756C128.722 61.5042 129.106 61.3237 129.515 61.2257C129.924 61.1276 130.348 61.114 130.762 61.1857L144.316 63.5357H180.543L188.826 59.9466C189.02 59.8647 189.231 59.8319 189.441 59.851C189.65 59.87 189.852 59.9404 190.028 60.0559C190.204 60.1714 190.349 60.3285 190.45 60.5132C190.551 60.6979 190.605 60.9047 190.607 61.1152V68.2549C190.607 68.5366 190.514 68.8105 190.342 69.0335C190.17 69.2566 189.929 69.4163 189.656 69.4876L187.412 70.0759C182.326 71.1403 181.145 72.046 181.096 72.5478H181.108Z" fill="#3C3F4E"/>
<path d="M20.9201 8.55214L6.50757 23.4953L12.9725 11.0127C12.9725 11.0127 25.5079 4.28016 29.9482 4.06055C26.7464 5.13504 23.7084 6.64651 20.9201 8.55214V8.55214Z" fill="#3C3F4E"/>
<path d="M80.4154 72.7456L27.7473 69.1597C27.7473 69.1597 29.485 64.628 36.7834 64.9165C44.0819 65.2051 66.4805 67.1607 66.4805 67.1607C66.4805 67.1607 76.44 68.2828 80.4154 72.7456Z" fill="#3C3F4E"/>
<path d="M71.126 3.12939L60.5045 2.64849C51.343 2.08082 42.1467 2.73797 33.159 4.60255L20.5498 19.5104H10.35L20.9201 8.55233C20.9201 8.55233 34.5729 -2.9668 68.8498 1.86944L71.126 3.12939Z" fill="#ABAFB4"/>
<path d="M165.549 25.4833C163.151 24.6217 160.633 24.1414 158.087 24.0598H157.414C125.262 2.21578 111.531 1.8503 111.531 1.8503C91.3323 -0.144316 71.0067 -0.527039 50.7471 0.70576C56.8013 0.6035 62.8538 0.992703 68.845 1.86954L69.1367 2.02022C71.4659 3.25453 87.2634 11.9588 96.8686 25.7606C108.775 27.5548 120.799 28.4576 132.84 28.4617C152.751 28.4617 162.705 28.1779 162.705 28.1779C162.705 28.1779 172.375 28.747 165.549 25.4833ZM98.7874 23.7024C98.7874 23.7024 80.3946 4.29327 70.4496 1.59863L108.63 2.44181C108.63 2.44181 126.352 3.38277 154.081 24.031L98.7874 23.7024Z" fill="#3C3F4E"/>
<path d="M183.559 44.1472C182.81 44.1437 182.079 43.9134 181.464 43.4868L176.313 39.9602L182.536 35.7139L186.725 41.9944L186.692 42.2397C186.593 43.0075 186.018 43.9613 183.847 44.1424C183.746 44.144 183.65 44.1472 183.559 44.1472Z" fill="#3C3F4E"/>
<path d="M182.353 36.6302L186.04 42.1477C185.939 42.9156 185.186 43.3612 183.796 43.475C183.718 43.4814 183.639 43.4846 183.56 43.4846C182.945 43.4816 182.344 43.2922 181.839 42.9412L177.485 39.9532L182.358 36.6302H182.353ZM182.717 34.7852L181.614 35.5386L176.739 38.8616L175.144 39.9516L176.736 41.0433L181.09 44.0296C181.816 44.5333 182.677 44.8044 183.56 44.8071C183.674 44.8071 183.789 44.8071 183.903 44.7927C186.649 44.5666 187.242 43.1464 187.35 42.3192L187.415 41.8271L187.14 41.4135L183.453 35.896L182.712 34.7852H182.717Z" fill="#3C3F4E"/>
<path d="M182.533 35.709L176.31 39.9521L181.46 43.4867C182.076 43.9134 182.806 44.1436 183.555 44.1472C183.652 44.1472 183.748 44.1472 183.844 44.1343C185.098 44.0317 186.707 43.5845 186.707 41.9655L182.533 35.709ZM183.815 43.8057C183.729 43.8057 183.64 43.8169 183.554 43.8169C182.871 43.8143 182.205 43.6041 181.645 43.2142L176.893 39.9537L182.441 36.169L186.373 42.0617C186.324 43.0844 185.465 43.6695 183.817 43.8057H183.815Z" fill="white"/>
<path d="M182.437 36.1689L176.889 39.9536L181.64 43.2141C182.2 43.604 182.866 43.8142 183.549 43.8168V43.8168C183.636 43.8168 183.724 43.8168 183.81 43.8056C185.458 43.6694 186.317 43.0843 186.375 42.0616L182.437 36.1689ZM183.785 43.4754C183.707 43.4818 183.628 43.485 183.549 43.485C182.933 43.482 182.333 43.2926 181.827 42.9416L177.474 39.9536L182.347 36.6306L186.034 42.1481C185.934 42.9144 185.181 43.3616 183.791 43.4754H183.785Z" fill="white"/>
<path d="M129.518 44.6483C128.928 44.6486 128.339 44.6036 127.755 44.5137C124.497 44.0096 121.296 43.1903 118.196 42.0675C113.344 40.2593 110.111 37.9462 108.588 35.189C108.505 35.0416 108.457 34.8773 108.447 34.7085C108.436 34.5398 108.464 34.3708 108.528 34.2144C108.592 34.0579 108.691 33.918 108.817 33.805C108.943 33.692 109.092 33.609 109.255 33.562C110.408 33.2472 111.6 33.0966 112.796 33.1147C114.908 33.1472 117.006 33.4587 119.036 34.0413L142.761 39.8121L142.12 40.6216C141.815 41.0016 141.482 41.3584 141.124 41.6892C139.013 43.6211 136.248 44.6788 133.386 44.6483H129.518Z" fill="#3C3F4E"/>
<path d="M112.788 33.7757C114.841 33.8086 116.881 34.1126 118.855 34.6798L141.584 40.2102C141.299 40.5647 140.989 40.8974 140.654 41.2056C138.667 43.0248 136.062 44.0202 133.367 43.99H129.52C128.961 43.9904 128.403 43.9475 127.851 43.8618C124.638 43.3656 121.48 42.5604 118.421 41.4573C113.721 39.7052 110.605 37.4931 109.16 34.885C109.125 34.8238 109.104 34.7551 109.1 34.6845C109.095 34.6138 109.107 34.5431 109.135 34.4779C109.161 34.4136 109.201 34.3561 109.253 34.3099C109.304 34.2638 109.366 34.2302 109.433 34.2118C110.526 33.9149 111.656 33.773 112.789 33.7902L112.788 33.7757ZM112.789 32.4693C111.531 32.4541 110.277 32.616 109.064 32.9502C108.806 33.0248 108.569 33.1565 108.369 33.3356C108.17 33.5147 108.013 33.7366 107.911 33.9846C107.809 34.2327 107.764 34.5006 107.78 34.7683C107.796 35.0361 107.872 35.2968 108.003 35.531C109.606 38.4292 112.955 40.8434 117.961 42.7076C121.101 43.8454 124.345 44.6758 127.646 45.1875C128.266 45.284 128.893 45.3323 129.52 45.3318H133.367C136.4 45.3582 139.33 44.2285 141.56 42.1722C141.943 41.8199 142.298 41.4389 142.623 41.0325L143.905 39.4151L141.897 38.9342L119.168 33.4038C117.092 32.8108 114.947 32.4944 112.788 32.4629L112.789 32.4693Z" fill="#3C3F4E"/>
<path d="M112.786 33.1147C111.591 33.0968 110.4 33.2474 109.247 33.5619C109.084 33.6089 108.934 33.692 108.808 33.805C108.682 33.9181 108.584 34.0582 108.519 34.2149C108.455 34.3716 108.427 34.5407 108.438 34.7097C108.448 34.8787 108.497 35.0431 108.58 35.1906C112.147 41.6443 124.249 43.9686 127.747 44.5136C128.33 44.6042 128.92 44.6498 129.51 44.6499H133.358C136.218 44.675 138.982 43.6173 141.095 41.6891C141.717 41.1493 142.243 40.5075 142.65 39.7912L119.003 34.0364C116.98 33.4557 114.89 33.1458 112.786 33.1147ZM140.88 41.4503C138.831 43.3257 136.145 44.3525 133.367 44.3229H129.52C128.944 44.3231 128.369 44.2787 127.8 44.1898C124.24 43.6352 112.352 41.3333 108.87 35.0335C108.811 34.9293 108.777 34.8131 108.769 34.6936C108.762 34.5741 108.781 34.4545 108.827 34.3437C108.872 34.2329 108.942 34.1339 109.031 34.054C109.12 33.9741 109.226 33.9155 109.341 33.8825C110.465 33.5768 111.625 33.4306 112.79 33.4481C114.866 33.4802 116.929 33.7863 118.926 34.3586L142.144 40.006C141.777 40.5318 141.354 41.0152 140.88 41.4471V41.4503Z" fill="white"/>
<path d="M112.788 33.4457C111.624 33.4282 110.463 33.5744 109.34 33.8802C109.225 33.9131 109.119 33.9718 109.03 34.0516C108.94 34.1315 108.87 34.2306 108.825 34.3413C108.78 34.4521 108.76 34.5718 108.768 34.6912C108.775 34.8107 108.81 34.9269 108.869 35.0311C112.35 41.3309 124.238 43.6328 127.798 44.1874C128.367 44.2763 128.942 44.3208 129.518 44.3205H133.366C136.144 44.3501 138.829 43.3234 140.879 41.4479C141.352 41.0155 141.776 40.5316 142.142 40.0052L118.924 34.3562C116.928 33.7839 114.864 33.4778 112.788 33.4457V33.4457ZM140.654 41.2059C138.667 43.025 136.062 44.0204 133.367 43.9903H129.52C128.961 43.9906 128.403 43.9477 127.851 43.862C124.638 43.3658 121.48 42.5606 118.421 41.4575C113.721 39.7054 110.605 37.4933 109.16 34.8852C109.125 34.824 109.104 34.7553 109.1 34.6847C109.095 34.614 109.107 34.5433 109.135 34.4781C109.161 34.4138 109.201 34.3563 109.253 34.3102C109.304 34.264 109.366 34.2304 109.433 34.212C110.526 33.9151 111.656 33.7732 112.789 33.7904C114.843 33.8232 116.883 34.1272 118.857 34.6945L141.586 40.2248C141.3 40.5744 140.989 40.9023 140.654 41.2059V41.2059Z" fill="white"/>
<path d="M20.5499 19.5108L33.159 4.60297C42.147 2.74001 51.3433 2.08448 60.5046 2.65373L64.8327 2.84769C64.8327 2.84769 74.8754 3.89124 94.0505 25.1422C85.1868 26.4874 76.2116 26.9519 67.2564 26.5288C51.087 25.9517 26.3719 23.4959 26.3719 23.4959C24.0332 22.8713 21.9786 21.465 20.5499 19.5108V19.5108Z" fill="#1E5169"/>
<path d="M98.7873 23.7024C98.7873 23.7024 80.3945 4.29327 70.4495 1.59863L108.63 2.44181C108.63 2.44181 126.352 3.38277 154.081 24.031L98.7873 23.7024Z" fill="#1E5169"/>
<path d="M128.6 66.823L143.161 67.6037C144.056 67.6517 144.951 67.671 145.848 67.6614L178.536 67.2766C180.038 67.2588 181.534 67.0733 182.994 66.7236L190.081 65.1318" stroke="#626B7B" stroke-width="0.618" stroke-miterlimit="10"/>
<path d="M176.626 52.8867H152.156V53.9126H176.626V52.8867Z" fill="#3C3F4E"/>
<path d="M176.117 53.9121H153.621V61.2394H176.117V53.9121Z" fill="#ECEDF1"/>
<path d="M60.886 25.539C60.5929 25.3885 60.347 25.16 60.1752 24.8788C60.0035 24.5975 59.9127 24.2744 59.9127 23.9448C59.9127 23.6153 60.0035 23.2922 60.1752 23.0109C60.347 22.7297 60.5929 22.5012 60.886 22.3507C61.6762 21.7831 62.5209 21.2955 63.4076 20.8951C64.0718 20.6076 64.7885 20.4613 65.5123 20.4655H69.8404C70.5387 20.4542 71.2321 20.5847 71.8785 20.8492C72.525 21.1137 73.111 21.5067 73.601 22.0044C74.239 22.6491 74.6213 23.5035 74.6766 24.4089V25.5422L60.886 25.539Z" fill="#FEFEFE"/>
<path d="M60.886 25.5391C60.886 25.5391 63.6111 27.7111 65.267 27.7111H70.4495L74.675 31.4221C74.8035 31.5561 74.9578 31.6627 75.1286 31.7356C75.2994 31.8084 75.4832 31.846 75.6689 31.846C75.8546 31.846 76.0383 31.8084 76.2091 31.7356C76.3799 31.6627 76.5342 31.5561 76.6627 31.4221L78.1199 30.1621C78.1199 30.1621 78.6505 29.5001 77.2591 28.1087C75.8677 26.7173 74.675 25.5439 74.675 25.5439L60.886 25.5391Z" fill="#3C3F4E"/>
<path d="M3.10926 27.0186C2.1144 28.0492 1.45783 29.359 1.22734 30.7728L0.656677 34.3074H4.0935L7.24339 29.4695V27.9531C7.24339 27.7052 7.14493 27.4675 6.96967 27.2923C6.79441 27.117 6.5567 27.0186 6.30884 27.0186H3.10926Z" fill="#E94068"/>
<path d="M2.90085 28.5615C2.23339 29.8678 1.85093 31.301 1.77875 32.7662L4.1576 29.2396C4.20153 29.1745 4.22691 29.0986 4.23102 29.0201C4.23512 28.9417 4.21779 28.8636 4.18089 28.7942C4.14399 28.7249 4.0889 28.6669 4.02154 28.6264C3.95418 28.586 3.87709 28.5647 3.79852 28.5647L2.90085 28.5615Z" fill="#E2A1B4"/>
<path d="M122.143 42.8002C123.529 42.8002 124.653 41.0921 124.653 38.9851C124.653 36.878 123.529 35.1699 122.143 35.1699C120.757 35.1699 119.633 36.878 119.633 38.9851C119.633 41.0921 120.757 42.8002 122.143 42.8002Z" stroke="white" stroke-width="0.412" stroke-miterlimit="10"/>
<path d="M181.031 37.0938C181.56 37.4526 181.985 37.9457 182.262 38.5225C182.538 39.0992 182.657 39.7391 182.605 40.3767C182.633 41.35 182.329 42.3039 181.742 43.0809" stroke="white" stroke-width="0.373" stroke-miterlimit="10"/>
<path d="M153.621 53.7148H152.784V61.2409H153.621V53.7148Z" fill="#3C3F4E"/>
<path d="M91.1587 22.0147C73.8703 3.78697 64.831 2.84762 64.831 2.84762L60.5029 2.65365C51.3422 2.08454 42.1464 2.74007 33.159 4.6029L27.3594 11.4589C27.3594 11.4589 63.2232 3.85911 89.0571 21.7277C89.3593 21.9394 89.7076 22.0759 90.0731 22.1259C90.4387 22.1758 90.8108 22.1376 91.1587 22.0147V22.0147Z" fill="#2F6F87"/>
<path d="M132.695 17.7969C109.885 3.32346 75.499 3.87008 75.499 3.87008C73.9195 2.90092 72.2226 2.13759 70.4495 1.59863L108.63 2.44181C108.63 2.44181 126.352 3.38277 154.081 24.031L144.189 23.9733L140.621 23.0019C138.436 22.4062 136.452 21.2316 134.879 19.6019V19.6019C134.225 18.9157 133.492 18.3098 132.695 17.7969V17.7969Z" fill="#2F6F87"/>
<path d="M81.5599 26.4165C80.1782 26.4902 78.697 26.5495 77.1244 26.5864C77.1244 26.5864 74.55 13.4883 73.9185 8.08939V7.06348C74.837 7.65979 75.8244 8.34587 76.8792 9.11531C76.8792 9.11531 76.9064 18.6467 80.8001 25.5396L81.5599 26.4165Z" fill="#3C3F4E"/>
<path d="M55.1986 2.47525C53.6614 2.46242 52.1738 2.48487 50.7471 2.53135C47.0758 9.15772 44.7855 16.4594 44.0145 23.9955V25.0631C46.0151 25.2234 48.0942 25.3837 50.2021 25.544C50.2021 25.544 49.5465 11.6716 54.5302 3.45147L55.1986 2.47525Z" fill="#3C3F4E"/>
<path d="M33.159 4.60254L20.5499 19.5104C21.9786 21.4646 24.0332 22.8708 26.3719 23.4955L27.7281 23.6285L33.159 4.60254Z" fill="#3C3F4E"/>
<path opacity="0.4" d="M180.87 42.2798L177.48 39.9539L182.353 36.6309L183.475 38.322C182.738 38.7033 182.112 39.2676 181.656 39.9606C181.2 40.6536 180.929 41.4522 180.87 42.2798V42.2798Z" fill="white"/>
<path opacity="0.4" d="M135.991 43.1302C134.266 41.8751 132.33 40.9386 130.275 40.365L109.133 34.4596C109.159 34.3953 109.199 34.3378 109.251 34.2917C109.303 34.2455 109.364 34.2119 109.431 34.1935C110.525 33.8966 111.655 33.7547 112.788 33.7719C114.841 33.8048 116.881 34.1088 118.855 34.676L141.584 40.2063C141.299 40.5609 140.989 40.8936 140.654 41.2018C139.485 42.2862 138.079 43.0837 136.548 43.531L135.991 43.1302Z" fill="white"/>
<defs>
<linearGradient id="paint0_linear_2166_29977" x1="95.0251" y1="57.2679" x2="99.459" y2="38.0592" gradientUnits="userSpaceOnUse">
<stop stop-color="white"/>
<stop offset="1" stop-color="#E4E4E4"/>
</linearGradient>
</defs>
</svg>
