<svg width="70" height="70" viewBox="0 0 70 70" fill="none" xmlns="http://www.w3.org/2000/svg">
<path d="M55.977 44.8014L49.9691 41.2826C50.3124 41.1109 50.5699 40.8534 50.9132 40.5959L56.9211 44.1148C56.6636 44.3723 56.3203 44.544 55.977 44.8014Z" fill="#0C9492"/>
<path d="M56.9211 44.0289L50.9132 40.51C50.999 40.4242 51.0849 40.3384 51.2565 40.1667L57.2644 43.6856C57.0927 43.8573 57.0069 43.9431 56.9211 44.0289Z" fill="#0C908E"/>
<path d="M57.2643 43.6857L51.2565 40.1668C51.3423 40.0809 51.4281 39.9951 51.5139 39.9093L57.5218 43.4282C57.3501 43.514 57.2643 43.5998 57.2643 43.6857Z" fill="#0B8D8A"/>
<path d="M57.4359 43.4281L51.4281 39.9092C51.5139 39.8234 51.5139 39.7376 51.5998 39.6517L57.6076 43.1706C57.6076 43.2564 57.5218 43.3423 57.4359 43.4281Z" fill="#0B8987"/>
<path d="M57.6077 43.1706L51.5999 39.6518C51.6857 39.5659 51.6857 39.4801 51.7715 39.3943L57.7794 42.9132C57.7794 43.0848 57.6935 43.0848 57.6077 43.1706Z" fill="#0B8583"/>
<path d="M57.7793 42.999L51.7715 39.4802C51.8573 39.3943 51.8573 39.3085 51.9431 39.2227L57.951 42.7415C57.8652 42.8274 57.8652 42.9132 57.7793 42.999Z" fill="#0B827F"/>
<path d="M57.951 42.7416L51.9431 39.2227C51.9431 39.1369 52.0289 39.051 52.0289 38.9652L58.0368 42.4841C58.0368 42.5699 58.0368 42.6557 57.951 42.7416Z" fill="#0A7E7C"/>
<path d="M58.0368 42.484L52.0289 38.9651C52.0289 38.8793 52.1148 38.7935 52.1148 38.7076L58.1226 42.2265C58.1226 42.3123 58.1226 42.3982 58.0368 42.484Z" fill="#0A7A78"/>
<path d="M58.2084 42.2267L52.2006 38.7078C52.2006 38.622 52.2864 38.5361 52.2864 38.4503L58.2942 41.9692C58.2942 42.1409 58.2084 42.1408 58.2084 42.2267Z" fill="#0A7674"/>
<path d="M58.2942 42.0549L52.2864 38.536C52.2864 38.4502 52.3722 38.3644 52.3722 38.2786L58.38 41.7974C58.38 41.8833 58.2942 41.9691 58.2942 42.0549Z" fill="#097371"/>
<path d="M58.3802 41.7975L52.3723 38.2786C52.3723 38.1928 52.4581 38.1069 52.4581 38.0211L58.466 41.54C58.466 41.6258 58.466 41.7116 58.3802 41.7975Z" fill="#096F6D"/>
<path d="M58.466 41.5399L52.4581 38.021C52.4581 37.9352 52.544 37.8494 52.544 37.7635L58.5518 41.2824C58.5518 41.3683 58.5518 41.4541 58.466 41.5399Z" fill="#096B6A"/>
<path d="M58.5518 41.1967L52.5439 37.6778C52.5439 37.5919 52.6298 37.5061 52.6298 37.3345L58.6376 40.8534C58.6376 41.025 58.6376 41.1108 58.5518 41.1967Z" fill="#086866"/>
<path d="M58.6376 40.9392L52.6298 37.4203C52.6298 37.2487 52.7156 37.1629 52.7156 36.9912L58.7234 40.5101C58.7234 40.6817 58.7234 40.7676 58.6376 40.9392Z" fill="#086462"/>
<path d="M58.7234 40.51L52.7156 36.9912C52.7156 36.8195 52.7156 36.6478 52.7156 36.4762L58.7234 39.9951C58.7234 40.1667 58.7234 40.3384 58.7234 40.51Z" fill="#08605F"/>
<path d="M58.7234 39.9952L52.7156 36.4763L52.6298 17.8519L58.7234 21.3708V39.9952Z" fill="#086361"/>
<path d="M24.5644 62.9107L18.4708 59.3918L49.9691 41.2825L55.9769 44.8013L24.5644 62.9107Z" fill="#0D9F9D"/>
<path d="M50.3125 43.7715L44.3047 40.2526L50.3125 43.7715Z" fill="#9E9E9E"/>
<path d="M50.3125 43.7715L44.3047 40.2526C44.3905 40.2526 44.3905 40.3384 44.4763 40.3384L50.4842 43.8573C50.3984 43.8573 50.3125 43.7715 50.3125 43.7715Z" fill="#A3A3A3"/>
<path d="M50.4841 43.8573L44.4763 40.3384C44.5621 40.3384 44.5621 40.3384 44.6479 40.4242L50.6558 43.9431C50.5699 43.8572 50.4841 43.8573 50.4841 43.8573Z" fill="#A8A8A8"/>
<path d="M50.57 43.8573L44.5622 40.3384C44.648 40.3384 44.648 40.3384 44.7338 40.3384L50.7417 43.8573C50.7417 43.9431 50.6559 43.9431 50.57 43.8573Z" fill="#ADADAD"/>
<path d="M50.7417 43.9431L44.7338 40.4242C44.8197 40.4242 44.8196 40.4242 44.9055 40.4242L50.9133 43.9431C50.9133 43.9431 50.8275 43.9431 50.7417 43.9431Z" fill="#B3B3B3"/>
<path d="M50.9132 43.9431L44.9054 40.4242C44.9912 40.4242 45.077 40.4242 45.077 40.4242L51.0849 43.9431C51.0849 43.9431 50.9991 43.9431 50.9132 43.9431Z" fill="#B8B8B8"/>
<path d="M51.1707 43.9431L45.1629 40.4242C45.2487 40.4242 45.3346 40.4242 45.4204 40.4242L51.4282 43.9431C51.2566 43.9431 51.2566 43.9431 51.1707 43.9431Z" fill="#BDBDBD"/>
<path d="M51.3424 43.9431L45.3345 40.4242C45.4204 40.4242 45.5062 40.4242 45.592 40.3384L51.5999 43.8573C51.514 43.8573 51.4282 43.9431 51.3424 43.9431Z" fill="#C2C2C2"/>
<path d="M51.5999 43.8573L45.592 40.3384C45.6779 40.3384 45.8495 40.2526 45.9353 40.2526L51.9432 43.7715C51.8574 43.7715 51.7715 43.8573 51.5999 43.8573Z" fill="#C7C7C7"/>
<path d="M51.9432 43.7715L45.9354 40.2526C46.107 40.1667 46.1928 40.1667 46.3645 40.0809C46.7078 39.9093 47.0511 39.6518 47.3944 39.3085L53.4023 42.8274C53.059 43.1707 52.8015 43.4281 52.3723 43.5998C52.2865 43.5998 52.1149 43.6856 51.9432 43.7715Z" fill="#CCCCCC"/>
<path d="M53.4023 42.7416L47.3944 39.2227C47.4802 39.1369 47.6519 38.9652 47.7377 38.8794L53.7456 42.3983C53.5739 42.5699 53.4881 42.6558 53.4023 42.7416Z" fill="#C7C7C7"/>
<path d="M53.7456 42.3982L47.7377 38.8793C47.8236 38.7935 47.9094 38.7077 47.9952 38.6218L54.0031 42.1407C53.8314 42.2265 53.8314 42.3124 53.7456 42.3982Z" fill="#C2C2C2"/>
<path d="M53.9171 42.1408L47.9093 38.6219C47.9951 38.536 48.081 38.4502 48.081 38.3644L54.0888 41.8833C54.0888 41.9691 54.003 42.0549 53.9171 42.1408Z" fill="#BDBDBD"/>
<path d="M54.1747 41.8833L48.1669 38.3644C48.2527 38.2786 48.2527 38.1928 48.3385 38.1069L54.3464 41.6258C54.2605 41.7116 54.1747 41.7975 54.1747 41.8833Z" fill="#B8B8B8"/>
<path d="M54.3463 41.6257L48.3384 38.1068C48.4243 38.021 48.4243 37.9352 48.5101 37.8494L54.5179 41.3682C54.4321 41.4541 54.3463 41.5399 54.3463 41.6257Z" fill="#B3B3B3"/>
<path d="M54.4322 41.3684L48.4244 37.8495C48.5102 37.7637 48.5102 37.6779 48.596 37.592L54.6039 41.1109C54.6039 41.1968 54.5181 41.2826 54.4322 41.3684Z" fill="#ADADAD"/>
<path d="M54.6039 41.1108L48.596 37.5919C48.6818 37.5061 48.6818 37.4203 48.6818 37.3345L54.6897 40.8534C54.6897 40.9392 54.6897 41.025 54.6039 41.1108Z" fill="#A8A8A8"/>
<path d="M54.7754 40.8533L48.7676 37.3344C48.7676 37.2486 48.8534 37.1627 48.8534 37.0769L54.8613 40.5958C54.7754 40.6816 54.7754 40.7675 54.7754 40.8533Z" fill="#A3A3A3"/>
<path d="M54.8614 40.5959L48.8535 37.077C48.8535 36.9912 48.9393 36.9054 48.9393 36.8196L54.9472 40.3385C54.9472 40.4243 54.8614 40.5101 54.8614 40.5959Z" fill="#9E9E9E"/>
<path d="M54.9472 40.3384L48.9393 36.8195C48.9393 36.7337 49.0252 36.6478 49.0252 36.562L55.033 40.0809C55.033 40.1667 55.033 40.2525 54.9472 40.3384Z" fill="#999999"/>
<path d="M55.033 40.0809L49.0251 36.5621C49.0251 36.4763 49.111 36.3904 49.111 36.2188L55.1188 39.7376C55.1188 39.8235 55.1188 39.9951 55.033 40.0809Z" fill="#949494"/>
<path d="M55.1187 39.7377L49.1109 36.2188C49.1109 36.133 49.1967 35.9613 49.1967 35.8755L55.2046 39.3944C55.2046 39.566 55.2046 39.6518 55.1187 39.7377Z" fill="#8F8F8F"/>
<path d="M55.2046 39.3943L49.1967 35.8754C49.1967 35.7038 49.2825 35.6179 49.2825 35.4463L55.2904 38.9652C55.2904 39.1368 55.2904 39.3085 55.2046 39.3943Z" fill="#8A8A8A"/>
<path d="M55.2905 39.0511L49.2826 35.5322C49.2826 35.3605 49.2826 35.103 49.2826 34.9314C49.2826 33.9873 48.9393 33.3007 48.4244 33.0432L54.4322 36.5621C54.9472 36.9054 55.2905 37.5062 55.2905 38.4503C55.3763 38.6219 55.3763 38.7936 55.2905 39.0511Z" fill="#858585"/>
<path d="M52.3722 36.7337L46.3644 33.2148C46.536 33.129 46.6219 33.0432 46.7935 33.0432L52.8014 36.5621C52.6297 36.5621 52.5439 36.6479 52.3722 36.7337Z" fill="#6CB0AE"/>
<path d="M52.8013 36.562L46.7935 33.0431C46.8793 32.9573 47.0509 32.9573 47.1368 32.9573L53.1446 36.4762C53.0588 36.4762 52.8871 36.4762 52.8013 36.562Z" fill="#69ACAA"/>
<path d="M53.1447 36.3904L47.1368 32.8715C47.2227 32.8715 47.3085 32.8715 47.3943 32.7856L53.4022 36.3045C53.3163 36.3904 53.2305 36.3904 53.1447 36.3904Z" fill="#67A7A6"/>
<path d="M53.4021 36.3903L47.3942 32.8715C47.4801 32.8715 47.5659 32.8715 47.6517 32.8715L53.6596 36.3903C53.5737 36.3045 53.4879 36.3045 53.4021 36.3903Z" fill="#64A3A1"/>
<path d="M53.6596 36.3045L47.6517 32.7856C47.7376 32.7856 47.8234 32.7856 47.8234 32.7856L53.8312 36.3045C53.7454 36.3045 53.6596 36.3045 53.6596 36.3045Z" fill="#619E9D"/>
<path d="M53.8312 36.3045L47.8234 32.7856C47.9092 32.7856 47.9092 32.7856 47.995 32.7856L54.0029 36.3045C53.917 36.3045 53.917 36.3045 53.8312 36.3045Z" fill="#5E9A99"/>
<path d="M54.0029 36.3903L47.9951 32.8715C48.0809 32.8715 48.0809 32.8715 48.1667 32.8715L54.1746 36.3903C54.0887 36.3903 54.0887 36.3903 54.0029 36.3903Z" fill="#5C9694"/>
<path d="M54.1745 36.3903L48.1667 32.8715C48.2525 32.8715 48.2525 32.8715 48.3383 32.9573L54.3462 36.4762C54.2604 36.3904 54.1745 36.3903 54.1745 36.3903Z" fill="#599190"/>
<path d="M54.3462 36.4762L48.3384 32.9573C48.4242 32.9573 48.4242 33.0431 48.51 33.0431L54.5179 36.562C54.4321 36.4762 54.3462 36.4762 54.3462 36.4762Z" fill="#568D8C"/>
<path d="M54.432 36.4762L48.4242 32.9573L54.432 36.4762C54.432 36.562 54.5179 36.562 54.432 36.4762Z" fill="#548887"/>
<path d="M50.3125 43.7715L44.3047 40.2526C43.7897 39.9093 43.4464 39.3085 43.4464 38.3644C43.4464 38.1928 43.4464 38.0212 43.4464 37.7637L49.4543 41.2826C49.4543 41.4542 49.4543 41.7117 49.4543 41.8833C49.4543 42.8274 49.7117 43.4282 50.3125 43.7715Z" fill="#467271"/>
<path d="M49.4543 41.2825L43.4464 37.7636C43.4464 37.592 43.4464 37.5061 43.5322 37.3345L49.5401 40.8534C49.5401 41.025 49.4543 41.1108 49.4543 41.2825Z" fill="#497776"/>
<path d="M49.5401 40.8534L43.5322 37.3345C43.5322 37.2487 43.6181 37.077 43.6181 36.9912L49.6259 40.5101C49.5401 40.5959 49.5401 40.7676 49.5401 40.8534Z" fill="#4C7B7A"/>
<path d="M49.6259 40.51L43.618 36.9912C43.618 36.9053 43.7039 36.8195 43.7039 36.6478L49.7117 40.1667C49.7117 40.3384 49.6259 40.4242 49.6259 40.51Z" fill="#4E807E"/>
<path d="M49.7118 40.2526L43.7039 36.7337C43.7039 36.6478 43.7897 36.562 43.7897 36.4762L49.7976 39.9951C49.7976 39.9951 49.7118 40.1667 49.7118 40.2526Z" fill="#518483"/>
<path d="M49.7976 39.9093L43.7897 36.3904C43.7897 36.3046 43.8756 36.2188 43.8756 36.1329L49.8834 39.6518C49.8834 39.7376 49.7976 39.8235 49.7976 39.9093Z" fill="#548887"/>
<path d="M49.8834 39.6517L43.8755 36.1329C43.8755 36.047 43.9614 35.9612 43.9614 35.8754L49.9692 39.3943C49.9692 39.4801 49.9692 39.5659 49.8834 39.6517Z" fill="#568D8C"/>
<path d="M50.055 39.3943L44.0471 35.8754C44.0471 35.7896 44.1329 35.7037 44.1329 35.6179L50.1408 39.1368C50.1408 39.2226 50.055 39.3084 50.055 39.3943Z" fill="#599190"/>
<path d="M50.1409 39.1369L44.1331 35.618C44.2189 35.5321 44.2189 35.4463 44.3047 35.3605L50.3126 38.8794C50.2267 38.9652 50.2267 39.051 50.1409 39.1369Z" fill="#5C9694"/>
<path d="M50.3125 38.8793L44.3047 35.3604C44.3905 35.2745 44.3905 35.1887 44.4763 35.1029L50.4842 38.6218C50.3984 38.7076 50.3125 38.7934 50.3125 38.8793Z" fill="#5E9A99"/>
<path d="M50.4841 38.6218L44.4763 35.1029C44.5621 35.0171 44.5621 34.9313 44.6479 34.8455L50.6558 38.3643C50.5699 38.4501 50.4841 38.536 50.4841 38.6218Z" fill="#619E9D"/>
<path d="M50.6559 38.4502L44.648 34.9313C44.7338 34.8455 44.8197 34.7597 44.8197 34.6738L50.8275 38.1927C50.7417 38.1927 50.6559 38.2785 50.6559 38.4502Z" fill="#64A3A1"/>
<path d="M50.8274 38.1069L44.8196 34.588C44.9054 34.5022 44.9912 34.4164 45.0771 34.3306L51.0849 37.8495C50.9991 37.9353 50.9133 38.0211 50.8274 38.1069Z" fill="#67A7A6"/>
<path d="M51.085 37.8494L45.0771 34.3305C45.163 34.2447 45.2488 34.073 45.4205 33.9872L51.4283 37.506C51.2566 37.5919 51.1708 37.7635 51.085 37.8494Z" fill="#69ACAA"/>
<path d="M51.3424 37.506L45.3345 33.9872C45.6778 33.6439 45.9353 33.3864 46.3645 33.2147L52.3723 36.7336C52.029 36.9053 51.6857 37.1627 51.3424 37.506Z" fill="#6CB0AE"/>
<path d="M50.2265 33.9873L44.2186 30.4684L50.2265 33.9873Z" fill="#9E9E9E"/>
<path d="M50.3123 34.0731L44.3044 30.5542C44.3903 30.5542 44.3903 30.64 44.4761 30.64L50.4839 34.1589C50.3981 34.0731 50.3123 34.0731 50.3123 34.0731Z" fill="#A3A3A3"/>
<path d="M50.3981 34.0731L44.3903 30.5542C44.4761 30.5542 44.4761 30.5542 44.5619 30.64L50.5698 34.1589C50.4839 34.1589 50.4839 34.1589 50.3981 34.0731Z" fill="#A8A8A8"/>
<path d="M50.5698 34.1589L44.562 30.64C44.6478 30.64 44.6478 30.64 44.7336 30.64L50.7415 34.1589C50.6556 34.1589 50.6556 34.1589 50.5698 34.1589Z" fill="#ADADAD"/>
<path d="M50.7414 34.1589L44.7336 30.64C44.8194 30.64 44.8194 30.64 44.9052 30.64L50.9131 34.1589C50.8273 34.2447 50.8273 34.2447 50.7414 34.1589Z" fill="#B3B3B3"/>
<path d="M50.9131 34.2447L44.9053 30.7258C44.9911 30.7258 45.0769 30.7258 45.0769 30.7258L51.0848 34.2447C51.0848 34.2447 50.9989 34.2447 50.9131 34.2447Z" fill="#B8B8B8"/>
<path d="M51.0848 34.2447L45.0769 30.7258C45.1627 30.7258 45.2486 30.7258 45.3344 30.7258L51.3422 34.2447C51.2564 34.2447 51.1706 34.2447 51.0848 34.2447Z" fill="#BDBDBD"/>
<path d="M51.3423 34.1589L45.3344 30.64C45.4202 30.64 45.5061 30.64 45.5919 30.5542L51.5997 34.0731C51.5139 34.1589 51.4281 34.1589 51.3423 34.1589Z" fill="#C2C2C2"/>
<path d="M51.5997 34.1589L45.5919 30.64C45.6777 30.64 45.8493 30.5542 45.9352 30.5542L51.943 34.0731C51.8572 34.0731 51.6855 34.0731 51.5997 34.1589Z" fill="#C7C7C7"/>
<path d="M51.943 33.9872L45.9352 30.4683C46.1068 30.3824 46.1927 30.3824 46.3643 30.2966C46.7076 30.1249 47.0509 29.8675 47.3942 29.5242L53.4021 33.0431C53.0588 33.3864 52.8013 33.6438 52.3722 33.8155C52.2005 33.9013 52.1147 33.9872 51.943 33.9872Z" fill="#CCCCCC"/>
<path d="M53.3162 33.0432L47.3083 29.5243C47.3942 29.4385 47.5658 29.2669 47.6517 29.181L53.6595 32.6999C53.5737 32.7857 53.4878 32.9574 53.3162 33.0432Z" fill="#C7C7C7"/>
<path d="M53.6595 32.6998L47.6517 29.181C47.7375 29.0951 47.8233 29.0093 47.9092 28.9235L53.917 32.4423C53.8312 32.5282 53.7453 32.614 53.6595 32.6998Z" fill="#C2C2C2"/>
<path d="M53.917 32.4422L47.9092 28.9234C47.995 28.8375 48.0808 28.7517 48.0808 28.6659L54.0887 32.1848C54.0887 32.2706 54.0029 32.3564 53.917 32.4422Z" fill="#BDBDBD"/>
<path d="M54.0887 32.0991L48.0808 28.5802C48.1666 28.4944 48.1666 28.4086 48.2525 28.3228L54.2603 31.8416C54.2603 32.0133 54.1745 32.0991 54.0887 32.0991Z" fill="#B8B8B8"/>
<path d="M54.2603 31.9274L48.2524 28.4085C48.3383 28.3227 48.3383 28.2368 48.4241 28.151L54.4319 31.6699C54.4319 31.7557 54.3461 31.8415 54.2603 31.9274Z" fill="#B3B3B3"/>
<path d="M54.432 31.6699L48.4241 28.151C48.51 28.0652 48.51 27.9794 48.5958 27.8936L54.6036 31.4124C54.5178 31.4983 54.5178 31.5841 54.432 31.6699Z" fill="#ADADAD"/>
<path d="M54.6036 31.4125L48.5958 27.8936C48.6816 27.8078 48.6816 27.7219 48.6816 27.6361L54.6894 31.155C54.6894 31.2408 54.6036 31.3267 54.6036 31.4125Z" fill="#A8A8A8"/>
<path d="M54.6894 31.1549L48.6816 27.636C48.6816 27.5502 48.7674 27.4644 48.7674 27.3785L54.7753 30.8974C54.7753 30.9833 54.7753 31.0691 54.6894 31.1549Z" fill="#A3A3A3"/>
<path d="M54.8611 30.8974L48.8533 27.3786C48.8533 27.2927 48.9391 27.2069 48.9391 27.1211L54.9469 30.64C54.8611 30.7258 54.8611 30.8116 54.8611 30.8974Z" fill="#9E9E9E"/>
<path d="M54.9469 30.64L48.9391 27.1211C48.9391 27.0353 49.0249 26.9495 49.0249 26.8636L55.0328 30.3825C55.0328 30.3825 54.9469 30.5542 54.9469 30.64Z" fill="#999999"/>
<path d="M55.0327 30.2966L49.0249 26.7777C49.0249 26.6919 49.1107 26.6061 49.1107 26.4344L55.1186 29.9533C55.1186 30.125 55.0327 30.2108 55.0327 30.2966Z" fill="#949494"/>
<path d="M55.1186 30.0392L49.1107 26.5203C49.1107 26.4345 49.1965 26.2628 49.1965 26.177L55.2044 29.6959C55.2044 29.7817 55.1186 29.9534 55.1186 30.0392Z" fill="#8F8F8F"/>
<path d="M55.2044 29.6959L49.1966 26.1771C49.1966 26.0054 49.2824 25.9196 49.2824 25.7479L55.2903 29.2668C55.2903 29.4385 55.2044 29.5243 55.2044 29.6959Z" fill="#8A8A8A"/>
<path d="M55.2902 29.2668L49.2824 25.7479C49.2824 25.5762 49.2824 25.3187 49.2824 25.1471C49.2824 24.203 48.9391 23.6022 48.4241 23.2589L54.432 26.7778C54.9469 27.1211 55.2902 27.7219 55.2902 28.666C55.2902 28.9234 55.2902 29.0951 55.2902 29.2668Z" fill="#858585"/>
<path d="M40.9574 49.0926L34.9496 45.5737L40.9574 49.0926C40.9574 49.0926 40.9574 49.1784 40.9574 49.0926Z" fill="#9E9E9E"/>
<path d="M40.9574 49.1784L34.9496 45.6595C35.0354 45.6595 35.0354 45.7454 35.1212 45.7454L41.1291 49.2643C41.1291 49.1784 41.0433 49.1784 40.9574 49.1784Z" fill="#A3A3A3"/>
<path d="M41.129 49.1784L35.1212 45.6595C35.207 45.6595 35.207 45.6596 35.2928 45.7454L41.3007 49.2643C41.2148 49.2643 41.2148 49.2643 41.129 49.1784Z" fill="#A8A8A8"/>
<path d="M41.3008 49.2642L35.2929 45.7454C35.3787 45.7454 35.3787 45.7454 35.4646 45.7454L41.4724 49.2642C41.3866 49.2642 41.3866 49.2642 41.3008 49.2642Z" fill="#ADADAD"/>
<path d="M41.4723 49.3501L35.4645 45.8312C35.5503 45.8312 35.5503 45.8312 35.6361 45.8312L41.644 49.3501C41.5582 49.3501 41.5582 49.3501 41.4723 49.3501Z" fill="#B3B3B3"/>
<path d="M41.6441 49.3501L35.6362 45.8312C35.7221 45.8312 35.8079 45.8312 35.8079 45.8312L41.8157 49.3501C41.7299 49.3501 41.7299 49.3501 41.6441 49.3501Z" fill="#B8B8B8"/>
<path d="M41.8157 49.3501L35.8079 45.8312C35.8937 45.8312 35.9795 45.8312 36.0653 45.8312L42.0732 49.3501C41.9874 49.3501 41.9015 49.3501 41.8157 49.3501Z" fill="#BDBDBD"/>
<path d="M42.0732 49.3501L36.0654 45.8312C36.1512 45.8312 36.237 45.8312 36.3228 45.7454L42.3307 49.2642C42.2449 49.2642 42.159 49.2643 42.0732 49.3501Z" fill="#C2C2C2"/>
<path d="M42.3306 49.2643L36.3228 45.7454C36.4086 45.7454 36.5802 45.6595 36.6661 45.6595L42.6739 49.1784C42.5881 49.1784 42.4164 49.1784 42.3306 49.2643Z" fill="#C7C7C7"/>
<path d="M42.6739 49.0927L36.6661 45.5739C36.8377 45.488 36.9236 45.488 37.0952 45.4022C37.4385 45.2305 37.7818 44.9731 38.1251 44.6298L44.133 48.1486C43.7897 48.492 43.5322 48.7494 43.1031 48.9211C42.9314 49.0069 42.7598 49.0927 42.6739 49.0927Z" fill="#CCCCCC"/>
<path d="M44.0472 48.1486L38.0393 44.6297C38.1251 44.5439 38.2968 44.3722 38.3826 44.2864L44.3905 47.8052C44.3046 47.8911 44.2188 48.0627 44.0472 48.1486Z" fill="#C7C7C7"/>
<path d="M44.3905 47.8053L38.3826 44.2864C38.4685 44.2006 38.5543 44.1148 38.6401 44.0289L44.648 47.5478C44.5621 47.6336 44.4763 47.7195 44.3905 47.8053Z" fill="#C2C2C2"/>
<path d="M44.648 47.5478L38.6401 44.029C38.726 43.9431 38.8118 43.8573 38.8118 43.7715L44.8196 47.2904C44.7338 47.3762 44.7338 47.462 44.648 47.5478Z" fill="#BDBDBD"/>
<path d="M44.8196 47.2903L38.8118 43.7714C38.8976 43.6856 38.8976 43.5997 38.9834 43.5139L44.9913 47.0328C44.9054 47.1186 44.9054 47.2045 44.8196 47.2903Z" fill="#B8B8B8"/>
<path d="M44.9912 47.0328L38.9833 43.5139C39.0692 43.4281 39.0692 43.3423 39.155 43.2565L45.1628 46.7754C45.077 46.8612 45.077 46.947 44.9912 47.0328Z" fill="#B3B3B3"/>
<path d="M45.1629 46.7754L39.1551 43.2565C39.2409 43.1707 39.2409 43.0848 39.3267 42.999L45.3346 46.5179C45.2488 46.6037 45.1629 46.6896 45.1629 46.7754Z" fill="#ADADAD"/>
<path d="M45.3346 46.5178L39.3267 42.9989C39.4125 42.9131 39.4125 42.8273 39.4125 42.7415L45.4204 46.2603C45.4204 46.3462 45.3346 46.432 45.3346 46.5178Z" fill="#A8A8A8"/>
<path d="M45.4203 46.2604L39.4125 42.7415C39.4125 42.6557 39.4983 42.5698 39.4983 42.484L45.5061 46.0029C45.5061 46.0887 45.4203 46.1745 45.4203 46.2604Z" fill="#A3A3A3"/>
<path d="M45.5063 46.0029L39.4984 42.4841C39.4984 42.3982 39.5842 42.3124 39.5842 42.2266L45.5921 45.7454C45.5921 45.8313 45.5921 45.9171 45.5063 46.0029Z" fill="#9E9E9E"/>
<path d="M45.6779 45.7453L39.67 42.2265C39.67 42.1406 39.7559 42.0548 39.7559 41.969L45.7637 45.4879C45.6779 45.5737 45.6779 45.6595 45.6779 45.7453Z" fill="#999999"/>
<path d="M45.7636 45.4021L39.7558 41.8832C39.7558 41.7974 39.8416 41.7116 39.8416 41.5399L45.8495 45.0588C45.8495 45.2305 45.7636 45.3163 45.7636 45.4021Z" fill="#949494"/>
<path d="M45.8495 45.1447L39.8416 41.6258C39.8416 41.5399 39.9274 41.3683 39.9274 41.2825L45.9353 44.8013C45.9353 44.8872 45.8495 45.0588 45.8495 45.1447Z" fill="#8F8F8F"/>
<path d="M45.9354 44.8014L39.9276 41.2825C39.9276 41.1109 40.0134 41.025 40.0134 40.8534L46.0212 44.3723C45.9354 44.5439 45.9354 44.6297 45.9354 44.8014Z" fill="#8A8A8A"/>
<path d="M46.0212 44.3722L40.0134 40.8534C40.0134 40.6817 40.0134 40.4242 40.0134 40.2526C40.0134 39.3085 39.67 38.6219 39.1551 38.3644L45.1629 41.8833C45.6779 42.2266 46.0212 42.8274 46.0212 43.7715C46.0212 44.0289 46.0212 44.2006 46.0212 44.3722Z" fill="#858585"/>
<path d="M52.3722 27.0353L46.3644 23.5164C46.536 23.4306 46.6219 23.3447 46.7935 23.3447L52.8014 26.8636C52.6297 26.8636 52.4581 26.9495 52.3722 27.0353Z" fill="#9CBEBE"/>
<path d="M52.8013 26.7778L46.7935 23.2589C46.8793 23.1731 47.0509 23.1731 47.1368 23.1731L53.1446 26.692C52.973 26.692 52.8871 26.7778 52.8013 26.7778Z" fill="#98B9B9"/>
<path d="M53.1447 26.692L47.1368 23.1731C47.2227 23.1731 47.3085 23.1731 47.3943 23.0873L53.4022 26.6062C53.3163 26.6062 53.2305 26.692 53.1447 26.692Z" fill="#94B4B4"/>
<path d="M53.4021 26.6062L47.3942 23.0873C47.4801 23.0873 47.5659 23.0873 47.6517 23.0873L53.6596 26.6062C53.4879 26.6062 53.4879 26.6062 53.4021 26.6062Z" fill="#90AFAF"/>
<path d="M53.5738 26.6062L47.5659 23.0873C47.6517 23.0873 47.7376 23.0873 47.7376 23.0873L53.7454 26.6062C53.7454 26.6062 53.6596 26.6062 53.5738 26.6062Z" fill="#8CABAB"/>
<path d="M53.8312 26.6062L47.8234 23.0873C47.9092 23.0873 47.9092 23.0873 47.995 23.0873L54.0029 26.6062C53.917 26.6062 53.8312 26.6062 53.8312 26.6062Z" fill="#88A6A6"/>
<path d="M54.0029 26.6062L47.9951 23.0873C48.0809 23.0873 48.0809 23.0873 48.1667 23.0873L54.1746 26.6062C54.0887 26.6062 54.0029 26.6062 54.0029 26.6062Z" fill="#85A1A1"/>
<path d="M54.1745 26.692L48.1667 23.1731C48.2525 23.1731 48.2525 23.1731 48.3383 23.2589L54.3462 26.7778C54.2604 26.692 54.1745 26.692 54.1745 26.692Z" fill="#819C9C"/>
<path d="M54.2603 26.692L48.2525 23.1731C48.3383 23.1731 48.3383 23.2589 48.4242 23.2589L54.432 26.7778C54.432 26.7778 54.3462 26.7778 54.2603 26.692Z" fill="#7D9898"/>
<path d="M54.432 26.7779L48.4242 23.259L54.432 26.7779Z" fill="#799393"/>
<path d="M43.0171 42.1409L37.0093 38.622C37.1809 38.5362 37.2668 38.4503 37.4384 38.4503L43.4463 41.9692C43.3604 41.9692 43.1888 42.055 43.0171 42.1409Z" fill="#9CBEBE"/>
<path d="M43.4463 41.8833L37.4384 38.3644C37.5242 38.2785 37.6959 38.2786 37.7817 38.2786L43.7896 41.7974C43.7037 41.7974 43.6179 41.8833 43.4463 41.8833Z" fill="#98B9B9"/>
<path d="M43.7896 41.7974L37.7817 38.2786C37.8676 38.2786 37.9534 38.2786 38.0392 38.1927L44.0471 41.7116C43.9612 41.7116 43.8754 41.7974 43.7896 41.7974Z" fill="#94B4B4"/>
<path d="M44.047 41.7116L38.0392 38.1927C38.125 38.1927 38.2108 38.1927 38.2967 38.1927L44.3045 41.7116C44.2187 41.7116 44.1329 41.7116 44.047 41.7116Z" fill="#90AFAF"/>
<path d="M44.3045 41.7116L38.2967 38.1927C38.3825 38.1927 38.4683 38.1927 38.4683 38.1927L44.4762 41.7116C44.4762 41.7116 44.3904 41.7116 44.3045 41.7116Z" fill="#8CABAB"/>
<path d="M44.4762 41.7116L38.4683 38.1927C38.5541 38.1927 38.5541 38.1927 38.64 38.1927L44.6478 41.7116C44.6478 41.7116 44.562 41.7116 44.4762 41.7116Z" fill="#88A6A6"/>
<path d="M44.6479 41.7116L38.64 38.1927C38.7258 38.1927 38.7258 38.1927 38.8117 38.1927L44.8195 41.7116C44.8195 41.7116 44.7337 41.7116 44.6479 41.7116Z" fill="#85A1A1"/>
<path d="M44.8195 41.7974L38.8116 38.2786C38.8975 38.2786 38.8975 38.2785 38.9833 38.3644L44.9911 41.8833C44.9911 41.7974 44.9053 41.7974 44.8195 41.7974Z" fill="#819C9C"/>
<path d="M44.9912 41.7974L38.9833 38.2786C39.0692 38.2786 39.0692 38.3644 39.155 38.3644L45.1628 41.8833C45.077 41.8833 45.077 41.8833 44.9912 41.7974Z" fill="#7D9898"/>
<path d="M45.1628 41.8833L39.155 38.3644L45.1628 41.8833Z" fill="#799393"/>
<path d="M50.2265 33.9873L44.2186 30.4685C43.7037 30.1251 43.3604 29.5244 43.3604 28.5803C43.3604 28.4086 43.3604 28.237 43.3604 27.9795L49.3682 31.4984C49.3682 31.67 49.3682 31.9275 49.3682 32.0991C49.3682 33.0432 49.7115 33.7299 50.2265 33.9873Z" fill="#657B7B"/>
<path d="M49.454 31.4984L43.4462 27.9795C43.4462 27.8079 43.4462 27.7221 43.532 27.5504L49.5398 31.0693C49.454 31.2409 49.454 31.4126 49.454 31.4984Z" fill="#698080"/>
<path d="M49.5398 31.155L43.532 27.6361C43.532 27.5503 43.6178 27.3787 43.6178 27.2928L49.6257 30.8117C49.5398 30.8976 49.5398 30.9834 49.5398 31.155Z" fill="#6D8585"/>
<path d="M49.5398 30.8117L43.532 27.2928C43.532 27.2069 43.6178 27.1211 43.6178 26.9495L49.6257 30.4683C49.6257 30.5542 49.6257 30.7258 49.5398 30.8117Z" fill="#718989"/>
<path d="M49.7115 30.4685L43.7037 26.9496C43.7037 26.8638 43.7895 26.778 43.7895 26.6921L49.7973 30.211C49.7115 30.2968 49.7115 30.3827 49.7115 30.4685Z" fill="#758E8E"/>
<path d="M49.7973 30.2109L43.7895 26.6921C43.7895 26.6062 43.8753 26.5204 43.8753 26.4346L49.8832 29.9535C49.8832 30.0393 49.7973 30.1251 49.7973 30.2109Z" fill="#799393"/>
<path d="M49.8832 29.9534L43.8753 26.4345C43.8753 26.3486 43.9611 26.2628 43.9611 26.177L49.969 29.6959C49.969 29.7817 49.8832 29.8675 49.8832 29.9534Z" fill="#7D9898"/>
<path d="M49.969 29.6959L43.9611 26.1771C43.9611 26.0912 44.0469 26.0054 44.0469 25.9196L50.0548 29.4384C50.0548 29.5243 50.0548 29.6101 49.969 29.6959Z" fill="#819C9C"/>
<path d="M50.1407 29.4385L44.1328 25.9196C44.2186 25.8338 44.2186 25.7479 44.3045 25.6621L50.3123 29.181C50.2265 29.2668 50.1407 29.3526 50.1407 29.4385Z" fill="#85A1A1"/>
<path d="M50.2265 29.181L44.2186 25.6621C44.3045 25.5763 44.3045 25.4905 44.3903 25.4047L50.3981 28.9235C50.3981 29.0094 50.3123 29.0952 50.2265 29.181Z" fill="#88A6A6"/>
<path d="M50.3981 28.9236L44.3903 25.4047C44.4761 25.3189 44.4761 25.233 44.5619 25.1472L50.5698 28.6661C50.5698 28.7519 50.4839 28.8377 50.3981 28.9236Z" fill="#8CABAB"/>
<path d="M50.5698 28.666L44.562 25.1471C44.6478 25.0613 44.7336 24.9755 44.7336 24.8896L50.7415 28.4085C50.7415 28.4944 50.6556 28.5802 50.5698 28.666Z" fill="#90AFAF"/>
<path d="M50.8272 28.4085L44.8194 24.8896C44.9052 24.8037 44.991 24.7179 45.0769 24.6321L51.0847 28.151C50.9131 28.2368 50.8272 28.3226 50.8272 28.4085Z" fill="#94B4B4"/>
<path d="M50.9989 28.1511L44.9911 24.6322C45.0769 24.5464 45.1627 24.3748 45.3344 24.2889L51.3422 27.8078C51.2564 27.8937 51.1706 27.9795 50.9989 28.1511Z" fill="#98B9B9"/>
<path d="M51.3423 27.8078L45.3344 24.2889C45.6777 23.9456 46.021 23.6881 46.3643 23.5165L52.3722 27.0354C52.0289 27.207 51.6856 27.4645 51.3423 27.8078Z" fill="#9CBEBE"/>
<path d="M52.3722 27.0353C54.0029 26.0912 55.3762 26.8636 55.3762 28.7518C55.3762 30.64 54.0888 32.9573 52.4581 33.9014C50.8274 34.8455 49.4541 34.073 49.4541 32.1848C49.3683 30.2108 50.7415 27.9793 52.3722 27.0353Z" fill="#C3EDED"/>
<path d="M40.9574 49.0927L34.9496 45.5738C34.4346 45.2305 34.0913 44.6297 34.0913 43.6856C34.0913 43.514 34.0913 43.3423 34.0913 43.0848L40.0992 46.6037C40.0992 46.7754 40.0992 47.0329 40.0992 47.2045C40.0992 48.1486 40.4425 48.8352 40.9574 49.0927Z" fill="#657B7B"/>
<path d="M40.185 46.6896L34.1771 43.1707C34.1771 42.9991 34.1771 42.9132 34.263 42.7416L40.2708 46.2605C40.185 46.3463 40.185 46.5179 40.185 46.6896Z" fill="#698080"/>
<path d="M40.185 46.2605L34.1771 42.7416C34.1771 42.6558 34.263 42.4841 34.263 42.3983L40.2708 45.9172C40.2708 46.003 40.2708 46.0888 40.185 46.2605Z" fill="#6D8585"/>
<path d="M40.2708 45.9171L34.2629 42.3982C34.2629 42.3124 34.3488 42.2266 34.3488 42.0549L40.3566 45.5738C40.3566 45.6596 40.3566 45.8313 40.2708 45.9171Z" fill="#718989"/>
<path d="M40.3567 45.5737L34.3488 42.0549C34.3488 41.969 34.4346 41.8832 34.4346 41.7974L40.4425 45.3163C40.4425 45.4021 40.4425 45.4879 40.3567 45.5737Z" fill="#758E8E"/>
<path d="M40.5283 45.3164L34.5204 41.7975C34.5204 41.7117 34.6063 41.6259 34.6063 41.54L40.6141 45.0589C40.5283 45.1448 40.5283 45.2306 40.5283 45.3164Z" fill="#799393"/>
<path d="M40.6141 45.0588L34.6063 41.5399C34.6063 41.4541 34.6921 41.3683 34.6921 41.2825L40.6999 44.8013C40.6999 44.8872 40.6141 44.973 40.6141 45.0588Z" fill="#7D9898"/>
<path d="M40.6999 44.8014L34.692 41.2825C34.692 41.1967 34.7778 41.1109 34.7778 41.025L40.7857 44.5439C40.7857 44.6297 40.7857 44.7156 40.6999 44.8014Z" fill="#819C9C"/>
<path d="M40.8716 44.5439L34.8638 41.025C34.9496 40.9392 34.9496 40.8534 35.0354 40.7676L41.0433 44.2865C40.9574 44.3723 40.8716 44.4581 40.8716 44.5439Z" fill="#85A1A1"/>
<path d="M40.9574 44.2864L34.9496 40.7675C35.0354 40.6817 35.0354 40.5958 35.1212 40.51L41.1291 44.0289C41.1291 44.1147 41.0433 44.2006 40.9574 44.2864Z" fill="#88A6A6"/>
<path d="M41.129 44.0289L35.1212 40.51C35.207 40.4242 35.207 40.3384 35.2928 40.2526L41.3007 43.7715C41.2148 43.8573 41.2148 43.9431 41.129 44.0289Z" fill="#8CABAB"/>
<path d="M41.3008 43.7715L35.2929 40.2526C35.3787 40.1668 35.4646 40.0809 35.4646 39.9951L41.4724 43.514C41.4724 43.5998 41.3866 43.6856 41.3008 43.7715Z" fill="#90AFAF"/>
<path d="M41.4723 43.514L35.4645 39.9952C35.5503 39.9093 35.6361 39.8235 35.722 39.7377L41.7298 43.2566C41.644 43.3424 41.5582 43.4282 41.4723 43.514Z" fill="#94B4B4"/>
<path d="M41.7299 43.2565L35.722 39.7376C35.8079 39.6518 35.8937 39.4801 36.0653 39.3943L42.0732 42.9132C41.9874 42.999 41.8157 43.0848 41.7299 43.2565Z" fill="#98B9B9"/>
<path d="M42.0732 42.9131L36.0654 39.3943C36.4087 39.051 36.6662 38.7935 37.0095 38.6218L43.0173 42.1407C42.674 42.3124 42.4165 42.5698 42.0732 42.9131Z" fill="#9CBEBE"/>
<path d="M40.9574 39.3944L34.9496 35.8755L40.9574 39.3944Z" fill="#9E9E9E"/>
<path d="M40.9574 39.3944L34.9496 35.8755C35.0354 35.8755 35.0354 35.9613 35.1212 35.9613L41.1291 39.4802C41.0433 39.4802 41.0433 39.3944 40.9574 39.3944Z" fill="#A3A3A3"/>
<path d="M41.129 39.4802L35.1212 35.9613C35.207 35.9613 35.207 35.9613 35.2928 36.0471L41.3007 39.566C41.2148 39.4802 41.129 39.4802 41.129 39.4802Z" fill="#A8A8A8"/>
<path d="M41.3008 39.566L35.2929 36.0471C35.3787 36.0471 35.3787 36.0471 35.4646 36.0471L41.4724 39.566C41.3866 39.566 41.3008 39.566 41.3008 39.566Z" fill="#ADADAD"/>
<path d="M41.4723 39.566L35.4645 36.0471C35.5503 36.0471 35.5503 36.0471 35.6361 36.0471L41.644 39.566C41.5582 39.566 41.4723 39.566 41.4723 39.566Z" fill="#B3B3B3"/>
<path d="M41.6441 39.566L35.6362 36.0471C35.7221 36.0471 35.8079 36.0471 35.8079 36.0471L41.8157 39.566C41.7299 39.566 41.6441 39.566 41.6441 39.566Z" fill="#B8B8B8"/>
<path d="M41.8157 39.566L35.8079 36.0471C35.8937 36.0471 35.9795 36.0471 36.0653 36.0471L42.0732 39.566C41.9874 39.566 41.9015 39.566 41.8157 39.566Z" fill="#BDBDBD"/>
<path d="M41.9873 39.566L35.9794 36.0471C36.0653 36.0471 36.1511 36.0471 36.2369 35.9613L42.2448 39.4802C42.1589 39.566 42.0731 39.566 41.9873 39.566Z" fill="#C2C2C2"/>
<path d="M42.3306 39.4802L36.3228 35.9613C36.4086 35.9613 36.5802 35.8755 36.6661 35.8755L42.6739 39.3944C42.5023 39.4802 42.4164 39.4802 42.3306 39.4802Z" fill="#C7C7C7"/>
<path d="M42.6739 39.3943L36.6661 35.8754C36.8377 35.7895 36.9236 35.7896 37.0952 35.7037C37.4385 35.5321 37.7818 35.2746 38.1251 34.9313L44.133 38.4502C43.7897 38.7935 43.5322 39.0509 43.1031 39.2226C42.9314 39.3084 42.7598 39.3084 42.6739 39.3943Z" fill="#CCCCCC"/>
<path d="M44.0472 38.4503L38.0393 34.9314C38.1251 34.8456 38.2968 34.674 38.3826 34.5881L44.3905 38.107C44.2188 38.1928 44.133 38.2787 44.0472 38.4503Z" fill="#C7C7C7"/>
<path d="M44.3905 38.1069L38.3826 34.588C38.4685 34.5022 38.5543 34.4164 38.6401 34.3306L44.648 37.8495C44.5621 37.8495 44.4763 38.0211 44.3905 38.1069Z" fill="#C2C2C2"/>
<path d="M44.648 37.7637L38.6401 34.2448C38.726 34.1589 38.8118 34.0731 38.8118 33.9873L44.8196 37.5062C44.7338 37.592 44.648 37.6778 44.648 37.7637Z" fill="#BDBDBD"/>
<path d="M44.8196 37.5062L38.8118 33.9874C38.8976 33.9015 38.8976 33.8157 38.9834 33.7299L44.9913 37.2487C44.9054 37.3346 44.8196 37.4204 44.8196 37.5062Z" fill="#B8B8B8"/>
<path d="M44.9912 37.2486L38.9833 33.7298C39.0692 33.6439 39.0692 33.5581 39.155 33.4723L45.1628 36.9912C45.077 37.077 44.9912 37.1628 44.9912 37.2486Z" fill="#B3B3B3"/>
<path d="M45.1629 36.9911L39.1551 33.4722C39.2409 33.3864 39.2409 33.3005 39.3267 33.2147L45.3346 36.7336C45.2488 36.8194 45.1629 36.9053 45.1629 36.9911Z" fill="#ADADAD"/>
<path d="M45.2488 36.7338L39.2409 33.2149C39.3267 33.129 39.3267 33.0432 39.3267 32.9574L45.3346 36.4763C45.3346 36.5621 45.3346 36.6479 45.2488 36.7338Z" fill="#A8A8A8"/>
<path d="M45.4203 36.4763L39.4125 32.9574C39.4125 32.8716 39.4983 32.7858 39.4983 32.7L45.5061 36.2188C45.5061 36.3046 45.4203 36.3905 45.4203 36.4763Z" fill="#A3A3A3"/>
<path d="M45.5063 36.2187L39.4984 32.6999C39.4984 32.6141 39.5842 32.5282 39.5842 32.4424L45.5921 35.9613C45.5921 36.0471 45.5921 36.1329 45.5063 36.2187Z" fill="#9E9E9E"/>
<path d="M45.5921 35.9613L39.5842 32.4424C39.5842 32.3566 39.6701 32.2708 39.6701 32.1849L45.6779 35.7038C45.6779 35.7896 45.6779 35.8755 45.5921 35.9613Z" fill="#999999"/>
<path d="M45.6779 35.7039L39.67 32.185C39.67 32.0991 39.7559 32.0133 39.7559 31.8417L45.7637 35.3605C45.7637 35.5322 45.7637 35.618 45.6779 35.7039Z" fill="#949494"/>
<path d="M45.8495 35.4463L39.8416 31.9274C39.8416 31.8416 39.9274 31.6699 39.9274 31.5841L45.9353 35.103C45.8495 35.1888 45.8495 35.2746 45.8495 35.4463Z" fill="#8F8F8F"/>
<path d="M45.9354 35.103L39.9276 31.5842C39.9276 31.4125 40.0134 31.3267 40.0134 31.155L46.0212 34.6739C45.9354 34.7597 45.9354 34.9314 45.9354 35.103Z" fill="#8A8A8A"/>
<path d="M45.9354 34.6739L39.9275 31.155C39.9275 30.9833 39.9275 30.7259 39.9275 30.5542C39.9275 29.6101 39.5842 29.0093 39.0693 28.666L45.0771 32.1849C45.5921 32.5282 45.9354 33.129 45.9354 34.0731C46.0212 34.2447 46.0212 34.4164 45.9354 34.6739Z" fill="#858585"/>
<path d="M31.6881 54.4997L25.6803 50.9808L31.6881 54.4997Z" fill="#9E9E9E"/>
<path d="M31.6881 54.4997L25.6803 50.9808C25.7661 50.9808 25.7661 51.0667 25.8519 51.0667L31.8598 54.5856C31.774 54.5856 31.6881 54.5855 31.6881 54.4997Z" fill="#A3A3A3"/>
<path d="M31.8597 54.5855L25.8519 51.0667C25.9377 51.0667 25.9377 51.0667 26.0235 51.1525L32.0314 54.6713C31.9455 54.6713 31.8597 54.5855 31.8597 54.5855Z" fill="#A8A8A8"/>
<path d="M31.9457 54.6713L25.9378 51.1525C26.0236 51.1525 26.0236 51.1525 26.1095 51.1525L32.1173 54.6713C32.1173 54.6713 32.0315 54.6713 31.9457 54.6713Z" fill="#ADADAD"/>
<path d="M32.1173 54.6713L26.1094 51.1525C26.1953 51.1525 26.1953 51.1525 26.2811 51.1525L32.2889 54.6713C32.2889 54.6713 32.2031 54.6713 32.1173 54.6713Z" fill="#B3B3B3"/>
<path d="M32.2889 54.6713L26.281 51.1525C26.3668 51.1525 26.4527 51.1525 26.4527 51.1525L32.4605 54.6713C32.4605 54.6713 32.3747 54.6713 32.2889 54.6713Z" fill="#B8B8B8"/>
<path d="M32.5464 54.6713L26.5385 51.1525C26.6243 51.1525 26.7102 51.1525 26.796 51.1525L32.8038 54.6713C32.6322 54.6713 32.6322 54.6713 32.5464 54.6713Z" fill="#BDBDBD"/>
<path d="M32.718 54.6713L26.7101 51.1525C26.796 51.1525 26.8818 51.1525 26.9676 51.0667L32.9755 54.5855C32.8896 54.6714 32.8038 54.6713 32.718 54.6713Z" fill="#C2C2C2"/>
<path d="M32.9755 54.6713L26.9677 51.1525C27.0535 51.1525 27.2251 51.0667 27.311 51.0667L33.3188 54.5855C33.233 54.5855 33.1472 54.5855 32.9755 54.6713Z" fill="#C7C7C7"/>
<path d="M33.3188 54.4998L27.311 50.981C27.4826 50.8951 27.5685 50.8951 27.7401 50.8093C28.0834 50.6376 28.4267 50.3802 28.6842 50.0369L34.692 53.5558C34.3487 53.8991 34.0913 54.1565 33.748 54.3282C33.6621 54.414 33.4905 54.414 33.3188 54.4998Z" fill="#CCCCCC"/>
<path d="M34.7779 53.5557L28.77 50.0368C28.8558 49.951 29.0275 49.7793 29.1133 49.6935L35.1212 53.2124C34.9495 53.2982 34.8637 53.4698 34.7779 53.5557Z" fill="#C7C7C7"/>
<path d="M35.0354 53.2124L29.0275 49.6935C29.1134 49.6077 29.1992 49.5219 29.285 49.436L35.2929 52.9549C35.207 53.0407 35.1212 53.1266 35.0354 53.2124Z" fill="#C2C2C2"/>
<path d="M35.2928 52.869L29.2849 49.3501C29.3707 49.2643 29.4566 49.1785 29.4566 49.0927L35.4644 52.6115C35.4644 52.6974 35.3786 52.7832 35.2928 52.869Z" fill="#BDBDBD"/>
<path d="M35.5503 52.6116L29.5425 49.0927C29.6283 49.0068 29.6283 48.921 29.7141 48.8352L35.722 52.3541C35.6362 52.4399 35.5503 52.5257 35.5503 52.6116Z" fill="#B8B8B8"/>
<path d="M35.7219 52.3541L29.7141 48.8352C29.7999 48.7494 29.7999 48.6636 29.8857 48.5778L35.8935 52.0966C35.8077 52.1824 35.7219 52.2683 35.7219 52.3541Z" fill="#B3B3B3"/>
<path d="M35.8078 52.0967L29.8 48.5778C29.8858 48.492 29.8858 48.4061 29.9716 48.3203L35.9795 51.8392C35.8937 51.925 35.8937 52.0108 35.8078 52.0967Z" fill="#ADADAD"/>
<path d="M35.9795 51.8391L29.9716 48.3202C30.0574 48.2344 30.0574 48.1486 30.0574 48.0627L36.0653 51.5816C36.0653 51.7533 35.9795 51.7533 35.9795 51.8391Z" fill="#A8A8A8"/>
<path d="M36.0652 51.6675L30.0574 48.1486C30.0574 48.0628 30.1432 47.9769 30.1432 47.8911L36.151 51.41C36.151 51.4958 36.151 51.5816 36.0652 51.6675Z" fill="#A3A3A3"/>
<path d="M36.237 51.41L30.2291 47.8911C30.2291 47.8053 30.315 47.7195 30.315 47.6337L36.3228 51.1526C36.3228 51.1526 36.237 51.2384 36.237 51.41Z" fill="#9E9E9E"/>
<path d="M36.3228 51.0666L30.3149 47.5478C30.3149 47.4619 30.4008 47.3761 30.4008 47.2903L36.4086 50.8091C36.4086 50.895 36.4086 50.9808 36.3228 51.0666Z" fill="#999999"/>
<path d="M36.4086 50.8092L30.4008 47.2903C30.4008 47.2045 30.4866 47.1187 30.4866 46.947L36.4944 50.4659C36.4944 50.6376 36.4944 50.7234 36.4086 50.8092Z" fill="#949494"/>
<path d="M36.4944 50.5518L30.4865 47.0329C30.4865 46.947 30.5723 46.7754 30.5723 46.6896L36.5802 50.2085C36.5802 50.2943 36.5802 50.3801 36.4944 50.5518Z" fill="#8F8F8F"/>
<path d="M36.5802 50.2085L30.5723 46.6896C30.5723 46.518 30.6582 46.4322 30.6582 46.2605L36.666 49.7794C36.666 49.8652 36.666 50.0369 36.5802 50.2085Z" fill="#8A8A8A"/>
<path d="M36.6661 49.7793L30.6583 46.2604C30.6583 46.0888 30.6583 45.8313 30.6583 45.6596C30.6583 44.7156 30.3149 44.029 29.8 43.7715L35.8078 47.2904C36.3228 47.6337 36.6661 48.2344 36.6661 49.1785C36.7519 49.3502 36.6661 49.6077 36.6661 49.7793Z" fill="#858585"/>
<path d="M33.7478 47.462L27.74 43.9431C27.9116 43.8573 27.9975 43.7715 28.1691 43.7715L34.177 47.2904C34.0053 47.3762 33.9195 47.3762 33.7478 47.462Z" fill="#9CBEBE"/>
<path d="M34.177 47.2904L28.1691 43.7715C28.255 43.6857 28.4266 43.6857 28.5124 43.6857L34.5203 47.2046C34.4345 47.2046 34.2628 47.2046 34.177 47.2904Z" fill="#98B9B9"/>
<path d="M34.5203 47.2046L28.5125 43.6857C28.5983 43.6857 28.6841 43.6857 28.7699 43.5999L34.7778 47.1187C34.692 47.1187 34.6061 47.1187 34.5203 47.2046Z" fill="#94B4B4"/>
<path d="M34.7777 47.1187L28.7699 43.5999C28.8557 43.5999 28.9416 43.5999 29.0274 43.5999L35.0352 47.1187C34.9494 47.1187 34.8636 47.1187 34.7777 47.1187Z" fill="#90AFAF"/>
<path d="M34.9494 47.1187L28.9416 43.5999C29.0274 43.5999 29.1132 43.5999 29.1132 43.5999L35.1211 47.1187C35.1211 47.1187 35.0353 47.1187 34.9494 47.1187Z" fill="#8CABAB"/>
<path d="M35.2069 47.1187L29.199 43.5999C29.2849 43.5999 29.2849 43.5999 29.3707 43.5999L35.3785 47.1187C35.2927 47.1187 35.2069 47.1187 35.2069 47.1187Z" fill="#88A6A6"/>
<path d="M35.3786 47.1187L29.3707 43.5999C29.4566 43.5999 29.4566 43.5999 29.5424 43.5999L35.5502 47.1187C35.4644 47.1187 35.3786 47.1187 35.3786 47.1187Z" fill="#85A1A1"/>
<path d="M35.5502 47.1187L29.5424 43.5999C29.6282 43.5999 29.6282 43.5999 29.714 43.6857L35.7219 47.2046C35.636 47.2046 35.5502 47.2046 35.5502 47.1187Z" fill="#819C9C"/>
<path d="M35.7219 47.2046L29.7141 43.6857C29.7999 43.6857 29.7999 43.7715 29.8857 43.7715L35.8935 47.2904C35.8077 47.2046 35.7219 47.2046 35.7219 47.2046Z" fill="#7D9898"/>
<path d="M35.8077 47.2904L29.7999 43.7715L35.8077 47.2904Z" fill="#799393"/>
<path d="M40.9574 39.3942L34.9496 35.8753C34.4346 35.532 34.0913 34.9312 34.0913 33.9871C34.0913 33.8155 34.0913 33.6438 34.0913 33.3864L40.0992 36.9052C40.0992 37.0769 40.0992 37.3344 40.0992 37.506C40.0992 38.4501 40.4425 39.0509 40.9574 39.3942Z" fill="#657B7B"/>
<path d="M40.0992 36.9053L34.0913 33.3864C34.0913 33.2148 34.0913 33.1289 34.1771 32.9573L40.185 36.4762C40.185 36.6478 40.0992 36.8195 40.0992 36.9053Z" fill="#698080"/>
<path d="M40.185 36.4762L34.1771 32.9573C34.1771 32.8715 34.263 32.6998 34.263 32.614L40.2708 36.1329C40.2708 36.3046 40.185 36.3904 40.185 36.4762Z" fill="#6D8585"/>
<path d="M40.2708 36.1329L34.2629 32.6141C34.2629 32.5282 34.3488 32.4424 34.3488 32.2708L40.3566 35.7896C40.3566 35.9613 40.2708 36.0471 40.2708 36.1329Z" fill="#718989"/>
<path d="M40.3567 35.8754L34.3488 32.3565C34.3488 32.2706 34.4346 32.1848 34.4346 32.099L40.4425 35.6179C40.4425 35.7037 40.3567 35.7895 40.3567 35.8754Z" fill="#758E8E"/>
<path d="M40.4425 35.6179L34.4346 32.099C34.4346 32.0132 34.5205 31.9274 34.5205 31.8416L40.5283 35.3604C40.5283 35.4462 40.5283 35.5321 40.4425 35.6179Z" fill="#799393"/>
<path d="M40.6141 35.3605L34.6063 31.8416C34.6063 31.7558 34.6921 31.6699 34.6921 31.5841L40.6999 35.103C40.6141 35.1888 40.6141 35.2746 40.6141 35.3605Z" fill="#7D9898"/>
<path d="M40.6999 35.103L34.692 31.5841C34.692 31.4983 34.7778 31.4125 34.7778 31.3267L40.7857 34.8455C40.7857 34.9314 40.6999 35.0172 40.6999 35.103Z" fill="#819C9C"/>
<path d="M40.7858 34.8455L34.778 31.3266C34.8638 31.2408 34.8638 31.1549 34.9496 31.0691L40.9575 34.588C40.8716 34.6738 40.8716 34.7596 40.7858 34.8455Z" fill="#85A1A1"/>
<path d="M40.9574 34.588L34.9496 31.0691C35.0354 30.9833 35.0354 30.8975 35.1212 30.8116L41.1291 34.3305C41.0433 34.4164 41.0433 34.5022 40.9574 34.588Z" fill="#88A6A6"/>
<path d="M41.129 34.3306L35.1212 30.8117C35.207 30.7258 35.207 30.64 35.2928 30.5542L41.3007 34.0731C41.2148 34.1589 41.129 34.2447 41.129 34.3306Z" fill="#8CABAB"/>
<path d="M41.3008 34.073L35.2929 30.5541C35.3787 30.4683 35.4646 30.3825 35.4646 30.2966L41.4724 33.8155C41.3866 33.9013 41.3866 33.9872 41.3008 34.073Z" fill="#90AFAF"/>
<path d="M41.4723 33.8155L35.4645 30.2967C35.5503 30.2108 35.6361 30.125 35.722 30.0392L41.7298 33.5581C41.644 33.5581 41.5582 33.7297 41.4723 33.8155Z" fill="#94B4B4"/>
<path d="M41.7299 33.4723L35.722 29.9534C35.8079 29.8676 35.8937 29.6959 36.0653 29.6101L42.0732 33.129C41.9015 33.3006 41.8157 33.3865 41.7299 33.4723Z" fill="#98B9B9"/>
<path d="M42.0732 33.129L36.0654 29.6101C36.4087 29.2668 36.6662 29.0093 37.0953 28.8376L43.1031 32.3565C42.674 32.614 42.3307 32.8715 42.0732 33.129Z" fill="#9CBEBE"/>
<path d="M43.0172 32.3565C44.6479 31.4125 46.0211 32.1849 46.0211 34.0731C46.0211 35.9613 44.7337 38.2786 43.103 39.2227C41.4723 40.1667 40.0991 39.3943 40.0991 37.5061C40.0991 35.6179 41.3865 33.3006 43.0172 32.3565Z" fill="#C3EDED"/>
<path d="M31.6881 54.4998L25.6803 50.9809C25.1653 50.6376 24.822 50.0368 24.822 49.0927C24.822 48.9211 24.822 48.7494 24.822 48.4919L30.8299 52.0108C30.8299 52.1825 30.8299 52.4399 30.8299 52.6116C30.8299 53.5557 31.0873 54.2423 31.6881 54.4998Z" fill="#657B7B"/>
<path d="M30.8299 52.0108L24.822 48.4919C24.822 48.3202 24.822 48.2344 24.9078 48.0627L30.9157 51.5816C30.8299 51.7533 30.8299 51.9249 30.8299 52.0108Z" fill="#698080"/>
<path d="M30.9157 51.5817L24.9078 48.0628C24.9078 47.977 24.9937 47.8053 24.9937 47.7195L31.0015 51.2383C30.9157 51.41 30.9157 51.4958 30.9157 51.5817Z" fill="#6D8585"/>
<path d="M31.0015 51.2383L24.9937 47.7194C24.9937 47.6336 25.0795 47.5478 25.0795 47.3761L31.0873 50.895C31.0015 51.0666 31.0015 51.1525 31.0015 51.2383Z" fill="#718989"/>
<path d="M31.0874 50.9808L25.0795 47.4619C25.0795 47.3761 25.1654 47.2903 25.1654 47.2045L31.1732 50.7234C31.1732 50.8092 31.0874 50.895 31.0874 50.9808Z" fill="#758E8E"/>
<path d="M31.1732 50.7234L25.1653 47.2045C25.1653 47.1187 25.2512 47.0328 25.2512 46.947L31.259 50.4659C31.259 50.5517 31.1732 50.6376 31.1732 50.7234Z" fill="#799393"/>
<path d="M31.259 50.4658L25.2512 46.9469C25.2512 46.8611 25.337 46.7753 25.337 46.6895L31.3448 50.2083C31.3448 50.2942 31.3448 50.38 31.259 50.4658Z" fill="#7D9898"/>
<path d="M31.4306 50.2084L25.4227 46.6895C25.4227 46.6036 25.5086 46.5178 25.5086 46.432L31.5164 49.9509C31.5164 50.0367 31.4306 50.1225 31.4306 50.2084Z" fill="#819C9C"/>
<path d="M31.5165 49.9509L25.5087 46.4321C25.5945 46.3462 25.5945 46.2604 25.6803 46.1746L31.6882 49.6934C31.6023 49.7793 31.6023 49.8651 31.5165 49.9509Z" fill="#85A1A1"/>
<path d="M31.6881 49.6935L25.6803 46.1746C25.7661 46.0888 25.7661 46.0029 25.8519 45.9171L31.8598 49.436C31.774 49.5218 31.6881 49.6076 31.6881 49.6935Z" fill="#88A6A6"/>
<path d="M31.8597 49.4359L25.8519 45.917C25.9377 45.8312 25.9377 45.7454 26.0235 45.6595L32.0314 49.1784C31.9455 49.2643 31.8597 49.3501 31.8597 49.4359Z" fill="#8CABAB"/>
<path d="M32.0315 49.1785L26.0236 45.6596C26.1094 45.5737 26.1953 45.4879 26.1953 45.4021L32.2031 48.921C32.1173 49.0068 32.0315 49.0926 32.0315 49.1785Z" fill="#90AFAF"/>
<path d="M32.203 48.921L26.1952 45.4021C26.281 45.3163 26.3668 45.2305 26.4527 45.1447L32.4605 48.6635C32.3747 48.6635 32.2889 48.8352 32.203 48.921Z" fill="#94B4B4"/>
<path d="M32.4606 48.5778L26.4528 45.0589C26.5386 44.9731 26.6244 44.8014 26.7961 44.7156L32.8039 48.2344C32.6323 48.4061 32.5464 48.4919 32.4606 48.5778Z" fill="#98B9B9"/>
<path d="M32.718 48.2344L26.7101 44.7156C27.0534 44.3723 27.3109 44.1148 27.7401 43.9431L33.7479 47.462C33.4046 47.7195 33.0613 47.977 32.718 48.2344Z" fill="#9CBEBE"/>
<path d="M36.666 39.995L30.6582 36.4761C30.6582 36.3045 30.6582 36.047 30.6582 35.8753C30.6582 34.9313 30.3149 34.2447 29.7999 33.9872L35.8078 37.506C36.3227 37.8493 36.666 38.4501 36.666 39.3942C36.666 39.6517 36.666 39.8234 36.666 39.995Z" fill="#858585"/>
<path d="M31.6023 44.8013L25.5945 41.2825L31.6023 44.8013Z" fill="#9E9E9E"/>
<path d="M31.6881 44.8013L25.6803 41.2825C25.7661 41.2825 25.7661 41.3683 25.8519 41.3683L31.8598 44.8872C31.774 44.8013 31.6881 44.8013 31.6881 44.8013Z" fill="#A3A3A3"/>
<path d="M31.7739 44.8872L25.7661 41.3683C25.8519 41.3683 25.8519 41.3683 25.9377 41.4541L31.9456 44.973C31.8597 44.8872 31.8597 44.8872 31.7739 44.8872Z" fill="#A8A8A8"/>
<path d="M31.9457 44.8872L25.9378 41.3683C26.0236 41.3683 26.0236 41.3683 26.1095 41.3683L32.1173 44.8872C32.0315 44.973 32.0315 44.8872 31.9457 44.8872Z" fill="#ADADAD"/>
<path d="M32.1173 44.973L26.1094 41.4541C26.1953 41.4541 26.1953 41.4541 26.2811 41.4541L32.2889 44.973C32.2031 44.973 32.2031 44.973 32.1173 44.973Z" fill="#B3B3B3"/>
<path d="M32.289 44.973L26.2811 41.4541C26.367 41.4541 26.4528 41.4541 26.4528 41.4541L32.4606 44.973C32.4606 44.973 32.3748 44.973 32.289 44.973Z" fill="#B8B8B8"/>
<path d="M32.4606 44.973L26.4528 41.4541C26.5386 41.4541 26.6244 41.4541 26.7102 41.4541L32.7181 44.973C32.6323 44.973 32.5464 44.973 32.4606 44.973Z" fill="#BDBDBD"/>
<path d="M32.7181 44.973L26.7103 41.4541C26.7961 41.4541 26.8819 41.4541 26.9677 41.3683L32.9756 44.8872C32.8898 44.8872 32.8039 44.973 32.7181 44.973Z" fill="#C2C2C2"/>
<path d="M32.9755 44.8872L26.9677 41.3683C27.0535 41.3683 27.2251 41.2825 27.311 41.2825L33.3188 44.8013C33.233 44.8013 33.0613 44.8872 32.9755 44.8872Z" fill="#C7C7C7"/>
<path d="M33.3188 44.8013L27.311 41.2825C27.4826 41.1966 27.5685 41.1966 27.7401 41.1108C28.0834 40.9392 28.4267 40.6817 28.6842 40.3384L34.692 43.8573C34.3487 44.2006 34.0913 44.458 33.748 44.6297C33.5763 44.6297 33.4905 44.7155 33.3188 44.8013Z" fill="#CCCCCC"/>
<path d="M34.6921 43.7715L28.6842 40.2526C28.77 40.1668 28.9417 39.9951 29.0275 39.9093L35.0354 43.4282C34.9495 43.5998 34.8637 43.6857 34.6921 43.7715Z" fill="#C7C7C7"/>
<path d="M35.0354 43.4281L29.0275 39.9092C29.1134 39.8234 29.1992 39.7376 29.285 39.6517L35.2929 43.1706C35.207 43.2564 35.1212 43.3423 35.0354 43.4281Z" fill="#C2C2C2"/>
<path d="M35.2929 43.1706L29.285 39.6518C29.3709 39.5659 29.4567 39.4801 29.4567 39.3943L35.4645 42.9132C35.4645 42.999 35.3787 43.0848 35.2929 43.1706Z" fill="#BDBDBD"/>
<path d="M35.4645 42.9132L29.4567 39.3943C29.5425 39.3085 29.5425 39.2227 29.6283 39.1368L35.6362 42.6557C35.6362 42.7415 35.5503 42.8274 35.4645 42.9132Z" fill="#B8B8B8"/>
<path d="M35.6361 42.6556L29.6283 39.1368C29.7141 39.0509 29.7141 38.9651 29.7999 38.8793L35.8078 42.3982C35.722 42.484 35.722 42.5698 35.6361 42.6556Z" fill="#B3B3B3"/>
<path d="M35.8078 42.3982L29.8 38.8793C29.8858 38.7935 29.8858 38.7077 29.9716 38.6218L35.9795 42.1407C35.8937 42.2265 35.8937 42.3124 35.8078 42.3982Z" fill="#ADADAD"/>
<path d="M35.9795 42.1408L29.9716 38.6219C30.0574 38.536 30.0574 38.4502 30.0574 38.3644L36.0653 41.8833C36.0653 41.9691 35.9795 42.0549 35.9795 42.1408Z" fill="#A8A8A8"/>
<path d="M36.0652 41.8832L30.0574 38.3643C30.0574 38.2785 30.1432 38.1926 30.1432 38.1068L36.151 41.6257C36.151 41.7115 36.151 41.7973 36.0652 41.8832Z" fill="#A3A3A3"/>
<path d="M36.237 41.6257L30.2291 38.1068C30.2291 38.021 30.315 37.9352 30.315 37.8494L36.3228 41.3682C36.237 41.4541 36.237 41.5399 36.237 41.6257Z" fill="#9E9E9E"/>
<path d="M36.3228 41.3683L30.3149 37.8494C30.3149 37.7636 30.4008 37.6777 30.4008 37.5919L36.4086 41.1108C36.4086 41.1966 36.3228 41.2824 36.3228 41.3683Z" fill="#999999"/>
<path d="M36.4086 41.1107L30.4008 37.5918C30.4008 37.506 30.4866 37.4202 30.4866 37.2485L36.4944 40.7674C36.4944 40.8532 36.4086 41.0249 36.4086 41.1107Z" fill="#949494"/>
<path d="M36.4944 40.7676L30.4865 37.2487C30.4865 37.1629 30.5723 36.9912 30.5723 36.9054L36.5802 40.4243C36.5802 40.5959 36.4944 40.6818 36.4944 40.7676Z" fill="#8F8F8F"/>
<path d="M36.5803 40.4242L30.5724 36.9053C30.5724 36.7337 30.6583 36.6478 30.6583 36.4762L36.6661 39.9951C36.6661 40.1667 36.5803 40.3384 36.5803 40.4242Z" fill="#8A8A8A"/>
<path d="M36.6661 39.995L30.6583 36.4761C30.6583 36.3045 30.6583 36.047 30.6583 35.8753C30.6583 34.9313 30.3149 34.2447 29.8 33.9872L35.8078 37.506C36.3228 37.8493 36.6661 38.4501 36.6661 39.3942C36.6661 39.6517 36.6661 39.8234 36.6661 39.995Z" fill="#858585"/>
<path d="M24.4785 59.6494L18.4707 56.1305C18.814 55.9588 19.0715 55.7013 19.4148 55.358L25.4226 58.8769C25.1652 59.2202 24.8219 59.4777 24.4785 59.6494Z" fill="#CCCCCC"/>
<path d="M25.4226 58.877L19.4148 55.3581C19.5006 55.2722 19.6723 55.1006 19.7581 55.0148L25.7659 58.5336C25.6801 58.7053 25.5943 58.7911 25.4226 58.877Z" fill="#C7C7C7"/>
<path d="M25.766 58.5337L19.7581 55.0148C19.8439 54.929 19.9298 54.8432 20.0156 54.7573L26.0234 58.2762C25.9376 58.362 25.8518 58.4479 25.766 58.5337Z" fill="#C2C2C2"/>
<path d="M26.0235 58.2761L20.0156 54.7572C20.1015 54.6714 20.1873 54.5856 20.1873 54.4998L26.1951 58.0186C26.1093 58.1045 26.1093 58.1903 26.0235 58.2761Z" fill="#BDBDBD"/>
<path d="M26.1951 58.0187L20.1873 54.4998C20.2731 54.414 20.2731 54.3281 20.3589 54.2423L26.3668 57.7612C26.2809 57.847 26.2809 57.9329 26.1951 58.0187Z" fill="#B8B8B8"/>
<path d="M26.3667 57.7612L20.3588 54.2423C20.4447 54.1565 20.4447 54.0707 20.5305 53.9849L26.5383 57.5038C26.4525 57.5896 26.4525 57.6754 26.3667 57.7612Z" fill="#B3B3B3"/>
<path d="M26.5384 57.5038L20.5306 53.9849C20.6164 53.8991 20.6164 53.8132 20.7022 53.7274L26.7101 57.2463C26.6243 57.3321 26.5384 57.4179 26.5384 57.5038Z" fill="#ADADAD"/>
<path d="M26.6242 57.2462L20.6164 53.7273C20.7022 53.6415 20.7022 53.5557 20.7022 53.4698L26.7101 56.9887C26.7101 57.0746 26.7101 57.1604 26.6242 57.2462Z" fill="#A8A8A8"/>
<path d="M26.7958 56.9888L20.788 53.4699C20.788 53.384 20.8738 53.2982 20.8738 53.2124L26.8816 56.7313C26.8816 56.8171 26.7958 56.9029 26.7958 56.9888Z" fill="#A3A3A3"/>
<path d="M26.8817 56.7313L20.8739 53.2125C20.8739 53.1266 20.9597 53.0408 20.9597 52.955L26.9676 56.4738C26.9676 56.5597 26.9676 56.6455 26.8817 56.7313Z" fill="#9E9E9E"/>
<path d="M27.0534 56.4737L21.0455 52.9549C21.0455 52.869 21.1314 52.7832 21.1314 52.6974L27.1392 56.2163C27.0534 56.3021 27.0534 56.3879 27.0534 56.4737Z" fill="#999999"/>
<path d="M27.1391 56.2163L21.1313 52.6974C21.1313 52.6116 21.2171 52.5258 21.2171 52.3541L27.225 55.873C27.1391 55.9588 27.1391 56.1305 27.1391 56.2163Z" fill="#949494"/>
<path d="M27.2249 55.8731L21.2171 52.3542C21.2171 52.2683 21.3029 52.0967 21.3029 52.0109L27.3108 55.5297C27.3108 55.7014 27.2249 55.7872 27.2249 55.8731Z" fill="#8F8F8F"/>
<path d="M27.3109 55.5298L21.303 52.0109C21.303 51.8393 21.3889 51.7534 21.3889 51.5818L27.3967 55.1006C27.3109 55.2723 27.3109 55.444 27.3109 55.5298Z" fill="#8A8A8A"/>
<path d="M27.3967 55.1864L21.3888 51.6675C21.3888 51.4959 21.3888 51.2384 21.3888 51.0668C21.3888 50.1227 21.0455 49.4361 20.5306 49.1786L26.5384 52.6975C27.0534 53.0408 27.3967 53.6416 27.3967 54.5857C27.3967 54.7573 27.3967 54.929 27.3967 55.1864Z" fill="#858585"/>
<path d="M33.7478 37.7635L27.74 34.2447C27.9116 34.1588 27.9975 34.073 28.1691 34.073L34.177 37.5919C34.0053 37.5919 33.8337 37.6777 33.7478 37.7635Z" fill="#9CBEBE"/>
<path d="M34.0912 37.592L28.0833 34.0731C28.1691 33.9873 28.3408 33.9873 28.4266 33.9873L34.4345 37.5062C34.3486 37.5062 34.2628 37.5062 34.0912 37.592Z" fill="#98B9B9"/>
<path d="M34.5203 37.4204L28.5125 33.9015C28.5983 33.9015 28.6841 33.9015 28.7699 33.8157L34.7778 37.3346C34.692 37.4204 34.6061 37.4204 34.5203 37.4204Z" fill="#94B4B4"/>
<path d="M34.7777 37.4203L28.7699 33.9014C28.8557 33.9014 28.9416 33.9014 29.0274 33.9014L35.0352 37.4203C34.8636 37.3344 34.7777 37.3344 34.7777 37.4203Z" fill="#90AFAF"/>
<path d="M34.9494 37.3346L28.9416 33.8157C29.0274 33.8157 29.1132 33.8157 29.1132 33.8157L35.1211 37.3346C35.1211 37.3346 35.0353 37.3346 34.9494 37.3346Z" fill="#8CABAB"/>
<path d="M35.1211 37.3346L29.1132 33.8157C29.199 33.8157 29.199 33.8157 29.2849 33.8157L35.2927 37.3346C35.2927 37.3346 35.2069 37.3346 35.1211 37.3346Z" fill="#88A6A6"/>
<path d="M35.3786 37.4203L29.3707 33.9014C29.4566 33.9014 29.4566 33.9014 29.5424 33.9014L35.5502 37.4203C35.4644 37.4203 35.3786 37.4203 35.3786 37.4203Z" fill="#85A1A1"/>
<path d="M35.4644 37.4203L29.4565 33.9014C29.5424 33.9014 29.5424 33.9014 29.6282 33.9872L35.636 37.5061C35.636 37.4202 35.5502 37.4203 35.4644 37.4203Z" fill="#819C9C"/>
<path d="M35.636 37.5062L29.6282 33.9873C29.714 33.9873 29.714 34.0731 29.7998 34.0731L35.8077 37.592C35.7218 37.5062 35.7218 37.5062 35.636 37.5062Z" fill="#7D9898"/>
<path d="M35.8077 37.5062L29.7999 33.9873L35.8077 37.5062C35.8077 37.5062 35.8077 37.592 35.8077 37.5062Z" fill="#799393"/>
<path d="M24.4785 52.8691L18.4707 49.3503C18.5565 49.2644 18.7282 49.2644 18.814 49.1786L24.8219 52.6975C24.736 52.6975 24.6502 52.7833 24.4785 52.8691Z" fill="#9CBEBE"/>
<path d="M24.8219 52.6974L18.814 49.1785C18.8999 49.0927 19.0715 49.0927 19.1573 49.0927L25.1652 52.6115C25.0794 52.6115 24.9935 52.6115 24.8219 52.6974Z" fill="#98B9B9"/>
<path d="M25.1652 52.5257L19.1573 49.0069C19.2432 49.0069 19.329 49.0068 19.4148 48.921L25.4227 52.4399C25.3368 52.5257 25.251 52.5257 25.1652 52.5257Z" fill="#94B4B4"/>
<path d="M25.4226 52.5257L19.4148 49.0068C19.5006 49.0068 19.5864 49.0068 19.6723 49.0068L25.6801 52.5257C25.5943 52.4399 25.5085 52.4399 25.4226 52.5257Z" fill="#90AFAF"/>
<path d="M25.6802 52.4399L19.6723 48.921C19.7581 48.921 19.844 48.921 19.844 48.921L25.8518 52.4399C25.766 52.4399 25.766 52.4399 25.6802 52.4399Z" fill="#8CABAB"/>
<path d="M25.8518 52.4399L19.8439 48.921C19.9298 48.921 19.9298 48.921 20.0156 48.921L26.0234 52.4399C26.0234 52.4399 25.9376 52.4399 25.8518 52.4399Z" fill="#88A6A6"/>
<path d="M26.0235 52.5257L20.0156 49.0068C20.1015 49.0068 20.1015 49.0068 20.1873 49.0068L26.1951 52.5257C26.1951 52.5257 26.1093 52.5257 26.0235 52.5257Z" fill="#85A1A1"/>
<path d="M26.1951 52.5257L20.1873 49.0068C20.2731 49.0068 20.2731 49.0068 20.3589 49.0926L26.3668 52.6115C26.2809 52.5257 26.2809 52.5257 26.1951 52.5257Z" fill="#819C9C"/>
<path d="M26.3667 52.6115L20.3588 49.0927C20.4447 49.0927 20.4447 49.1785 20.5305 49.1785L26.5383 52.6974C26.4525 52.6115 26.4525 52.6115 26.3667 52.6115Z" fill="#7D9898"/>
<path d="M26.5384 52.6115L20.5306 49.0927L26.5384 52.6115C26.5384 52.6974 26.5384 52.6974 26.5384 52.6115Z" fill="#799393"/>
<path d="M31.6023 44.8013L25.5945 41.2824C25.0795 40.9391 24.7362 40.3383 24.7362 39.3943C24.7362 39.2226 24.7362 39.0509 24.7362 38.7935L30.7441 42.3123C30.7441 42.484 30.7441 42.7415 30.7441 42.9131C30.7441 43.7714 31.0874 44.458 31.6023 44.8013Z" fill="#657B7B"/>
<path d="M30.8299 42.3124L24.822 38.7935C24.822 38.6219 24.822 38.536 24.9078 38.3644L30.9157 41.8833C30.8299 42.0549 30.8299 42.1407 30.8299 42.3124Z" fill="#698080"/>
<path d="M30.9157 41.8833L24.9078 38.3644C24.9078 38.2786 24.9937 38.1069 24.9937 38.0211L31.0015 41.54C30.9157 41.6258 30.9157 41.7975 30.9157 41.8833Z" fill="#6D8585"/>
<path d="M30.9157 41.54L24.9078 38.0212C24.9078 37.9353 24.9937 37.8495 24.9937 37.6779L31.0015 41.1967C31.0015 41.3684 31.0015 41.4542 30.9157 41.54Z" fill="#718989"/>
<path d="M31.0874 41.2825L25.0795 37.7636C25.0795 37.6778 25.1654 37.5919 25.1654 37.5061L31.1732 41.025C31.0874 41.025 31.0874 41.1108 31.0874 41.2825Z" fill="#758E8E"/>
<path d="M31.1732 40.9392L25.1653 37.4203C25.1653 37.3345 25.2512 37.2487 25.2512 37.1628L31.259 40.6817C31.259 40.7676 31.1732 40.8534 31.1732 40.9392Z" fill="#799393"/>
<path d="M31.259 40.6818L25.2512 37.1629C25.2512 37.077 25.337 36.9912 25.337 36.9054L31.3448 40.4243C31.3448 40.5101 31.259 40.5959 31.259 40.6818Z" fill="#7D9898"/>
<path d="M31.3448 40.4242L25.337 36.9053C25.337 36.8195 25.4228 36.7337 25.4228 36.6478L31.4306 40.1667C31.4306 40.2525 31.4306 40.3384 31.3448 40.4242Z" fill="#819C9C"/>
<path d="M31.5165 40.1667L25.5087 36.6478C25.5945 36.562 25.5945 36.4762 25.6803 36.3904L31.6882 39.9093C31.6023 39.9951 31.5165 40.0809 31.5165 40.1667Z" fill="#85A1A1"/>
<path d="M31.6023 39.9093L25.5945 36.3904C25.6803 36.3046 25.6803 36.2188 25.7661 36.1329L31.774 39.6518C31.774 39.7376 31.6882 39.8235 31.6023 39.9093Z" fill="#88A6A6"/>
<path d="M31.7739 39.6518L25.7661 36.133C25.8519 36.0472 25.8519 35.9613 25.9377 35.8755L31.9456 39.3944C31.9456 39.4802 31.8597 39.566 31.7739 39.6518Z" fill="#8CABAB"/>
<path d="M31.9457 39.3943L25.9378 35.8754C26.0236 35.7896 26.1095 35.7037 26.1095 35.6179L32.1173 39.1368C32.1173 39.2226 32.0315 39.3084 31.9457 39.3943Z" fill="#90AFAF"/>
<path d="M32.203 39.1369L26.1952 35.618C26.281 35.5321 26.3668 35.4463 26.4527 35.3605L32.4605 38.8794C32.2889 38.9652 32.203 39.051 32.203 39.1369Z" fill="#94B4B4"/>
<path d="M32.3748 38.8794L26.3669 35.3605C26.4528 35.2747 26.5386 35.103 26.7102 35.0172L32.7181 38.5361C32.6323 38.6219 32.5464 38.7936 32.3748 38.8794Z" fill="#98B9B9"/>
<path d="M32.7181 38.5361L26.7103 35.0172C27.0536 34.6739 27.3969 34.4164 27.7402 34.2448L33.748 37.7636C33.4047 37.9353 33.0614 38.1928 32.7181 38.5361Z" fill="#9CBEBE"/>
<path d="M58.7234 19.3968L52.6298 15.8779V13.3031L58.7234 16.822V19.3968Z" fill="#086361"/>
<path d="M58.7234 16.822L52.6298 13.3031V9.44092L58.7234 12.9598V16.822Z" fill="#086361"/>
<path d="M58.7234 12.9598L52.6298 9.44088V6.86609L58.6376 10.385L58.7234 12.9598Z" fill="#086361"/>
<path d="M58.6376 10.385L52.6297 6.86608C52.6297 6.00782 52.2864 5.40703 51.7715 5.06372L57.7793 8.58261C58.3801 8.92591 58.6376 9.61253 58.6376 10.385Z" fill="#08605F"/>
<path d="M43.0171 32.3564L37.0093 28.8376C37.1809 28.7517 37.2668 28.6659 37.4384 28.6659L43.4463 32.1848C43.2746 32.2706 43.1888 32.2706 43.0171 32.3564Z" fill="#9CBEBE"/>
<path d="M43.4463 32.1848L37.4384 28.6659C37.5242 28.5801 37.6959 28.5801 37.7817 28.5801L43.7896 32.099C43.7037 32.099 43.5321 32.099 43.4463 32.1848Z" fill="#98B9B9"/>
<path d="M43.7896 32.099L37.7817 28.5801C37.8676 28.5801 37.9534 28.5801 38.0392 28.4943L44.0471 32.0131C43.9612 32.0131 43.8754 32.0132 43.7896 32.099Z" fill="#94B4B4"/>
<path d="M44.047 32.0131L38.0392 28.4943C38.125 28.4943 38.2108 28.4943 38.2967 28.4943L44.3045 32.0131C44.2187 32.0131 44.1329 32.0131 44.047 32.0131Z" fill="#90AFAF"/>
<path d="M44.3045 32.0131L38.2967 28.4943C38.3825 28.4943 38.4683 28.4943 38.4683 28.4943L44.4762 32.0131C44.3904 32.0131 44.3045 32.0131 44.3045 32.0131Z" fill="#8CABAB"/>
<path d="M44.4762 32.0131L38.4683 28.4943C38.5541 28.4943 38.5541 28.4943 38.64 28.4943L44.6478 32.0131C44.562 32.0131 44.562 32.0131 44.4762 32.0131Z" fill="#88A6A6"/>
<path d="M44.6479 32.0131L38.64 28.4943C38.7258 28.4943 38.7258 28.4943 38.8117 28.4943L44.8195 32.0131C44.7337 32.0131 44.7337 32.0131 44.6479 32.0131Z" fill="#85A1A1"/>
<path d="M44.8195 32.0131L38.8116 28.4943C38.8975 28.4943 38.8975 28.4943 38.9833 28.5801L44.9911 32.099C44.9053 32.099 44.9053 32.099 44.8195 32.0131Z" fill="#819C9C"/>
<path d="M44.9912 32.099L38.9833 28.5801C39.0692 28.5801 39.0692 28.6659 39.155 28.6659L45.1628 32.1848C45.077 32.099 44.9912 32.099 44.9912 32.099Z" fill="#7D9898"/>
<path d="M45.1628 32.1848L39.155 28.6659L45.1628 32.1848Z" fill="#799393"/>
<path d="M55.8911 8.84006L49.8833 5.32117C50.055 5.23535 50.1408 5.14954 50.3124 5.14954L56.3203 8.66842C56.1486 8.66842 56.0628 8.75423 55.8911 8.84006Z" fill="#CCCCCC"/>
<path d="M56.3203 8.66844L50.3124 5.14955C50.3983 5.06373 50.5699 5.06372 50.6557 5.06372L56.6636 8.58261C56.4919 8.58261 56.4061 8.58261 56.3203 8.66844Z" fill="#C7C7C7"/>
<path d="M56.5778 8.49681L50.5699 4.97792C50.6558 4.97792 50.7416 4.97792 50.8274 4.89209L56.8353 8.41098C56.7494 8.4968 56.6636 8.49681 56.5778 8.49681Z" fill="#C2C2C2"/>
<path d="M56.8352 8.49679L50.8274 4.97791C50.9132 4.97791 50.999 4.97791 50.999 4.97791L57.0069 8.49679C57.0069 8.49679 56.9211 8.49679 56.8352 8.49679Z" fill="#BDBDBD"/>
<path d="M57.0928 8.49679L51.085 4.97791C51.1708 4.97791 51.1708 4.97791 51.2566 4.97791L57.2645 8.49679C57.1786 8.49679 57.0928 8.49679 57.0928 8.49679Z" fill="#B8B8B8"/>
<path d="M57.2643 8.49679L51.2565 4.97791C51.3423 4.97791 51.3423 4.97791 51.4281 4.97791L57.436 8.49679C57.3501 8.49679 57.2643 8.49679 57.2643 8.49679Z" fill="#B3B3B3"/>
<path d="M57.4361 8.49679L51.4282 4.97791C51.514 4.97791 51.514 4.97791 51.5999 4.97791L57.6077 8.49679C57.5219 8.49679 57.4361 8.49679 57.4361 8.49679Z" fill="#ADADAD"/>
<path d="M57.6077 8.49679L51.5999 4.97791C51.6857 4.97791 51.6857 4.97791 51.7715 5.06374L57.7794 8.58262C57.6935 8.58262 57.6077 8.49679 57.6077 8.49679Z" fill="#A8A8A8"/>
<path d="M57.6935 8.58261L51.6857 5.06372C51.7715 5.06372 51.7715 5.06373 51.8573 5.14955L57.8652 8.66844C57.7793 8.58261 57.7793 8.58261 57.6935 8.58261Z" fill="#A3A3A3"/>
<path d="M57.8652 8.66842L51.7715 5.14954L57.8652 8.66842Z" fill="#9E9E9E"/>
<path d="M33.7479 47.462C35.3786 46.5179 36.7518 47.2904 36.7518 49.1785C36.7518 51.0667 35.4644 53.384 33.8337 54.3281C32.203 55.2722 30.8298 54.4998 30.8298 52.6116C30.8298 50.7234 32.1172 48.4061 33.7479 47.462Z" fill="#C3EDED"/>
<path d="M24.5644 62.9108L18.4708 59.3919V56.1305L24.4786 59.6494L24.5644 62.9108Z" fill="#888888"/>
<path d="M20.1015 65.4855L14.0079 61.9666L18.4708 59.3918L24.5645 62.9107L20.1015 65.4855Z" fill="#0D9F9D"/>
<path d="M22.333 59.9068L16.3252 56.3879L22.333 59.9068Z" fill="#5F948F"/>
<path d="M22.333 59.9068L16.3252 56.3879C16.411 56.3879 16.411 56.4738 16.4968 56.4738L22.5047 59.9927C22.4189 59.9068 22.4189 59.9068 22.333 59.9068Z" fill="#639994"/>
<path d="M22.5046 59.9926L16.4968 56.4738C16.5826 56.4738 16.5826 56.4738 16.6684 56.5596L22.6763 60.0785C22.5904 59.9926 22.5904 59.9926 22.5046 59.9926Z" fill="#669E98"/>
<path d="M22.6764 59.9926L16.6685 56.4738C16.7543 56.4738 16.7543 56.4738 16.8402 56.4738L22.848 59.9926C22.7622 60.0785 22.6764 60.0785 22.6764 59.9926Z" fill="#69A39D"/>
<path d="M22.8479 60.0785L16.8401 56.5596C16.9259 56.5596 16.9259 56.5596 17.0117 56.5596L23.0196 60.0785C22.9338 60.0785 22.8479 60.0785 22.8479 60.0785Z" fill="#6CA7A2"/>
<path d="M23.0197 60.0785L17.0118 56.5596C17.0977 56.5596 17.1835 56.5596 17.1835 56.5596L23.1913 60.0785C23.1055 60.0785 23.1055 60.0785 23.0197 60.0785Z" fill="#6FACA6"/>
<path d="M23.1913 60.0785L17.1835 56.5596C17.2693 56.5596 17.3551 56.5596 17.441 56.5596L23.4488 60.0785C23.363 60.0785 23.2771 60.0785 23.1913 60.0785Z" fill="#72B1AB"/>
<path d="M23.4488 60.0785L17.441 56.5596C17.5268 56.5596 17.6126 56.5596 17.6985 56.4738L23.7063 59.9926C23.6205 59.9926 23.5347 60.0785 23.4488 60.0785Z" fill="#75B6B0"/>
<path d="M23.7062 59.9927L17.6984 56.4738C17.7842 56.4738 17.9558 56.3879 18.0417 56.3879L24.0495 59.9068C23.8779 59.9068 23.792 59.9927 23.7062 59.9927Z" fill="#78BAB4"/>
<path d="M24.0495 59.9068L18.0417 56.3879C18.2133 56.3021 18.2992 56.3021 18.4708 56.2163H18.5566L24.5645 59.7352H24.4787C24.307 59.7352 24.1354 59.821 24.0495 59.9068Z" fill="#7BBFB9"/>
<path d="M16.4969 69.7768L10.489 66.2579C10.489 66.2579 10.489 66.2579 10.5748 66.2579L16.4969 69.7768Z" fill="#669E98"/>
<path d="M16.4969 69.7768L10.489 66.2579C10.5748 66.2579 10.7465 66.3438 10.8323 66.3438L16.8402 69.8627C16.7543 69.8627 16.6685 69.8626 16.4969 69.7768Z" fill="#69A39D"/>
<path d="M16.8402 69.8626L10.8323 66.3438H10.9182L16.8402 69.8626C16.926 69.8626 16.926 69.8626 16.8402 69.8626Z" fill="#6CA7A2"/>
<path d="M18.1275 65.6571L12.1196 62.1382L18.1275 65.6571C18.1275 65.6571 18.1275 65.7429 18.1275 65.6571Z" fill="#097371"/>
<path d="M18.1275 65.743L12.1196 62.2241C12.2055 62.2241 12.2055 62.31 12.2913 62.31L18.2991 65.8288C18.2133 65.743 18.2133 65.743 18.1275 65.743Z" fill="#0A7674"/>
<path d="M18.2991 65.743L12.2913 62.2241C12.3771 62.2241 12.3771 62.2241 12.4629 62.31L18.4708 65.8288C18.3849 65.8288 18.2991 65.8288 18.2991 65.743Z" fill="#0A7A78"/>
<path d="M18.385 65.8288L12.3772 62.3099C12.463 62.3099 12.463 62.3099 12.5489 62.3099L18.5567 65.8288C18.5567 65.8288 18.4709 65.8288 18.385 65.8288Z" fill="#0A7E7C"/>
<path d="M18.5566 65.8288L12.5488 62.3099C12.6346 62.3099 12.6346 62.3099 12.7204 62.3099L18.7283 65.8288C18.6424 65.9146 18.6424 65.8288 18.5566 65.8288Z" fill="#0B827F"/>
<path d="M18.7282 65.9146L12.7204 62.3958C12.8062 62.3958 12.8062 62.3958 12.8921 62.3958L18.8999 65.9146C18.8141 65.9146 18.8141 65.9146 18.7282 65.9146Z" fill="#0B8583"/>
<path d="M18.8999 65.9146L12.8921 62.3958C12.9779 62.3958 13.0637 62.3958 13.0637 62.3958L19.0716 65.9146C19.0716 65.8288 18.9858 65.9146 18.8999 65.9146Z" fill="#0B8987"/>
<path d="M19.1574 65.8288L13.1495 62.31C13.2354 62.31 13.3212 62.3099 13.407 62.2241L19.4149 65.743C19.2432 65.8288 19.2432 65.8288 19.1574 65.8288Z" fill="#0B8D8A"/>
<path d="M19.3291 65.8288L13.3212 62.31C13.4071 62.31 13.4929 62.2241 13.6645 62.2241L19.6724 65.743C19.5866 65.743 19.5007 65.743 19.3291 65.8288Z" fill="#0C908E"/>
<path d="M19.6724 65.6571L13.6646 62.1382C13.7504 62.0524 13.922 62.0524 14.0937 61.9666L20.1015 65.4854C19.9299 65.5713 19.8441 65.6571 19.6724 65.6571Z" fill="#0C9492"/>
<path d="M24.4786 59.6494L18.4708 56.1305V49.3502L24.4786 52.8691V59.6494Z" fill="#687F7F"/>
<path d="M24.3928 52.8691L18.3849 49.3502H18.4708L24.3928 52.8691C24.4786 52.8691 24.4786 52.8691 24.3928 52.8691Z" fill="#5FB4AF"/>
<path d="M18.1275 65.6572L12.1197 62.1383C11.6047 61.8808 11.3472 61.1942 11.3472 60.3359L17.3551 63.8548C17.2692 64.7131 17.6126 65.3997 18.1275 65.6572Z" fill="#507C78"/>
<path d="M22.333 59.9069L16.3252 56.388C15.8102 56.0447 15.4669 55.4439 15.4669 54.4998C15.4669 54.3282 15.4669 54.1565 15.4669 53.899L21.4748 57.4179C21.4748 57.5896 21.4748 57.8471 21.4748 58.0187C21.4748 58.9628 21.8181 59.5636 22.333 59.9069Z" fill="#3E7572"/>
<path d="M21.4748 57.4179L15.4669 53.899C15.4669 53.7273 15.4669 53.6415 15.5527 53.4698L21.5606 56.9887C21.5606 57.1604 21.5606 57.2462 21.4748 57.4179Z" fill="#407A76"/>
<path d="M21.5606 56.9888L15.5527 53.4699C15.5527 53.3841 15.6386 53.2124 15.6386 53.1266L21.6464 56.6455C21.6464 56.7313 21.6464 56.9029 21.5606 56.9888Z" fill="#437E7B"/>
<path d="M21.6464 56.6454L15.6385 53.1265C15.6385 53.0407 15.7244 52.9549 15.7244 52.7832L21.7322 56.3021C21.7322 56.4737 21.7322 56.5596 21.6464 56.6454Z" fill="#45837F"/>
<path d="M21.7323 56.3879L15.7244 52.8691C15.7244 52.7832 15.8103 52.6974 15.8103 52.6116L21.8181 56.1305C21.8181 56.1305 21.8181 56.2163 21.7323 56.3879Z" fill="#478783"/>
<path d="M21.9039 56.0447L15.8961 52.5258C15.8961 52.44 15.9819 52.3541 15.9819 52.2683L21.9897 55.7872C21.9039 55.873 21.9039 55.9588 21.9039 56.0447Z" fill="#4A8B88"/>
<path d="M21.9897 55.7871L15.9819 52.2682C15.9819 52.1824 16.0677 52.0966 16.0677 52.0107L22.0755 55.5296C22.0755 55.6154 21.9897 55.7013 21.9897 55.7871Z" fill="#4C908C"/>
<path d="M22.0755 55.5297L16.0677 52.0108C16.0677 51.925 16.1535 51.8391 16.1535 51.7533L22.1614 55.2722C22.1614 55.358 22.1614 55.4438 22.0755 55.5297Z" fill="#4F9591"/>
<path d="M22.2472 55.2722L16.2394 51.7533C16.3252 51.6675 16.3252 51.5817 16.411 51.4958L22.4189 55.0147C22.3331 55.1006 22.2472 55.1864 22.2472 55.2722Z" fill="#519995"/>
<path d="M22.333 55.0147L16.3252 51.4958C16.411 51.4099 16.411 51.3241 16.4968 51.2383L22.5047 54.7572C22.4189 54.843 22.4189 54.9288 22.333 55.0147Z" fill="#539D99"/>
<path d="M22.5046 54.7572L16.4968 51.2383C16.5826 51.1525 16.5826 51.0667 16.6684 50.9808L22.6763 54.4997C22.5904 54.5855 22.5904 54.6714 22.5046 54.7572Z" fill="#56A29E"/>
<path d="M22.6764 54.4997L16.6685 50.9809C16.7543 50.895 16.8402 50.8092 16.8402 50.7234L22.848 54.2422C22.848 54.3281 22.7622 54.4139 22.6764 54.4997Z" fill="#58A7A2"/>
<path d="M22.8479 54.2423L16.8401 50.7234C16.9259 50.6376 17.0117 50.5518 17.0976 50.4659L23.1054 53.9848C23.0196 54.0707 22.9338 54.1565 22.8479 54.2423Z" fill="#5AABA6"/>
<path d="M23.1055 53.9849L17.0977 50.466C17.1835 50.3802 17.2693 50.2085 17.441 50.1227L23.4488 53.6416C23.363 53.7274 23.1913 53.899 23.1055 53.9849Z" fill="#5DB0AB"/>
<path d="M23.4488 53.6415L17.441 50.1227C17.7843 49.7793 18.0418 49.5219 18.4709 49.3502L24.4787 52.8691C24.0496 53.0408 23.7921 53.2982 23.4488 53.6415Z" fill="#5FB4AF"/>
<path d="M24.4786 52.869L18.4708 49.3501V46.432L24.4786 49.8651V52.869Z" fill="#888888"/>
<path d="M24.4785 49.8652L18.4707 46.3463C18.814 46.1746 19.0715 45.9172 19.4148 45.5739L25.4226 49.0927C25.1652 49.436 24.8219 49.6935 24.4785 49.8652Z" fill="#CCCCCC"/>
<path d="M25.4226 49.1786L19.4148 45.6597C19.5006 45.5739 19.6723 45.4022 19.7581 45.3164L25.7659 48.8353C25.5943 48.9211 25.5085 49.0928 25.4226 49.1786Z" fill="#C7C7C7"/>
<path d="M25.766 48.8352L19.7581 45.3163C19.8439 45.2305 19.9298 45.1447 20.0156 45.0588L26.0234 48.5777C25.8518 48.6636 25.8518 48.7494 25.766 48.8352Z" fill="#C2C2C2"/>
<path d="M25.9376 48.5778L19.9297 45.0589C20.0156 44.9731 20.1014 44.8872 20.1014 44.8014L26.1092 48.3203C26.1092 48.4061 26.0234 48.4919 25.9376 48.5778Z" fill="#BDBDBD"/>
<path d="M26.1951 48.3203L20.1873 44.8014C20.2731 44.7156 20.2731 44.6298 20.3589 44.5439L26.3668 48.0628C26.2809 48.1487 26.1951 48.2345 26.1951 48.3203Z" fill="#B8B8B8"/>
<path d="M26.3667 48.0629L20.3588 44.544C20.4447 44.4581 20.4447 44.3723 20.5305 44.2865L26.5383 47.8054C26.4525 47.8912 26.3667 47.977 26.3667 48.0629Z" fill="#B3B3B3"/>
<path d="M26.4526 47.8053L20.4448 44.2864C20.5306 44.2006 20.5306 44.1148 20.6164 44.0289L26.6243 47.5478C26.6243 47.6336 26.5384 47.7195 26.4526 47.8053Z" fill="#ADADAD"/>
<path d="M26.6242 47.5478L20.6164 44.029C20.7022 43.9431 20.7022 43.8573 20.7022 43.7715L26.7101 47.2904C26.7101 47.3762 26.7101 47.462 26.6242 47.5478Z" fill="#A8A8A8"/>
<path d="M26.7958 47.2903L20.788 43.7714C20.788 43.6856 20.8738 43.5997 20.8738 43.5139L26.8816 47.0328C26.8816 47.1186 26.7958 47.2045 26.7958 47.2903Z" fill="#A3A3A3"/>
<path d="M26.8817 47.0328L20.8739 43.5139C20.8739 43.4281 20.9597 43.3423 20.9597 43.2565L26.9676 46.7754C26.9676 46.8612 26.8817 46.947 26.8817 47.0328Z" fill="#9E9E9E"/>
<path d="M26.9676 46.7755L20.9597 43.2566C20.9597 43.1708 21.0455 43.085 21.0455 42.9991L27.0534 46.518C27.0534 46.518 27.0534 46.6897 26.9676 46.7755Z" fill="#999999"/>
<path d="M27.0534 46.4321L21.0455 42.9132C21.0455 42.8274 21.1314 42.7416 21.1314 42.5699L27.1392 46.0888C27.1392 46.2605 27.1392 46.3463 27.0534 46.4321Z" fill="#949494"/>
<path d="M27.1391 46.1747L21.1313 42.6558C21.1313 42.57 21.2171 42.3983 21.2171 42.3125L27.225 45.8314C27.225 45.9172 27.225 46.0889 27.1391 46.1747Z" fill="#8F8F8F"/>
<path d="M27.2249 45.8313L21.2171 42.3124C21.2171 42.1408 21.3029 42.055 21.3029 41.8833L27.3108 45.4022C27.3108 45.5738 27.3108 45.6597 27.2249 45.8313Z" fill="#8A8A8A"/>
<path d="M27.3109 45.4021L21.303 41.8832C21.303 41.7116 21.303 41.4541 21.303 41.2825C21.303 40.3384 20.9597 39.6518 20.4448 39.3943L26.4526 42.9132C26.9676 43.2565 27.3109 43.8572 27.3109 44.8013C27.3967 45.0588 27.3967 45.2305 27.3109 45.4021Z" fill="#858585"/>
<path d="M22.333 50.1225L16.3252 46.6036L22.333 50.1225Z" fill="#5F948F"/>
<path d="M22.333 50.1225L16.3252 46.6036C16.411 46.6036 16.411 46.6895 16.4968 46.6895L22.5047 50.2084C22.4189 50.2084 22.4189 50.2084 22.333 50.1225Z" fill="#639994"/>
<path d="M22.5046 50.2083L16.4968 46.6895C16.5826 46.6895 16.5826 46.6895 16.6684 46.7753L22.6763 50.2942C22.5904 50.2942 22.5046 50.2942 22.5046 50.2083Z" fill="#669E98"/>
<path d="M22.6764 50.2943L16.6685 46.7754C16.7543 46.7754 16.7543 46.7754 16.8402 46.7754L22.848 50.2943C22.7622 50.2943 22.6764 50.2943 22.6764 50.2943Z" fill="#69A39D"/>
<path d="M22.7622 50.2943L16.7543 46.7754C16.8402 46.7754 16.8402 46.7754 16.926 46.7754L22.9338 50.2943C22.9338 50.3801 22.848 50.3801 22.7622 50.2943Z" fill="#6CA7A2"/>
<path d="M23.0197 50.3801L17.0118 46.8612C17.0977 46.8612 17.1835 46.8612 17.1835 46.8612L23.1913 50.3801C23.1055 50.3801 23.0197 50.3801 23.0197 50.3801Z" fill="#6FACA6"/>
<path d="M23.1913 50.3801L17.1835 46.8612C17.2693 46.8612 17.3551 46.8612 17.441 46.8612L23.4488 50.3801C23.363 50.3801 23.2771 50.3801 23.1913 50.3801Z" fill="#72B1AB"/>
<path d="M23.3629 50.2942L17.355 46.7753C17.4409 46.7753 17.5267 46.7753 17.6125 46.6895L23.6204 50.2083C23.5345 50.2942 23.4487 50.2942 23.3629 50.2942Z" fill="#75B6B0"/>
<path d="M23.6204 50.2942L17.6125 46.7753C17.6984 46.7753 17.87 46.6895 17.9559 46.6895L23.9637 50.2083C23.8779 50.2083 23.792 50.2083 23.6204 50.2942Z" fill="#78BAB4"/>
<path d="M24.0495 50.1225L18.0417 46.6036C18.2133 46.5178 18.2992 46.5178 18.4708 46.432H18.5566L24.5645 49.9509H24.4787C24.307 50.0367 24.1354 50.1225 24.0495 50.1225Z" fill="#7BBFB9"/>
<path d="M24.4785 43.0848L18.4707 39.566C18.5565 39.4801 18.7282 39.4801 18.814 39.3943L24.8219 42.9132C24.736 42.999 24.5644 42.999 24.4785 43.0848Z" fill="#9CBEBE"/>
<path d="M24.8219 42.9132L18.814 39.3943C18.8999 39.3085 19.0715 39.3085 19.1573 39.3085L25.1652 42.8274C25.0794 42.8274 24.9077 42.9132 24.8219 42.9132Z" fill="#98B9B9"/>
<path d="M25.1652 42.8274L19.1573 39.3085C19.2432 39.3085 19.329 39.3085 19.4148 39.2227L25.4227 42.7415C25.3368 42.7415 25.251 42.8274 25.1652 42.8274Z" fill="#94B4B4"/>
<path d="M25.4226 42.7415L19.4148 39.2227C19.5006 39.2227 19.5864 39.2227 19.6723 39.2227L25.6801 42.7415C25.5943 42.7415 25.5085 42.7415 25.4226 42.7415Z" fill="#90AFAF"/>
<path d="M25.6802 42.7415L19.6723 39.2227C19.7581 39.2227 19.844 39.2227 19.844 39.2227L25.8518 42.7415C25.766 42.7415 25.6802 42.7415 25.6802 42.7415Z" fill="#8CABAB"/>
<path d="M25.8518 42.7415L19.8439 39.2227C19.9298 39.2227 19.9298 39.2227 20.0156 39.2227L26.0234 42.7415C25.9376 42.7415 25.9376 42.7415 25.8518 42.7415Z" fill="#88A6A6"/>
<path d="M26.0235 42.7415L20.0156 39.2227C20.1015 39.2227 20.1015 39.2227 20.1873 39.2227L26.1951 42.7415C26.1093 42.7415 26.1093 42.7415 26.0235 42.7415Z" fill="#85A1A1"/>
<path d="M26.1951 42.8274L20.1873 39.3085C20.2731 39.3085 20.2731 39.3085 20.3589 39.3943L26.3668 42.9132C26.2809 42.8274 26.2809 42.8274 26.1951 42.8274Z" fill="#819C9C"/>
<path d="M26.3667 42.8274L20.3588 39.3085C20.4447 39.3085 20.4447 39.3943 20.5305 39.3943L26.5383 42.9132C26.4525 42.9132 26.3667 42.9132 26.3667 42.8274Z" fill="#7D9898"/>
<path d="M26.4526 42.9132L20.4448 39.3943L26.4526 42.9132C26.5384 42.9132 26.5384 42.9132 26.4526 42.9132Z" fill="#799393"/>
<path d="M24.4786 49.8651L18.4708 46.432L18.3849 39.5659L24.4786 43.0848V49.8651Z" fill="#687F7F"/>
<path d="M24.4786 43.0849C26.1093 42.2266 27.3967 42.999 27.3967 44.8014C27.3967 46.6896 26.1093 48.9211 24.4786 49.8652V43.0849Z" fill="#C3EDED"/>
<path d="M24.3928 43.1706L18.3849 39.6517H18.4708L24.3928 43.1706C24.3928 43.0848 24.4786 43.0848 24.3928 43.1706Z" fill="#5FB4AF"/>
<path d="M22.333 50.1225L16.3252 46.6036C15.8102 46.2603 15.4669 45.6595 15.4669 44.7154C15.4669 44.5438 15.4669 44.3721 15.4669 44.1146L21.4748 47.6335C21.4748 47.8052 21.4748 48.0626 21.4748 48.2343C21.4748 49.1784 21.8181 49.865 22.333 50.1225Z" fill="#3E7572"/>
<path d="M21.4748 47.6336L15.4669 44.1147C15.4669 43.943 15.4669 43.8572 15.5527 43.6855L21.5606 47.2044C21.5606 47.3761 21.4748 47.5477 21.4748 47.6336Z" fill="#407A76"/>
<path d="M21.5606 47.2903L15.5527 43.7714C15.5527 43.6856 15.6386 43.5139 15.6386 43.4281L21.6464 46.947C21.6464 47.0328 21.5606 47.1186 21.5606 47.2903Z" fill="#437E7B"/>
<path d="M21.6464 46.947L15.6385 43.4282C15.6385 43.3423 15.7244 43.2565 15.7244 43.0848L21.7322 46.6037C21.7322 46.6896 21.6464 46.8612 21.6464 46.947Z" fill="#45837F"/>
<path d="M21.7323 46.6036L15.7244 43.0847C15.7244 42.9989 15.8103 42.9131 15.8103 42.8273L21.8181 46.3462C21.8181 46.432 21.7323 46.5178 21.7323 46.6036Z" fill="#478783"/>
<path d="M21.8181 46.3462L15.8102 42.8273C15.8102 42.7415 15.8961 42.6557 15.8961 42.5698L21.9039 46.0887C21.9039 46.1745 21.9039 46.2604 21.8181 46.3462Z" fill="#4A8B88"/>
<path d="M21.9039 46.0887L15.8961 42.5699C15.8961 42.484 15.9819 42.3982 15.9819 42.3124L21.9897 45.8313C21.9897 45.9171 21.9897 46.0029 21.9039 46.0887Z" fill="#4C908C"/>
<path d="M22.0755 45.8313L16.0677 42.3124C16.0677 42.2266 16.1535 42.1408 16.1535 42.0549L22.1614 45.5738C22.1614 45.6596 22.0755 45.7455 22.0755 45.8313Z" fill="#4F9591"/>
<path d="M22.1614 45.5737L16.1536 42.0549C16.2394 41.969 16.2394 41.8832 16.3252 41.7974L22.3331 45.3163C22.2472 45.4021 22.2472 45.4879 22.1614 45.5737Z" fill="#519995"/>
<path d="M22.333 45.3163L16.3252 41.7974C16.411 41.7116 16.411 41.6257 16.4968 41.5399L22.5047 45.0588C22.4189 45.1446 22.333 45.2304 22.333 45.3163Z" fill="#539D99"/>
<path d="M22.5046 45.0588L16.4968 41.5399C16.5826 41.4541 16.5826 41.3683 16.6684 41.2825L22.6763 44.8013C22.5904 44.8872 22.5046 44.973 22.5046 45.0588Z" fill="#56A29E"/>
<path d="M22.6764 44.8013L16.6685 41.2824C16.7543 41.1966 16.8402 41.1107 16.8402 41.0249L22.848 44.5438C22.7622 44.6296 22.6764 44.7154 22.6764 44.8013Z" fill="#58A7A2"/>
<path d="M22.8479 44.5439L16.8401 41.025C16.9259 40.9392 17.0117 40.8534 17.0976 40.7676L23.1054 44.2865C23.0196 44.3723 22.9338 44.4581 22.8479 44.5439Z" fill="#5AABA6"/>
<path d="M23.1055 44.2864L17.0977 40.7675C17.1835 40.6817 17.2693 40.51 17.441 40.4242L23.4488 43.9431C23.2772 44.0289 23.1913 44.1147 23.1055 44.2864Z" fill="#5DB0AB"/>
<path d="M23.4488 43.9431L17.441 40.4242C17.7843 40.0809 18.1276 39.8234 18.4709 39.6517L24.4787 43.1706C24.0496 43.3423 23.7063 43.5997 23.4488 43.9431Z" fill="#5FB4AF"/>
<path d="M24.4786 43.0849L18.3849 39.566V37.6779L24.4786 41.1967V43.0849Z" fill="#888888"/>
<path d="M24.4786 41.1967L18.3849 37.6778L52.6297 17.8519L58.7233 21.3708L24.4786 41.1967Z" fill="#DBDBDB"/>
<path d="M24.4786 39.2227L18.3849 35.7038L52.6297 15.8779L58.7233 19.3968L24.4786 39.2227Z" fill="#0D9F9D"/>
<path d="M17.2692 45.3164L11.1755 41.7975L18.385 37.6779L24.4786 41.1967L17.2692 45.3164Z" fill="#85CEC7"/>
<path d="M17.2692 45.3163L11.1755 41.7975V40.0809L17.2692 43.5998V45.3163Z" fill="#086361"/>
<path d="M17.2692 63.9407L11.2614 60.4218L11.1755 40.0809L17.2692 43.5998V63.9407Z" fill="#52807B"/>
<path d="M17.2692 43.3423L11.1755 39.8234L18.385 35.7037L24.4786 39.2226L17.2692 43.3423Z" fill="#0D9F9D"/>
<path d="M17.2692 43.3422L11.1755 39.8234V37.0769L17.2692 40.5958V43.3422Z" fill="#52807B"/>
<path d="M24.4786 39.2227L18.3849 35.7038V23.5165L24.3928 27.0354L24.4786 39.2227Z" fill="#888888"/>
<path d="M57.8651 8.66851C58.3801 9.01182 58.6375 9.61258 58.7234 10.4708V13.0456V16.9078V19.5684L24.4786 39.3085V27.1212L55.9769 8.92598C56.6635 8.41102 57.3501 8.32521 57.8651 8.66851Z" fill="white"/>
<path d="M24.3928 27.0353L18.3849 23.5164L49.8832 5.32117L55.8911 8.84005L24.3928 27.0353Z" fill="#DBDBDB"/>
<path d="M17.2692 40.5958L11.1755 37.0769V33.1289L17.1834 36.6478L17.2692 40.5958Z" fill="#52807B"/>
<path d="M20.0157 29.6102L13.9221 26.0913L18.385 23.5165L24.3929 27.0354L20.0157 29.6102Z" fill="#85CEC7"/>
<path d="M17.1834 36.6478L11.1755 33.129V30.8116L17.1834 34.3305V36.6478Z" fill="#52807B"/>
<path d="M17.1834 34.3306L11.1755 30.8117C11.1755 30.64 11.1755 30.4684 11.1755 30.3826L17.1834 33.9015C17.2692 33.9873 17.1834 34.1589 17.1834 34.3306Z" fill="#507C78"/>
<path d="M18.5567 30.8976L12.5488 27.3787C12.6347 27.2929 12.7205 27.207 12.8063 27.1212L18.8142 30.6401C18.6425 30.7259 18.6425 30.8117 18.5567 30.8976Z" fill="#75B6B0"/>
<path d="M18.7283 30.64L12.7205 27.1212C12.8063 27.0353 12.8921 26.8637 13.0638 26.7778L19.0716 30.2967C18.9858 30.3825 18.8141 30.4684 18.7283 30.64Z" fill="#78BAB4"/>
<path d="M19.0716 30.2967L13.0638 26.7778C13.3213 26.5203 13.6646 26.2628 14.0079 26.0912L20.0157 29.6101C19.6724 29.7817 19.3291 30.0392 19.0716 30.2967Z" fill="#7BBFB9"/>
<path d="M17.1834 34.3305L11.1755 30.8116C11.1755 30.6399 11.1755 30.4683 11.1755 30.3824L17.1834 33.9013C17.2692 33.9872 17.1834 34.1588 17.1834 34.3305Z" fill="#507C78"/>
<path d="M17.2692 33.8156L11.2614 30.2967C11.2614 30.125 11.2614 30.0392 11.3472 29.8676L17.355 33.3864C17.2692 33.5581 17.2692 33.7297 17.2692 33.8156Z" fill="#53817D"/>
<path d="M17.355 33.4723L11.3472 29.9534C11.3472 29.8676 11.433 29.7818 11.433 29.6101L17.4408 33.129C17.355 33.2148 17.355 33.3006 17.355 33.4723Z" fill="#568681"/>
<path d="M17.4409 33.1289L11.433 29.61C11.433 29.5242 11.5189 29.4384 11.5189 29.3525L17.5267 32.8714C17.4409 32.9573 17.4409 33.0431 17.4409 33.1289Z" fill="#598B86"/>
<path d="M17.5267 32.8714L11.5189 29.3526C11.5189 29.2667 11.6047 29.1809 11.6047 29.0951L17.6125 32.614C17.5267 32.6998 17.5267 32.7856 17.5267 32.8714Z" fill="#5C8F8B"/>
<path d="M17.6125 32.614L11.6047 29.0951C11.6047 29.0093 11.6905 28.9235 11.6905 28.8376L17.6983 32.3565C17.6125 32.4423 17.6125 32.5282 17.6125 32.614Z" fill="#5F948F"/>
<path d="M17.6983 32.3564L11.6905 28.8376C11.6905 28.7517 11.7763 28.6659 11.7763 28.5801L17.7842 32.099C17.7842 32.1848 17.6983 32.2706 17.6983 32.3564Z" fill="#639994"/>
<path d="M17.7842 32.0991L11.7763 28.5802C11.7763 28.4944 11.8621 28.4086 11.8621 28.3228L17.87 31.8416C17.87 31.9275 17.87 32.0133 17.7842 32.0991Z" fill="#669E98"/>
<path d="M17.87 31.8416L11.8622 28.3227C11.948 28.2369 11.948 28.151 12.0338 28.0652L18.0417 31.5841C17.9559 31.6699 17.9559 31.7557 17.87 31.8416Z" fill="#69A39D"/>
<path d="M18.0417 31.584L12.0338 28.0651C12.1196 27.9793 12.1196 27.8934 12.2055 27.8076L18.2133 31.3265C18.1275 31.4123 18.1275 31.4981 18.0417 31.584Z" fill="#6CA7A2"/>
<path d="M18.2132 31.4125L12.2054 27.8936C12.2912 27.8078 12.2912 27.7219 12.377 27.6361L18.3849 31.155C18.2991 31.2408 18.2132 31.3267 18.2132 31.4125Z" fill="#6FACA6"/>
<path d="M18.385 31.1549L12.3771 27.636C12.463 27.5502 12.463 27.4644 12.5488 27.3785L18.5566 30.8974C18.4708 30.9833 18.385 31.0691 18.385 31.1549Z" fill="#72B1AB"/>
<path d="M18.5566 30.8974L12.5487 27.3786C12.6345 27.2927 12.7204 27.2069 12.8062 27.1211L18.814 30.64C18.6424 30.7258 18.6424 30.8116 18.5566 30.8974Z" fill="#75B6B0"/>
<path d="M60.0966 4.8063C61.2123 5.40709 61.8131 6.7803 61.8989 8.58266L61.9848 38.1928C61.9848 39.9951 61.384 42.0549 60.2682 44.0289C59.1525 45.9171 57.6934 47.5478 56.0627 48.4061L20.1015 69.1761C18.9857 69.8627 17.87 70.1202 16.9259 69.9485C16.7542 69.9485 16.5826 69.8627 16.4968 69.8627C16.3251 69.7769 16.1535 69.6911 15.896 69.6052C14.7802 69.0044 14.1795 67.6312 14.1795 65.8288L14.0936 36.2187C14.0936 34.4164 14.6944 32.3566 15.8102 30.4684C16.9259 28.5802 18.3849 27.0353 19.9298 26.0912L29.2849 20.6842L31.1731 19.5684L37.8675 15.7062L44.562 11.8441C45.8494 11.0716 46.7935 10.5567 46.8793 10.5567L55.8053 5.40707C57.436 4.29133 58.9808 4.20552 60.0966 4.8063ZM58.7234 39.9951V21.3708L24.4786 41.1109L17.2692 45.3163V43.5998L17.355 63.8549C17.355 64.7131 17.6125 65.3139 18.2133 65.6572C18.7283 65.9147 19.4149 65.9147 20.1873 65.4855L24.6503 62.9108L55.9769 44.8014C56.7493 44.3722 57.436 43.5998 57.9509 42.7416C58.4659 41.7975 58.7234 40.8534 58.7234 39.9951ZM58.7234 12.9598V10.385C58.7234 9.52675 58.38 8.92596 57.8651 8.58266C57.3501 8.32518 56.6635 8.32516 55.8911 8.7543L24.3928 26.9495L19.9298 29.5243C19.2432 29.9534 18.4708 30.64 17.9558 31.5841C17.4409 32.4424 17.1834 33.3865 17.0976 34.2447V36.5621V40.5101V43.3423L24.307 39.1369L58.5517 19.3968V16.7362L58.7234 12.9598Z" fill="#0FB9B6"/>
<path d="M33.748 37.7636C35.3787 36.8196 36.7519 37.592 36.7519 39.4802C36.7519 41.3684 35.4645 43.6857 33.8338 44.6298C32.2031 45.5739 30.8299 44.8014 30.8299 42.9132C30.744 41.0251 32.1173 38.7077 33.748 37.7636Z" fill="#C3EDED"/>
<path d="M58.7234 39.9952V21.3708L24.4786 41.1109V43.0849C26.1093 42.2267 27.3967 42.9991 27.3967 44.8014C27.3967 46.6896 26.1093 48.9211 24.4786 49.8652V52.7833C26.1093 51.9251 27.3967 52.6975 27.3967 54.4998C27.3967 56.388 26.1093 58.6195 24.4786 59.5636V62.825L55.9769 44.8014C56.2344 44.6298 56.4061 44.544 56.6635 44.2865C57.1785 43.8574 57.6076 43.3424 57.9509 42.7416C58.0368 42.57 58.1226 42.4841 58.2084 42.3125C58.2084 42.2267 58.2942 42.2267 58.2942 42.1408C58.2942 42.055 58.3801 41.9692 58.3801 41.8834C58.3801 41.7975 58.4659 41.7117 58.4659 41.6259C58.4659 41.5401 58.5517 41.3684 58.5517 41.2826C58.7234 40.8535 58.7234 40.4243 58.7234 39.9952ZM33.7479 37.7637C35.3786 36.8196 36.7518 37.592 36.7518 39.4802C36.7518 41.3684 35.4644 43.6857 33.8337 44.6298C32.203 45.5739 30.8298 44.8015 30.8298 42.9133C30.744 41.0251 32.1172 38.7078 33.7479 37.7637ZM36.3227 51.2384C36.2369 51.4959 36.151 51.7534 35.9794 51.9251C35.9794 52.0109 35.8935 52.0109 35.8935 52.0967C35.3786 53.0408 34.6062 53.8132 33.8337 54.3282C32.8038 54.929 31.9455 54.8431 31.4306 54.3282C31.4306 54.3282 31.4306 54.2423 31.3447 54.2423C31.3447 54.2423 31.3448 54.2424 31.2589 54.1565C31.2589 54.0707 31.1731 54.0707 31.1731 53.9849C31.1731 53.8991 31.0873 53.899 31.0873 53.8132C31.0014 53.6416 30.9156 53.4699 30.9156 53.2983C30.9156 53.2125 30.9156 53.2124 30.9156 53.1266C30.9156 53.0408 30.9156 52.955 30.9156 52.8691C30.9156 52.7833 30.9156 52.7833 30.9156 52.6975V52.6117C30.9156 52.5258 30.9156 52.5258 30.9156 52.44C30.9156 52.3542 30.9156 52.1825 30.9156 52.0967C30.9156 52.0109 30.9156 52.0109 30.9156 51.9251C31.0873 50.6377 31.8597 49.2644 32.8038 48.3203C32.8896 48.2345 32.8896 48.2345 32.9755 48.1487C33.0613 48.0629 33.1471 47.977 33.2329 47.8912C33.4046 47.7195 33.6621 47.6337 33.8337 47.4621C34.3487 47.2046 34.8636 47.0329 35.2069 47.0329C35.2928 47.0329 35.2928 47.0329 35.3786 47.0329C35.4644 47.0329 35.4644 47.0329 35.5502 47.0329H35.6361C35.7219 47.0329 35.8077 47.1188 35.9794 47.2046L36.0652 47.2904L36.151 47.3762L36.2369 47.4621C36.2369 47.4621 36.2369 47.4621 36.2369 47.5479C36.2369 47.6337 36.3227 47.6337 36.3227 47.7196C36.3227 47.7196 36.3227 47.7195 36.3227 47.8054C36.4085 47.977 36.4943 48.2345 36.5802 48.4062C36.5802 48.492 36.666 48.6636 36.666 48.8353C36.666 48.9211 36.666 48.9211 36.666 49.007C36.666 49.0928 36.666 49.0928 36.666 49.1786C36.7518 49.8652 36.5802 50.5518 36.3227 51.2384ZM43.0171 32.3566C44.6478 31.4125 46.0211 32.185 46.0211 34.0731C46.0211 35.9613 44.7337 38.2786 43.103 39.2227C41.4723 40.1668 40.099 39.3944 40.099 37.5062C40.099 35.618 41.3864 33.3007 43.0171 32.3566ZM43.103 48.9211C41.4723 49.8652 40.099 49.0928 40.099 47.2046C40.099 45.3164 41.3864 42.9991 43.0171 42.055C44.6478 41.1109 46.0211 41.8834 46.0211 43.7715C46.0211 45.6597 44.7337 47.977 43.103 48.9211ZM52.3722 27.0354C54.0029 26.0913 55.3761 26.8637 55.3761 28.7519C55.3761 30.6401 54.0887 32.9574 52.458 33.9015C50.8273 34.8456 49.4541 34.0732 49.4541 32.185C49.3683 30.211 50.7415 27.9795 52.3722 27.0354ZM52.3722 43.514C50.7415 44.4581 49.3683 43.6857 49.3683 41.7975C49.3683 39.9093 50.6557 37.592 52.2864 36.6479C53.9171 35.7038 55.2903 36.4763 55.2903 38.3645C55.3761 40.3385 54.0029 42.57 52.3722 43.514Z" fill="white"/>
<path d="M54.4779 41.3833C55.645 39.3752 55.6609 37.2066 54.5134 36.5397C53.3659 35.8728 51.4895 36.96 50.3224 38.9682C49.1552 40.9763 49.1393 43.1449 50.2869 43.8118C51.4344 44.4787 53.3108 43.3915 54.4779 41.3833Z" fill="#0FB9B6"/>
<path d="M43.0172 42.1407C44.6479 41.1966 46.0211 41.9691 46.0211 43.8573C46.0211 45.7454 44.7337 48.0627 43.103 49.0068C41.4723 49.9509 40.0991 49.1785 40.0991 47.2903C40.0991 45.4021 41.3865 43.0848 43.0172 42.1407Z" fill="#C3EDED"/>
<path d="M55.8911 5.23537L49.8833 1.71649C50.1408 1.54483 50.3983 1.45901 50.7416 1.28735L56.7494 4.80624C56.4061 4.89207 56.1486 5.06372 55.8911 5.23537Z" fill="#0C9492"/>
<path d="M56.7494 4.80629L50.7416 1.2874C50.9991 1.20158 51.1707 1.11573 51.4282 1.02991L57.436 4.54879C57.1786 4.63462 56.9211 4.72046 56.7494 4.80629Z" fill="#0C908E"/>
<path d="M57.4361 4.54878L51.4282 1.0299C51.5999 0.944071 51.7715 0.944092 51.9432 0.944092L57.951 4.46295C57.7794 4.46295 57.6077 4.54878 57.4361 4.54878Z" fill="#0B8D8A"/>
<path d="M57.951 4.46297L51.9431 0.944108C52.1148 0.944108 52.2006 0.944103 52.3722 0.858276L58.3801 4.37716C58.2084 4.46299 58.1226 4.46297 57.951 4.46297Z" fill="#0B8987"/>
<path d="M58.3802 4.46295L52.3723 0.944092C52.544 0.944092 52.6298 0.944092 52.8014 0.944092L58.8093 4.46295C58.6376 4.37713 58.466 4.37713 58.3802 4.46295Z" fill="#0B8583"/>
<path d="M58.8092 4.46295L52.8014 0.944092C52.8872 0.944092 53.0589 0.944092 53.1447 0.944092L59.1525 4.46295C58.9809 4.46295 58.8951 4.46295 58.8092 4.46295Z" fill="#0B827F"/>
<path d="M59.1526 4.46295L53.1448 0.944092C53.2306 0.944092 53.4023 1.0299 53.4881 1.0299L59.4959 4.54878C59.3243 4.54878 59.2384 4.46295 59.1526 4.46295Z" fill="#0A7E7C"/>
<path d="M59.4959 4.54879L53.488 1.02991C53.5739 1.02991 53.6597 1.11574 53.8313 1.11574L59.8392 4.63463C59.6675 4.63463 59.5817 4.54879 59.4959 4.54879Z" fill="#0A7A78"/>
<path d="M59.7533 4.63473L53.7455 1.11584C53.8313 1.11584 53.9171 1.20168 54.003 1.28751L60.0108 4.80639C59.925 4.72057 59.8392 4.72056 59.7533 4.63473Z" fill="#0A7674"/>
<path d="M60.0966 4.80624L54.0029 1.28735L60.0966 4.80624Z" fill="#0A7674"/>
<path d="M60.0966 4.80624L54.0887 1.28735L60.0966 4.80624Z" fill="#097371"/>
<path d="M24.4786 52.8691C26.1093 52.0108 27.3967 52.7832 27.3967 54.5856C27.3967 56.4738 26.1093 58.7052 24.4786 59.6493V52.8691Z" fill="#C3EDED"/>
<path d="M24.3928 43.1707C24.3928 43.0849 24.4787 43.0849 24.3928 43.1707L24.4787 49.951H24.3928C22.7621 50.8951 21.3889 50.1226 21.3889 48.2344C21.4747 46.3463 22.7621 44.1148 24.3928 43.1707Z" fill="#5CAEA9"/>
<path d="M17.2693 43.5998V45.3163L24.4787 41.1108V43.0848H24.3929C22.7622 44.0289 21.4748 46.3462 21.4748 48.2344C21.4748 50.1226 22.848 50.895 24.4787 49.9509H24.5645V52.8691H24.4787C22.848 53.8132 21.5606 56.1305 21.5606 58.0186C21.5606 59.9068 22.9338 60.6793 24.5645 59.7352H24.6504V62.9966L20.1874 65.5714C19.4149 66.0005 18.7283 66.0863 18.2134 65.743C17.6984 65.4855 17.4409 64.7989 17.3551 63.9407L17.2693 43.5998Z" fill="#9AEFE7"/>
<path d="M24.3928 52.869C24.4787 52.869 24.4787 52.869 24.3928 52.869L24.4787 59.6493H24.3928C22.7621 60.5934 21.3889 59.821 21.3889 57.9328C21.3889 56.0446 22.7621 53.8131 24.3928 52.869Z" fill="#5CAEA9"/>
<path d="M46.9652 10.385L40.8715 6.86614L49.8833 1.71655L55.8911 5.23544L46.9652 10.385Z" fill="#0D9F9D"/>
<path d="M15.896 69.5194L9.88816 66.0005C8.77242 65.3997 8.17163 64.0265 8.17163 62.2241L14.1795 65.743C14.1795 67.5454 15.896 69.5194 15.896 69.5194Z" fill="#08605F"/>
<path d="M44.6478 11.6724L38.64 8.15348C39.9273 7.38105 40.8714 6.86609 40.9573 6.86609L46.9651 10.385C46.8793 10.385 45.9352 10.9858 44.6478 11.6724Z" fill="#0C9492"/>
<path d="M37.9535 15.6203L31.8598 12.1014L38.6401 8.23926L44.6479 11.6723L37.9535 15.6203Z" fill="#0D9F9D"/>
<path d="M31.1731 19.4825L25.1653 15.9636L31.8597 12.1014L37.9534 15.6203L31.1731 19.4825Z" fill="#0D9F9D"/>
<path d="M29.3708 20.5984L23.2772 17.0795L25.1653 15.9637L31.1732 19.4826L29.3708 20.5984Z" fill="#0D9F9D"/>
<path d="M20.0157 29.6101L24.4787 27.0353V39.2226L17.2693 43.4281V40.5958V36.6478V34.3305C17.2693 33.4723 17.6126 32.5282 18.1276 31.6699C18.5567 30.7258 19.2433 30.0392 20.0157 29.6101Z" fill="#9AEFE7"/>
<path d="M14.1795 65.743L8.08583 62.2241L8 32.614L14.0937 36.1329L14.1795 65.743Z" fill="#086361"/>
<path d="M19.9299 26.0054L13.9221 22.4865L23.2771 17.0795L29.3708 20.5984L19.9299 26.0054Z" fill="#0D9F9D"/>
<path d="M14.0937 36.1329L8.08582 32.614C8.08582 32.2707 8.08582 31.9274 8.17164 31.4983L14.1795 35.0172C14.0937 35.4463 14.0937 35.7896 14.0937 36.1329Z" fill="#08605F"/>
<path d="M14.1795 35.0172L8.17163 31.4983C8.17163 31.2408 8.25746 30.9833 8.34328 30.64L14.3511 34.1589C14.2653 34.5022 14.1795 34.7597 14.1795 35.0172Z" fill="#086462"/>
<path d="M14.2653 34.2447L8.25745 30.7258C8.34327 30.4683 8.34327 30.2967 8.4291 30.0392L14.4369 33.5581C14.4369 33.7297 14.3511 33.9872 14.2653 34.2447Z" fill="#086866"/>
<path d="M14.437 33.558L8.42914 30.0391C8.51496 29.8675 8.51496 29.61 8.60079 29.4384L14.6086 32.9572C14.6086 33.1289 14.5228 33.3006 14.437 33.558Z" fill="#096B6A"/>
<path d="M14.6086 32.9573L8.60077 29.4384C8.6866 29.2668 8.77242 29.0951 8.77242 28.8376L14.7803 32.3565C14.7803 32.5282 14.6944 32.6998 14.6086 32.9573Z" fill="#096F6D"/>
<path d="M14.8661 32.3566L8.85828 28.8377C8.9441 28.6661 9.02993 28.4944 9.11576 28.3228L15.1236 31.8416C14.9519 32.0133 14.952 32.1849 14.8661 32.3566Z" fill="#097371"/>
<path d="M15.0377 31.8415L9.02985 28.3226C9.11567 28.1509 9.2015 27.9793 9.28733 27.8076L15.2952 31.3265C15.2093 31.4982 15.1235 31.6698 15.0377 31.8415Z" fill="#0A7674"/>
<path d="M15.2953 31.3266L9.28741 27.8077C9.37324 27.636 9.45907 27.4644 9.54489 27.2927L15.5527 30.8116C15.4669 30.9833 15.3811 31.1549 15.2953 31.3266Z" fill="#0A7A78"/>
<path d="M15.5526 30.8117L9.5448 27.2928C9.63063 27.1211 9.71645 26.9495 9.80228 26.7778L15.8101 30.2967C15.7243 30.4684 15.6385 30.64 15.5526 30.8117Z" fill="#0A7E7C"/>
<path d="M15.8102 30.2966L9.80231 26.7778C9.88813 26.6061 9.97396 26.4345 10.1456 26.2628L16.1535 29.7817C16.0676 29.9533 15.896 30.125 15.8102 30.2966Z" fill="#0B827F"/>
<path d="M16.1535 29.7817L10.1456 26.2629C10.2315 26.0912 10.4031 25.9196 10.4889 25.7479L16.4968 29.2668C16.3251 29.4385 16.2393 29.6101 16.1535 29.7817Z" fill="#0B8583"/>
<path d="M16.4969 29.2668L10.489 25.7479C10.5748 25.5762 10.7465 25.4046 10.9181 25.2329L16.926 28.7518C16.7543 28.9234 16.5827 29.0951 16.4969 29.2668Z" fill="#0B8987"/>
<path d="M16.8401 28.7518L10.8322 25.2329C11.0039 25.0612 11.1755 24.8037 11.3472 24.6321L17.355 28.151C17.1834 28.4084 17.0117 28.5801 16.8401 28.7518Z" fill="#0B8D8A"/>
<path d="M17.3551 28.1509L11.3472 24.632C11.5189 24.3746 11.7764 24.1171 12.0338 23.9454L18.0417 27.4643C17.7842 27.7218 17.5267 27.9793 17.3551 28.1509Z" fill="#0C908E"/>
<path d="M18.0417 27.4644L12.0338 23.9455C12.6346 23.3447 13.3212 22.8298 14.0078 22.4006L20.0157 25.9195C19.3291 26.3486 18.6424 26.8636 18.0417 27.4644Z" fill="#0C9492"/>
<path d="M26.1096 19.8259V23.7739L22.6765 25.7479V21.7999L26.1096 19.8259Z" fill="#9AEFE7"/>
<path d="M22.6765 25.7479L15.4671 21.4565V17.5944L22.6765 21.7998V25.7479Z" fill="#30AAA4"/>
<path d="M22.6765 21.7999L15.467 17.5944L18.8143 15.6204L26.1095 19.8259L22.6765 21.7999Z" fill="#0FB9B6"/>
<path d="M53.1447 4.20557L53.2305 8.15359L49.7975 10.0418V6.17956L53.1447 4.20557Z" fill="#9AEFE7"/>
<path d="M49.7975 10.0417L42.5881 5.83619L42.5023 1.974L49.7975 6.17949V10.0417Z" fill="#30AAA4"/>
<path d="M49.7976 6.17948L42.5023 1.974L45.9354 0L53.1448 4.20549L49.7976 6.17948Z" fill="#0FB9B6"/>
</svg>
