<svg id="Layer_1" data-name="Layer 1" xmlns="http://www.w3.org/2000/svg" viewBox="0 0 72 72"><defs><style>.cls-1{fill:#0bb7b4;}.cls-2{fill:#2402a7;}</style></defs><title>FOCUS ICON</title><path class="cls-1" d="M33.68,2.64a2.46,2.46,0,0,1,4.64,0l5,14.3a2.43,2.43,0,0,0,2.31,1.64h15A2.46,2.46,0,0,1,62.19,23L50.55,32.11a2.48,2.48,0,0,0-.84,2.63L54,49.16a2.45,2.45,0,0,1-3.71,2.74L37.36,43.32a2.45,2.45,0,0,0-2.72,0L21.76,51.9a2.45,2.45,0,0,1-3.71-2.74l4.24-14.42a2.48,2.48,0,0,0-.84-2.63L9.81,23a2.46,2.46,0,0,1,1.51-4.39h15a2.43,2.43,0,0,0,2.31-1.64Z"/><path class="cls-2" d="M11.59,31.7h0a2.46,2.46,0,0,1,2.46,2.45V68.54A2.46,2.46,0,0,1,11.59,71h0a2.46,2.46,0,0,1-2.46-2.46V34.15A2.46,2.46,0,0,1,11.59,31.7Z"/><path class="cls-2" d="M60.41,31.7h0a2.46,2.46,0,0,1,2.46,2.45V68.54A2.46,2.46,0,0,1,60.41,71h0A2.46,2.46,0,0,1,58,68.54V34.15A2.46,2.46,0,0,1,60.41,31.7Z"/><path class="cls-2" d="M35.85,51.35h0A2.45,2.45,0,0,1,38.3,53.8V68.54A2.46,2.46,0,0,1,35.85,71h0a2.46,2.46,0,0,1-2.46-2.46V53.8A2.46,2.46,0,0,1,35.85,51.35Z"/><path class="cls-2" d="M22.34,55.65h0a1.23,1.23,0,0,1,1.22,1.23v7.36a1.23,1.23,0,0,1-1.22,1.23h0a1.23,1.23,0,0,1-1.23-1.23V56.88A1.23,1.23,0,0,1,22.34,55.65Z"/><path class="cls-2" d="M46.9,55.65h0a1.23,1.23,0,0,1,1.23,1.23v7.36a1.23,1.23,0,0,1-1.23,1.23h0a1.23,1.23,0,0,1-1.23-1.23V56.88A1.23,1.23,0,0,1,46.9,55.65Z"/></svg>