<svg width="100" height="100" viewBox="0 0 100 100" fill="none" xmlns="http://www.w3.org/2000/svg">
<path d="M50 79.498C66.2913 79.498 79.498 66.2912 79.498 50C79.498 33.7087 66.2913 20.502 50 20.502C33.7087 20.502 20.502 33.7087 20.502 50C20.502 66.2912 33.7087 79.498 50 79.498Z" fill="url(#paint0_radial)"/>
<path d="M70.505 90.341C74.4047 90.341 77.566 87.1797 77.566 83.28C77.566 79.3803 74.4047 76.219 70.505 76.219C66.6053 76.219 63.444 79.3803 63.444 83.28C63.444 87.1797 66.6053 90.341 70.505 90.341Z" fill="url(#paint1_radial)"/>
<path d="M77.568 23.779C81.4677 23.779 84.629 20.6177 84.629 16.718C84.629 12.8183 81.4677 9.65698 77.568 9.65698C73.6683 9.65698 70.507 12.8183 70.507 16.718C70.507 20.6177 73.6683 23.779 77.568 23.779Z" fill="url(#paint2_radial)"/>
<path d="M83.575 20.6999L83.275 20.2639L82.965 20.6939C82.7559 20.9886 82.5217 21.2646 82.265 21.5189L82.038 21.7389L82.217 21.9999C86.6494 28.6534 88.9514 36.4984 88.817 44.4919C88.6572 56.9776 83.8431 68.9542 75.317 78.0769L75.074 78.3389L75.323 78.5949C75.5405 78.8203 75.7392 79.0631 75.917 79.3209L76.182 79.7049L76.5 79.3639C85.3954 69.8574 90.4178 57.3702 90.582 44.3519C90.7222 35.9366 88.2764 27.6809 83.575 20.6999Z" fill="#242C34"/>
<path d="M75.567 12.4639L75.487 12.3849C68.1353 7.07829 58.9952 4.86758 50.031 6.22795C27.68 9.36895 9.46 31.5399 9.415 55.6519C9.393 67.7059 14.068 78.6999 22.242 85.8219C28.4627 91.2413 36.45 94.1993 44.7 94.1389C46.4636 94.1378 48.2249 94.0132 49.971 93.7659C56.5182 92.8051 62.7513 90.3316 68.176 86.5419L68.255 86.4689C68.3777 86.3094 68.4433 86.1134 68.4415 85.9122C68.4397 85.711 68.3705 85.5162 68.245 85.3589C68.0856 85.1808 67.865 85.0693 67.627 85.0465C67.3891 85.0237 67.1513 85.0913 66.961 85.2359C61.8466 88.7375 56.0005 91.0257 49.868 91.9259C45.1773 92.6603 40.383 92.3637 35.8186 91.0569C31.2542 89.7501 27.0293 87.4644 23.438 84.3589C15.634 77.56 11.169 67.0449 11.19 55.5099C11.233 32.3679 28.7 11.0889 50.133 8.07795C58.6199 6.74397 67.2903 8.8124 74.261 13.8339L74.382 13.8929C74.5675 13.9357 74.7605 13.9348 74.9456 13.8904C75.1307 13.846 75.3031 13.7592 75.449 13.6369C75.6167 13.4948 75.7228 13.2931 75.7448 13.0743C75.7668 12.8555 75.7031 12.6367 75.567 12.4639Z" fill="#242C34"/>
<path d="M13.44 46.1609C17.3397 46.1609 20.501 42.9996 20.501 39.0999C20.501 35.2003 17.3397 32.0389 13.44 32.0389C9.54032 32.0389 6.379 35.2003 6.379 39.0999C6.379 42.9996 9.54032 46.1609 13.44 46.1609Z" fill="url(#paint3_radial)"/>
<defs>
<radialGradient id="paint0_radial" cx="0" cy="0" r="1" gradientUnits="userSpaceOnUse" gradientTransform="translate(60.57 40.6) scale(29.948)">
<stop stop-color="white"/>
<stop offset="1" stop-color="#FFC612"/>
</radialGradient>
<radialGradient id="paint1_radial" cx="0" cy="0" r="1" gradientUnits="userSpaceOnUse" gradientTransform="translate(696.511 1480.45) rotate(17.8734) scale(101.269)">
<stop stop-color="white"/>
<stop offset="1" stop-color="#FFC612"/>
</radialGradient>
<radialGradient id="paint2_radial" cx="0" cy="0" r="1" gradientUnits="userSpaceOnUse" gradientTransform="translate(823.852 479.055) rotate(17.8734) scale(101.269)">
<stop stop-color="white"/>
<stop offset="1" stop-color="#FFC612"/>
</radialGradient>
<radialGradient id="paint3_radial" cx="0" cy="0" r="1" gradientUnits="userSpaceOnUse" gradientTransform="translate(231.921 552.42) scale(101.241)">
<stop stop-color="white"/>
<stop offset="1" stop-color="#FFC612"/>
</radialGradient>
</defs>
</svg>
