<svg width="715" height="129" viewBox="0 0 715 129" fill="none" xmlns="http://www.w3.org/2000/svg">
<g clip-path="url(#clip0_1_126)">
<path d="M14.9728 0.601929L0.890625 128.098H90.1614L104.244 0.601929H14.9728Z" fill="#00508F"/>
<path d="M16.4814 93.5784V51.7516H83.6231V68.3815H33.3297V93.5784H16.4814Z" fill="#40BAEC"/>
<path d="M66.7748 76.6965H83.6231V118.775H16.4814V101.893H66.7748V76.6965Z" fill="#40BAEC"/>
<path d="M58.4767 76.6965H41.6284V93.5784H58.4767V76.6965Z" fill="#40BAEC"/>
<path d="M519.164 93.5783H561.159V81.2319H519.164V66.1138H563.674V52.0035H502.819V122.807H564.931V108.696H519.164V93.5783Z" fill="black"/>
<path d="M689.659 52.0035L663.255 81.2319H661.243V52.0035H645.149V122.807H661.243V93.5783H663.255L691.167 122.807H713.799L677.337 87.0272L710.027 52.0035H689.659Z" fill="black"/>
<path d="M361.494 108.696V66.3657H386.641C398.711 66.3657 401.226 77.7043 401.226 87.7831C401.226 97.6098 398.208 108.948 386.138 108.948H361.494V108.696ZM385.887 52.0035H345.149V122.807H385.887C409.776 122.807 417.571 109.2 417.571 87.5311C417.571 65.6098 409.776 52.0035 385.887 52.0035Z" fill="black"/>
<path d="M253.112 52.0035C248.082 51.4995 243.053 51.2476 238.024 51.2476C232.994 51.2476 227.965 51.4995 222.936 52.0035C208.854 53.2633 199.298 59.8145 199.298 78.2082V96.6019C199.298 101.641 200.304 106.681 203.07 110.964C206.59 116.759 212.374 120.539 218.661 122.303C222.181 123.311 225.702 123.311 229.474 123.563C232.491 123.563 235.258 123.814 238.275 123.814C241.293 123.814 244.059 123.814 247.077 123.563C250.597 123.311 254.369 123.311 257.89 122.303C264.176 120.539 269.96 116.759 273.481 110.964C275.995 106.681 277.253 101.641 277.253 96.6019V78.2082C276.75 59.8145 267.194 53.2633 253.112 52.0035ZM259.901 94.8381C259.901 105.169 257.89 108.192 250.346 108.948C246.322 109.452 241.293 109.452 238.024 109.452C234.755 109.452 229.725 109.2 225.702 108.948C217.906 108.192 216.146 105.169 216.146 94.8381V78.9641C216.146 71.657 216.901 67.1216 225.702 66.1137C229.474 65.6098 233.497 65.6098 238.024 65.6098C242.802 65.6098 246.574 65.8617 250.346 66.1137C259.147 67.1216 259.901 71.657 259.901 78.9641V94.8381Z" fill="black"/>
<path d="M305.417 108.696C304.16 108.696 303.154 108.696 302.148 107.941C300.891 106.933 300.639 105.169 300.639 103.657V52.0035H284.294V102.901C284.294 108.948 284.545 115.5 289.826 119.783C293.598 122.807 297.873 122.807 302.4 122.807H337.605V108.696H305.417Z" fill="black"/>
<path d="M484.461 88.539L481.947 88.035V87.0272L484.461 86.0193C488.988 84.5075 492.76 81.9878 492.76 70.1453C492.76 57.2949 482.953 52.0035 467.613 52.0035H425.618V122.807H472.894C480.438 122.807 495.023 120.539 495.023 104.413C494.772 94.5862 492.005 90.0508 484.461 88.539ZM441.712 66.3657H469.373C475.409 66.3657 476.414 70.3972 476.414 74.1768C476.414 77.9563 474.906 81.4839 469.373 81.4839H441.712V66.3657ZM470.882 108.696H441.712V93.5783H470.882C476.917 93.5783 477.923 97.6098 477.923 101.389C477.923 105.169 476.414 108.696 470.882 108.696Z" fill="black"/>
<path d="M594.353 107.689C589.323 105.421 588.82 100.129 588.82 92.8224V81.7358C588.82 74.6806 589.323 69.1373 594.353 66.8696C594.353 66.8696 603.908 62.0822 634.336 68.1295L636.348 54.5232C635.342 54.2712 622.768 51.4995 611.452 51.2476C605.669 50.9956 599.382 50.9956 593.598 52.2554C591.084 52.7594 588.82 53.2633 586.306 54.2712C575.996 58.3027 572.224 68.1295 572.224 78.7121V96.098C572.224 106.681 575.996 116.507 586.306 120.539C588.569 121.547 591.084 122.051 593.598 122.555C599.382 123.815 605.417 123.815 611.452 123.563C622.768 123.311 635.342 120.539 636.348 120.287L634.336 106.681C603.908 112.476 594.353 107.689 594.353 107.689Z" fill="black"/>
<path d="M157.303 81.2319V93.5784H176.666V103.153C176.666 103.153 176.666 105.421 175.66 106.933C174.654 108.193 173.145 108.696 171.134 108.948C167.11 109.452 163.087 109.452 159.063 109.452C154.788 109.452 150.513 109.2 146.239 108.948C135.928 107.941 134.42 103.153 134.42 92.5705V82.7437C134.42 74.4288 135.174 68.8855 141.964 66.8697C141.964 66.8697 145.987 65.6099 157.052 65.6099C157.052 65.6099 161.578 65.6099 162.081 65.6099C169.373 65.6099 177.672 66.3658 186.473 68.3815L189.491 55.7831C177.672 52.2555 166.104 51.4996 157.052 51.4996C157.052 51.4996 147.496 51.4996 139.7 52.7595C135.677 53.2634 131.402 54.5233 128.133 56.791C121.846 61.0744 118.326 68.8855 118.326 79.4681V95.8461C118.326 107.689 122.098 116.004 129.39 120.035C135.174 123.311 141.712 123.815 148.25 123.815C149.256 123.815 154.034 124.067 158.56 124.067C162.584 124.067 166.607 123.815 168.871 123.815C174.654 123.815 181.444 123.059 185.97 119.279C190.497 115.5 191.754 109.704 191.754 103.909V81.4839H157.303V81.2319Z" fill="black"/>
</g>
<defs>
<clipPath id="clip0_1_126">
<rect width="713.412" height="128" fill="white" transform="translate(0.63916 0.349976)"/>
</clipPath>
</defs>
</svg>
