<svg id="Layer_1" data-name="Layer 1" xmlns="http://www.w3.org/2000/svg" viewBox="0 0 172.8 72"><defs><style>.cls-1{fill:#0bb7b4;}</style></defs><title>GRIDX-LOGO</title><path class="cls-1" d="M29.06,21.47a14.57,14.57,0,0,0-10.32-4,18.86,18.86,0,0,0-7.45,1.76,16.38,16.38,0,0,0-8.25,9A19.83,19.83,0,0,0,3,42.1a16,16,0,0,0,3.37,5.4,18.9,18.9,0,0,0,4.86,3.59A15.17,15.17,0,0,0,29,48.87v4.44c-.19,4.4-5,9.67-10,9.48-3.9-.14-4.75-.61-7.44-2.73L7.35,65.91c1.83,1.29,4.2,3.7,10.89,4a16.89,16.89,0,0,0,12.7-5c3.23-3.06,5.38-7.6,5.3-13.65V19H29.06Zm-2.9,21.08A9.41,9.41,0,0,1,19,45.74a9.5,9.5,0,0,1-7.3-3,10.63,10.63,0,0,1-2.79-7.49,10.7,10.7,0,0,1,2.79-7.51,9.44,9.44,0,0,1,7.3-3,9.43,9.43,0,0,1,7.17,3.2,10.25,10.25,0,0,1,2.89,7.35A10.16,10.16,0,0,1,26.16,42.55Z"/><path class="cls-1" d="M61.57,18.26A15.88,15.88,0,0,0,52,22.21V19h-7.1V52.3h7.16V35.64a10.91,10.91,0,0,1,2.53-6.55,10.34,10.34,0,0,1,4.8-3.26,9.61,9.61,0,0,1,4.77-.35L66,18.59A12.94,12.94,0,0,0,61.57,18.26Z"/><path class="cls-1" d="M74.48,2.57a4.42,4.42,0,0,0-3.27,1.35,4.5,4.5,0,0,0-1.33,3.31,4.56,4.56,0,0,0,4.6,4.61,4.46,4.46,0,0,0,3.3-1.34,4.41,4.41,0,0,0,1.33-3.27,4.47,4.47,0,0,0-1.34-3.31A4.47,4.47,0,0,0,74.48,2.57Z"/><rect class="cls-1" x="70.9" y="19.03" width="7.24" height="33.28"/><path class="cls-1" d="M111.81,21.42a13.63,13.63,0,0,0-8-3.76c-7.06-.82-11.58,1.74-14.37,4.58-4.38,4.44-5.52,8.53-5.3,14.7a18.34,18.34,0,0,0,6.52,12.29,18.19,18.19,0,0,0,11.91,3.66,15.2,15.2,0,0,0,9.3-4V52.3H119V2.06h-7.19Zm-2.77,21a9.8,9.8,0,0,1-7.27,3.28,9.65,9.65,0,0,1-7.34-3.1,10.51,10.51,0,0,1-2.8-7.46,10.43,10.43,0,0,1,2.85-7.42,9.28,9.28,0,0,1,7.3-3,9.69,9.69,0,0,1,7.16,3.14,10.14,10.14,0,0,1,3,7.32A9.93,9.93,0,0,1,109,42.42Z"/><polygon class="cls-1" points="152.47 25.82 169.11 2.06 159.53 2.06 147.68 19 135.78 2.06 126.23 2.06 142.86 25.82 124.32 52.31 134 52.31 147.67 32.71 161.42 52.31 171.01 52.31 152.47 25.82"/></svg>