<svg width="64" height="64" viewBox="0 0 64 64" fill="none" xmlns="http://www.w3.org/2000/svg">
<g clip-path="url(#clip0_433_14427)">
<path d="M1.6658 13.73L9.6468 51.217C10.0106 53.036 11.05 54.6496 12.5558 55.733C16.6258 58.593 25.2938 64.067 32.1888 64.187V0.187012C24.2458 0.187012 13.7348 2.76501 6.9658 4.70001C5.0997 5.24894 3.51288 6.4883 2.52827 8.16585C1.54366 9.84341 1.23525 11.8331 1.6658 13.73V13.73Z" fill="#1FFAFB"/>
<path d="M57.412 4.70001C50.643 2.76501 40.132 0.187012 32.189 0.187012V64.187C39.089 64.067 47.752 58.593 51.821 55.733C53.3273 54.65 54.3672 53.0363 54.731 51.217L62.712 13.73C63.1425 11.8331 62.8341 9.84341 61.8495 8.16585C60.8649 6.4883 59.2781 5.24894 57.412 4.70001V4.70001Z" fill="#2402A7"/>
<path d="M1.6658 13.73L9.6468 51.217C10.0106 53.036 11.05 54.6496 12.5558 55.733C16.6258 58.593 25.2938 64.067 32.1888 64.187V0.187012C24.2458 0.187012 13.7348 2.76501 6.9658 4.70001C5.0997 5.24894 3.51288 6.4883 2.52827 8.16585C1.54366 9.84341 1.23525 11.8331 1.6658 13.73V13.73Z" fill="url(#paint0_linear_433_14427)" fill-opacity="0.7"/>
<path d="M46.352 30.6249C46.6004 30.3345 46.7604 29.979 46.813 29.6005C46.8657 29.2219 46.8088 28.8363 46.6491 28.4891C46.4894 28.1419 46.2335 27.8477 45.9119 27.6414C45.5902 27.4351 45.2161 27.3253 44.834 27.3249H36.6C36.4319 27.3241 36.2668 27.281 36.1198 27.1995C35.9728 27.118 35.8487 27.0008 35.759 26.8586C35.6693 26.7165 35.6169 26.5541 35.6066 26.3863C35.5962 26.2186 35.6284 26.0509 35.7 25.8989L42.233 12.0449C42.3767 11.7401 42.4411 11.4039 42.4201 11.0675C42.3992 10.7311 42.2935 10.4055 42.1131 10.1209C41.9326 9.83628 41.6831 9.60188 41.3878 9.43946C41.0925 9.27705 40.761 9.19189 40.424 9.19189H32.189V47.1129L46.352 30.6249Z" fill="url(#paint1_linear_433_14427)"/>
<path d="M25.8998 10.591L18.9998 32.591C18.9056 32.8906 18.8833 33.2082 18.9347 33.5181C18.986 33.828 19.1097 34.1214 19.2956 34.3746C19.4815 34.6278 19.7244 34.8337 20.0047 34.9755C20.285 35.1173 20.5947 35.1911 20.9088 35.191H27.2248C27.3748 35.1909 27.5228 35.2246 27.658 35.2895C27.7932 35.3544 27.912 35.4489 28.0057 35.566C28.0994 35.683 28.1656 35.8196 28.1994 35.9657C28.2332 36.1118 28.2337 36.2637 28.2008 36.41L25.2928 49.362C25.1964 49.7969 25.248 50.2516 25.4394 50.654C25.6308 51.0563 25.9511 51.3832 26.3494 51.5828C26.7477 51.7824 27.2012 51.8433 27.6381 51.7558C28.0749 51.6684 28.4701 51.4375 28.7608 51.1L32.1888 47.11V9.18896H27.8088C27.3828 9.18886 26.9679 9.3248 26.6245 9.57699C26.2811 9.82917 26.0272 10.1844 25.8998 10.591Z" fill="url(#paint2_linear_433_14427)"/>
<path d="M27.3231 35.189H21.0231C20.709 35.1891 20.3992 35.1153 20.119 34.9735C19.8387 34.8317 19.5958 34.6258 19.4099 34.3726C19.224 34.1194 19.1003 33.826 19.0489 33.5161C18.9975 33.2062 19.0199 32.8886 19.1141 32.589L25.9961 10.589C26.1238 10.1828 26.3779 9.82798 26.7212 9.57618C27.0646 9.32438 27.4793 9.18873 27.9051 9.18897H40.4871C40.8241 9.18887 41.1556 9.27392 41.4509 9.43621C41.7462 9.5985 41.9957 9.83278 42.1763 10.1173C42.3569 10.4018 42.4626 10.7273 42.4837 11.0636C42.5048 11.3999 42.4406 11.7361 42.2971 12.041L35.7771 25.9L32.1311 33.575C31.9011 34.0592 31.5385 34.4682 31.0853 34.7546C30.6322 35.041 30.1071 35.193 29.5711 35.193L27.3231 35.189Z" fill="#01FDFE"/>
</g>
<defs>
<linearGradient id="paint0_linear_433_14427" x1="32.2138" y1="32.189" x2="2.7138" y2="31.689" gradientUnits="userSpaceOnUse">
<stop stop-color="#2400A7"/>
<stop offset="1" stop-color="#2400A7" stop-opacity="0"/>
</linearGradient>
<linearGradient id="paint1_linear_433_14427" x1="36.164" y1="27.8009" x2="42.733" y2="32.6569" gradientUnits="userSpaceOnUse">
<stop stop-color="#00CAEC"/>
<stop offset="1" stop-color="#0477CE"/>
</linearGradient>
<linearGradient id="paint2_linear_433_14427" x1="25.5498" y1="31.551" x2="25.5498" y2="46.586" gradientUnits="userSpaceOnUse">
<stop stop-color="#00E3F4"/>
<stop offset="1" stop-color="#01AEE1"/>
</linearGradient>
<clipPath id="clip0_433_14427">
<rect width="62" height="64" fill="white" transform="translate(1)"/>
</clipPath>
</defs>
</svg>
