<svg width="116" height="98" viewBox="0 0 116 98" fill="none" xmlns="http://www.w3.org/2000/svg">
<path d="M99.009 72.5735L101.237 71.2484L100.123 65.9374L95.628 64.2734L94.126 65.9374L94.8 68.3615L99.009 72.5735Z" fill="#242C34"/>
<path d="M76.824 59.5211L79.052 58.1971L77.938 52.8851L72.474 51.1621V53.9501L72.615 55.3091L76.824 59.5211Z" fill="#242C34"/>
<path d="M105.658 51.8687L107.463 53.6147L113.983 58.8537L114.914 60.9537C115.3 61.4953 115.524 62.1358 115.56 62.8001C115.595 63.4645 115.441 64.1251 115.114 64.7047L113.861 67.0787L106.276 71.4317C104.465 72.0214 102.514 72.0214 100.703 71.4317C100.601 70.1962 100.191 69.0058 99.5115 67.9691C98.8317 66.9323 97.9034 66.082 96.811 65.4957C96.811 65.4957 93.876 64.1107 94.8 68.3647L78.476 58.2737C78.476 58.2737 78.376 55.1737 74.815 52.8657C74.815 52.8657 72.507 51.5467 72.474 53.9537C72.474 53.9537 71.188 53.3607 71.419 50.3267C71.4928 49.9604 71.6145 49.6053 71.781 49.2707V46.3317C71.936 45.5349 72.2646 44.782 72.7435 44.1266C73.2225 43.4712 73.8399 42.9294 74.552 42.5397C77.124 40.9237 79.63 39.6397 79.63 39.6397C80.2749 39.3494 80.9802 39.2189 81.6862 39.2591C82.3923 39.2993 83.0783 39.5091 83.686 39.8707L87.413 40.1017C91.9887 41.7377 96.2828 44.0738 100.142 47.0267L105.658 51.8687Z" fill="#F3F2F3"/>
<path d="M71.781 46.3317C71.936 45.5349 72.2646 44.782 72.7435 44.1266C73.2225 43.4712 73.8399 42.9294 74.552 42.5397C77.124 40.9237 79.63 39.6397 79.63 39.6397C80.2749 39.3494 80.9802 39.2189 81.6862 39.2591C82.3923 39.2993 83.0783 39.5091 83.686 39.8707C83.686 39.8707 79.03 39.9837 73.899 45.3227L79.03 45.2227C79.03 45.2227 87.79 49.2707 91.106 52.7227L95.189 59.8077C96.5147 61.4629 98.0244 62.9619 99.689 64.2757L71.781 46.3317Z" fill="#D7D7D7"/>
<path d="M113.983 58.8537L114.914 60.9537C115.3 61.4953 115.524 62.1358 115.56 62.8001C115.595 63.4645 115.441 64.1251 115.114 64.7047L113.861 67.0787L106.276 71.4317C104.465 72.0214 102.514 72.0214 100.703 71.4317C100.601 70.1962 100.191 69.0059 99.5115 67.9691C98.8317 66.9323 97.9034 66.0821 96.811 65.4958C96.811 65.4958 93.876 64.1107 94.8 68.3647L78.476 58.2737C78.476 58.2737 78.376 55.1738 74.815 52.8658C74.815 52.8658 72.507 51.5467 72.474 53.9537C72.474 53.9537 71.188 53.3608 71.419 50.3268C71.4928 49.9604 71.6145 49.6053 71.781 49.2708V47.5938L101.335 66.3667C103.271 66.5769 105.227 66.4709 107.129 66.0527C109.467 65.3527 113.319 61.9688 113.319 61.9688L113.983 58.8537Z" fill="#D7D7D7"/>
<path d="M100.256 68.6412C101.563 69.122 102.956 69.3248 104.346 69.2368C105.736 69.1489 107.093 68.7719 108.329 68.1302C112.274 65.9152 113.711 64.8942 113.711 64.8942C114.525 64.2833 115.157 63.4617 115.539 62.5182C115.459 61.953 115.245 61.4153 114.914 60.9502C114.914 60.9502 115.306 62.3732 113.314 64.0082C111.86 65.1472 110.305 66.1513 108.668 67.0082C108.668 67.0082 104.41 69.0182 101.208 68.0982C100.87 67.9987 100.539 67.8734 100.22 67.7232C100.22 67.7232 98.72 64.6672 96.03 64.6452C96.035 64.6432 98.315 64.9622 100.256 68.6412Z" fill="#F3F2F3"/>
<path d="M84.629 57.4323C84.6293 57.2248 84.5745 57.0209 84.4703 56.8414C84.3662 56.6619 84.2163 56.5131 84.036 56.4103L83.223 55.9453C83.2231 56.1528 83.278 56.3566 83.3821 56.536C83.4863 56.7155 83.6359 56.8643 83.816 56.9673L84.629 57.4323Z" fill="#414F53"/>
<path d="M105.603 50.5448L104.834 51.1449L105.658 51.8689L105.804 51.7078C105.927 51.572 106.013 51.4071 106.055 51.2286C106.097 51.0502 106.092 50.8641 106.042 50.6879V50.6879C106.029 50.6441 106.006 50.6041 105.975 50.5714C105.943 50.5386 105.904 50.5142 105.86 50.5C105.817 50.4859 105.771 50.4827 105.726 50.4905C105.681 50.4983 105.639 50.5169 105.603 50.5448V50.5448Z" fill="#D7D7D7"/>
<path d="M113.508 63.5625C113.508 63.5625 112.845 59.9895 113.983 58.8535L114.914 60.9535C114.728 61.9481 114.236 62.8599 113.508 63.5625V63.5625Z" fill="white"/>
<path d="M107.126 67.3475C106.47 66.7257 105.692 66.2458 104.842 65.9375H102.192C101.939 65.9375 101.696 66.038 101.517 66.2169C101.338 66.3957 101.237 66.6384 101.237 66.8915V67.1415C101.237 67.3927 101.336 67.6338 101.512 67.8126C101.689 67.9913 101.929 68.0933 102.18 68.0965C103.863 68.1914 105.547 67.9364 107.126 67.3475V67.3475Z" fill="white"/>
<path d="M91.035 52.7052L95.021 59.5482C95.5197 60.0255 96.1602 60.3276 96.8456 60.409C97.5311 60.4904 98.2245 60.3465 98.821 59.9992C101.39 58.6752 103.876 57.1965 106.265 55.5712C106.453 55.4644 106.615 55.317 106.739 55.1399C106.863 54.9627 106.946 54.7602 106.982 54.547C107.018 54.3338 107.006 54.1152 106.947 53.9072C106.888 53.6991 106.784 53.5068 106.641 53.3442C105.665 51.8692 100.099 47.3662 100.099 47.3662C100.099 47.3662 97.798 49.8852 91.035 52.7052Z" fill="#242C34"/>
<path d="M84.601 49.3213L83.886 54.0963L93.324 60.3893C92.5662 57.2631 90.9971 54.3922 88.775 52.0663L84.601 49.3213Z" fill="#242C34"/>
<path d="M83.398 48.5688L82.758 53.4187L75.126 48.1928C75.8885 47.6156 76.7829 47.2377 77.7282 47.0933C78.6736 46.9489 79.64 47.0425 80.54 47.3658L83.398 48.5688Z" fill="#242C34"/>
<path d="M78.961 45.2981H73.847C76.2792 42.2579 79.8172 40.3057 83.686 39.8691L86.972 40.0692C86.972 40.0692 87.651 40.3691 86.972 40.5201C83.9934 41.5273 81.2627 43.1559 78.961 45.2981Z" fill="#242C34"/>
<path d="M112.688 62.5176L107.126 65.7516C107.126 65.7516 107.649 66.6516 108.439 66.6516C109.229 66.6516 112.462 64.3586 112.462 64.3586C112.646 64.0928 112.762 63.7865 112.801 63.4659C112.841 63.1453 112.802 62.8199 112.688 62.5176V62.5176Z" fill="#414F53"/>
<path d="M93.105 58.6621H92.167L91.179 59.1711C91.1104 59.2064 91.0529 59.2598 91.0126 59.3256C90.9724 59.3914 90.9511 59.467 90.951 59.5441V59.5441C90.9509 59.6103 90.9666 59.6757 90.9966 59.7347C91.0266 59.7938 91.0702 59.8449 91.1237 59.8839C91.1772 59.9229 91.2392 59.9487 91.3046 59.9591C91.37 59.9696 91.437 59.9645 91.5 59.9441L92.474 59.6291C92.5432 59.5728 92.5917 59.495 92.6116 59.4081C92.6316 59.3211 92.6218 59.2299 92.584 59.1491L93.314 59.1841L93.105 58.6621Z" fill="#D7D7D7"/>
<path d="M113.316 65.3008V66.3538L108.853 69.0608V67.9328L113.316 65.3008Z" fill="white"/>
<path d="M99.0006 72.5845C100.139 72.0129 100.342 70.1143 99.4531 68.3438C98.5644 66.5733 96.9208 65.6014 95.7821 66.173C94.6434 66.7446 94.4408 68.6433 95.3295 70.4138C96.2183 72.1843 97.8619 73.1562 99.0006 72.5845Z" fill="#414F53"/>
<path d="M98.6484 71.8826C99.5378 71.4361 99.696 69.953 99.0018 68.5699C98.3075 67.1869 97.0237 66.4277 96.1342 66.8742C95.2448 67.3207 95.0866 68.8038 95.7808 70.1868C96.4751 71.5698 97.7589 72.3291 98.6484 71.8826Z" fill="#90969D"/>
<path d="M76.7351 59.5777C77.8738 59.0061 78.0765 57.1074 77.1877 55.3369C76.2989 53.5664 74.6553 52.5946 73.5166 53.1662C72.3779 53.7378 72.1753 55.6364 73.0641 57.4069C73.9528 59.1774 75.5964 60.1493 76.7351 59.5777Z" fill="#414F53"/>
<path d="M76.3339 58.9002C77.1966 58.4671 77.3501 57.0284 76.6767 55.6869C76.0033 54.3453 74.7579 53.6089 73.8951 54.042C73.0323 54.4751 72.8788 55.9137 73.5523 57.2553C74.2257 58.5968 75.4711 59.3333 76.3339 58.9002Z" fill="#90969D"/>
<path d="M91.446 53.4202L91.029 52.7052C97.797 49.8852 100.091 47.3662 100.091 47.3662C100.091 47.3662 105.657 51.8662 106.633 53.3442C106.902 53.6972 107.022 54.1418 106.966 54.5822C105.555 53.5622 99.943 50.1522 91.446 53.4202Z" fill="#566069"/>
<path d="M85.535 51.7863L85.186 54.9613L83.886 54.0963L84.601 49.3213L88.775 52.0663C89.7478 53.0592 90.5918 54.1706 91.287 55.3743L85.535 51.7863Z" fill="#566069"/>
<path d="M79.914 48.6337C79.3294 48.4042 78.698 48.3189 78.0734 48.3853C77.4488 48.4516 76.8494 48.6675 76.326 49.0148L75.126 48.1928C75.8885 47.6156 76.7829 47.2377 77.7282 47.0933C78.6736 46.9489 79.64 47.0425 80.54 47.3658L83.398 48.5657L83.155 50.4097L79.914 48.6337Z" fill="#566069"/>
<path d="M75.153 45.298C75.491 44.704 76.377 43.822 78.499 42.583C80.786 41.1523 83.484 40.5229 86.168 40.794C83.5213 41.8615 81.0821 43.3845 78.961 45.294L75.153 45.298Z" fill="#566069"/>
<path d="M88.409 72.3442L88.39 40.6232L45.973 21.5342V52.8922L88.409 72.3442Z" fill="#E3E4E3"/>
<path d="M4.24701 71.239L45.973 52.8921V15.1641L4.14001 34.545L4.24701 71.239Z" fill="#F3F2F3"/>
<path d="M24.483 25.208L67.826 0L91.946 37.721L88.405 39.757L57.219 28.644L28.627 31.707L24.483 25.208Z" fill="#AFC0D4"/>
<path d="M43.706 9.42999L67.826 0L24.483 25.208L0 34.819L43.706 9.42999Z" fill="#8093A2"/>
<path d="M0 34.819V36.22L24.483 26.313L28.412 32.552L57.219 29.21L88.39 40.623L91.946 38.594V37.721L88.405 39.757L57.219 28.644L28.627 31.707L24.483 25.208L0 34.819Z" fill="#C0C0C0"/>
<path d="M4.14005 34.5449L2.38904 35.2529V70.1839L4.24704 71.2389L4.14005 34.5449Z" fill="#E3E4E3"/>
<path d="M88.39 40.6228L89.908 39.7568V71.5448L88.409 72.3438L88.39 40.6228Z" fill="#D7D7D7"/>
<path d="M2.38904 70.1836L45.973 94.9506V97.3196L2.38904 72.8316V70.1836Z" fill="#C5CEDA"/>
<path d="M89.908 71.5449V73.6559L45.973 97.3199V94.9509L89.908 71.5449Z" fill="#D9E1E9"/>
<path d="M4.24701 71.2386L45.973 52.8916L88.409 72.3436L45.973 94.9506L4.24701 71.2386Z" fill="#EDEFF2"/>
<path d="M68.31 50.6729V62.8809L32.733 80.8419L15.412 70.8379" stroke="#22B3B2" stroke-width="0.907" stroke-miterlimit="10"/>
<path d="M31.492 64.6201L47.76 73.2561" stroke="#22B3B2" stroke-width="0.907" stroke-miterlimit="10"/>
<path d="M40.704 59.8281L57.219 68.4801" stroke="#22B3B2" stroke-width="0.907" stroke-miterlimit="10"/>
<path d="M68.31 51.2283V26.6533" stroke="#22B3B2" stroke-width="0.907" stroke-miterlimit="10"/>
<path d="M49.9 45.4756L33.914 53.0556V63.9106L49.9 56.3306V45.4756Z" fill="#F3F2F3"/>
<path d="M29.89 50.8393L33.914 53.0563L49.9 45.4763L45.957 43.7793L29.89 50.8393Z" fill="white"/>
<path d="M35.093 53.3942L49.247 46.7842V47.2532L35.093 54.0872V53.3942Z" fill="#E3E4E3"/>
<path d="M35.093 54.5875L49.247 47.9785V48.4475L35.093 55.2815V54.5875Z" fill="#E3E4E3"/>
<path d="M35.093 55.8219L49.247 49.2129V49.6819L35.093 56.5159V55.8219Z" fill="#E3E4E3"/>
<path d="M30.26 43.3506L22.362 46.8346L29.558 50.9986L38.159 46.7656L30.26 43.3506Z" fill="#CDCDCC"/>
<path d="M38.159 46.7656L29.558 50.9986V67.3856L38.159 63.1516V46.7656Z" fill="white"/>
<path d="M22.362 63.2209L29.558 67.386V50.999L22.362 46.835V63.2209Z" fill="#E3E4E3"/>
<path d="M22.677 46.7664V45.1084L29.66 48.9104V50.7634L22.677 46.7664Z" fill="#242C34"/>
<path d="M29.66 50.7629L37.659 46.8019V45.2559L29.66 49.1409V50.7629Z" fill="#566069"/>
<path d="M30.26 35.1699L22.362 38.6539L29.558 42.8179L38.159 38.5849L30.26 35.1699Z" fill="white"/>
<path d="M38.159 38.585L29.558 42.818V49.74L38.159 45.506V38.585Z" fill="white"/>
<path d="M22.362 45.5763L29.558 49.7403V42.8183L22.362 38.6543V45.5763Z" fill="#E3E4E3"/>
<path d="M22.149 53.8624C22.149 53.9324 22.138 54.0024 22.131 54.0724C22.124 54.1424 22.119 54.2214 22.106 54.2964C22.093 54.3714 22.076 54.4184 22.06 54.4794C22.044 54.5404 22.024 54.6224 21.999 54.6924C21.974 54.7624 21.95 54.8084 21.925 54.8664C21.893 54.9414 21.861 55.0154 21.825 55.0894C21.796 55.1424 21.762 55.1954 21.725 55.2484C21.673 55.3314 21.619 55.4154 21.557 55.4974C21.495 55.5794 21.437 55.6554 21.369 55.7324L21.322 55.7874C21.23 55.8874 21.128 55.9874 21.022 56.0874C20.954 56.1484 20.878 56.2074 20.803 56.2674C20.728 56.3274 20.674 56.3744 20.603 56.4264C20.532 56.4784 20.433 56.5404 20.347 56.5964C20.261 56.6524 20.171 56.7154 20.074 56.7714C19.8559 56.8961 19.6316 57.0096 19.402 57.1114C19.335 57.1424 19.266 57.1704 19.202 57.1984C19.02 57.2754 18.833 57.3454 18.642 57.4104C18.573 57.4344 18.506 57.4594 18.436 57.4814C18.316 57.5194 18.193 57.5524 18.069 57.5814C17.976 57.6064 17.883 57.6334 17.788 57.6564C17.658 57.6884 17.526 57.7144 17.393 57.7414C17.304 57.7594 17.215 57.7794 17.125 57.7954C16.857 57.8434 16.586 57.8804 16.313 57.9084C16.229 57.9174 16.144 57.9234 16.06 57.9304C15.899 57.9434 15.738 57.9554 15.576 57.9624C15.476 57.9624 15.37 57.9684 15.267 57.9704C15.136 57.9704 15.006 57.9704 14.876 57.9704C14.766 57.9704 14.657 57.9704 14.548 57.9614C14.439 57.9524 14.306 57.9504 14.185 57.9424C14.064 57.9344 13.966 57.9254 13.857 57.9144C13.748 57.9034 13.618 57.8894 13.499 57.8744C13.38 57.8594 13.286 57.8454 13.18 57.8294C13.053 57.8094 12.927 57.7874 12.801 57.7634C12.701 57.7444 12.601 57.7254 12.501 57.7034C12.351 57.6704 12.201 57.6334 12.057 57.5944C11.975 57.5734 11.893 57.5524 11.813 57.5294C11.5504 57.4528 11.2947 57.3664 11.046 57.2704C10.924 57.2224 10.806 57.1704 10.688 57.1184C10.626 57.0904 10.561 57.0654 10.5 57.0364C10.32 56.9504 10.144 56.8604 9.97601 56.7634C9.39382 56.5046 8.89132 56.095 8.52054 55.5768C8.14975 55.0587 7.92414 54.451 7.867 53.8164L7.82001 69.2164C7.87734 69.851 8.10317 70.4589 8.47412 70.977C8.84508 71.4951 9.34768 71.9047 9.92999 72.1634C10.098 72.2634 10.273 72.3514 10.453 72.4364C10.514 72.4654 10.578 72.4904 10.64 72.5174C10.746 72.5654 10.851 72.6174 10.96 72.6574C10.973 72.6574 10.987 72.6654 10.999 72.6704C11.247 72.7704 11.499 72.8524 11.766 72.9294C11.787 72.9354 11.807 72.9444 11.828 72.9504C11.888 72.9674 11.95 72.9794 12.011 72.9954C12.157 73.0344 12.305 73.0714 12.455 73.1044C12.495 73.1124 12.533 73.1244 12.573 73.1334C12.631 73.1454 12.692 73.1524 12.75 73.1634C12.876 73.1874 13.002 73.2104 13.129 73.2294C13.18 73.2374 13.229 73.2494 13.282 73.2564C13.335 73.2634 13.393 73.2674 13.449 73.2754C13.567 73.2904 13.686 73.3034 13.805 73.3144C13.862 73.3204 13.919 73.3294 13.976 73.3334C14.033 73.3374 14.083 73.3334 14.136 73.3424C14.256 73.3504 14.377 73.3574 14.498 73.3614C14.558 73.3614 14.619 73.3704 14.68 73.3714C14.741 73.3724 14.78 73.3714 14.824 73.3714C14.955 73.3714 15.086 73.3714 15.216 73.3714C15.281 73.3714 15.346 73.3714 15.411 73.3714L15.525 73.3634C15.688 73.3564 15.849 73.3444 16.01 73.3314C16.074 73.3254 16.139 73.3244 16.204 73.3184L16.262 73.3104C16.536 73.2814 16.807 73.2444 17.074 73.1974C17.087 73.1974 17.101 73.1974 17.114 73.1914C17.192 73.1774 17.267 73.1584 17.344 73.1424C17.476 73.1154 17.608 73.0894 17.737 73.0584C17.837 73.0354 17.925 73.0084 18.019 72.9824C18.142 72.9484 18.265 72.9154 18.386 72.8774L18.465 72.8554C18.509 72.8414 18.549 72.8214 18.592 72.8074C18.7833 72.7407 18.97 72.6701 19.152 72.5954C19.22 72.5664 19.288 72.5384 19.352 72.5084C19.5819 72.4066 19.8066 72.2931 20.025 72.1684L20.112 72.1164C20.177 72.0774 20.233 72.0344 20.295 71.9944C20.383 71.9374 20.472 71.8814 20.553 71.8224C20.634 71.7634 20.687 71.7224 20.753 71.6644C20.819 71.6064 20.904 71.5454 20.973 71.4834C20.986 71.4704 21.003 71.4594 21.017 71.4464C21.109 71.3624 21.193 71.2754 21.273 71.1874C21.29 71.1694 21.304 71.1514 21.321 71.1324C21.368 71.0784 21.421 71.0254 21.46 70.9704C21.478 70.9464 21.491 70.9214 21.509 70.8974C21.57 70.8154 21.625 70.7314 21.677 70.6474C21.699 70.6124 21.727 70.5784 21.747 70.5474C21.757 70.5294 21.763 70.5114 21.772 70.4934C21.812 70.4204 21.844 70.3454 21.877 70.2704C21.896 70.2274 21.921 70.1854 21.937 70.1414C21.943 70.1264 21.945 70.1114 21.95 70.0974C21.975 70.0264 21.993 69.9554 22.011 69.8834C22.024 69.8354 22.043 69.7834 22.053 69.7394C22.053 69.7264 22.053 69.7134 22.053 69.7004C22.067 69.6264 22.072 69.5504 22.079 69.4754C22.079 69.4264 22.094 69.3754 22.096 69.3294V69.2664L22.149 53.8624Z" fill="white"/>
<path d="M20.04 50.92C22.84 52.536 22.854 55.155 20.073 56.771C18.5087 57.5673 16.7783 57.9824 15.023 57.9824C13.2677 57.9824 11.5373 57.5673 9.97299 56.771C7.17299 55.155 7.16001 52.535 9.93701 50.921C11.5015 50.1239 13.2325 49.7082 14.9884 49.708C16.7443 49.7078 18.4753 50.1232 20.04 50.92V50.92Z" fill="#7F8990"/>
<path d="M22.149 49.5919C22.1465 49.6618 22.1405 49.7316 22.131 49.8009C22.125 49.8759 22.119 49.9509 22.106 50.0259C22.093 50.1009 22.076 50.1479 22.06 50.2089C22.044 50.2699 22.024 50.3509 21.999 50.4219C21.974 50.4929 21.95 50.5379 21.925 50.5959C21.893 50.6709 21.861 50.7449 21.825 50.8189C21.796 50.8719 21.762 50.9249 21.725 50.9779C21.673 51.0609 21.619 51.1449 21.557 51.2269C21.495 51.3089 21.437 51.3849 21.369 51.4619L21.322 51.5169C21.23 51.6169 21.128 51.7169 21.022 51.8169C20.954 51.8779 20.878 51.9369 20.803 51.9969C20.728 52.0569 20.674 52.1039 20.603 52.1559C20.532 52.2079 20.433 52.2699 20.347 52.3259C20.261 52.3819 20.171 52.4449 20.074 52.5009C19.8559 52.6255 19.6316 52.739 19.402 52.8409C19.335 52.8719 19.266 52.8999 19.202 52.9279C19.02 53.0049 18.833 53.0749 18.642 53.1399C18.573 53.1639 18.506 53.1889 18.436 53.2109C18.316 53.2489 18.193 53.2819 18.069 53.3109C17.976 53.3359 17.883 53.3629 17.788 53.3859C17.658 53.4179 17.526 53.4439 17.393 53.4709C17.304 53.4889 17.215 53.5089 17.125 53.5249C16.8583 53.5722 16.5877 53.6099 16.313 53.6379C16.229 53.6469 16.144 53.6519 16.06 53.6589C15.899 53.6729 15.738 53.6849 15.576 53.6919C15.476 53.6919 15.37 53.6979 15.267 53.6999C15.136 53.6999 15.006 53.6999 14.876 53.6999C14.766 53.6999 14.657 53.6999 14.548 53.6909C14.439 53.6819 14.306 53.6799 14.185 53.6719C14.064 53.6639 13.966 53.6549 13.857 53.6439C13.748 53.6329 13.618 53.6189 13.499 53.6039C13.38 53.5889 13.286 53.5749 13.18 53.5589C13.053 53.5389 12.927 53.5169 12.801 53.4929C12.701 53.4739 12.601 53.4549 12.501 53.4329C12.351 53.3999 12.201 53.3629 12.057 53.3239C11.975 53.3029 11.893 53.2819 11.813 53.2589C11.5504 53.1822 11.2947 53.0959 11.046 52.9999C10.924 52.9519 10.806 52.8999 10.688 52.8479C10.626 52.8199 10.561 52.7949 10.5 52.7659C10.32 52.6799 10.144 52.5899 9.97601 52.4919C9.39384 52.2333 8.89134 51.8239 8.52054 51.3059C8.14974 50.788 7.92411 50.1803 7.867 49.5459L7.82001 53.8769C7.87734 54.5115 8.10317 55.1193 8.47412 55.6374C8.84508 56.1555 9.34768 56.5651 9.92999 56.8239C10.098 56.9239 10.273 57.0119 10.453 57.0969C10.514 57.1259 10.578 57.1509 10.64 57.1779C10.746 57.2259 10.851 57.2779 10.96 57.3179C10.973 57.3179 10.987 57.3259 10.999 57.3309C11.247 57.4309 11.499 57.5129 11.766 57.5899C11.787 57.5959 11.807 57.6049 11.828 57.6109C11.888 57.6279 11.95 57.6399 12.011 57.6559C12.157 57.6949 12.305 57.7319 12.455 57.7649C12.495 57.7729 12.533 57.7849 12.573 57.7939C12.631 57.8059 12.692 57.8129 12.75 57.8239C12.876 57.8479 13.002 57.8709 13.129 57.8899C13.18 57.8979 13.229 57.9099 13.282 57.9169C13.335 57.9239 13.393 57.9279 13.449 57.9359C13.567 57.9509 13.686 57.9639 13.805 57.9749C13.862 57.9809 13.919 57.9899 13.976 57.9939C14.033 57.9979 14.083 57.9939 14.136 58.0029C14.256 58.0109 14.377 58.0179 14.498 58.0219C14.558 58.0219 14.619 58.0309 14.68 58.0319C14.741 58.0329 14.78 58.0319 14.824 58.0319C14.955 58.0319 15.086 58.0319 15.216 58.0319C15.281 58.0319 15.346 58.0319 15.411 58.0319L15.525 58.0239C15.688 58.0169 15.849 58.0049 16.01 57.9919C16.074 57.9859 16.139 57.9849 16.204 57.9789L16.262 57.9709C16.536 57.9419 16.807 57.9049 17.074 57.8579C17.087 57.8579 17.101 57.8579 17.114 57.8519C17.192 57.8379 17.267 57.8189 17.344 57.8029C17.476 57.7759 17.608 57.7499 17.737 57.7189C17.837 57.6959 17.925 57.6689 18.019 57.6429C18.142 57.6089 18.265 57.5759 18.386 57.5379L18.465 57.5159C18.509 57.5019 18.549 57.4819 18.592 57.4679C18.7833 57.4012 18.97 57.3306 19.152 57.2559C19.22 57.2269 19.288 57.1989 19.352 57.1689C19.5819 57.067 19.8066 56.9535 20.025 56.8289L20.112 56.7769C20.177 56.7379 20.233 56.6949 20.295 56.6549C20.383 56.5979 20.472 56.5419 20.553 56.4829C20.634 56.4239 20.687 56.3779 20.753 56.3249C20.819 56.2719 20.904 56.2059 20.973 56.1439C20.986 56.1309 21.003 56.1199 21.017 56.1069C21.109 56.0229 21.193 55.9359 21.273 55.8479C21.29 55.8299 21.304 55.8119 21.321 55.7929C21.368 55.7389 21.421 55.6859 21.46 55.6309C21.478 55.6069 21.491 55.5819 21.509 55.5579C21.57 55.4759 21.625 55.3919 21.677 55.3079C21.699 55.2729 21.727 55.2389 21.747 55.2079C21.757 55.1899 21.763 55.1719 21.772 55.1539C21.812 55.0809 21.844 55.0059 21.877 54.9309C21.896 54.8879 21.921 54.8459 21.937 54.8019C21.943 54.7869 21.945 54.7719 21.95 54.7579C21.975 54.6869 21.993 54.6159 22.011 54.5439C22.024 54.4959 22.043 54.4439 22.053 54.3999C22.053 54.3869 22.053 54.3739 22.053 54.3609C22.067 54.2869 22.072 54.2109 22.079 54.1359C22.079 54.0869 22.094 54.0359 22.096 53.9899V53.9269L22.149 49.5919Z" fill="#8093A2"/>
<path d="M20.04 46.6461C22.84 48.2621 22.854 50.8811 20.073 52.4971C18.5088 53.2936 16.7783 53.7088 15.023 53.7088C13.2677 53.7088 11.5372 53.2936 9.97299 52.4971C7.17299 50.8821 7.16001 48.2621 9.93701 46.6481C11.5015 45.8507 13.2323 45.4349 14.9883 45.4346C16.7442 45.4342 18.4752 45.8494 20.04 46.6461V46.6461Z" fill="#99AABD"/>
<path d="M19.353 47.9741C19.353 48.0191 19.345 48.0651 19.337 48.1111C19.329 48.1571 19.319 48.1861 19.309 48.2231C19.299 48.2601 19.287 48.3101 19.272 48.3531C19.257 48.3961 19.242 48.4251 19.226 48.4601C19.21 48.4951 19.187 48.5511 19.163 48.5961C19.139 48.6411 19.124 48.6611 19.104 48.6961C19.072 48.7481 19.039 48.7961 19.004 48.8491C18.982 48.8791 18.958 48.9081 18.934 48.9371C18.8758 49.0072 18.8137 49.074 18.748 49.1371C18.724 49.1611 18.701 49.1851 18.675 49.2091C18.633 49.2471 18.586 49.2841 18.54 49.3211C18.494 49.3581 18.461 49.3851 18.418 49.4211C18.375 49.4571 18.313 49.4921 18.259 49.5271C18.205 49.5621 18.153 49.5991 18.094 49.6331C17.8979 49.744 17.694 49.8406 17.484 49.9221C17.428 49.9451 17.371 49.9661 17.313 49.9871C17.181 50.0351 17.042 50.0731 16.904 50.1121C16.766 50.1511 16.614 50.1911 16.465 50.2211C16.291 50.2571 16.114 50.2901 15.935 50.3131C15.891 50.3181 15.848 50.3261 15.804 50.3311C15.561 50.3571 15.315 50.3701 15.068 50.3721H14.952C14.709 50.3721 14.466 50.3571 14.225 50.3321L14.116 50.3201C13.8808 50.2915 13.6472 50.2511 13.416 50.1991C13.374 50.1901 13.333 50.1791 13.291 50.1691C13.086 50.1178 12.8837 50.0561 12.685 49.9841C12.649 49.9711 12.611 49.9611 12.576 49.9481C12.3459 49.8603 12.1229 49.755 11.909 49.6331C11.3583 49.3562 10.9273 48.8879 10.697 48.3161C10.6444 48.1591 10.6177 47.9946 10.618 47.8291V49.0591C10.6531 49.4478 10.7914 49.82 11.0185 50.1373C11.2456 50.4547 11.5534 50.7056 11.91 50.8641C12.1125 50.9798 12.3235 51.0801 12.541 51.1641L12.577 51.1771C12.612 51.1901 12.649 51.2001 12.685 51.2131C12.812 51.2591 12.939 51.3061 13.072 51.3441C13.144 51.3641 13.219 51.3801 13.292 51.3981C13.334 51.4081 13.374 51.4191 13.417 51.4281C13.46 51.4371 13.491 51.4481 13.529 51.4561C13.671 51.4851 13.816 51.5101 13.962 51.5311C14.014 51.5381 14.068 51.5421 14.12 51.5491L14.228 51.5611C14.282 51.5661 14.334 51.5741 14.388 51.5791C14.531 51.5901 14.674 51.5981 14.818 51.6021C14.864 51.6021 14.91 51.6021 14.955 51.6021H15.072C15.137 51.6021 15.202 51.6021 15.267 51.6021C15.429 51.5961 15.591 51.5851 15.752 51.5691L15.808 51.5611C15.852 51.5611 15.894 51.5491 15.938 51.5431C16.063 51.5281 16.188 51.5141 16.31 51.4911C16.365 51.4821 16.415 51.4631 16.469 51.4521C16.619 51.4211 16.763 51.3831 16.907 51.3431C16.983 51.3221 17.065 51.3091 17.139 51.2851C17.213 51.2611 17.257 51.2391 17.317 51.2181C17.377 51.1971 17.431 51.1761 17.487 51.1531C17.697 51.0715 17.9009 50.975 18.097 50.8641L18.151 50.8321C18.191 50.8081 18.226 50.7811 18.264 50.7561C18.318 50.7221 18.372 50.6871 18.422 50.6511C18.472 50.6151 18.504 50.5871 18.544 50.5511C18.584 50.5151 18.637 50.4781 18.679 50.4401C18.687 50.4321 18.698 50.4251 18.706 50.4171C18.714 50.4091 18.735 50.3841 18.752 50.3681C18.8174 50.3049 18.8791 50.2382 18.937 50.1681C18.949 50.1531 18.966 50.1391 18.978 50.1241C18.99 50.1091 18.997 50.0941 19.008 50.0801C19.045 50.0291 19.079 49.9801 19.108 49.9271C19.121 49.9051 19.139 49.8841 19.151 49.8631C19.163 49.8421 19.16 49.8411 19.166 49.8301C19.19 49.7851 19.21 49.7391 19.23 49.6941C19.241 49.6671 19.257 49.6411 19.267 49.6141C19.2701 49.6052 19.2728 49.5962 19.275 49.5871C19.29 49.5441 19.301 49.5001 19.312 49.4571C19.323 49.4141 19.332 49.3981 19.338 49.3681V49.3451C19.346 49.2991 19.349 49.2531 19.353 49.2071C19.353 49.1771 19.363 49.1471 19.364 49.1171V49.0791V47.8481C19.363 47.8881 19.357 47.9311 19.353 47.9741Z" fill="#C9C8C8"/>
<path d="M19.3592 47.8433C19.3631 46.4438 17.4076 45.3038 14.9914 45.2969C12.5751 45.2901 10.6132 46.4191 10.6092 47.8186C10.6053 49.218 12.5608 50.3581 14.977 50.3649C17.3933 50.3717 19.3552 49.2428 19.3592 47.8433Z" fill="#F3F2F3"/>
<path d="M12.359 59.8515L11.208 61.9945L13.092 63.0825L9.651 65.7165L10.309 62.6845L8.95001 61.8995L10.413 58.7285L12.359 59.8515Z" fill="#BABABA"/>
<path opacity="0.7" d="M66.558 6.8623L32.019 25.6223L45.764 46.8803L80.035 27.4513L66.558 6.8623Z" fill="#8093A2"/>
<path d="M34.577 22.9207L68.18 4.80371L81.416 24.5697L47.746 43.6587L34.577 22.9207Z" fill="#2A3188"/>
<path d="M47.746 43.6589L42.121 34.8019L68.738 5.71094L78.282 19.8889L66.571 32.9869L47.746 43.6589Z" fill="#454897"/>
<path d="M45.704 16.5488L33.972 22.9208L47.716 44.1798L59.36 37.5798L45.704 16.5488ZM54.653 31.5898L54.369 32.7018L50.794 34.7018L49.594 34.4158L47.399 31.0278L47.689 29.9138L51.27 27.9268L52.461 28.2138L54.653 31.5898ZM51.374 26.5388L51.088 27.6468L47.507 29.6328L46.307 29.3458L44.116 25.9638L44.408 24.8548L47.995 22.8828L49.187 23.1728L51.374 26.5388ZM41.133 19.7988L44.727 17.8448L45.92 18.1368L48.101 21.4968L47.813 22.5968L44.225 24.5668L43.025 24.2768L40.837 20.9008L41.133 19.7988ZM35.409 23.8608L35.709 22.7498L39.336 20.7778L40.536 21.0688L42.724 24.4468L42.431 25.5558L38.811 27.5438L37.604 27.2538L35.409 23.8608ZM38.697 28.9458L38.997 27.8298L42.617 25.8408L43.817 26.1298L46.009 29.5128L45.718 30.6278L42.104 32.6278L40.898 32.3408L38.697 28.9458ZM41.991 34.0388L42.286 32.9188L45.899 30.9128L47.099 31.1998L49.294 34.5888L49.005 35.7078L45.398 37.7298L44.198 37.4438L41.991 34.0388ZM52.302 40.7978L48.702 42.8358L47.502 42.5528L45.296 39.1418L45.589 38.0158L49.195 35.9938L50.395 36.2788L52.595 39.6738L52.302 40.7978ZM54.087 39.7868L52.887 39.5028L50.687 36.1088L50.974 34.9908L54.549 32.9908L55.74 33.2758L57.933 36.6538L57.651 37.7698L54.087 39.7868Z" fill="white"/>
<path d="M57.215 10.2959L45.704 16.5489L59.36 37.5799L70.782 31.1059L57.215 10.2959ZM66.115 25.1769L65.842 26.2769L62.335 28.2429L61.155 27.9569L58.974 24.6049L59.253 23.5049L62.766 21.5549L63.941 21.8429L66.115 25.1769ZM62.858 20.1769L62.583 21.2689L59.069 23.2179L57.888 22.9299L55.711 19.5839L55.992 18.4899L59.512 16.5559L60.687 16.8459L62.858 20.1769ZM52.735 13.4909L56.261 11.5729L57.437 11.8649L59.604 15.1899L59.327 16.2779L55.807 18.2109L54.625 17.9199L52.452 14.5799L52.735 13.4909ZM47.125 17.4809L47.413 16.3809L50.97 14.4459L52.154 14.7379L54.327 18.0799L54.045 19.1739L50.494 21.1239L49.305 20.8339L47.125 17.4809ZM50.392 22.5119L50.678 21.4119L54.229 19.4609L55.411 19.7509L57.589 23.0979L57.309 24.1979L53.764 26.1639L52.575 25.8759L50.392 22.5119ZM53.664 27.5509L53.948 26.4459L57.493 24.4779L58.675 24.7659L60.856 28.1189L60.578 29.2189L57.04 31.2019L55.852 30.9159L53.664 27.5509ZM63.853 34.2569L60.321 36.2569L59.134 35.9729L56.943 32.5989L57.224 31.4889L60.762 29.5049L61.944 29.7909L64.129 33.1489L63.853 34.2569ZM65.605 33.2659L64.425 32.9819L62.24 29.6239L62.517 28.5239L66.024 26.5579L67.198 26.8429L69.376 30.1859L69.106 31.2859L65.605 33.2659Z" fill="white"/>
<path d="M68.51 4.16211L57.21 10.2971L70.777 31.1071L81.984 24.7541L68.51 4.16211ZM77.358 18.8841L77.096 19.9661L73.654 21.8951L72.491 21.6091L70.324 18.2921L70.592 17.2081L74.035 15.2941L75.193 15.5821L77.358 18.8841ZM74.122 13.9391L73.857 15.0171L70.41 16.9291L69.245 16.6411L67.082 13.3301L67.352 12.2511L70.806 10.3511L71.965 10.6411L74.122 13.9391ZM64.122 7.30212L67.582 5.4201L68.742 5.7121L70.895 9.00311L70.629 10.0751L67.174 11.9751L66.009 11.6841L63.85 8.38409L64.122 7.30212ZM58.622 11.2231L58.899 10.1411L62.389 8.24112L63.556 8.53311L65.716 11.8401L65.445 12.9191L61.96 14.8331L60.788 14.5421L58.622 11.2231ZM61.868 16.2001L62.143 15.1141L65.627 13.2001L66.793 13.4901L68.956 16.8021L68.687 17.8861L65.209 19.8161L64.035 19.5261L61.868 16.2001ZM65.119 21.1871L65.392 20.0961L68.87 18.1661L70.035 18.4541L72.203 21.7711L71.935 22.8621L68.464 24.8081L67.293 24.5211L65.119 21.1871ZM75.189 27.8421L71.724 29.8041L70.553 29.5201L68.376 26.1811L68.647 25.0861L72.118 23.1401L73.283 23.4261L75.454 26.7491L75.189 27.8421ZM76.908 26.8691L75.745 26.5851L73.574 23.2621L73.84 22.1741L77.281 20.2451L78.439 20.5311L80.603 23.8381L80.343 24.9241L76.908 26.8691Z" fill="white"/>
<path d="M33.972 22.9209L33.261 23.9379L46.977 44.8499L47.716 44.1799L33.972 22.9209Z" fill="#C0C0C0"/>
<path d="M46.977 44.8499L81.485 25.3659L81.989 24.7529L47.716 44.1799L46.977 44.8499Z" fill="#C0C0C0"/>
<path d="M65.737 63.9229L85.724 73.7659V66.1799" stroke="#22B3B2" stroke-width="0.907" stroke-miterlimit="10"/>
<path d="M86.956 68.7245V76.0085C86.9559 76.3027 87.0358 76.5915 87.1871 76.8439C87.3384 77.0963 87.5554 77.3028 87.815 77.4414L89.124 78.1414C89.3635 78.2693 89.6312 78.3352 89.9026 78.3329C90.1741 78.3306 90.4407 78.2603 90.678 78.1284L93.727 76.4334C94.016 76.2727 94.2662 76.0504 94.4598 75.7824C94.6535 75.5143 94.786 75.2071 94.8479 74.8822C94.9098 74.5574 94.8996 74.2229 94.8181 73.9024C94.7365 73.5819 94.5856 73.2832 94.376 73.0274L87.542 64.6895" stroke="#242C34" stroke-width="0.573" stroke-miterlimit="10"/>
<path d="M85.916 70.3107L83.77 69.0107C83.6325 68.9274 83.5188 68.81 83.4399 68.6698C83.3611 68.5297 83.3198 68.3716 83.32 68.2108V67.1357L85.92 68.4807L85.916 70.3107Z" fill="#F3F2F3"/>
<path d="M87.235 56.7623L89.455 57.9733L85.391 61.3423L83.319 60.2523V59.9333C83.3172 59.5038 83.4289 59.0814 83.6428 58.709C83.8567 58.3365 84.1652 58.0272 84.537 57.8123L86.337 56.7733C86.4732 56.6947 86.6273 56.6524 86.7846 56.6505C86.9418 56.6485 87.0969 56.687 87.235 56.7623V56.7623Z" fill="#F3F2F3"/>
<path d="M85.392 61.1331L83.32 60.2471V67.5071L85.434 68.7241L85.392 61.1331Z" fill="#F3F2F3"/>
<path d="M85.392 61.1334L85.431 69.4864C85.4316 69.6506 85.4753 69.8118 85.5578 69.9539C85.6403 70.0959 85.7587 70.2137 85.9012 70.2956C86.0436 70.3774 86.205 70.4204 86.3693 70.4202C86.5335 70.42 86.6948 70.3766 86.837 70.2943L89.444 68.7943C89.5843 68.7132 89.7007 68.5966 89.7815 68.4561C89.8622 68.3157 89.9045 68.1564 89.904 67.9944L89.862 58.7343C89.8612 58.573 89.8179 58.4148 89.7368 58.2754C89.6556 58.136 89.5392 58.0203 89.3994 57.9399C89.2595 57.8596 89.101 57.8173 88.9396 57.8174C88.7783 57.8175 88.6199 57.8599 88.48 57.9404L86.61 59.0204C86.2392 59.2344 85.9313 59.5424 85.7174 59.9134C85.5036 60.2843 85.3913 60.7052 85.392 61.1334V61.1334Z" fill="white"/>
<path d="M86.394 62.6518C86.394 62.7638 86.475 62.8138 86.576 62.7518L86.719 62.6688L86.765 62.4688H86.71C86.639 62.4818 86.597 62.4908 86.596 62.4038V62.3608C86.596 62.3608 86.596 62.3068 86.685 62.2558L86.925 62.1028L87.092 61.6228C87.1106 61.5635 87.1453 61.5106 87.192 61.4698C87.357 61.3558 87.525 61.2488 87.692 61.1538L88 60.9758C88.168 60.8758 88.333 60.7928 88.5 60.7148C88.5184 60.7054 88.5397 60.7035 88.5595 60.7095C88.5792 60.7154 88.5959 60.7288 88.606 60.7468L88.776 61.0318L89.016 60.9078C89.105 60.8568 89.105 60.9078 89.105 60.9078V60.9518C89.105 61.0388 89.063 61.0778 88.991 61.1518L88.937 61.2128L89.009 61.4428V61.7328L88.959 61.8448C88.6603 62.2138 88.2911 62.5197 87.873 62.7448L87.851 62.7568L87.829 62.7698C87.694 62.8478 86.976 63.2498 86.745 63.1188L86.69 63.0678V62.7768V62.7558L86.567 62.8258C86.428 62.9058 86.314 62.8408 86.314 62.6808V62.4148L86.386 62.3738L86.394 62.6518ZM87.833 61.7438C88.055 61.6148 88.279 61.4918 88.502 61.3768L88.65 61.3018C88.65 61.3018 88.725 61.2578 88.696 61.2018L88.649 61.1018L88.581 60.9908L88.496 60.8598C88.2742 60.9561 88.0582 61.0653 87.849 61.1868C87.6263 61.3155 87.4103 61.4557 87.202 61.6068L87.118 61.8348L87.051 62.0238L87.009 62.1748C86.976 62.2618 87.048 62.2248 87.052 62.2228L87.208 62.1228L87.317 62.0498C87.488 61.9448 87.66 61.8418 87.833 61.7428V61.7438ZM88.66 61.9108C88.6867 61.893 88.7089 61.8693 88.7249 61.8416C88.7408 61.8138 88.7501 61.7827 88.752 61.7508V61.6048L88.528 61.7338L88.394 62.0638L88.66 61.9108V61.9108ZM86.96 62.7828C86.96 62.8408 86.999 62.8718 87.049 62.8428L87.315 62.6888L87.179 62.5148L86.956 62.6438V62.7848L86.96 62.7828ZM87.543 62.6008L88.167 62.2408V62.1538L87.543 62.5138V62.6008ZM87.543 62.4458L88.167 62.0858V62.0038L87.543 62.3638V62.4458Z" fill="#BABABA"/>
<path d="M87.624 60.0895L87.781 60.3815L87.524 60.5305L87.994 60.8895L87.904 60.4755L88.09 60.3685L87.89 59.9355L87.624 60.0895Z" fill="#BABABA"/>
<path d="M86.691 63.2234V63.4554C86.6879 63.4737 86.6905 63.4926 86.6985 63.5094C86.7064 63.5262 86.7193 63.5402 86.7354 63.5494C86.7515 63.5587 86.7701 63.5628 86.7886 63.5612C86.8072 63.5595 86.8247 63.5523 86.839 63.5404L87.113 63.3824C87.1523 63.3563 87.1855 63.3219 87.2102 63.2817C87.2349 63.2414 87.2505 63.1963 87.256 63.1494C87.0832 63.2426 86.8821 63.2689 86.691 63.2234V63.2234Z" fill="#BABABA"/>
<path d="M89.014 61.8818C88.8636 62.1079 88.6723 62.3039 88.45 62.4598C88.459 62.5368 88.522 62.5688 88.598 62.5248L88.872 62.3668C88.9139 62.3387 88.9486 62.3012 88.9734 62.2573C88.9983 62.2133 89.0125 62.1642 89.015 62.1138L89.014 61.8818Z" fill="#BABABA"/>
<path d="M45.961 79.9119L56.804 73.7969V89.1809L45.961 94.9509V79.9119Z" fill="white"/>
<path d="M29.281 70.4629L45.961 79.9119V94.9509L29.281 85.5019V70.4629Z" fill="#E3E4E3"/>
<path d="M40.124 64.3477L56.804 73.7967L45.961 79.9117L29.281 70.4626L40.124 64.3477Z" fill="#F3F2F3"/>
<path d="M34.3846 85.7275C35.8532 85.5773 36.8092 83.1623 36.5199 80.3333C36.2306 77.5044 34.8056 75.3328 33.337 75.4829C31.8684 75.6331 30.9124 78.0482 31.2017 80.8772C31.491 83.7061 32.916 85.8777 34.3846 85.7275Z" fill="#CDCDCC"/>
<path d="M34.935 85.3301C33.453 85.3301 32.081 83.0301 31.87 80.2011C31.715 78.1281 32.227 76.3461 33.093 75.5381C31.82 75.8951 30.98 78.0261 31.172 80.6081C31.383 83.4411 32.755 85.7371 34.237 85.7371C34.643 85.7273 35.0293 85.5606 35.315 85.2721C35.1915 85.3084 35.0637 85.328 34.935 85.3301V85.3301Z" fill="#C0C0C0"/>
<path d="M33.9647 81.6211C34.2559 81.5913 34.4454 81.1124 34.388 80.5514C34.3307 79.9905 34.0481 79.5599 33.7569 79.5896C33.4657 79.6194 33.2762 80.0983 33.3335 80.6593C33.3909 81.2202 33.6735 81.6508 33.9647 81.6211Z" fill="#F3F2F3"/>
<path d="M33.722 80.6974L32.512 76.6624C32.5606 76.5015 32.6433 76.3531 32.7545 76.2271C32.8657 76.1011 33.0028 76.0006 33.1564 75.9324C33.31 75.8643 33.4765 75.8301 33.6445 75.8321C33.8125 75.8342 33.9781 75.8725 34.13 75.9444L33.859 80.6104L33.722 80.6974Z" fill="#F3F2F3"/>
<path d="M34.135 80.7676L36.4 81.1756C36.3739 82.345 36.1258 83.4988 35.669 84.5756L33.938 81.0446L34.135 80.7676Z" fill="#F3F2F3"/>
<path d="M33.511 80.6084L31.851 81.1614C31.7886 82.0548 32.0538 82.9403 32.597 83.6524L33.736 80.9364L33.511 80.6084Z" fill="#F3F2F3"/>
<path d="M41.7166 90.1611C43.1852 90.0109 44.1412 87.5958 43.8519 84.7669C43.5626 81.9379 42.1375 79.7664 40.6689 79.9165C39.2003 80.0667 38.2443 82.4818 38.5336 85.3107C38.8229 88.1397 40.248 90.3113 41.7166 90.1611Z" fill="#CDCDCC"/>
<path d="M42.271 89.7617C40.789 89.7617 39.416 87.4617 39.205 84.6327C39.051 82.5597 39.563 80.7777 40.429 79.9697C39.156 80.3267 38.315 82.4577 38.508 85.0397C38.719 87.8727 40.091 90.1687 41.573 90.1687C41.9789 90.1587 42.3652 89.9921 42.651 89.7037C42.5275 89.7401 42.3997 89.7596 42.271 89.7617Z" fill="#C0C0C0"/>
<path d="M41.2966 86.0546C41.5878 86.0248 41.7773 85.546 41.72 84.985C41.6626 84.4241 41.3801 83.9935 41.0889 84.0232C40.7977 84.053 40.6081 84.5319 40.6655 85.0928C40.7229 85.6538 41.0054 86.0844 41.2966 86.0546Z" fill="#F3F2F3"/>
<path d="M41.054 85.1301L39.844 81.0931C39.8926 80.9322 39.9753 80.7837 40.0865 80.6577C40.1977 80.5318 40.3348 80.4313 40.4884 80.3631C40.642 80.2949 40.8085 80.2607 40.9765 80.2628C41.1445 80.2648 41.3101 80.3032 41.462 80.3751L41.191 85.0411L41.054 85.1301Z" fill="#F3F2F3"/>
<path d="M41.462 85.2012L43.727 85.6092C43.7009 86.7786 43.4528 87.9324 42.996 89.0092L41.265 85.4782L41.462 85.2012Z" fill="#F3F2F3"/>
<path d="M40.843 85.041L39.183 85.595C39.1207 86.4881 39.3859 87.3733 39.929 88.085L41.068 85.369L40.843 85.041Z" fill="#F3F2F3"/>
<path d="M47.37 81.0719L55.396 76.5449V77.3909L47.37 81.9169V81.0719Z" fill="#E3E4E3"/>
<path d="M47.37 82.608L55.396 78.082V78.927L47.37 83.454V82.608Z" fill="#E3E4E3"/>
<path d="M47.37 84.2252L55.396 79.6982V80.5442L47.37 85.0712V84.2252Z" fill="#E3E4E3"/>
</svg>
