<svg id="Layer_1" data-name="Layer 1" xmlns="http://www.w3.org/2000/svg" viewBox="0 0 72 20.88"><defs><style>.cls-1{fill:#666;fill-rule:evenodd;}</style></defs><title>ICON FILE</title><path class="cls-1" d="M13.43,7.22a2,2,0,0,0-2.24,1.87,1.71,1.71,0,0,0,.43,1.33,2.13,2.13,0,0,0,1.26.64l.82.18c.32.07.47.11.57.25a.64.64,0,0,1,.18.58c0,.53-.46.78-1.25.75a3,3,0,0,1-1.58-.58s-.07,0-.07,0c-.07.22-.32.86-.39,1.08,0,0,0,0,0,0a3.83,3.83,0,0,0,1.93.6c1.44.11,2.58-.57,2.69-1.86a1.78,1.78,0,0,0-.47-1.43,2.22,2.22,0,0,0-1.25-.61l-.79-.15a1,1,0,0,1-.61-.32.46.46,0,0,1-.14-.46c0-.47.36-.83,1.07-.79a2.64,2.64,0,0,1,1.22.39s.07,0,.07,0c.11-.26.29-.79.4-1v0a3.48,3.48,0,0,0-1.58-.43Zm-6.65,0a0,0,0,0,0,0,0L4.3,13.88s0,0,0,0H5.66l.54-1.54s0,0,0,0H8.32s0,0,0,0l.54,1.54h1.33s.07,0,0,0L7.81,7.28l0,0Zm9.74,0s0,0,0,0V8.39s0,0,0,0h1.8s0,0,0,0v5.45h1.33V8.46s0,0,0,0h1.39a0,0,0,0,1,0,0l.39-1.11s0,0,0,0Zm6.31,0,0,0v6.63h1.36v-4a0,0,0,1,1,0,0l2.65,4H28V7.28l0,0H26.74s0,0,0,0v3.94s0,0-.08,0L24,7.28a0,0,0,0,0,0,0Zm6.92,0,0,0v6.63H34.2V12.8s0,0,0,0H31.08s0,0,0,0V11.19a0,0,0,0,1,0,0h1.68l0,0L33.19,10s0-.07,0-.07H31.08a0,0,0,0,1,0,0V8.46s0,0,0,0h2.69l0,0,.4-1.11s0,0,0,0Zm5.88,0s0,0,0,0v6.63h2.47a2.28,2.28,0,0,0,2-1,3.72,3.72,0,0,0,.43-2.36,3.76,3.76,0,0,0-.43-2.37,2.37,2.37,0,0,0-2-1ZM0,7.26s0,0,0,0v6.59s0,0,0,0H1.29s0,0,0,0V11.17l0,0H3.3L3.73,10s0,0,0,0H1.36s0,0,0,0V8.44l0,0h3v0L4.77,7.3a0,0,0,0,0,0,0ZM37,8.43h1a1.25,1.25,0,0,1,1,.39c.25.29.29.72.29,1.76s0,1.47-.29,1.75a1.16,1.16,0,0,1-1,.43H37s0,0,0,0V8.46s0,0,0,0ZM7.3,9.3l0,0L8,11.12l0,0H6.67s0,0,0,0l.65-1.8,0,0Z"/><path class="cls-1" d="M72,6.9,60.13,10.49l-11-3.59c-.29,3.45,1.47,4,1.47,4l8.46,2.76a3.19,3.19,0,0,0,1.07.14,3.46,3.46,0,0,0,1.12-.18l9-2.72S72,10.35,72,6.9"/></svg>