<svg id="Layer_1" data-name="Layer 1" xmlns="http://www.w3.org/2000/svg" viewBox="0 0 72 20.88"><defs><style>.cls-1{fill:#666;}</style></defs><title>ICON FILE</title><path class="cls-1" d="M23.21,9.13c-.31.43-.84,1.17-1.16,1.6-.16.22-.45.62.52.62H27.7l1.52-2.06c.94-1.28.08-3.95-3.29-3.95H12.66l-2.3,3.13H22.9C23.53,8.47,23.52,8.71,23.21,9.13Zm-3.76,3c-1,0-.68-.4-.52-.62l1.17-1.6c.31-.42.32-.66-.32-.66H14.05L9.43,15.54H20.7a8,8,0,0,0,6.43-3.41Zm7.33,3.41h6.61l2.5-3.41H29.28Zm17-10.2L41.29,8.79H38.34l2.54-3.45H34.27l-4.42,6H46l4.42-6Zm-7.49,10.2h6.6l2.51-3.41H38.84ZM0,13.47v.73H9.2l.54-.73Zm10.73-1.34H0v.72H10.19ZM0,15.54H8.22l.53-.72H0ZM62.3,14.2H72v-.73H62.83Zm-1,1.34H72v-.72H61.84Zm2.5-3.41-.53.72H72v-.72Zm-8.65-.78,4.42-6h-7l-4.42,6Zm-7.57.78-.72,1c-.83,1.12-.09,2.43,2.61,2.43H60.1l2.51-3.41Z"/></svg>