<svg id="Layer_1" data-name="Layer 1" xmlns="http://www.w3.org/2000/svg" viewBox="0 0 72 20.88"><defs><style>.cls-1{fill:#666;}</style></defs><title>ICON FILE</title><path class="cls-1" d="M1.42,4,0,16.88H9L10.44,4ZM8.36,15.94H1.57V14.23H6.65V11.69H8.36ZM4.11,13.39v-1.7H5.82v1.7Zm4.25-2.54H3.28v2.54H1.57V9.17H8.36Z"/><path class="cls-1" d="M52.34,13.39h4.24V12.14H52.34V10.62h4.5V9.19H50.69v7.15H57V14.92H52.34Z"/><path class="cls-1" d="M69.56,9.19l-2.66,3h-.21v-3H65.07v7.15h1.62V13.39h.21l2.81,2.95H72l-3.68-3.61,3.3-3.54Z"/><path class="cls-1" d="M36.42,14.92V10.64H39c1.22,0,1.47,1.15,1.47,2.17s-.3,2.13-1.52,2.13H36.42Zm2.46-5.73H34.77v7.15h4.11c2.42,0,3.2-1.37,3.2-3.56S41.3,9.19,38.88,9.19Z"/><path class="cls-1" d="M25.47,9.19c-.5,0-1-.07-1.52-.07s-1,0-1.52.07A2.32,2.32,0,0,0,20,11.84V13.7a2.63,2.63,0,0,0,.38,1.45A2.66,2.66,0,0,0,22,16.29a5.61,5.61,0,0,0,1.1.13c.3,0,.58,0,.88,0a8.72,8.72,0,0,0,.89,0,5.9,5.9,0,0,0,1.1-.13,2.69,2.69,0,0,0,1.57-1.14,2.91,2.91,0,0,0,.38-1.45V11.84A2.38,2.38,0,0,0,25.47,9.19Zm.69,4.33c0,1-.2,1.35-1,1.42A9.08,9.08,0,0,1,24,15c-.33,0-.84,0-1.25-.06-.78-.07-1-.38-1-1.42v-1.6c0-.74.08-1.2,1-1.3a9.88,9.88,0,0,1,1.25,0c.48,0,.86,0,1.24,0,.89.1,1,.56,1,1.3Z"/><path class="cls-1" d="M30.76,14.92a.47.47,0,0,1-.33-.08.53.53,0,0,1-.16-.43V9.19H28.62v5.14A2,2,0,0,0,29.18,16a1.89,1.89,0,0,0,1.27.3H34V14.92Z"/><path class="cls-1" d="M48.84,12.88l-.26-.05v-.1l.26-.1c.46-.15.84-.41.84-1.6s-1-1.84-2.54-1.84H42.9v7.15h4.77c.76,0,2.23-.23,2.23-1.85C49.88,13.49,49.6,13,48.84,12.88Zm-4.32-2.24h2.79c.61,0,.72.41.72.79a.66.66,0,0,1-.72.74H44.52Zm2.95,4.28H44.52V13.39h2.95c.61,0,.71.41.71.79A.65.65,0,0,1,47.47,14.92Z"/><path class="cls-1" d="M59.94,14.82c-.51-.23-.56-.77-.56-1.5V12.2c0-.72,0-1.28.56-1.51,0,0,1-.48,4,.13l.21-1.37a13.37,13.37,0,0,0-2.52-.33,6.81,6.81,0,0,0-1.8.1,4.3,4.3,0,0,0-.74.2,2.43,2.43,0,0,0-1.42,2.47v1.76a2.41,2.41,0,0,0,1.42,2.46,3.13,3.13,0,0,0,.74.21,6.74,6.74,0,0,0,1.8.1,15.45,15.45,0,0,0,2.52-.33L64,14.72C60.9,15.3,59.94,14.82,59.94,14.82Z"/><path class="cls-1" d="M15.8,12.14v1.25h1.95v1a.8.8,0,0,1-.1.38.6.6,0,0,1-.46.2A8.24,8.24,0,0,1,16,15c-.43,0-.86,0-1.29-.06-1-.1-1.19-.58-1.19-1.65v-1c0-.84.07-1.4.76-1.61a6.17,6.17,0,0,1,1.52-.12h.51a10.67,10.67,0,0,1,2.46.28l.31-1.28a11.74,11.74,0,0,0-3.28-.43A12.77,12.77,0,0,0,14,9.27a2.65,2.65,0,0,0-1.17.41,2.63,2.63,0,0,0-1,2.29v1.65A2.55,2.55,0,0,0,13,16.06a3.76,3.76,0,0,0,1.9.39l1,0,1,0A2.73,2.73,0,0,0,18.69,16a1.92,1.92,0,0,0,.59-1.55V12.17H15.8Z"/></svg>