<svg id="Layer_1" data-name="Layer 1" xmlns="http://www.w3.org/2000/svg" viewBox="0 0 72 20.88"><defs><style>.cls-1{fill:#666;}</style></defs><title>ICON FILE</title><path class="cls-1" d="M49.05,4.09a1.53,1.53,0,1,0,1.53,1.53A1.53,1.53,0,0,0,49.05,4.09Zm0,2.69a1.16,1.16,0,1,1,1.16-1.16A1.16,1.16,0,0,1,49.05,6.78Z"/><path class="cls-1" d="M29.07,10.61c.05-.71-.61-1-1.24-1.06a1.8,1.8,0,0,0-1.89,1.89C26.69,11.59,29,11.79,29.07,10.61Z"/><path class="cls-1" d="M61.94-.07H12A4.6,4.6,0,0,0,7.38,4.54v11.8A4.6,4.6,0,0,0,12,21H51.43A13.19,13.19,0,0,0,64.62,7.76V2.6A2.68,2.68,0,0,0,61.94-.07ZM15.59,15.25c-1.63,0-1.92-.9-2-1.58v-8h6.81a1.25,1.25,0,0,1-1.28,1.29H14.9V9.85h3.73v.23a1.07,1.07,0,0,1-1.19,1.06H14.9V14h4.26a1.26,1.26,0,0,1,1.29,1.29Zm6-2.34V5.62h1.24v7.29A2.79,2.79,0,0,0,24,15.24,2.13,2.13,0,0,1,21.62,12.91Zm8.32.89a1.52,1.52,0,0,1-1.08,1.31,5.25,5.25,0,0,1-1.09.13A2.92,2.92,0,0,1,24.7,12c0-1.89,1.05-3.46,3.1-3.46,1.25,0,2.49.65,2.49,2.07,0,1.85-2.47,2-4.35,1.82C26,14.67,28.93,14.21,29.94,13.8ZM35,15.2a3.9,3.9,0,0,1-.59,0,3.13,3.13,0,0,1-3.18-3.31,3.15,3.15,0,0,1,3.18-3.37A4.31,4.31,0,0,1,36.31,9v1a4.09,4.09,0,0,0-1.92-.33,2.07,2.07,0,0,0-1.94,2.23,2.07,2.07,0,0,0,2,2.17,4.48,4.48,0,0,0,1.93-.38A1.61,1.61,0,0,1,35,15.2Zm6.81-6.59a1.11,1.11,0,0,1-1.26,1.1h-.85v3.5c0,.41.13.69.51.8a1.72,1.72,0,0,0,1.18-.09s0,1.26-1,1.33a1.81,1.81,0,0,1-1.93-2V9.71H37.36V8.6h1.15V8.1c.05-.57.28-1.43,1.23-1.43V8.56h2.1ZM47,9.8a2.62,2.62,0,0,0-2.79,2.43v3A1.09,1.09,0,0,1,43,14.19V8.56a1.23,1.23,0,0,1,1.17,1.2l0,.27a2.65,2.65,0,0,1,.88-.91A3.31,3.31,0,0,1,47,8.56Zm2.65,5.45h0a1.09,1.09,0,0,1-1.22-1.06v-.27h0V10.16a1.49,1.49,0,0,1,1.24-1.6Zm-.62-7.82a1.81,1.81,0,1,1,1.82-1.81A1.81,1.81,0,0,1,49.05,7.43Zm4.61,7.83a4,4,0,0,1-1.83-.42c-.78-.43-.33-1.08-.15-1.3l.06-.07a3.12,3.12,0,0,0,2,.7c.63,0,1.28-.3,1.28-.88,0-.36-.22-.57-.89-.77-1.25-.38-3-.75-3-2s1.3-1.91,2.37-1.91a4.35,4.35,0,0,1,2,.47.67.67,0,0,1,.28,1.05l-.19.26a3.63,3.63,0,0,0-2-.7c-.58,0-1.24.3-1.24.87s.46.65,1.25.86c1.12.32,2.61.71,2.62,1.93C56.15,14.93,54.33,15.26,53.66,15.26Z"/></svg>