<svg id="Layer_1" data-name="Layer 1" xmlns="http://www.w3.org/2000/svg" viewBox="0 0 72 21.02"><defs><style>.cls-1{fill:#666;fill-rule:evenodd;}</style></defs><title>ICON FILE</title><path class="cls-1" d="M46.41,4.48c-5.06-1.26-11.44-.3-14,4.75-.76,2.27-2,4.34-2.54,6.69-1.27,5.42,6,4.86,9.22,4.66,3.64-.22,5.88-2.14,7.54-5.34,1.05-2,2.51-5.1,2.51-7.44h0C49,5.94,48.12,5.1,46.41,4.48Zm-4.82,7.24c-.53,2.29-.82,5.72-4,5.09-1.33,0-.5-2.47-.38-3.2.49-1.95.81-5.59,3.41-5.59h0C41.1,8.07,42,8,42,8.61A8.94,8.94,0,0,1,41.59,11.72Z"/><path class="cls-1" d="M13,13.83c5.14,0,9.46.5,9.78-5.65C22.75,5.23,22-.28,18,0a13.79,13.79,0,0,0-1.57.22C10.86,1.69,4.07,4.52.93,9.68c-4.59,8.88,9,12.5,15.32,11a13.17,13.17,0,0,0,5.69-2.64c3.18-3.18-6-2-6.86-2A4.92,4.92,0,0,1,9,17c-.58-.36-2.64-2.55-1.92-3.27C9,13.7,11,13.82,13,13.83ZM8.89,9.59c.77-.77,7.23-6.07,7.85-3.59a5.34,5.34,0,0,1,.16,1.69c0,1.42,0,1.85-1.46,2.08L9,9.79C8.87,9.73,8.79,9.79,8.89,9.59Z"/><path class="cls-1" d="M29.34,10.85c-.48,1-.37,2.26-1.36,3-1.36,1-4.77,1-4-1.43S26,9.1,28.47,9.7c.6.2.74.6.87,1.15Z"/><path class="cls-1" d="M72,7.82a8.44,8.44,0,0,1-.27,1.88,106,106,0,0,1-3.27,10.43c-1.07,1.07-3.28.49-4.42-.2-.57-.57.85-3.49,1.07-4.19.35-1.09,2.26-5.08.66-5.88a5.44,5.44,0,0,0-1.44.2c-4.79,1.68-8.19,6.56-11.64,10a3.94,3.94,0,0,1-4-.18c-.14-.15-.07-.38,0-.56A82.1,82.1,0,0,1,53.39,5.71c.3-.89,3.38-.56,4.14-.18,0,1-.1,2.65,1.33,2.65,3.2-.35,11-7.3,13-1.35a6.66,6.66,0,0,1,.11,1Z"/></svg>