<svg id="Layer_1" data-name="Layer 1" xmlns="http://www.w3.org/2000/svg" viewBox="0 0 72 20.88"><defs><style>.cls-1{fill:#666;}</style></defs><title>ICON FILE</title><path class="cls-1" d="M15.69.38a1.07,1.07,0,0,0-.89.33,1.07,1.07,0,0,0-.13.81c.2.6,2.91,5.22,3.74,6.63l.68,1.21a13.17,13.17,0,0,1,4.46-9Zm6.22,10.06A10.51,10.51,0,0,0,32.41,21c4.9,0,9.41-2.4,14.63-7.79,2.34-2.42,8.63-9.64,9.86-11.06.57-.63.48-1.07.41-1.22a.7.7,0,0,0-.66-.39H45.57l-.47.65c-1.81,2.54-6.62,9.28-7.1,9.93l-.51.69c-1.21,1.7-2.47,3.46-5.07,3.46a4.85,4.85,0,0,1-4.79-4.71,4.83,4.83,0,0,1,4.79-4.86,4.84,4.84,0,0,1,3.84,1.92L36.6,8,40,3.13l-.28-.23a12.53,12.53,0,0,0-7.26-3A10.51,10.51,0,0,0,21.91,10.44Z"/></svg>