<svg id="Layer_1" data-name="Layer 1" xmlns="http://www.w3.org/2000/svg" viewBox="0 0 72 20.88"><defs><style>.cls-1{fill:#666;}</style></defs><title>ICON FILE</title><path class="cls-1" d="M13.82,6.18H11.29v7.17h2.53Z"/><path class="cls-1" d="M38.53,9.15a2.64,2.64,0,0,0-.11.73,6.09,6.09,0,0,0-.1-.73l-1-3h-3.4v7.17H36V9.08a1,1,0,0,0,.1.47l1.56,3.77h1.48l1.56-3.88A2.47,2.47,0,0,0,40.85,9v4.35h2.21V6.18H39.62Z"/><path class="cls-1" d="M59.55,10.13a.88.88,0,0,0-.14-.43L56.55,6.22H54v7.17h2.53v-4a.83.83,0,0,0,.15.43l2.75,3.48h2.49V6.18H59.55Z"/><path class="cls-1" d="M47.07,6.18l-3.44,7.17h2.68L47,12h2.93l.65,1.34h2.68L49.78,6.18Zm.54,4,.73-1.48a1.19,1.19,0,0,0,.11-.47,1,1,0,0,0,.1.47l.73,1.52Z"/><path class="cls-1" d="M18.52,10.46h3.8V8.83h-3.8V8h4.64V6.18H16.1v7.17h7.24V11.43H18.52Z"/><path class="cls-1" d="M5.28,10.56a1.2,1.2,0,0,0-.11.48,1.06,1.06,0,0,0-.1-.48L3,6.22H0l3.65,7.17H6.58l3.59-7.17H7.31Z"/><path class="cls-1" d="M30,5.2H26.85s-.47,0-.47-.43.47-.4.47-.4h5.21V2.45H26.48a2.25,2.25,0,0,0-2.2,2.32,2.11,2.11,0,0,0,2,2.28h3.54a.44.44,0,0,1,.44.44v0a.44.44,0,0,1-.44.44H24.46v2H30a2.26,2.26,0,0,0,2.39-2.17V7.45C32.38,5.28,30,5.2,30,5.2Z"/><path class="cls-1" d="M30,13.75H26.85s-.47,0-.47-.43.47-.4.47-.4h5.21V11H26.48a2.26,2.26,0,0,0-2.2,2.32,2.14,2.14,0,0,0,2,2.28h3.51a.45.45,0,0,1,.43.47v0c0,.4-.43.4-.43.4H24.46v2H30a2.26,2.26,0,0,0,2.39-2.17V16C32.38,13.82,30,13.75,30,13.75Z"/><path class="cls-1" d="M69.61,6.18v3.91a.91.91,0,0,0-.14-.43L66.61,6.18H64.08v7.17h2.53V9.41a.91.91,0,0,0,.14.43l2.75,3.48H72V6.18Z"/></svg>