<?xml version="1.0" encoding="UTF-8"?><svg id="Ebene_2" xmlns="http://www.w3.org/2000/svg" xmlns:xlink="http://www.w3.org/1999/xlink" viewBox="0 0 100 100"><defs><clipPath id="clippath"><path d="m48.999,78.083l-1.521-1.303c-.543-.465-.869-1.192-.871-2.116l1.521,1.303c.002.924.328,1.65.871,2.116Z" fill="#0a7d7b"/></clipPath><clipPath id="clippath-1"><path d="m81.321,4.482l1.521,1.303c-.736-.63-1.87-.782-3.136-.296l-1.521-1.303c1.266-.486,2.4-.335,3.136.296Z" fill="#0a7d7b"/></clipPath><clipPath id="clippath-2"><path d="m47.989,21.616l-1.521-1.303c-.006-2.176,1.787-4.637,3.995-5.485l1.521,1.303c-2.209.848-4.001,3.308-3.995,5.485Z" fill="#0a7d7b"/></clipPath><clipPath id="clippath-3"><path d="m19.17,95.588l-1.984-1.11c-.601-.336-.973-1.082-.973-2.157l1.984,1.11c0,1.075.372,1.821.973,2.157Z" fill="#0a7d7b"/></clipPath><clipPath id="clippath-4"><path d="m45.524,17.848l1.984,1.11c-.602-.337-1.433-.264-2.35.3l-1.984-1.11c.917-.564,1.748-.637,2.35-.3Z" fill="#0a7d7b"/></clipPath><clipPath id="clippath-5"><path d="m18.209,39.723l-1.984-1.11c0-2.143,1.491-4.809,3.324-5.936l1.984,1.11c-1.832,1.127-3.323,3.793-3.324,5.936Z" fill="#0a7d7b"/></clipPath><linearGradient id="Unbenannter_Verlauf_2" x1="58.741" y1="43.77" x2="50.625" y2="43.77" gradientUnits="userSpaceOnUse"><stop offset="0" stop-color="#fff"/><stop offset="1" stop-color="#dbdbdb"/></linearGradient><linearGradient id="Unbenannter_Verlauf_2-2" x1="48.18" y1="67.667" x2="64.848" y2="84.452" xlink:href="#Unbenannter_Verlauf_2"/></defs><g isolation="isolate"><polygon points="52.215 74.324 50.694 73.021 78.252 62.443 79.773 63.746 52.215 74.324" fill="#0a7d7b"/><g isolation="isolate"><path d="m48.999,78.083l-1.521-1.303c-.543-.465-.869-1.192-.871-2.116l1.521,1.303c.002.924.328,1.65.871,2.116Z" fill="#0a7d7b"/><g clip-path="url(#clippath)"><g isolation="isolate"><path d="m48.999,78.083l-1.521-1.303c-.543-.465-.869-1.192-.871-2.116l1.521,1.303c.002.924.328,1.65.871,2.116" fill="#0a7d7b"/></g></g></g><polygon points="79.773 63.746 78.252 62.443 78.113 8.239 79.635 9.542 79.773 63.746" fill="#0a7d7b"/><g isolation="isolate"><path d="m81.321,4.482l1.521,1.303c-.736-.63-1.87-.782-3.136-.296l-1.521-1.303c1.266-.486,2.4-.335,3.136.296Z" fill="#0a7d7b"/><g clip-path="url(#clippath-1)"><g isolation="isolate"><path d="m79.707,5.49l-1.521-1.303c.353-.135.695-.221,1.021-.261l1.521,1.303c-.326.04-.669.126-1.021.261" fill="#0a7d7b"/><path d="m80.728,5.228l-1.521-1.303c.174-.021.343-.029.507-.025l1.521,1.303c-.164-.004-.333.004-.507.025" fill="#0a7d7b"/><path d="m81.235,5.203l-1.521-1.303c.121.003.239.013.354.03l1.521,1.303c-.115-.017-.233-.027-.354-.03" fill="#0a7d7b"/><path d="m81.588,5.233l-1.521-1.303c.099.014.196.034.29.058l1.521,1.303c-.094-.024-.191-.044-.29-.058" fill="#0a7d7b"/><path d="m81.878,5.291l-1.521-1.303c.086.022.17.048.252.079l1.521,1.303c-.082-.03-.166-.056-.252-.079" fill="#0a7d7b"/><path d="m82.13,5.37l-1.521-1.303c.077.029.152.061.225.096l1.521,1.303c-.073-.036-.148-.068-.225-.096" fill="#0a7d7b"/><path d="m82.355,5.466l-1.521-1.303c.07.034.139.072.204.113l1.521,1.303c-.066-.041-.134-.078-.204-.113" fill="#0a7d7b"/><path d="m82.56,5.579l-1.521-1.303c.065.04.128.083.188.13l1.521,1.303c-.06-.046-.123-.09-.188-.13" fill="#0a7d7b"/><path d="m82.748,5.708l-1.521-1.303c.032.025.064.05.095.077l1.521,1.303c-.031-.026-.062-.052-.095-.077" fill="#0a7d7b"/></g></g></g><polygon points="52.077 20.12 50.556 18.817 78.113 8.239 79.635 9.542 52.077 20.12" fill="#0a7d7b"/><polygon points="79.635 9.542 79.773 63.746 52.215 74.324 52.077 20.12 79.635 9.542" fill="#0a7d7b"/><polygon points="52.215 74.324 50.694 73.021 50.556 18.817 52.077 20.12 52.215 74.324" fill="#0a7d7b"/><polygon points="48.128 75.967 46.606 74.664 46.468 20.313 47.989 21.616 48.128 75.967" fill="#0a7d7b"/><polygon points="51.984 16.131 50.463 14.828 78.185 4.187 79.707 5.49 51.984 16.131" fill="#0a7d7b"/><g isolation="isolate"><path d="m47.989,21.616l-1.521-1.303c-.006-2.176,1.787-4.637,3.995-5.485l1.521,1.303c-2.209.848-4.001,3.308-3.995,5.485Z" fill="#0a7d7b"/><g clip-path="url(#clippath-2)"><g isolation="isolate"><path d="m47.989,21.616l-1.521-1.303c-.001-.436.07-.884.202-1.328l1.521,1.303c-.132.444-.203.891-.202,1.328" fill="#0a7d7b"/><path d="m48.191,20.288l-1.521-1.303c.047-.159.103-.318.165-.475l1.521,1.303c-.063.157-.118.316-.165.475" fill="#0a7d7b"/><path d="m48.357,19.813l-1.521-1.303c.052-.13.108-.258.169-.386l1.521,1.303c-.061.128-.118.256-.169.386" fill="#0a7d7b"/><path d="m48.526,19.427l-1.521-1.303c.054-.113.112-.225.174-.336l1.521,1.303c-.061.111-.119.223-.174.336" fill="#0a7d7b"/><path d="m48.7,19.091l-1.521-1.303c.057-.103.117-.205.18-.306l1.521,1.303c-.063.101-.123.203-.18.306" fill="#0a7d7b"/><path d="m48.879,18.785l-1.521-1.303c.06-.096.123-.191.188-.285l1.521,1.303c-.065.094-.128.189-.188.285" fill="#0a7d7b"/><path d="m49.067,18.5l-1.521-1.303c.064-.091.13-.182.198-.27l1.521,1.303c-.068.089-.134.179-.198.27" fill="#0a7d7b"/><path d="m49.265,18.23l-1.521-1.303c.068-.088.138-.175.209-.26l1.521,1.303c-.072.085-.142.172-.209.26" fill="#0a7d7b"/><path d="m49.475,17.97l-1.521-1.303c.073-.086.147-.17.224-.252l1.521,1.303c-.077.082-.151.167-.224.252" fill="#0a7d7b"/><path d="m49.699,17.718l-1.521-1.303c.079-.085.16-.167.243-.248l1.521,1.303c-.083.081-.164.163-.243.248" fill="#0a7d7b"/><path d="m49.941,17.47l-1.521-1.303c.087-.085.177-.168.269-.248l1.521,1.303c-.092.08-.181.163-.269.248" fill="#0a7d7b"/><path d="m50.21,17.222l-1.521-1.303c.1-.087.202-.172.307-.253l1.521,1.303c-.105.081-.207.165-.307.253" fill="#0a7d7b"/><path d="m50.517,16.969l-1.521-1.303c.121-.094.245-.183.371-.267l1.521,1.303c-.126.084-.25.173-.371.267" fill="#0a7d7b"/><path d="m50.888,16.702l-1.521-1.303c.17-.113.345-.217.523-.311l1.521,1.303c-.178.094-.353.198-.523.311" fill="#0a7d7b"/><path d="m51.411,16.391l-1.521-1.303c.187-.098.379-.186.573-.26l1.521,1.303c-.195.075-.386.162-.573.26" fill="#0a7d7b"/></g></g></g><path d="m79.707,5.49c2.201-.845,4.002.236,4.008,2.412l.138,54.351c.006,2.176-1.787,4.637-3.988,5.482l-27.722,10.642c-2.209.848-4.01-.233-4.015-2.41l-.138-54.351c-.006-2.176,1.787-4.637,3.995-5.485l27.722-10.642Zm.066,58.256l-.138-54.204-27.558,10.578.138,54.204,27.558-10.578" fill="#0fb9b6"/></g><g isolation="isolate"><polygon points="21.582 91.27 19.598 90.16 43.093 75.711 45.076 76.82 21.582 91.27" fill="#0a7d7b"/><g isolation="isolate"><path d="m19.17,95.588l-1.984-1.11c-.601-.336-.973-1.082-.973-2.157l1.984,1.11c0,1.075.372,1.821.973,2.157Z" fill="#0a7d7b"/><g clip-path="url(#clippath-3)"><g isolation="isolate"><path d="m19.17,95.588l-1.984-1.11c-.601-.336-.973-1.082-.973-2.157l1.984,1.11c0,1.075.372,1.821.973,2.157" fill="#0a7d7b"/></g></g></g><polygon points="45.076 76.82 43.093 75.711 43.105 22.163 45.089 23.272 45.076 76.82" fill="#0a7d7b"/><g isolation="isolate"><path d="m45.524,17.848l1.984,1.11c-.602-.337-1.433-.264-2.35.3l-1.984-1.11c.917-.564,1.748-.637,2.35-.3Z" fill="#0a7d7b"/><g clip-path="url(#clippath-4)"><g isolation="isolate"><path d="m45.158,19.258l-1.984-1.11c.179-.11.355-.202.526-.275l1.984,1.11c-.171.073-.347.165-.526.275" fill="#0a7d7b"/><path d="m45.684,18.983l-1.984-1.11c.118-.05.233-.092.347-.126l1.984,1.11c-.113.033-.229.075-.347.126" fill="#0a7d7b"/><path d="m46.031,18.857l-1.984-1.11c.094-.028.186-.05.277-.066l1.984,1.11c-.09.016-.183.038-.277.066" fill="#0a7d7b"/><path d="m46.307,18.791l-1.984-1.11c.081-.015.16-.025.238-.031l1.984,1.11c-.078.006-.157.016-.238.031" fill="#0a7d7b"/><path d="m46.546,18.761l-1.984-1.11c.073-.005.144-.007.214-.005l1.984,1.11c-.07-.002-.141,0-.214.005" fill="#0a7d7b"/><path d="m46.759,18.756l-1.984-1.11c.067.002.132.008.196.017l1.984,1.11c-.064-.009-.13-.015-.196-.017" fill="#0a7d7b"/><path d="m46.956,18.773l-1.984-1.11c.063.009.124.021.183.037l1.984,1.11c-.06-.015-.121-.028-.183-.037" fill="#0a7d7b"/><path d="m47.139,18.81l-1.984-1.11c.059.015.117.034.173.056l1.984,1.11c-.056-.022-.114-.04-.173-.056" fill="#0a7d7b"/><path d="m47.313,18.866l-1.984-1.11c.057.022.112.047.166.076l1.984,1.11c-.054-.028-.109-.054-.166-.076" fill="#0a7d7b"/><path d="m47.479,18.941l-1.984-1.11c.01.005.02.01.029.016l1.984,1.11c-.01-.005-.019-.011-.029-.016" fill="#0a7d7b"/></g></g></g><polygon points="21.594 37.722 19.611 36.612 43.105 22.163 45.089 23.272 21.594 37.722" fill="#0a7d7b"/><polygon points="21.582 91.27 19.598 90.16 19.611 36.612 21.594 37.722 21.582 91.27" fill="#0a7d7b"/><path d="m45.158,19.258c1.832-1.127,3.322-.294,3.322,1.849l-.012,53.708c0,2.15-1.491,4.816-3.324,5.943l-23.625,14.529c-1.832,1.127-3.322.294-3.322-1.856l.012-53.708c0-2.143,1.491-4.809,3.324-5.936l23.625-14.529Zm-.082,57.563l.012-53.548-23.494,14.449-.012,53.548,23.494-14.449" fill="#0fb9b6"/><polygon points="45.089 23.272 45.076 76.82 21.582 91.27 21.594 37.722 45.089 23.272" fill="#0fb9b6"/><polygon points="21.533 33.787 19.549 32.678 43.174 18.148 45.158 19.258 21.533 33.787" fill="#0a7d7b"/><polygon points="18.197 93.432 16.213 92.322 16.226 38.614 18.209 39.723 18.197 93.432" fill="#0a7d7b"/><g isolation="isolate"><path d="m18.209,39.723l-1.984-1.11c0-2.143,1.491-4.809,3.324-5.936l1.984,1.11c-1.832,1.127-3.323,3.793-3.324,5.936Z" fill="#0a7d7b"/><g clip-path="url(#clippath-5)"><g isolation="isolate"><path d="m18.209,39.723l-1.984-1.11c0-.187.011-.378.033-.572l1.984,1.11c-.022.194-.033.385-.033.572" fill="#0a7d7b"/><path d="m18.243,39.151l-1.984-1.11c.018-.156.042-.315.074-.474l1.984,1.11c-.031.159-.056.317-.074.474" fill="#0a7d7b"/><path d="m18.316,38.677l-1.984-1.11c.025-.127.054-.255.087-.382l1.984,1.11c-.033.128-.062.255-.087.382" fill="#0a7d7b"/><path d="m18.403,38.295l-1.984-1.11c.029-.114.062-.228.097-.342l1.984,1.11c-.036.114-.068.228-.097.342" fill="#0a7d7b"/><path d="m18.501,37.952l-1.984-1.11c.033-.106.069-.213.107-.319l1.984,1.11c-.038.106-.074.212-.107.319" fill="#0a7d7b"/><path d="m18.608,37.634l-1.984-1.11c.037-.101.075-.203.116-.303l1.984,1.11c-.041.101-.08.202-.116.303" fill="#0a7d7b"/><path d="m18.724,37.33l-1.984-1.11c.04-.098.082-.196.126-.294l1.984,1.11c-.044.097-.086.195-.126.294" fill="#0a7d7b"/><path d="m18.85,37.037l-1.984-1.11c.044-.097.089-.193.137-.289l1.984,1.11c-.048.096-.093.192-.137.289" fill="#0a7d7b"/><path d="m18.987,36.748l-1.984-1.11c.048-.097.098-.192.15-.287l1.984,1.11c-.052.095-.102.191-.15.287" fill="#0a7d7b"/><path d="m19.136,36.461l-1.984-1.11c.053-.097.108-.194.165-.289l1.984,1.11c-.057.095-.112.192-.165.289" fill="#0a7d7b"/><path d="m19.301,36.172l-1.984-1.11c.059-.1.121-.198.184-.295l1.984,1.11c-.063.097-.124.195-.184.295" fill="#0a7d7b"/><path d="m19.485,35.877l-1.984-1.11c.068-.104.138-.206.209-.307l1.984,1.11c-.072.1-.142.203-.209.307" fill="#0a7d7b"/><path d="m19.694,35.57l-1.984-1.11c.08-.112.163-.222.248-.329l1.984,1.11c-.085.107-.168.217-.248.329" fill="#0a7d7b"/><path d="m19.942,35.242l-1.984-1.11c.103-.13.21-.255.319-.376l1.984,1.11c-.109.121-.216.246-.319.376" fill="#0a7d7b"/><path d="m20.261,34.866l-1.984-1.11c.196-.216.402-.417.615-.598l1.984,1.11c-.213.181-.418.382-.615.598" fill="#0a7d7b"/><path d="m20.876,34.267l-1.984-1.11c.171-.146.347-.279.527-.398l1.984,1.11c-.18.119-.356.252-.527.398" fill="#0a7d7b"/><path d="m21.403,33.87l-1.984-1.11c.043-.028.086-.056.13-.083l1.984,1.11c-.043.027-.087.054-.13.083" fill="#0a7d7b"/></g></g></g></g><g isolation="isolate"><polygon points="77.826 29.217 76.271 27.893 76.261 26.002 77.817 27.326 77.826 29.217" fill="#828282"/><polygon points="68.838 37.016 67.282 35.692 67.272 33.801 68.828 35.125 68.838 37.016" fill="#828282"/><polygon points="77.805 25.109 76.25 23.784 76.24 21.894 77.796 23.218 77.805 25.109" fill="#828282"/><polygon points="77.785 21 76.229 19.676 76.219 17.785 77.775 19.11 77.785 21" fill="#828282"/><polygon points="56.487 42.076 54.931 40.751 67.282 35.692 68.838 37.016 56.487 42.076" fill="#dcdcdc"/><polygon points="56.487 42.076 54.931 40.751 54.921 38.861 56.477 40.185 56.487 42.076" fill="#085e5c"/><polygon points="68.828 35.125 68.838 37.016 56.487 42.076 56.477 40.185 68.828 35.125" fill="#9aefe7"/><polygon points="56.477 40.185 54.921 38.861 67.272 33.801 68.828 35.125 56.477 40.185" fill="#0da09d"/><polygon points="56.466 37.967 54.91 36.643 76.271 27.893 77.826 29.217 56.466 37.967" fill="#dcdcdc"/><polygon points="56.456 36.077 54.9 34.752 76.261 26.002 77.817 27.326 56.456 36.077" fill="#0da09d"/><polygon points="56.466 37.967 54.91 36.643 54.9 34.752 56.456 36.077 56.466 37.967" fill="#085e5c"/><polygon points="56.445 33.859 54.889 32.535 76.25 23.784 77.805 25.109 56.445 33.859" fill="#dcdcdc"/><polygon points="56.435 31.968 54.879 30.644 76.24 21.894 77.796 23.218 56.435 31.968" fill="#0da09d"/><polygon points="77.796 23.218 77.805 25.109 56.445 33.859 56.435 31.968 77.796 23.218" fill="#9aefe7"/><polygon points="56.445 33.859 54.889 32.535 54.879 30.644 56.435 31.968 56.445 33.859" fill="#085e5c"/><polygon points="56.424 29.751 54.868 28.426 76.229 19.676 77.785 21 56.424 29.751" fill="#dcdcdc"/><polygon points="56.424 29.751 54.868 28.426 54.859 26.536 56.414 27.86 56.424 29.751" fill="#085e5c"/><polygon points="56.414 27.86 54.859 26.536 76.219 17.785 77.775 19.11 56.414 27.86" fill="#0da09d"/><path d="m49.311,22.383l32.067-13.136.285,55.91-32.067,13.136-.285-55.91Zm28.516,6.834l-.01-1.891-21.361,8.75.01,1.891,21.361-8.75m-.021-4.108l-.01-1.891-21.361,8.75.01,1.891,21.361-8.75m-.021-4.108l-.01-1.891-21.361,8.75.01,1.891,21.361-8.75m-8.947,16.016l-.01-1.891-12.351,5.06.01,1.891,12.351-5.06" fill="url(#Unbenannter_Verlauf_2)"/><polygon points="77.817 27.326 77.826 29.217 56.466 37.967 56.456 36.077 77.817 27.326" fill="#9aefe7"/><polygon points="77.775 19.11 77.785 21 56.424 29.751 56.414 27.86 77.775 19.11" fill="#9aefe7"/><polygon points="49.595 78.293 48.039 76.969 47.755 21.059 49.311 22.383 49.595 78.293" fill="#828282"/><polygon points="49.311 22.383 47.755 21.059 79.822 7.923 81.378 9.247 49.311 22.383" fill="#dcdcdc"/></g><g isolation="isolate"><polygon points="47.029 61.915 45.078 60.788 45.068 58.897 47.02 60.025 47.029 61.915" fill="#888"/><polygon points="47.008 57.807 45.057 56.679 45.047 54.789 46.999 55.916 47.008 57.807" fill="#888"/><polygon points="39.366 70.641 37.414 69.513 37.405 67.623 39.356 68.75 39.366 70.641" fill="#888"/><polygon points="46.987 53.699 45.036 52.571 45.026 50.68 46.978 51.808 46.987 53.699" fill="#888"/><polygon points="28.831 76.971 26.88 75.843 37.414 69.513 39.366 70.641 28.831 76.971" fill="#dcdcdc"/><polygon points="46.951 46.449 44.999 45.321 44.99 43.431 46.941 44.558 46.951 46.449" fill="#888"/><polygon points="39.356 68.75 39.366 70.641 28.831 76.971 28.822 75.08 39.356 68.75" fill="#fff"/><polygon points="28.831 76.971 26.88 75.843 26.87 73.953 28.822 75.08 28.831 76.971" fill="#086361"/><polygon points="28.822 75.08 26.87 73.953 37.405 67.623 39.356 68.75 28.822 75.08" fill="#0da09d"/><polygon points="28.811 72.862 26.859 71.735 45.078 60.788 47.029 61.915 28.811 72.862" fill="#dcdcdc"/><polygon points="46.93 42.333 44.978 41.206 44.969 39.315 46.92 40.443 46.93 42.333" fill="#888"/><polygon points="47.02 60.025 47.029 61.915 28.811 72.862 28.801 70.972 47.02 60.025" fill="#fff"/><polygon points="28.801 70.972 26.85 69.844 45.068 58.897 47.02 60.025 28.801 70.972" fill="#0da09d"/><polygon points="28.811 72.862 26.859 71.735 26.85 69.844 28.801 70.972 28.811 72.862" fill="#086361"/><polygon points="28.79 68.754 26.838 67.626 45.057 56.679 47.008 57.807 28.79 68.754" fill="#dcdcdc"/><polygon points="46.909 38.225 44.957 37.097 44.948 35.207 46.899 36.334 46.909 38.225" fill="#888"/><polygon points="28.79 68.754 26.838 67.626 26.829 65.736 28.78 66.863 28.79 68.754" fill="#086361"/><polygon points="28.78 66.863 26.829 65.736 45.047 54.789 46.999 55.916 28.78 66.863" fill="#0da09d"/><polygon points="46.999 55.916 47.008 57.807 28.79 68.754 28.78 66.863 46.999 55.916" fill="#fff"/><polygon points="28.769 64.645 26.817 63.518 45.036 52.571 46.987 53.699 28.769 64.645" fill="#dcdcdc"/><polygon points="46.888 34.116 44.936 32.989 44.927 31.098 46.878 32.226 46.888 34.116" fill="#888"/><polygon points="28.769 64.645 26.817 63.518 26.808 61.627 28.759 62.755 28.769 64.645" fill="#086361"/><polygon points="28.759 62.755 26.808 61.627 45.026 50.68 46.978 51.808 28.759 62.755" fill="#0da09d"/><polygon points="28.732 57.396 26.78 56.268 44.999 45.321 46.951 46.449 28.732 57.396" fill="#dcdcdc"/><polygon points="28.732 57.396 26.78 56.268 26.771 54.378 28.722 55.505 28.732 57.396" fill="#086361"/><polygon points="28.722 55.505 26.771 54.378 44.99 43.431 46.941 44.558 28.722 55.505" fill="#0da09d"/><polygon points="46.941 44.558 46.951 46.449 28.732 57.396 28.722 55.505 46.941 44.558" fill="#fff"/><polygon points="28.711 53.28 26.76 52.153 44.978 41.206 46.93 42.333 28.711 53.28" fill="#dcdcdc"/><polygon points="28.701 51.39 26.75 50.262 44.969 39.315 46.92 40.443 28.701 51.39" fill="#0da09d"/><polygon points="28.711 53.28 26.76 52.153 26.75 50.262 28.701 51.39 28.711 53.28" fill="#086361"/><polygon points="28.69 49.172 26.739 48.044 44.957 37.097 46.909 38.225 28.69 49.172" fill="#dcdcdc"/><polygon points="28.69 49.172 26.739 48.044 26.729 46.154 28.68 47.281 28.69 49.172" fill="#086361"/><polygon points="46.899 36.334 46.909 38.225 28.69 49.172 28.68 47.281 46.899 36.334" fill="#fff"/><polygon points="28.68 47.281 26.729 46.154 44.948 35.207 46.899 36.334 28.68 47.281" fill="#0da09d"/><polygon points="28.669 45.063 26.718 43.936 44.936 32.989 46.888 34.116 28.669 45.063" fill="#dcdcdc"/><polygon points="28.659 43.173 26.708 42.045 44.927 31.098 46.878 32.226 28.659 43.173" fill="#0da09d"/><polygon points="28.669 45.063 26.718 43.936 26.708 42.045 28.659 43.173 28.669 45.063" fill="#086361"/><polygon points="46.878 32.226 46.888 34.116 28.669 45.063 28.659 43.173 46.878 32.226" fill="#fff"/><polygon points="46.978 51.808 46.987 53.699 28.769 64.645 28.759 62.755 46.978 51.808" fill="#fff"/><polygon points="46.92 40.443 46.93 42.333 28.711 53.28 28.701 51.39 46.92 40.443" fill="#fff"/><polygon points="24.332 93.452 22.381 92.324 22.097 36.414 24.048 37.541 24.332 93.452" fill="#888"/><polygon points="24.048 37.541 22.097 36.414 47.755 21.059 51.398 21.108 24.048 37.541" fill="#dcdcdc"/></g><path d="m51.683,76.971h0l-.284-55.863-27.35,16.434.284,55.91.155-.093c2.317-.687,27.819-7.506,27.195-16.388Z" fill="url(#Unbenannter_Verlauf_2-2)"/><g><path d="m48.612,38.08v-2.492l-.041-.037c-2.327,2.56-12.855,5.874-18.427,7.419v2.075c3.744-1.016,14.015-3.976,18.468-6.964Z" fill="#9aefe7"/><path d="m30.144,48.806v2.075c3.744-1.016,14.015-3.976,18.468-6.964v-2.492l-.041-.037c-2.327,2.56-12.855,5.874-18.427,7.419Z" fill="#9aefe7"/><path d="m30.144,54.643v2.074c3.744-1.017,14.016-3.977,18.468-6.965v-2.492l-.04-.037c-2.328,2.559-12.856,5.874-18.428,7.419Z" fill="#9aefe7"/><path d="m30.144,60.479v2.075c3.744-1.016,14.015-3.976,18.468-6.964v-2.492l-.041-.037c-2.327,2.56-12.855,5.874-18.427,7.419Z" fill="#9aefe7"/><path d="m30.144,66.316v2.075c3.744-1.016,14.015-3.976,18.468-6.964v-2.492l-.041-.037c-2.327,2.56-12.855,5.874-18.427,7.419Z" fill="#9aefe7"/><path d="m30.144,72.153v2.074c3.744-1.017,14.016-3.977,18.468-6.965v-2.492l-.04-.037c-2.328,2.559-12.856,5.874-18.428,7.419Z" fill="#9aefe7"/><path d="m48.571,70.57c-2.327,2.56-12.855,5.874-18.427,7.419v2.075c3.744-1.016,14.015-3.976,18.468-6.964v-2.492l-.041-.037Z" fill="#9aefe7"/></g><path d="m42.689,20.776s.665-.817,1.953-1.808c.754-.58,1.94-.117,3.113-.687,1.6-.777,3.364-2.528,5.707-2.718l-1.779-1.204s-12.59-.18-13.146,6.64l4.152-.224Z" fill="#0a7d7b"/><path d="m40.872,21.894s.198-5.116,11.113-5.763v2.017l-3.793,2.14-7.32,1.606Z" fill="#0fb9b6"/><path d="m24.048,37.541s27.337-4.462,27.35-16.434l-27.35,16.434Z" fill="#dcdcdc"/><path d="m43.174,23.501l5.017-3.213,4.696-1.836s-.443,4.701-9.713,5.05Z" fill="#0fb9b6"/></svg>