<svg width="375" height="129" viewBox="0 0 375 129" fill="none" xmlns="http://www.w3.org/2000/svg">
<path d="M163.004 105.157C81.9377 105.157 16.1508 91.8462 16.1508 75.4725C16.1508 63.5112 55.1707 53.4462 106.626 48.4867C49.263 52.024 3.27783 64.5323 3.27783 78.2804C3.27783 95.7482 69.2835 111.611 150.751 111.611C206.947 111.611 251.219 103.115 276.126 93.232C249.395 100.489 211.178 105.157 163.004 105.157Z" fill="#F9BA08"/>
<path d="M84.2715 31.1648H103.453L93.9353 76.603H82.1929L90.398 39.3699H90.2521L72.6385 76.603H61.2972L59.6197 39.3699H59.5103L51.7063 76.603H40.7661L50.5393 31.1648H69.3564L70.0493 61.6879H70.1952L84.2715 31.1648Z" fill="#004C98"/>
<path d="M140.249 31.1648H125.188L98.4937 76.6394H111.476L116.8 66.9392H134.232L135.471 76.6394H147.579L140.249 31.1648ZM121.504 58.2964L131.022 40.5004H131.168L133.101 58.2964H121.504Z" fill="#004C98"/>
<path d="M161.983 31.1648H174.09L164.755 76.603H152.647L161.983 31.1648Z" fill="#004C98"/>
<path d="M213.657 31.1648H224.962L215.444 76.603H200.529L191.121 45.1682H191.011L184.775 76.603H173.434L183.025 31.1648H198.013L207.203 62.6725H207.349L213.657 31.1648Z" fill="#004C98"/>
<path d="M269.051 41.8496C265.112 40.0992 261.283 39.3699 256.068 39.3699C244.034 39.3699 239.22 47.9761 239.22 56.5459C239.22 64.6052 244.289 68.3978 250.416 68.3978C252.02 68.3978 253.625 68.106 255.193 67.632L257.199 58.661H250.015L251.765 50.0548H270.619L265.295 75.3995C260.773 76.7853 253.516 77.4052 249.65 77.4052C235.173 77.4052 226.895 68.726 226.895 56.2542C226.895 41.1568 235.829 30.3989 256.688 30.3989C262.158 30.3989 266.79 31.3106 271.676 32.6234L269.051 41.8496Z" fill="#004C98"/>
<path d="M365.981 52.3158C363.027 66.7933 359.527 77.4052 343.226 77.4052C333.124 77.4052 325.211 73.7585 325.211 63.0736C325.211 60.1927 325.539 57.3118 326.159 54.4673L331.228 31.1648H343.372L338.011 56.8742C337.573 59.0257 337.172 60.7762 337.172 61.7972C337.172 65.5169 339.287 68.3613 343.554 68.3613C351.285 68.3613 352.488 58.9893 354.057 51.6958L358.506 31.1283H370.43L365.981 52.3158Z" fill="#004C98"/>
<path d="M179.633 13.4052C179.67 15.885 178.722 18.2918 176.971 20.0787C175.221 21.8656 172.851 22.8502 170.334 22.8502C167.855 22.8502 165.448 21.8291 163.697 20.0787C161.947 18.2918 160.999 15.885 161.035 13.4052C160.999 10.9254 161.947 8.51861 163.697 6.73171C165.448 4.94482 167.818 3.96021 170.334 3.96021C172.814 3.96021 175.221 4.98129 176.971 6.73171C178.722 8.48214 179.67 10.889 179.633 13.4052Z" fill="#F9BA0A"/>
<path d="M154.58 120.728C94.2635 120.728 45.3245 112.45 45.3245 102.276C45.3245 96.2588 65.0168 90.9346 91.2002 87.5796C59.9478 91.0075 36.3535 97.134 36.3535 104.136C36.3535 114.894 85.2561 124.703 145.609 124.703C187 124.703 213.73 121.531 241.518 114.638C221.352 118.431 190.063 120.728 154.58 120.728Z" fill="#014C98"/>
<path d="M293.484 90.971H297.787L297.386 92.9403H293.046L292.317 96.4411H297.204L296.802 98.4103H289.436L292.025 85.9021H299.319L298.918 87.8713H294.104L293.484 90.971Z" fill="#868789"/>
<path d="M301.653 90.497C301.762 89.9499 301.835 89.4394 301.871 89.1841H304.169L304.023 90.0958H304.059C304.752 89.4029 305.664 89.0018 306.649 88.9653C308.435 88.9653 309.639 90.0958 309.639 91.9192C309.602 92.6121 309.493 93.2685 309.347 93.9249L308.399 98.4103H306.029L306.904 94.0707C307.05 93.4508 307.159 92.7944 307.159 92.138C307.196 91.4086 306.612 90.8252 305.883 90.8616C304.242 90.8616 303.622 92.4297 303.33 93.8155L302.345 98.4468H299.975L301.653 90.497Z" fill="#868789"/>
<path d="M324.007 90.4241C324.08 90.0229 324.153 89.6218 324.226 89.1842H326.487L326.159 90.9346H326.195C326.633 89.95 327.8 89.0018 328.894 89.0018C329.186 89.0018 329.514 89.0383 329.806 89.0748L329.295 91.4087C329.003 91.2993 328.712 91.2628 328.383 91.2628C326.706 91.2628 325.904 92.7944 325.575 94.2896L324.737 98.4104H322.366L324.007 90.4241Z" fill="#868789"/>
<path d="M338.156 89.2206L337.901 90.5699C337.318 89.5853 336.26 89.0018 335.13 89.0018C332.176 89.0018 330.498 91.7733 330.498 94.5448C330.498 96.5505 331.446 98.4468 333.671 98.4468C334.947 98.4833 336.114 97.7904 336.734 96.6964H336.771C336.187 98.7751 335.822 100.562 333.306 100.562C332.322 100.525 331.337 100.27 330.425 99.8326L329.842 101.765C331.009 102.203 332.249 102.422 333.489 102.385C336.807 102.385 338.12 100.416 338.703 97.4258L340.162 90.497C340.271 89.9135 340.381 89.4394 340.454 89.2206H338.156ZM337.172 92.7944C337.172 94.5449 336.406 96.587 334.51 96.587C333.452 96.587 332.978 95.6389 332.978 94.5448C332.978 93.1591 333.744 90.8981 335.421 90.8981C336.552 90.8252 337.172 91.7004 337.172 92.7944Z" fill="#868789"/>
<path d="M343.773 89.1841H346.143L344.21 98.4103H341.84L343.773 89.1841Z" fill="#868789"/>
<path d="M344.647 85.2092H347.018L346.507 87.4702H344.137L344.647 85.2092Z" fill="#868789"/>
<path d="M356.755 92.4662C356.755 90.1323 355.26 88.9653 353.035 88.9653C350.045 88.9653 347.857 91.7368 347.857 94.5813C347.857 97.3163 349.607 98.6292 352.233 98.6292C353.218 98.5927 354.202 98.4103 355.114 98.1186L355.406 96.2223C354.53 96.6599 353.582 96.8787 352.598 96.8787C350.957 96.8787 350.081 96.2588 350.081 94.5448H356.5C356.646 93.8519 356.719 93.1591 356.755 92.4662ZM354.421 92.9038H350.41C350.884 91.6274 351.504 90.7522 352.962 90.7522C353.947 90.7522 354.494 91.2992 354.494 92.2839C354.494 92.4662 354.458 92.685 354.421 92.9038Z" fill="#868789"/>
<path d="M311.827 31.1648H296.766L270.072 76.603H283.055L288.415 66.9027H305.847L307.086 76.603H319.157L311.827 31.1648ZM293.12 58.2964L302.637 40.5004H302.783L304.716 58.2964H293.12Z" fill="#004C98"/>
<path d="M320.761 92.4662C320.761 90.1323 319.266 88.9653 317.042 88.9653C314.051 88.9653 311.863 91.7368 311.863 94.5813C311.863 97.3163 313.614 98.6292 316.239 98.6292C317.224 98.5927 318.209 98.4103 319.157 98.1186L319.448 96.2223C318.573 96.6599 317.625 96.8787 316.641 96.8787C314.999 96.8787 314.124 96.2588 314.124 94.5448H320.542C320.688 93.8519 320.761 93.1591 320.761 92.4662ZM318.464 92.9038H314.452C314.927 91.6274 315.546 90.7522 317.005 90.7522C317.99 90.7522 318.537 91.2992 318.537 92.2839C318.537 92.4662 318.5 92.685 318.464 92.9038Z" fill="#868789"/>
</svg>
