<svg width="64" height="64" viewBox="0 0 64 64" fill="none" xmlns="http://www.w3.org/2000/svg">
<g clip-path="url(#clip0_433_14517)">
<path d="M33.7625 0.210938H5.52717C2.92818 0.210938 0.821289 2.31783 0.821289 4.91682V59.5051C0.821289 62.104 2.92818 64.2109 5.52717 64.2109H33.7625C36.3615 64.2109 38.4683 62.104 38.4683 59.5051V4.91682C38.4683 2.31783 36.3615 0.210938 33.7625 0.210938Z" fill="url(#paint0_linear_433_14517)"/>
<path d="M25.2916 58.5638C25.2916 59.3126 24.9942 60.0308 24.4647 60.5603C23.9351 61.0898 23.217 61.3873 22.4681 61.3873H18.7034C17.9546 61.3873 17.2364 61.0898 16.7069 60.5603C16.1774 60.0308 15.8799 59.3126 15.8799 58.5638C15.8799 57.8149 16.1774 57.0967 16.7069 56.5672C17.2364 56.0377 17.9546 55.7402 18.7034 55.7402H22.4681C23.217 55.7402 23.9351 56.0377 24.4647 56.5672C24.9942 57.0967 25.2916 57.8149 25.2916 58.5638Z" fill="#1E64EF"/>
<path d="M18.7034 7.74023C17.4554 7.74023 16.2584 8.23603 15.3759 9.11856C14.4934 10.0011 13.9976 11.198 13.9976 12.4461V33.152C13.9976 34.4001 14.4934 35.597 15.3759 36.4796C16.2584 37.3621 17.4554 37.8579 18.7034 37.8579H38.4352V7.74023H18.7034Z" fill="url(#paint1_linear_433_14517)"/>
<path d="M51.14 36.48L61.4929 26.1271C62.3755 25.2445 62.8712 24.0476 62.8712 22.7995C62.8712 21.5515 62.3755 20.3545 61.4929 19.472L51.14 9.11906C50.2577 8.23647 49.0609 7.7405 47.8129 7.74023H38.4351V37.8579H47.8129C49.0608 37.8579 50.2575 37.3622 51.14 36.48V36.48Z" fill="url(#paint2_linear_433_14517)"/>
</g>
<defs>
<linearGradient id="paint0_linear_433_14517" x1="19.6448" y1="6.99494" x2="19.6448" y2="62.8905" gradientUnits="userSpaceOnUse">
<stop offset="0.001" stop-color="#11BCB9"/>
<stop offset="1" stop-color="#1EF8F8"/>
</linearGradient>
<linearGradient id="paint1_linear_433_14517" x1="13.9976" y1="22.8" x2="46.4682" y2="22.8" gradientUnits="userSpaceOnUse">
<stop stop-color="#248AE7" stop-opacity="0"/>
<stop offset="0.999" stop-color="#2687E7"/>
</linearGradient>
<linearGradient id="paint2_linear_433_14517" x1="38.4351" y1="22.7991" x2="59.9466" y2="22.7991" gradientUnits="userSpaceOnUse">
<stop stop-color="#6C9BF2"/>
<stop offset="1" stop-color="#2504A9"/>
</linearGradient>
<clipPath id="clip0_433_14517">
<rect width="62.1176" height="64" fill="white" transform="translate(1)"/>
</clipPath>
</defs>
</svg>
