<svg width="64" height="64" viewBox="0 0 64 64" fill="none" xmlns="http://www.w3.org/2000/svg">
<g clip-path="url(#clip0_433_14842)">
<path d="M24.873 4.42095C24.973 4.38195 25.079 4.33796 25.185 4.30396C25.079 4.33796 24.977 4.38195 24.873 4.42095Z" fill="#2400A7"/>
<path d="M24.0698 4.80008C24.1698 4.74208 24.2698 4.68308 24.3788 4.63208C24.2728 4.68208 24.1718 4.74008 24.0698 4.80008Z" fill="#2400A7"/>
<path d="M23.3442 5.28209C23.4382 5.20809 23.5352 5.13709 23.6332 5.06909C23.5342 5.13709 23.4392 5.20809 23.3442 5.28209Z" fill="#2400A7"/>
<path d="M22.7002 5.86397C22.7822 5.77797 22.8682 5.69697 22.9542 5.61597C22.8712 5.69997 22.7852 5.77797 22.7002 5.86397Z" fill="#2400A7"/>
<path d="M21.7051 7.29402C21.7481 7.20602 21.8051 7.12602 21.8491 7.04102C21.8001 7.12602 21.7481 7.20602 21.7051 7.29402Z" fill="#2400A7"/>
<path d="M22.1528 6.53804C22.2178 6.44404 22.2908 6.35804 22.3608 6.26904C22.2908 6.35804 22.2178 6.44404 22.1528 6.53804Z" fill="#2400A7"/>
<path d="M25.7739 4.15907C25.8629 4.14107 25.9489 4.11507 26.0389 4.10107C25.9489 4.11507 25.8629 4.14107 25.7739 4.15907Z" fill="#2400A7"/>
<path d="M46.0078 28.7091H36.2528C36.0644 28.709 35.8789 28.6631 35.7122 28.5753C35.5455 28.4875 35.4027 28.3604 35.2961 28.2051C35.1895 28.0497 35.1223 27.8708 35.1003 27.6837C35.0783 27.4966 35.1022 27.3069 35.1698 27.1311L31.0498 35.9181C30.5601 36.9635 29.7827 37.8479 28.8087 38.4677C27.8347 39.0875 26.7043 39.4172 25.5498 39.4181H24.0888C24.2637 39.4181 24.4363 39.4574 24.5939 39.5331C24.7515 39.6087 24.8901 39.7188 24.9994 39.8552C25.1087 39.9916 25.186 40.1509 25.2256 40.3212C25.2651 40.4915 25.2659 40.6685 25.2278 40.8391L21.9208 55.6231C21.7491 56.3863 21.838 57.185 22.1733 57.8918C22.5086 58.5986 23.0711 59.1726 23.7708 59.5223C24.4706 59.872 25.2673 59.9772 26.0339 59.8211C26.8004 59.665 27.4926 59.2566 27.9998 58.6611L48.6688 34.4841C49.1038 33.9756 49.3839 33.353 49.4759 32.6902C49.5678 32.0274 49.4679 31.3521 49.1878 30.7444C48.9078 30.1366 48.4594 29.6219 47.8958 29.2612C47.3322 28.9005 46.677 28.7089 46.0078 28.7091V28.7091Z" fill="url(#paint0_linear_433_14842)"/>
<path d="M21.8491 7.04102C21.9491 6.86902 22.0421 6.69802 22.1491 6.54102C22.0421 6.70002 21.9451 6.86902 21.8491 7.04102Z" fill="#68FCFC"/>
<path d="M22.3608 6.2689C22.4698 6.1299 22.5818 5.9929 22.7028 5.8689C22.5818 5.9929 22.4698 6.1299 22.3608 6.2689Z" fill="#68FCFC"/>
<path d="M43.6609 9.01508L35.1999 27.0471C35.1869 27.0751 35.1839 27.1031 35.1729 27.1311L43.6679 9.01408C43.918 8.48074 44.0294 7.8929 43.9919 7.30503C43.9543 6.71716 43.769 6.14828 43.4531 5.65108C43.1372 5.15389 42.7009 4.74447 42.1847 4.46076C41.6684 4.17705 41.0889 4.02822 40.4999 4.02808V4.02808C41.0885 4.02932 41.6672 4.17899 42.1827 4.46325C42.6981 4.7475 43.1335 5.15715 43.4486 5.6543C43.7637 6.15145 43.9484 6.72005 43.9855 7.30749C44.0226 7.89493 43.9109 8.48223 43.6609 9.01508V9.01508Z" fill="#68FCFC"/>
<path d="M21.3711 8.12395C21.4609 7.83909 21.5726 7.5616 21.7051 7.29395C21.5726 7.5616 21.4609 7.83909 21.3711 8.12395V8.12395Z" fill="#68FCFC"/>
<path d="M23.6328 5.0691C23.7735 4.97243 23.9191 4.8821 24.0698 4.7981C23.9198 4.8821 23.7738 4.9711 23.6328 5.0691Z" fill="#68FCFC"/>
<path d="M25.1851 4.30003C25.3771 4.24003 25.5751 4.20003 25.7741 4.15503C25.5753 4.19309 25.3787 4.24149 25.1851 4.30003V4.30003Z" fill="#68FCFC"/>
<path d="M22.957 5.61598C23.082 5.49898 23.21 5.38698 23.344 5.28198C23.21 5.38698 23.082 5.49998 22.957 5.61598Z" fill="#68FCFC"/>
<path d="M24.3789 4.6299C24.5389 4.5509 24.7049 4.4849 24.8729 4.4209C24.7049 4.4849 24.5389 4.5509 24.3789 4.6299Z" fill="#68FCFC"/>
<path d="M26.0861 4.09008L26.0391 4.10108C26.3367 4.05358 26.6376 4.02917 26.9391 4.02808C26.6536 4.02805 26.3685 4.04877 26.0861 4.09008Z" fill="#68FCFC"/>
<path d="M31.0501 35.9181L35.1701 27.1311C35.1811 27.1031 35.1841 27.0751 35.1971 27.0471L43.6611 9.01508C43.9115 8.4817 44.0231 7.89375 43.9857 7.30574C43.9482 6.71773 43.763 6.14869 43.447 5.65135C43.1311 5.15401 42.6947 4.74449 42.1784 4.46072C41.662 4.17696 41.0823 4.02815 40.4931 4.02808H26.9401C26.6387 4.02917 26.3378 4.05358 26.0401 4.10108C25.9501 4.11508 25.8641 4.14108 25.7751 4.15908C25.5751 4.20008 25.3751 4.24408 25.1861 4.30408C25.0801 4.33808 24.9781 4.38208 24.8741 4.42108C24.7061 4.48508 24.5401 4.55108 24.3801 4.63008C24.2741 4.68108 24.1731 4.74008 24.0711 4.79808C23.9211 4.88208 23.7755 4.97241 23.6341 5.06908C23.5341 5.13708 23.4341 5.20808 23.3451 5.28208C23.2111 5.38708 23.0831 5.49908 22.9581 5.61608C22.8721 5.69708 22.7861 5.77808 22.7041 5.86408C22.5831 5.99308 22.4711 6.13008 22.3621 6.26408C22.2921 6.35308 22.2191 6.43908 22.1541 6.53308C22.0431 6.69308 21.9461 6.86408 21.8541 7.03308C21.8071 7.11808 21.7541 7.19808 21.7101 7.28608C21.5776 7.55373 21.4659 7.83122 21.3761 8.11608L13.0291 34.8661C12.8656 35.3901 12.8275 35.9452 12.9181 36.4866C13.0087 37.028 13.2253 37.5405 13.5505 37.9827C13.8757 38.4249 14.3004 38.7844 14.7902 39.0322C15.28 39.28 15.8212 39.4091 16.3701 39.4091H25.5511C26.7045 39.4088 27.8339 39.0804 28.8077 38.4622C29.7814 37.8441 30.5591 36.9617 31.0501 35.9181V35.9181Z" fill="url(#paint1_linear_433_14842)"/>
<path d="M26.9399 4.02808C26.6541 4.028 26.3687 4.04872 26.0859 4.09008C26.3687 4.04872 26.6541 4.028 26.9399 4.02808V4.02808Z" fill="#68FCFC"/>
<path d="M26.9399 4.02808C26.6541 4.028 26.3687 4.04872 26.0859 4.09008C26.3687 4.04872 26.6541 4.028 26.9399 4.02808V4.02808Z" fill="url(#paint2_linear_433_14842)"/>
</g>
<defs>
<linearGradient id="paint0_linear_433_14842" x1="26.7438" y1="32.9991" x2="34.6858" y2="43.0591" gradientUnits="userSpaceOnUse">
<stop stop-color="#1BBAAE"/>
<stop offset="1" stop-color="#FFC612"/>
</linearGradient>
<linearGradient id="paint1_linear_433_14842" x1="21.6381" y1="20.3171" x2="36.9921" y2="23.4941" gradientUnits="userSpaceOnUse">
<stop stop-color="#FFE504"/>
<stop offset="1" stop-color="#FFCC10"/>
</linearGradient>
<linearGradient id="paint2_linear_433_14842" x1="46.3909" y1="10.2441" x2="23.8909" y2="3.24413" gradientUnits="userSpaceOnUse">
<stop stop-color="#2400A7"/>
<stop offset="1" stop-color="#2400A7" stop-opacity="0"/>
</linearGradient>
<clipPath id="clip0_433_14842">
<rect width="37" height="56" fill="white" transform="translate(13 4)"/>
</clipPath>
</defs>
</svg>
