<svg width="253" height="129" viewBox="0 0 253 129" fill="none" xmlns="http://www.w3.org/2000/svg">
<path d="M9.08255 6.36873C6.66143 6.36873 4.934 7.01481 3.94106 8.29339C2.48567 10.2112 3.16576 12.8364 3.19296 12.952C4.30831 16.4137 19.9436 43.0529 24.7179 51.1323L28.6624 58.1169C30.3218 25.4589 54.3698 6.32792 54.3698 6.32792L9.08255 6.36873ZM44.8962 64.3465C44.8962 97.7594 72.0522 124.943 105.438 124.943C133.662 124.943 159.655 111.089 189.728 80.0158C203.228 66.074 239.47 24.4524 246.591 16.2573C249.889 12.6528 249.325 10.1364 248.924 9.22511C248.339 7.87173 246.89 7.01481 245.149 7.00801L181.261 6.99441L178.595 10.7281C168.149 25.3637 140.395 64.2649 137.627 67.9646L134.729 71.9499C127.718 81.7773 120.468 91.9106 105.465 91.9106C90.6867 91.9106 78.3023 79.7302 77.8602 64.7546C77.6494 57.5796 80.5942 50.3706 85.9329 44.9707C91.2376 39.6116 98.365 36.6192 105.479 36.7552C110.736 36.8504 120.597 38.4282 127.636 47.8339L129.554 50.4046L148.896 22.2217L147.257 20.8819C137.11 12.6052 120.801 3.76398 105.438 3.76398C72.0522 3.76398 44.8962 30.9404 44.8962 64.3465Z" fill="#FFDD00"/>
<path d="M26.7919 49.1193L6.22589 12.9317C6.22589 12.9317 5.37577 11.7483 6.08987 10.3201C6.08987 10.3201 6.39591 9.09595 8.69462 9.17076H47.283C47.283 9.17076 31.1376 24.7313 26.7919 49.1193ZM62.6191 3.492L9.47673 3.43079C9.47673 3.43079 3.56673 3.12475 1.29523 7.18489C1.29523 7.18489 -1.47275 11.4899 2.02972 17.2094L31.0628 68.2027C31.0628 68.2027 27.0027 28.5874 62.6191 3.492ZM244.863 14.7475C239.191 21.2696 201.915 64.1357 188.089 78.4177C158.485 108.995 132.995 122.637 105.451 122.637C73.3305 122.637 47.2014 96.4877 47.2014 64.3466C47.2014 32.2055 73.3305 6.06274 105.451 6.06274C119.577 6.06274 135.511 14.217 145.964 22.7522L129.173 46.1201C121.304 36.1568 111.565 34.5654 105.533 34.4498C97.7798 34.3001 90.0472 37.551 84.3004 43.3522C78.5264 49.1941 75.3504 57.0152 75.5748 64.8294C76.0441 81.0224 89.4555 94.2094 105.478 94.2094C121.658 94.2094 129.588 83.1103 136.593 73.2966L139.476 69.3384C142.462 65.3395 174.576 20.3175 182.451 9.28638L245.142 9.29998C245.972 9.29998 246.835 9.83045 246.91 10.8098C246.971 11.6735 247.073 12.2856 244.843 14.7271L244.863 14.7475ZM179.5 3.58721C179.092 4.16529 138.211 61.497 134.906 65.9176L131.948 69.9845C125.147 79.5126 118.72 88.5034 105.478 88.5034C92.5091 88.5034 81.6548 77.7988 81.2672 64.6526C81.0903 58.4026 83.6747 52.1049 88.3605 47.3647C93.0192 42.6653 99.2284 40.0333 105.417 40.1557C111.096 40.2645 121.542 42.2368 127.629 54.2608L127.779 54.5193L128.765 56.5731L153.615 21.8273C142.666 11.4763 122.896 0.349976 105.451 0.349976C70.1817 0.349976 41.4954 29.0498 41.4954 64.3466C41.4954 99.6365 70.1817 128.35 105.451 128.35C143.312 128.35 173.086 102.112 192.183 82.3894C207.186 66.8833 249.495 18.1208 249.916 17.6311L249.889 17.6039C253.623 12.9657 252.677 9.28638 252.052 7.85818C250.93 5.27384 248.359 3.66202 245.305 3.60081V3.59401H245.135L179.574 3.58041" fill="#231F20"/>
</svg>
