<svg width="64" height="64" viewBox="0 0 64 64" fill="none" xmlns="http://www.w3.org/2000/svg">
<g clip-path="url(#clip0_433_14547)">
<path d="M32.0142 24.5691C34.1359 24.5691 36.1707 25.4119 37.671 26.9122C39.1713 28.4125 40.0142 30.4474 40.0142 32.5691V49.9531C40.0142 52.0748 39.1713 54.1097 37.671 55.6099C36.1707 57.1102 34.1359 57.9531 32.0142 57.9531C29.8924 57.9531 27.8576 57.1102 26.3573 55.6099C24.857 54.1097 24.0142 52.0748 24.0142 49.9531V32.5691C24.0142 30.4474 24.857 28.4125 26.3573 26.9122C27.8576 25.4119 29.8924 24.5691 32.0142 24.5691V24.5691Z" fill="#2248D1"/>
<path d="M56.0181 6.0119C57.0656 6.00491 58.1042 6.20511 59.0741 6.60098C60.0441 6.99685 60.9261 7.58057 61.6696 8.31858C62.4131 9.05659 63.0033 9.93431 63.4064 10.9013C63.8094 11.8682 64.0173 12.9053 64.0181 13.9529V49.9529C64.0181 52.0746 63.1752 54.1095 61.6749 55.6098C60.1746 57.11 58.1398 57.9529 56.0181 57.9529C53.8963 57.9529 51.8615 57.11 50.3612 55.6098C48.8609 54.1095 48.0181 52.0746 48.0181 49.9529V13.9529C48.1 11.8629 48.9709 9.88157 50.4553 8.40806C51.9398 6.93455 53.9275 6.07833 56.0181 6.0119V6.0119Z" fill="#2402A7"/>
<path d="M14.7998 45.3831C15.4348 46.2201 15.8987 47.1739 16.1651 48.1902C16.4315 49.2065 16.4951 50.2653 16.3523 51.3062C16.2095 52.347 15.863 53.3496 15.3328 54.2565C14.8025 55.1635 14.0988 55.9571 13.2618 56.5921C12.4247 57.2271 11.4708 57.691 10.4545 57.9573C9.43818 58.2236 8.37936 58.2871 7.3385 58.1442C6.29764 58.0013 5.29512 57.6548 4.38818 57.1244C3.48125 56.594 2.68767 55.8902 2.05275 55.0531V55.0531C0.770665 53.3627 0.212545 51.2323 0.501159 49.1304C0.789773 47.0285 1.90148 45.1274 3.59175 43.8451V43.8451C5.28202 42.5629 7.41239 42.0046 9.51426 42.2931C11.6161 42.5815 13.5174 43.693 14.7998 45.3831V45.3831Z" fill="#4166E9"/>
<path d="M62.5291 9.17403C63.8113 10.8643 64.3696 12.9947 64.0811 15.0965C63.7927 17.1984 62.6812 19.0996 60.9911 20.382L13.0571 56.743C12.2198 57.3776 11.2658 57.8411 10.2494 58.107C9.23306 58.3729 8.17427 58.4361 7.13351 58.2928C6.09275 58.1495 5.0904 57.8026 4.1837 57.272C3.27699 56.7413 2.48369 56.0373 1.84908 55.2V55.2C0.569397 53.5103 0.012609 51.3818 0.300973 49.2818C0.589337 47.1819 1.69928 45.2823 3.38707 44L51.3211 7.63503C53.0115 6.35294 55.1419 5.79482 57.2438 6.08343C59.3457 6.37205 61.2468 7.48376 62.5291 9.17403V9.17403Z" fill="#1FFCFC"/>
<path d="M58.693 6.4229C57.6014 6.05804 56.4438 5.93304 55.2995 6.05643C54.1551 6.17983 53.0508 6.54871 52.062 7.1379C53.0506 6.54834 54.1549 6.17924 55.2994 6.05584C56.4438 5.93244 57.6014 6.05764 58.693 6.4229V6.4229Z" fill="#2400A7"/>
<path d="M58.8599 6.48389C58.9799 6.52689 59.0979 6.57589 59.2159 6.62389C59.0999 6.57289 58.9789 6.52889 58.8599 6.48389Z" fill="#2400A7"/>
<path d="M51.3999 7.58298C51.5789 7.44998 51.7609 7.32498 51.9479 7.20898C51.7569 7.32698 51.5749 7.45198 51.3999 7.58298Z" fill="#2400A7"/>
<path d="M51.083 7.81491L51.164 7.75391C51.138 7.77491 51.11 7.79391 51.083 7.81491Z" fill="#2400A7"/>
<path d="M13.2569 56.5921L13.2589 56.5901L13.2539 56.5941L13.2569 56.5921Z" fill="#4166E9"/>
<path d="M64.0139 13.953V15.461C64.3518 13.6607 64.0589 11.799 63.1846 10.1893C62.3103 8.57973 60.908 7.32059 59.2139 6.62402C60.64 7.24646 61.8537 8.27131 62.7063 9.57306C63.5589 10.8748 64.0133 12.3969 64.0139 13.953Z" fill="#0FB9B6"/>
<path d="M51.3211 7.63501L51.1641 7.75401C51.2401 7.69401 51.3191 7.64001 51.3971 7.58301C51.3721 7.60001 51.3451 7.61601 51.3211 7.63501Z" fill="#0FB9B6"/>
<path d="M51.9448 7.20894L52.0618 7.13794L51.9448 7.20894Z" fill="#0FB9B6"/>
<path d="M58.6929 6.4231L58.8599 6.48409C58.7999 6.46409 58.7489 6.4421 58.6929 6.4231Z" fill="#0FB9B6"/>
<path d="M32.0142 24.5691C29.8924 24.5691 27.8576 25.4119 26.3573 26.9122C24.857 28.4125 24.0142 30.4474 24.0142 32.5691V48.4321L40.0142 36.2951V32.5691C40.0142 30.4474 39.1713 28.4125 37.671 26.9122C36.1707 25.4119 34.1359 24.5691 32.0142 24.5691Z" fill="#069BE5"/>
<path d="M64.0142 15.4609V13.9529C64.0136 12.3968 63.5592 10.8747 62.7066 9.57293C61.8541 8.27118 60.6404 7.24633 59.2142 6.6239C59.0962 6.5759 58.9782 6.5239 58.8582 6.4839L58.6912 6.4229C57.5996 6.05764 56.442 5.93244 55.2976 6.05584C54.1531 6.17924 53.0488 6.54834 52.0602 7.1379L51.9432 7.2089C51.7562 7.3249 51.5742 7.4499 51.3952 7.5829C51.3172 7.6399 51.2382 7.6939 51.1622 7.7539L51.0812 7.8149C50.144 8.54407 49.3819 9.47382 48.8508 10.5359C48.3197 11.5981 48.0332 12.7656 48.0122 13.9529V30.2259L60.9892 20.3819C62.5776 19.1777 63.657 17.4219 64.0142 15.4609V15.4609Z" fill="#0273CD"/>
<path d="M14.8001 45.3829C13.8438 44.1225 12.5353 43.1739 11.0401 42.6571C9.54475 42.1403 7.9298 42.0785 6.39936 42.4794C4.86892 42.8804 3.49172 43.7261 2.44189 44.9097C1.39205 46.0932 0.716723 47.5615 0.501284 49.1289C0.285845 50.6962 0.539969 52.2923 1.23153 53.7152C1.92308 55.1381 3.02102 56.3241 4.38652 57.1231C5.75203 57.9221 7.32378 58.2983 8.90306 58.2041C10.4823 58.1099 11.9982 57.5495 13.2591 56.5939V56.5939C14.0966 55.9591 14.8008 55.1655 15.3316 54.2585C15.8623 53.3515 16.2091 52.3488 16.3522 51.3077C16.4953 50.2665 16.4319 49.2074 16.1656 48.1909C15.8993 47.1743 15.4353 46.2201 14.8001 45.3829Z" fill="#06ABF2"/>
</g>
<defs>
<clipPath id="clip0_433_14547">
<rect width="64" height="52" fill="white" transform="translate(0 6)"/>
</clipPath>
</defs>
</svg>
