<svg width="64" height="64" viewBox="0 0 64 64" fill="none" xmlns="http://www.w3.org/2000/svg">
<g clip-path="url(#clip0_433_14589)">
<path d="M35.9787 5.65243C35.8165 5.47709 35.6543 5.39556 35.4921 5.2246C34.5263 4.55551 33.3793 4.19702 32.2044 4.19702C31.0295 4.19702 29.8825 4.55551 28.9167 5.2246C28.7341 5.34207 28.5701 5.48629 28.4302 5.65243C25.6808 7.95731 21.8732 12.7538 18.085 22.6089H46.3852C42.6233 12.767 38.7947 7.96082 35.9787 5.65243Z" fill="url(#paint0_linear_433_14589)"/>
<path d="M14.7225 32.8518C14.3166 34.4772 13.83 35.9308 13.3425 37.2993C10.3451 45.6816 6.93378 51.0707 3.76972 54.4917C1.74189 56.63 3.12096 60.3937 6.04216 60.3937H58.2942V60.306C61.2154 60.306 62.5945 56.6282 60.5667 54.404C57.4017 50.9848 53.9913 45.6798 51.0736 37.2125C50.587 35.844 50.1005 34.3045 49.6945 32.765C49.563 32.2924 49.4315 31.8313 49.3 31.3745H15.1468C15.0048 31.8596 14.8633 32.352 14.7225 32.8518Z" fill="#0FB9B6"/>
<path d="M4.54909 22.6091C3.3865 22.6091 2.27152 23.071 1.44944 23.893C0.627366 24.7151 0.165527 25.8301 0.165527 26.9927C0.165527 28.1553 0.627366 29.2703 1.44944 30.0923C2.27152 30.9144 3.3865 31.3763 4.54909 31.3763H15.1468C16.1112 28.0789 17.0984 25.1744 18.0855 22.6091H4.54909Z" fill="#0FB9B6"/>
<path d="M64.166 26.9927C64.166 25.8301 63.7041 24.7151 62.882 23.893C62.06 23.071 60.945 22.6091 59.7824 22.6091H46.3862C47.3664 25.1753 48.3431 28.0807 49.296 31.3763H59.7824C60.945 31.3763 62.06 30.9144 62.882 30.0923C63.7041 29.2703 64.166 28.1553 64.166 26.9927V26.9927Z" fill="#0FB9B6"/>
<path d="M18.0857 22.6091C17.0985 25.1744 16.1122 28.0789 15.147 31.3763H49.2958C48.3428 28.0807 47.367 25.1753 46.386 22.6091H18.0857Z" fill="#00D9D5"/>
<path d="M60.5626 54.4057C57.3977 50.9865 53.9872 45.6815 51.0695 37.2142C50.583 35.8457 50.0964 34.3062 49.6905 32.7667C49.559 32.2941 49.4275 31.833 49.296 31.3762H15.1471C15.0051 31.8602 14.8637 32.352 14.7228 32.8517C14.3169 34.4772 13.8303 35.9307 13.3429 37.2993C10.3454 45.6815 6.9341 51.0707 3.77004 54.4916C3.35418 54.9307 3.05807 55.4692 2.91008 56.0555C2.7621 56.6418 2.76719 57.2564 2.92489 57.8402C3.08259 58.424 3.3876 58.9575 3.81069 59.3895C4.23377 59.8216 4.76075 60.1378 5.34111 60.3077H58.2945C61.2114 60.3077 62.5904 56.6299 60.5626 54.4057Z" fill="#2400A7"/>
</g>
<defs>
<linearGradient id="paint0_linear_433_14589" x1="32.236" y1="21.1545" x2="32.236" y2="3.67106" gradientUnits="userSpaceOnUse">
<stop stop-color="#1EEFF7"/>
<stop offset="0.938" stop-color="#206ECB"/>
</linearGradient>
<clipPath id="clip0_433_14589">
<rect width="64" height="56.1096" fill="white" transform="translate(0 4)"/>
</clipPath>
</defs>
</svg>
