<svg width="100" height="100" viewBox="0 0 100 100" fill="none" xmlns="http://www.w3.org/2000/svg">
<path d="M98.02 66.277L50.153 94.095L1.972 66.278L49.839 38.46L98.02 66.277Z" fill="#FFE895"/>
<path d="M98.02 55.025L50.153 82.843L1.972 55.026L49.839 27.208L98.02 55.025Z" fill="#FFDD5E"/>
<path d="M98.02 40.7729L50.153 68.5909L1.972 40.7739L49.839 12.9559L98.02 40.7729Z" fill="#FFD100"/>
<path d="M1.972 40.774V42.641L50.153 70.458V68.5911L1.972 40.774Z" fill="#E0A705"/>
<path d="M98.02 40.7729V42.6399L50.153 70.458V68.591L98.02 40.7729Z" fill="#FFE59C"/>
<path opacity="0.7" d="M1.972 55.026V56.893L50.153 84.71V82.843L1.972 55.026Z" fill="#E0A705"/>
<path opacity="0.7" d="M98.02 55.025V56.892L50.153 84.71V82.843L98.02 55.025Z" fill="#FFE59C"/>
<path opacity="0.5" d="M1.972 66.278V68.145L50.153 95.962V94.095L1.972 66.278Z" fill="#E0A705"/>
<path opacity="0.5" d="M98.02 66.277V68.144L50.153 95.962V94.095L98.02 66.277Z" fill="#FFE59C"/>
<path d="M81.443 22.261L78.618 20.619L78.588 9.93298L81.413 11.575L81.443 22.261Z" fill="#F7D172"/>
<path d="M81.413 11.575L78.588 9.93299L80.61 8.76599L83.435 10.408L81.413 11.575Z" fill="#FFE895"/>
<path d="M81.66 26.221L78.834 24.579L71.637 18.031L74.463 19.673L81.66 26.221Z" fill="#E0A705"/>
<path d="M83.435 10.408L83.477 25.172L81.66 26.221L74.463 19.673L74.484 30.364L72.462 31.531L72.421 16.767L74.238 15.718L81.443 22.261L81.413 11.575L83.435 10.408Z" fill="#C5990E"/>
<path d="M72.462 31.531L69.637 29.889L69.595 15.125L72.421 16.767L72.462 31.531Z" fill="#F7D172"/>
<path d="M72.421 16.767L69.595 15.125L71.412 14.076L74.238 15.7181L72.421 16.767Z" fill="#FFE895"/>
<path d="M68.713 27.1749C68.7531 26.8705 68.7731 26.5639 68.773 26.2569C68.8309 25.6825 68.7354 25.1031 68.4964 24.5776C68.2573 24.0522 67.8831 23.5996 67.412 23.2659L64.587 21.6239C65.0578 21.9578 65.4316 22.4105 65.6705 22.9359C65.9094 23.4613 66.0048 24.0406 65.947 24.6149C65.9452 24.9742 65.9164 25.3329 65.861 25.6879C65.853 25.7429 65.842 25.7989 65.832 25.8549C65.7736 26.1996 65.6948 26.5405 65.596 26.8759C65.587 26.9079 65.577 26.9389 65.567 26.9709C65.4524 27.3449 65.3169 27.7121 65.161 28.0709L65.152 28.0889C64.9879 28.4626 64.8036 28.8272 64.6 29.1809L64.583 29.2129C64.3831 29.5575 64.1651 29.8913 63.93 30.2129C63.909 30.2429 63.887 30.2719 63.866 30.2999C63.6524 30.5855 63.4241 30.8599 63.182 31.1219C63.131 31.1779 63.082 31.2329 63.028 31.2869C62.839 31.4869 62.64 31.6629 62.439 31.8379C62.348 31.9169 62.26 32.0019 62.167 32.0759C61.8892 32.3008 61.5951 32.5047 61.287 32.6859C61.013 32.8448 60.7251 32.9787 60.427 33.0859L60.264 33.1429C60.0152 33.2248 59.7584 33.2804 59.498 33.3089L59.431 33.3159C59.1801 33.3379 58.9274 33.3251 58.68 33.2779L58.642 33.2689C58.4057 33.2203 58.1785 33.1346 57.969 33.0149L60.794 34.6569L60.82 34.6709C60.8958 34.7136 60.9739 34.752 61.054 34.7859C61.1347 34.8192 61.2172 34.8483 61.301 34.8729C61.355 34.8889 61.412 34.8989 61.468 34.9109L61.505 34.9199C61.525 34.9199 61.543 34.9299 61.563 34.9329C61.656 34.9491 61.7498 34.9601 61.844 34.9659C61.9447 34.9719 62.0477 34.9719 62.153 34.9659C62.187 34.9659 62.222 34.9579 62.253 34.9549L62.321 34.9479C62.38 34.9429 62.438 34.9399 62.498 34.9309C62.6362 34.9092 62.7731 34.8798 62.908 34.8429C62.966 34.8269 63.027 34.7999 63.086 34.7819L63.25 34.7249C63.319 34.6999 63.386 34.6829 63.457 34.6539C63.6813 34.5595 63.8994 34.451 64.11 34.3289C64.4178 34.1473 64.7119 33.9434 64.99 33.7189C65.083 33.6449 65.17 33.5599 65.261 33.4809C65.399 33.3599 65.542 33.2479 65.675 33.1169C65.735 33.0579 65.791 32.9909 65.851 32.9299C65.911 32.8689 65.951 32.8209 66.005 32.7649C66.059 32.7089 66.127 32.6399 66.186 32.5729C66.315 32.4229 66.442 32.2729 66.565 32.1109C66.607 32.0559 66.647 31.9989 66.688 31.9429C66.71 31.9139 66.731 31.8859 66.752 31.8559C66.793 31.8009 66.835 31.7469 66.875 31.6899C66.968 31.5579 67.058 31.4229 67.145 31.2899C67.232 31.1569 67.309 31.0279 67.386 30.8949L67.405 30.8619L67.423 30.8299C67.485 30.7209 67.547 30.6119 67.605 30.5019C67.675 30.3709 67.742 30.2389 67.805 30.1019C67.868 29.9649 67.92 29.8579 67.974 29.7349L67.982 29.7169L68 29.6999C68.06 29.5609 68.117 29.4209 68.171 29.2809C68.225 29.1409 68.28 28.9879 68.329 28.8399C68.354 28.7659 68.375 28.6909 68.398 28.6159L68.427 28.5209C68.442 28.4689 68.46 28.4159 68.475 28.3639C68.5243 28.1846 68.568 28.0056 68.606 27.8269C68.63 27.7169 68.644 27.6089 68.663 27.4999C68.672 27.4439 68.683 27.3889 68.691 27.3329C68.699 27.2769 68.706 27.2259 68.713 27.1749Z" fill="#F7D172"/>
<path d="M57.6 31.0369C57.6835 30.5468 57.7957 30.0619 57.936 29.5849L57.978 29.4499C58.1414 28.915 58.335 28.3899 58.558 27.8769L58.571 27.8489C58.8048 27.3163 59.0675 26.7969 59.358 26.2929L59.383 26.2479C59.6681 25.7578 59.9785 25.2828 60.313 24.8249L60.406 24.6989C60.71 24.2921 61.0347 23.9013 61.379 23.5279C61.452 23.4479 61.525 23.3699 61.6 23.2929C61.87 23.0109 62.154 22.7559 62.441 22.5059C62.569 22.3939 62.693 22.2729 62.825 22.1689C63.2202 21.8486 63.6387 21.5582 64.077 21.2999C64.3482 21.1446 64.6284 21.0054 64.916 20.8829C65.004 20.8449 65.09 20.8119 65.177 20.7779C65.335 20.7169 65.492 20.6619 65.647 20.6159C65.747 20.5859 65.847 20.5569 65.947 20.5329C66.047 20.5089 66.13 20.4919 66.22 20.4749C66.339 20.4529 66.456 20.4339 66.572 20.4209C66.639 20.4129 66.707 20.4049 66.772 20.4009C66.9137 20.3905 67.0559 20.3875 67.198 20.3919C67.23 20.3919 67.264 20.3919 67.298 20.3919C67.4629 20.4012 67.627 20.4219 67.789 20.4539C67.829 20.4609 67.868 20.4719 67.908 20.4809C68.0311 20.5094 68.1526 20.5445 68.272 20.5859C68.31 20.5989 68.349 20.6119 68.386 20.6259C68.5362 20.6845 68.682 20.754 68.822 20.8339L65.997 19.1919L65.96 19.1709C65.852 19.1097 65.7405 19.0549 65.626 19.0069C65.605 18.9979 65.582 18.9929 65.56 18.9839L65.447 18.9439C65.389 18.9239 65.333 18.9009 65.274 18.8829C65.215 18.8649 65.146 18.8539 65.082 18.8389C65.043 18.8299 65.004 18.8189 64.963 18.8119C64.942 18.8119 64.922 18.8009 64.9 18.7969C64.7676 18.7741 64.6341 18.7584 64.5 18.7499H64.474C64.442 18.7499 64.408 18.7499 64.374 18.7499C64.274 18.7499 64.166 18.7429 64.059 18.7499C64.023 18.7499 63.985 18.7579 63.948 18.7609C63.882 18.7609 63.815 18.7729 63.748 18.7809C63.681 18.7889 63.626 18.7899 63.563 18.7989C63.5 18.8079 63.451 18.8249 63.397 18.8349C63.306 18.8519 63.216 18.8709 63.124 18.8929C63.074 18.9049 63.024 18.9109 62.977 18.9249C62.93 18.9389 62.877 18.9609 62.827 18.9759C62.673 19.0226 62.5163 19.0766 62.357 19.1379C62.301 19.1599 62.248 19.1719 62.192 19.1949C62.161 19.2079 62.128 19.2289 62.092 19.2429C61.8046 19.3658 61.5245 19.505 61.253 19.6599C60.8144 19.9171 60.3956 20.2066 60 20.5259C59.867 20.6319 59.743 20.7529 59.614 20.8659C59.414 21.0359 59.214 21.1949 59.028 21.3799C58.941 21.4659 58.86 21.5619 58.775 21.6499C58.69 21.7379 58.627 21.8059 58.553 21.8859C58.479 21.9659 58.382 22.0619 58.3 22.1559C58.115 22.3689 57.934 22.5889 57.759 22.8149C57.698 22.8939 57.64 22.9759 57.581 23.0569L57.487 23.1829C57.43 23.2619 57.371 23.3369 57.315 23.4169C57.1817 23.6063 57.053 23.7983 56.929 23.9929C56.805 24.1876 56.69 24.3759 56.584 24.5579L56.557 24.6069L56.533 24.6499C56.444 24.8049 56.355 24.9609 56.271 25.1199C56.171 25.3066 56.0753 25.4956 55.984 25.6869C55.901 25.8579 55.823 26.0309 55.746 26.2049L55.732 26.2359L55.719 26.2659C55.632 26.4659 55.551 26.6659 55.474 26.8659C55.397 27.0659 55.318 27.2849 55.248 27.4959C55.213 27.5959 55.184 27.7049 55.148 27.8099C55.134 27.8549 55.12 27.8999 55.107 27.9449C55.084 28.0209 55.058 28.0979 55.037 28.1749C54.9663 28.4303 54.9037 28.6849 54.849 28.9389C54.817 29.0929 54.797 29.2449 54.771 29.3969C54.757 29.4779 54.741 29.5589 54.729 29.6389C54.717 29.7189 54.7 29.7879 54.691 29.8619C54.6344 30.293 54.606 30.7272 54.606 31.1619C54.612 33.2619 55.353 34.7419 56.548 35.4359L59.374 37.0779C58.174 36.3839 57.437 34.9059 57.431 32.8039C57.4338 32.2932 57.4752 31.7834 57.555 31.2789C57.57 31.1999 57.585 31.1179 57.6 31.0369Z" fill="#FFE895"/>
<path d="M64.076 21.2999C67.761 19.1719 70.749 20.8839 70.761 25.1099C70.6406 27.4151 69.976 29.659 68.8215 31.6578C67.6671 33.6567 66.0556 35.3537 64.119 36.6099C60.442 38.7329 57.446 37.0359 57.434 32.8009C57.5567 30.4962 58.2224 28.253 59.3766 26.2544C60.5309 24.2557 62.1411 22.5581 64.076 21.2999ZM64.113 34.3289C65.4717 33.4468 66.6023 32.2555 67.4123 30.8525C68.2222 29.4495 68.6885 27.8747 68.773 26.2569C68.764 23.2969 66.667 22.1019 64.082 23.5939C62.7265 24.4751 61.5985 25.6644 60.7902 27.0646C59.9819 28.4648 59.5162 30.0364 59.431 31.6509C59.439 34.6209 61.536 35.8169 64.113 34.3289Z" fill="#C5990E"/>
<path d="M53.749 38.25L50.924 36.608L50.894 25.922L53.719 27.564L53.749 38.25Z" fill="#F7D172"/>
<path d="M53.719 27.564L50.894 25.922L52.907 24.76L55.733 26.402L53.719 27.564Z" fill="#FFE895"/>
<path d="M53.966 42.21L51.14 40.568L43.935 34.025L46.76 35.667L53.966 42.21Z" fill="#E0A705"/>
<path d="M55.733 26.402L55.774 41.166L53.966 42.21L46.76 35.667L46.782 46.358L44.769 47.52L44.727 32.756L46.544 31.707L53.749 38.25L53.719 27.564L55.733 26.402Z" fill="#C5990E"/>
<path d="M44.769 47.52L41.943 45.878L41.901 31.114L44.727 32.756L44.769 47.52Z" fill="#F7D172"/>
<path d="M44.727 32.7561L41.901 31.1141L43.719 30.0651L46.544 31.7071L44.727 32.7561Z" fill="#FFE895"/>
<path d="M36.026 50.251L33.2 48.609L39.701 44.855L42.527 46.497L36.026 50.251Z" fill="#FFE895"/>
<path d="M36.008 43.966L33.182 42.324L39.317 38.783L42.142 40.425L36.008 43.966Z" fill="#FFE895"/>
<path d="M42.372 34.116L42.379 36.429L35.997 40.114L36.008 43.966L42.142 40.425L42.149 42.748L36.014 46.29L36.026 50.251L42.527 46.497L42.533 48.811L34.019 53.727L33.977 38.962L42.372 34.116Z" fill="#C5990E"/>
<path d="M34.019 53.727L31.193 52.085L31.151 37.321L33.977 38.962L34.019 53.727Z" fill="#F7D172"/>
<path d="M33.977 38.962L31.151 37.321L39.547 32.474L42.372 34.116L33.977 38.962Z" fill="#FFE895"/>
<path d="M29.796 56.155L26.97 54.513L23.447 50.783L26.273 52.425L29.796 56.155Z" fill="#E0A705"/>
<path d="M20.325 61.623L17.5 59.981L22.213 49.473L25.038 51.115L20.325 61.623Z" fill="#F7D172"/>
<path d="M26.261 48.3859L23.436 46.7439L26.442 40.0399L29.267 41.6809L26.261 48.3859Z" fill="#FFE895"/>
<path d="M29.267 41.681L26.442 40.04L28.908 38.616L31.733 40.258L29.267 41.681Z" fill="#FFE895"/>
<path d="M31.733 40.2579L27.496 49.6959L32.253 54.7359L29.796 56.1549L26.273 52.4249L22.783 60.2039L20.325 61.6229L25.038 51.1149L20.761 46.5919L23.218 45.1739L26.261 48.3859L29.267 41.6809L31.733 40.2579Z" fill="#C5990E"/>
<path d="M25.038 51.1149L22.213 49.4729L17.936 44.9509L20.761 46.5919L25.038 51.1149Z" fill="#E0A705"/>
<path d="M20.761 46.592L17.936 44.951L20.393 43.532L23.218 45.174L20.761 46.592Z" fill="#FFE895"/>
<path d="M31.741 40.245L27.503 49.693L32.26 54.723L29.795 56.147L26.281 52.422L22.79 60.191L20.325 61.615L25.038 51.116L20.769 46.58L23.226 45.161L26.269 48.383L29.275 41.669L31.741 40.245Z" fill="#242C34"/>
<path d="M64.084 21.3C67.761 19.177 70.756 20.874 70.768 25.11C70.6453 27.4145 69.9798 29.6574 68.8257 31.6559C67.6716 33.6544 66.0616 35.3519 64.127 36.61C60.45 38.733 57.454 37.026 57.442 32.801C57.5633 30.4959 58.2283 28.2523 59.3827 26.2534C60.5371 24.2545 62.1481 22.5571 64.084 21.3ZM64.12 34.319C65.4769 33.4372 66.6064 32.2474 67.4164 30.8464C68.2263 29.4454 68.6939 27.8729 68.781 26.257C68.772 23.287 66.667 22.097 64.09 23.584C62.7319 24.4668 61.6017 25.6583 60.7919 27.0611C59.982 28.464 59.5154 30.0384 59.43 31.656C59.438 34.617 61.544 35.807 64.12 34.319Z" fill="#242C34"/>
<path d="M42.371 34.108L42.378 36.431L36.005 40.111L36.016 43.963L42.141 40.427L42.148 42.74L36.022 46.277L36.033 50.238L42.526 46.489L42.533 48.812L34.027 53.723L33.985 38.95L42.371 34.108Z" fill="#242C34"/>
<path d="M55.74 26.389L55.782 41.163L53.965 42.212L46.768 35.664L46.79 46.355L44.776 47.517L44.735 32.743L46.543 31.699L53.757 38.237L53.727 27.551L55.74 26.389Z" fill="#242C34"/>
<path d="M83.434 10.4L83.476 25.174L81.667 26.218L74.462 19.675L74.484 30.366L72.47 31.528L72.428 16.754L74.246 15.705L81.451 22.248L81.421 11.562L83.434 10.4Z" fill="#242C34"/>
</svg>
