<svg width="70" height="70" viewBox="0 0 70 70" fill="none" xmlns="http://www.w3.org/2000/svg">
<path d="M57.8048 33.1071L52.6086 30.0636C52.6829 30.0636 52.7571 29.9894 52.7571 29.9152L57.9533 32.9586C57.9533 33.0329 57.8791 33.0329 57.8048 33.1071Z" fill="#0C9492"/>
<path d="M57.9533 32.9587L52.7571 29.9152C52.7571 29.9152 52.7571 29.8409 52.8313 29.8409L57.9533 32.9587C58.0275 32.9587 58.0275 32.9587 57.9533 32.9587Z" fill="#0C908E"/>
<path d="M58.0275 32.8844L52.8314 29.841C52.8314 29.841 52.8314 29.841 52.9056 29.7667L58.0275 32.8844C58.0275 32.8844 58.1018 32.8844 58.0275 32.8844Z" fill="#0B8D8A"/>
<path d="M58.1018 32.8844L52.9056 29.841C52.9056 29.841 52.9056 29.841 52.9056 29.7667L58.1018 32.8844C58.1018 32.8102 58.1018 32.8102 58.1018 32.8844Z" fill="#0B8987"/>
<path d="M58.1018 32.8102L52.9056 29.7667C52.9056 29.7667 52.9056 29.7667 52.9056 29.6925L58.1018 32.8102Z" fill="#0B8583"/>
<path d="M58.176 32.736L52.9798 29.6925C52.9798 29.6925 52.9798 29.6925 52.9798 29.6183L58.176 32.736Z" fill="#0B827F"/>
<path d="M58.176 32.736L52.9798 29.6925C52.9798 29.6925 52.9798 29.6925 52.9798 29.6183L58.176 32.736C58.176 32.736 58.176 32.6618 58.176 32.736Z" fill="#0A7E7C"/>
<path d="M58.176 32.6618L52.9798 29.6183C52.9798 29.6183 52.9798 29.6183 52.9798 29.5441L58.176 32.6618Z" fill="#0A7A78"/>
<path d="M58.2502 32.6618L53.054 29.6183C53.054 29.6183 53.054 29.6183 53.054 29.5441L58.2502 32.6618C58.2502 32.6618 58.2502 32.5875 58.2502 32.6618Z" fill="#0A7674"/>
<path d="M58.2502 32.5876L53.054 29.5441C53.054 29.5441 53.054 29.5441 53.054 29.4698L58.2502 32.5876Z" fill="#097371"/>
<path d="M58.2502 32.5876L53.054 29.5441C53.054 29.5441 53.054 29.5441 53.054 29.4698L58.2502 32.5876C58.2502 32.5133 58.2502 32.5133 58.2502 32.5876Z" fill="#096F6D"/>
<path d="M58.2502 32.5132L53.054 29.4697C53.054 29.4697 53.054 29.4697 53.054 29.3955L58.2502 32.5132C58.2502 32.5132 58.2502 32.439 58.2502 32.5132Z" fill="#096B6A"/>
<path d="M58.2502 32.439L53.054 29.3955V29.3213L58.2502 32.439C58.3244 32.439 58.3244 32.439 58.2502 32.439Z" fill="#086866"/>
<path d="M58.3244 32.3648L53.1282 29.3213V29.2471L58.3244 32.3648Z" fill="#086462"/>
<path d="M58.3244 32.3648L53.1282 29.3213V29.2471L58.3244 32.2905C58.3244 32.2905 58.3244 32.2905 58.3244 32.3648Z" fill="#08605F"/>
<path d="M31.7498 48.176L26.5536 45.1325L52.6087 30.0636L57.8049 33.1071L31.7498 48.176Z" fill="#0D9F9D"/>
<path d="M46.2248 36.6702L41.0286 33.6267L40.9543 30.6575L46.2248 33.701V36.6702Z" fill="#888888"/>
<path d="M58.3245 32.2164L53.0541 29.1729V8.61084L58.2503 11.6543L58.3245 32.2164Z" fill="#086361"/>
<path d="M46.2248 30.7317L40.9543 27.6882V24.719L46.2248 27.7625V30.7317Z" fill="#888888"/>
<path d="M58.2503 11.6543L53.0541 8.61083L52.9799 3.56311L58.2503 6.60659V11.6543Z" fill="#086361"/>
<path d="M58.2503 6.60664L53.0541 3.56316C53.0541 3.4147 52.9799 3.26624 52.9056 3.26624L58.1018 6.30971C58.1761 6.30971 58.2503 6.38394 58.2503 6.60664Z" fill="#08605F"/>
<path d="M57.7306 6.30971L52.5344 3.26624H52.6087L57.7306 6.30971C57.8048 6.30971 57.8048 6.23548 57.7306 6.30971Z" fill="#7BBFB9"/>
<path d="M57.8048 6.23549L52.6086 3.19202H52.6829L57.8048 6.23549C57.8048 6.23549 57.8791 6.23549 57.8048 6.23549Z" fill="#78BAB4"/>
<path d="M57.879 6.23549L52.6829 3.19202C52.6829 3.19202 52.6829 3.19202 52.7571 3.19202L57.879 6.23549Z" fill="#75B6B0"/>
<path d="M57.9533 6.23549L52.7571 3.19202L57.9533 6.23549Z" fill="#72B1AB"/>
<path d="M57.9533 6.23549L52.7571 3.19202L57.9533 6.23549Z" fill="#6FACA6"/>
<path d="M57.9533 6.23549L52.7571 3.19202L57.9533 6.23549C58.0276 6.23549 58.0276 6.23549 57.9533 6.23549Z" fill="#6CA7A2"/>
<path d="M58.0275 6.23549L52.8314 3.19202L58.0275 6.23549Z" fill="#69A39D"/>
<path d="M58.0275 6.23549L52.8314 3.19202L58.0275 6.23549Z" fill="#669E98"/>
<path d="M58.1018 6.23549L52.9056 3.19202L58.1018 6.23549Z" fill="#639994"/>
<path d="M58.1018 6.23549L52.8314 3.19202L58.1018 6.23549Z" fill="#5F948F"/>
<path d="M57.7306 3.41461L52.5344 0.371131C52.6829 0.2969 52.8314 0.222669 52.9798 0.148438L58.176 3.19192C58.0275 3.26615 57.8791 3.34038 57.7306 3.41461Z" fill="#0C9492"/>
<path d="M58.176 3.26616L52.9798 0.222681C53.1283 0.14845 53.2025 0.14845 53.351 0.0742188L58.5471 3.1177C58.3987 3.1177 58.2502 3.19193 58.176 3.26616Z" fill="#0C908E"/>
<path d="M58.4729 3.11771L53.2767 0.0742312C53.351 0.0742312 53.4252 0 53.5737 0L58.7698 3.04348C58.6956 3.04348 58.6214 3.11771 58.4729 3.11771Z" fill="#0B8D8A"/>
<path d="M58.7699 3.04348L53.5737 0C53.6479 0 53.7221 0 53.7964 0L58.9925 3.04348C58.9183 3.04348 58.8441 3.04348 58.7699 3.04348Z" fill="#0B8987"/>
<path d="M58.9925 3.04348L53.7963 0C53.8706 0 53.9448 0 54.019 0L59.2152 3.04348C59.141 3.04348 59.0667 3.04348 58.9925 3.04348Z" fill="#0B8583"/>
<path d="M59.141 3.04348L53.9448 0C54.0191 0 54.0933 0 54.0933 0L59.2895 3.04348C59.2895 3.04348 59.2152 3.04348 59.141 3.04348Z" fill="#0B827F"/>
<path d="M59.3637 3.04348L54.0933 0C54.1675 0 54.2417 0 54.2417 0.0742312L59.4379 3.11771C59.4379 3.11771 59.4379 3.04348 59.3637 3.04348Z" fill="#0A7E7C"/>
<path d="M59.5122 3.1177L54.316 0.0742188C54.3902 0.0742188 54.3902 0.0742188 54.4644 0.14845L59.6606 3.19193C59.6606 3.1177 59.5864 3.1177 59.5122 3.1177Z" fill="#0A7A78"/>
<path d="M59.6606 3.19192L54.4644 0.148438C54.5386 0.148438 54.5386 0.222669 54.6129 0.222669L59.8091 3.26615C59.8091 3.19192 59.7348 3.19192 59.6606 3.19192Z" fill="#0A7674"/>
<path d="M59.8092 3.26626L54.613 0.222778L59.8092 3.26626Z" fill="#097371"/>
<path d="M23.8812 61.6861L18.685 58.6426L26.5535 45.1326L31.7497 48.176L23.8812 61.6861Z" fill="#0B8987"/>
<path d="M46.2248 24.7931L40.9543 21.7497V18.7062L46.1505 21.7497L46.2248 24.7931Z" fill="#888888"/>
<path d="M29.9682 46.0975L24.772 43.0541L41.0287 33.6267L46.2248 36.6702L29.9682 46.0975Z" fill="#DBDBDB"/>
<path d="M29.9682 46.0976L24.7721 43.0541L24.6978 40.0848L29.9682 43.1283V46.0976Z" fill="#086361"/>
<path d="M29.9682 43.1283L24.6978 40.0848L40.9544 30.6575L46.2249 33.701L29.9682 43.1283Z" fill="#0D9F9D"/>
<path d="M46.2248 33.7009V36.6702L29.9682 46.0975V43.1283L46.2248 33.7009Z" fill="#0C8F8D"/>
<path d="M23.8812 61.6861L18.685 58.6426V49.6606L23.8812 52.7041V61.6861Z" fill="#888888"/>
<path d="M21.4316 70L16.2354 66.9565L16.1612 53.8918L21.4316 56.9353V70Z" fill="#086361"/>
<path d="M29.9682 40.0848L24.6978 37.0414L40.9544 27.6882L46.2249 30.7317L29.9682 40.0848Z" fill="#DBDBDB"/>
<path d="M29.9682 40.0849L24.6978 37.0414V34.0721L29.9682 37.1156V40.0849Z" fill="#086361"/>
<path d="M46.2248 27.7625V30.7317L29.9682 40.0848V37.1156L46.2248 27.7625Z" fill="#0C8F8D"/>
<path d="M29.9682 37.1156L24.6978 34.0721L40.9544 24.719L46.2249 27.7625L29.9682 37.1156Z" fill="#0D9F9D"/>
<path d="M18.3139 55.8961L13.0435 52.8526L18.685 49.6606L23.8812 52.7041L18.3139 55.8961Z" fill="#0D9F9D"/>
<path d="M17.9427 55.9704L12.7465 52.9269L17.9427 55.9704Z" fill="#097371"/>
<path d="M17.9427 55.9704L12.7465 52.9269L17.9427 55.9704Z" fill="#0A7674"/>
<path d="M18.017 55.9704L12.8208 52.9269L18.017 55.9704Z" fill="#0A7A78"/>
<path d="M18.017 55.9704L12.8208 52.9269L18.017 55.9704Z" fill="#0A7E7C"/>
<path d="M18.017 55.9704L12.8208 52.9269L18.017 55.9704C18.017 55.9704 18.0912 55.9704 18.017 55.9704Z" fill="#0B827F"/>
<path d="M18.0912 55.9704L12.895 52.9269L18.0912 55.9704Z" fill="#0B8583"/>
<path d="M18.0912 55.9704L12.895 52.9269C12.895 52.9269 12.895 52.9269 12.9693 52.9269L18.0912 55.9704Z" fill="#0B8987"/>
<path d="M18.1655 55.9704L12.9693 52.9269C12.9693 52.9269 12.9693 52.9269 13.0435 52.9269L18.1655 55.9704Z" fill="#0B8D8A"/>
<path d="M18.1655 55.9704L12.9693 52.9269H13.0435L18.1655 55.9704C18.1655 55.9704 18.2397 55.9704 18.1655 55.9704Z" fill="#0C908E"/>
<path d="M18.2397 55.9704L13.0435 52.9269H13.1178L18.2397 55.9704C18.2397 55.8961 18.3139 55.8961 18.2397 55.9704Z" fill="#0C9492"/>
<path d="M17.9427 55.9703L12.7465 52.9268C12.6723 52.8526 12.5981 52.7783 12.5981 52.6299L17.7943 55.6734C17.7943 55.7476 17.8685 55.8961 17.9427 55.9703Z" fill="#858585"/>
<path d="M29.9682 34.1464L24.6978 31.1029L40.9544 21.7498L46.2249 24.7932L29.9682 34.1464Z" fill="#DBDBDB"/>
<path d="M16.2354 58.9396L11.0392 55.8961C10.5196 55.5992 10.1484 54.9311 10.1484 53.9661L15.3446 57.0095C15.3446 57.9746 15.6415 58.6426 16.2354 58.9396Z" fill="#08605F"/>
<path d="M46.1506 21.7498L46.2248 24.7932L29.9682 34.1464L29.894 31.1771L46.1506 21.7498Z" fill="#0C8F8D"/>
<path d="M29.9682 34.1464L24.6978 31.1029V28.1337L29.894 31.1771L29.9682 34.1464Z" fill="#086361"/>
<path d="M29.894 31.177L24.6978 28.1335L40.9544 18.7062L46.1506 21.7497L29.894 31.177Z" fill="#0D9F9D"/>
<path d="M17.72 35.0371L12.5239 31.9937L53.0541 8.61084L58.2503 11.6543L17.72 35.0371Z" fill="#DBDBDB"/>
<path d="M17.7943 55.5992L12.5981 52.5557L12.5239 31.9937L17.72 35.0371L17.7943 55.5992Z" fill="#888888"/>
<path d="M17.72 35.0371L12.5239 31.9936V26.9459L17.72 29.9894V35.0371Z" fill="#52807B"/>
<path d="M18.2396 29.0987L12.9692 26.0552L52.5344 3.26624L57.7306 6.30971L18.2396 29.0987Z" fill="#85CEC7"/>
<path d="M57.7306 3.41454C59.3637 2.44953 60.6999 3.26608 60.6999 5.12186L60.7741 30.8058C60.7741 32.6616 59.4379 34.9628 57.8048 35.9278L32.7889 50.4029L21.4316 69.9999V56.9352L18.3139 58.7168C16.6808 59.6818 15.3446 58.8652 15.3446 57.0094L15.2704 31.3255C15.2704 29.4697 16.6065 27.1685 18.2396 26.2035L57.7306 3.41454ZM58.2502 11.6542V6.60648C58.2502 6.30955 58.0275 6.16109 57.7306 6.30955L18.2396 29.0985C17.9427 29.247 17.72 29.6181 17.72 29.9893V35.037L17.7943 55.5991C17.7943 55.896 18.0169 56.0444 18.3139 55.896L23.8812 52.704V61.7602L31.7497 48.1759L57.8048 33.107C58.1018 32.9585 58.3245 32.5874 58.3245 32.2162L58.2502 11.6542Z" fill="#0FB9B6"/>
<path d="M17.72 35.0371L58.2503 11.6543L58.3245 32.2163C58.3245 32.5133 58.1018 32.8844 57.8049 33.1071L31.7497 48.176L23.8812 61.7603V52.7041L18.3139 55.8961C18.017 56.0445 17.7943 55.8961 17.7943 55.5992L17.72 35.0371ZM46.2248 30.7317V27.7625L29.9682 37.1156V40.0848L46.2248 30.7317ZM46.2248 24.7932V21.824L29.8939 31.1771V34.1463L46.2248 24.7932ZM46.2248 36.6702V33.701L29.9682 43.0541V46.0233L46.2248 36.6702Z" fill="white"/>
<path d="M17.72 29.9894L12.5239 26.946C12.5239 26.649 12.7466 26.2779 13.0435 26.0552L18.2397 29.0987C17.9427 29.2471 17.72 29.6183 17.72 29.9894Z" fill="#0FB9B6"/>
<path d="M17.72 29.9894L12.5238 26.9459V26.8717L17.72 29.9152C17.72 29.9152 17.72 29.9152 17.72 29.9894Z" fill="#0FB9B6"/>
<path d="M17.72 29.841L12.5238 26.7975V26.7233L17.72 29.841Z" fill="#0FB9B6"/>
<path d="M17.72 29.7668L12.5238 26.7233V26.649L17.72 29.7668C17.7942 29.7668 17.7942 29.7668 17.72 29.7668Z" fill="#0FB9B6"/>
<path d="M17.7942 29.7668L12.598 26.7233C12.598 26.7233 12.598 26.7233 12.598 26.649L17.7942 29.7668C17.7942 29.6925 17.7942 29.6925 17.7942 29.7668Z" fill="#0FB9B6"/>
<path d="M17.7942 29.6924L12.598 26.6489C12.598 26.6489 12.598 26.6489 12.598 26.5747L17.7942 29.6924C17.7942 29.6924 17.7942 29.6182 17.7942 29.6924Z" fill="#0FB9B6"/>
<path d="M17.7942 29.6182L12.598 26.5747C12.598 26.5747 12.598 26.5747 12.598 26.5005L17.7942 29.6182Z" fill="#0FB9B6"/>
<path d="M17.7942 29.6182L12.598 26.5747C12.598 26.5747 12.598 26.5747 12.598 26.5005L17.7942 29.6182C17.7942 29.544 17.8684 29.544 17.7942 29.6182Z" fill="#0FB9B6"/>
<path d="M17.8684 29.544L12.6722 26.5005C12.6722 26.5005 12.6722 26.5005 12.6722 26.4263L17.8684 29.544Z" fill="#0FB9B6"/>
<path d="M17.8684 29.544L12.6722 26.5005C12.6722 26.5005 12.6722 26.5005 12.6722 26.4263L17.8684 29.544C17.8684 29.4697 17.8684 29.4697 17.8684 29.544Z" fill="#0FB9B6"/>
<path d="M17.8684 29.4698L12.6722 26.4263C12.6722 26.4263 12.6722 26.4263 12.6722 26.3521L17.8684 29.4698Z" fill="#0FB9B6"/>
<path d="M17.9427 29.3955L12.7465 26.3521C12.7465 26.3521 12.7465 26.3521 12.7465 26.2778L17.9427 29.3955Z" fill="#0FB9B6"/>
<path d="M17.9427 29.3955L12.7465 26.3521C12.7465 26.3521 12.7465 26.3521 12.7465 26.2778L17.9427 29.3955C17.9427 29.3955 17.9427 29.3213 17.9427 29.3955Z" fill="#0FB9B6"/>
<path d="M17.9427 29.3212L12.7465 26.2777C12.7465 26.2777 12.7465 26.2777 12.8207 26.2035L17.9427 29.3212C18.0169 29.3212 18.0169 29.3212 17.9427 29.3212Z" fill="#0FB9B6"/>
<path d="M18.0169 29.3212L12.8207 26.2777C12.8207 26.2777 12.8207 26.2035 12.895 26.2035L18.0169 29.3212C18.0169 29.247 18.0169 29.247 18.0169 29.3212Z" fill="#0FB9B6"/>
<path d="M18.0911 29.2471L12.895 26.2036C12.9692 26.1294 12.9692 26.1294 13.0434 26.0552L18.2396 29.0987C18.1654 29.0987 18.0911 29.1729 18.0911 29.2471Z" fill="#0FB9B6"/>
<path d="M57.7306 6.30959C58.0276 6.16112 58.2503 6.30959 58.2503 6.60651V11.6542L17.72 35.0371V29.9893C17.72 29.6924 17.9427 29.3213 18.2396 29.0986L57.7306 6.30959Z" fill="#9AEFE7"/>
<path d="M15.3446 57.0838L10.0742 54.0403L10 28.3563L15.2704 31.3998L15.3446 57.0838Z" fill="#086361"/>
<path d="M18.2396 26.2779L12.9692 23.2344L52.5344 0.371216L57.7306 3.41469L18.2396 26.2779Z" fill="#0D9F9D"/>
<path d="M15.2704 31.3998L10.0742 28.3563C10.0742 28.1336 10.0742 27.9851 10.1485 27.7625L15.3446 30.8059C15.2704 31.0286 15.2704 31.1771 15.2704 31.3998Z" fill="#08605F"/>
<path d="M15.2704 30.806L10.0742 27.7625C10.0742 27.6141 10.1485 27.4656 10.1485 27.3171L15.3446 30.3606C15.3446 30.5091 15.3446 30.6575 15.2704 30.806Z" fill="#086462"/>
<path d="M15.3446 30.3606L10.1484 27.3171C10.1484 27.1686 10.2227 27.0944 10.2227 26.9459L15.4188 29.9894C15.4188 30.1379 15.4189 30.2863 15.3446 30.3606Z" fill="#086866"/>
<path d="M15.4188 30.0637L10.2227 27.0202C10.2227 26.946 10.2969 26.7975 10.2969 26.7233L15.4931 29.7667C15.4931 29.841 15.4931 29.9894 15.4188 30.0637Z" fill="#096B6A"/>
<path d="M15.5673 29.7668L10.3712 26.7233C10.3712 26.6491 10.4454 26.5006 10.4454 26.4264L15.6416 29.4699C15.6416 29.5441 15.5673 29.6926 15.5673 29.7668Z" fill="#096F6D"/>
<path d="M15.6416 29.4698L10.4454 26.4263C10.4454 26.3521 10.5196 26.2779 10.5196 26.1294L15.7158 29.1729C15.7158 29.3213 15.7158 29.3956 15.6416 29.4698Z" fill="#097371"/>
<path d="M15.79 29.1729L10.5938 26.1294C10.668 26.0552 10.6681 25.981 10.7423 25.9067L15.9385 28.9502C15.8642 29.0244 15.79 29.0987 15.79 29.1729Z" fill="#0A7674"/>
<path d="M15.8643 28.9503L10.6681 25.9068C10.7423 25.8325 10.7423 25.7583 10.8166 25.6841L16.0127 28.7276C15.9385 28.8018 15.9385 28.876 15.8643 28.9503Z" fill="#0A7A78"/>
<path d="M16.0127 28.7275L10.8165 25.684C10.8908 25.6098 10.8908 25.5355 10.965 25.4613L16.1612 28.5048C16.0869 28.5048 16.0127 28.579 16.0127 28.7275Z" fill="#0A7E7C"/>
<path d="M16.1611 28.4306L10.965 25.3871C11.0392 25.3129 11.0392 25.2387 11.1134 25.1644L16.3096 28.2079C16.2354 28.2821 16.1611 28.3564 16.1611 28.4306Z" fill="#0B827F"/>
<path d="M16.3096 28.2079L11.1135 25.1645C11.1877 25.0902 11.2619 25.016 11.2619 24.9418L16.4581 27.9853C16.3839 27.9853 16.3839 28.1337 16.3096 28.2079Z" fill="#0B8583"/>
<path d="M16.4581 27.911L11.2619 24.8675C11.3361 24.7933 11.4104 24.719 11.4846 24.5706L16.6808 27.614C16.6065 27.7625 16.5323 27.8367 16.4581 27.911Z" fill="#0B8987"/>
<path d="M16.6808 27.6883L11.4846 24.6448C11.5589 24.5706 11.6331 24.4221 11.7073 24.3479L16.9035 27.3914C16.8293 27.4656 16.755 27.5398 16.6808 27.6883Z" fill="#0B8D8A"/>
<path d="M16.9035 27.3913L11.7073 24.3478C11.7815 24.1994 11.93 24.1251 12.0042 23.9767L17.2004 27.0202C17.1262 27.1686 16.9777 27.2429 16.9035 27.3913Z" fill="#0C908E"/>
<path d="M17.2004 27.0202L12.0042 23.9767C12.3011 23.6798 12.6723 23.3828 12.9692 23.2344L18.1654 26.2779C17.8685 26.4263 17.5715 26.7232 17.2004 27.0202Z" fill="#0C9492"/>
</svg>
