<svg xmlns="http://www.w3.org/2000/svg" xmlns:xlink="http://www.w3.org/1999/xlink" id="Ebene_1" x="0px" y="0px" viewBox="0 0 2000 362" style="enable-background:new 0 0 2000 362;" xml:space="preserve"><g><path d="M62.3,263.8c-14.9,0-27.8-4-38.5-12s-18.5-19-23.1-33l29.8-11.2c3.5,7.5,8.1,13.4,13.8,17.9s12,6.7,18.9,6.7   c7.2,0,12.8-1.4,16.9-4.1c4.1-2.7,6.1-6.6,6.1-11.7c0-3.4-1.5-6.4-4.5-9s-6.1-4.6-9.4-5.8s-8.4-3-15.2-5.1   c-4.5-1.5-7.9-2.6-10.2-3.4c-2.3-0.8-5.5-2.1-9.8-3.8c-4.2-1.8-7.5-3.4-9.7-4.8c-2.2-1.5-4.8-3.4-7.9-5.9s-5.4-5.1-6.9-7.8   c-1.5-2.7-2.9-6-4.1-9.9s-1.8-8-1.8-12.4c0-12.3,4.8-22.6,14.5-30.9s22.7-12.5,39.3-12.5c13.7,0,25.3,3.6,34.7,10.7   c9.4,7.2,15.6,16.4,18.6,27.6L84,153c-4.8-11-13.2-16.5-25.2-16.5c-12.4,0-18.6,4.2-18.6,12.5c0,1.9,0.6,3.6,1.8,5   c1.2,1.5,3.3,2.9,6.4,4.4c3.1,1.5,5.6,2.6,7.6,3.3c2,0.7,5.4,2,10.4,3.7c5.3,1.8,9.3,3.1,12.2,4.2c2.9,1,6.8,2.6,11.7,4.7   c5,2.1,8.9,4.4,11.7,6.8c2.8,2.4,5.8,5.3,8.9,8.7c3.1,3.4,5.3,7.3,6.7,11.8c1.4,4.5,2.1,9.5,2.1,14.9c0,14.5-5.4,26-16.2,34.4   C92.5,259.6,78.9,263.8,62.3,263.8z"/><path d="M372.1,261.2h-33.3v-76.1c0-1.5,0.1-3.1,0.2-4.8c-0.7,1.8-1.4,3.2-2,4.4l-37.3,79.2L262,185c-0.4-1-1-2.6-1.8-4.8v4.8v76.1   h-33.3V107.6h34l35.8,78.3c1,2.3,2.3,5.6,3.7,9.6c1.5-4.1,2.7-7.3,3.7-9.6l36.9-78.3h31.1L372.1,261.2L372.1,261.2z"/><path d="M589.7,261.2l-11.4-29.8h-57.7l-11.4,29.8h-36.4l60.5-153.6h32l60.8,153.6H589.7z M567.1,200.6l-13.2-33.1   c-2-5-3.6-9.3-4.6-12.9c-0.6,2.5-2.1,6.8-4.6,12.9l-13.2,33.1H567.1z"/><path d="M726.8,261.2V107.6h74.8c18.4,0,31.8,4.6,40,13.8c8.3,9.2,12.4,21.1,12.4,35.8c0,9.1-2.5,17.9-7.5,26.5   s-11.8,14.7-20.4,18.2l28.7,59.2h-37.3l-27.9-54.2H760v54.2h-33.2V261.2z M760.1,175.4H802c11.6,0,17.3-6.1,17.3-18.2   c0-5.1-1.4-9.4-4.1-12.8c-2.7-3.4-7.1-5.2-13.3-5.2H760L760.1,175.4L760.1,175.4z"/><path d="M1028.6,139.6v121.5h-33.3V139.6h-44.1v-32h121.5v32H1028.6z"/></g><g><path d="M1420.4,261.2V107.6h33.3v121.3h73.7v32.2L1420.4,261.2L1420.4,261.2z"/><path d="M1734.8,261.2l-11.4-29.8h-57.7l-11.4,29.8h-36.4l60.5-153.6h32l60.8,153.6H1734.8z M1712.2,200.6l-13.2-33.1   c-2-5-3.6-9.3-4.6-12.9c-0.6,2.5-2.1,6.8-4.6,12.9l-13.2,33.1H1712.2z"/><path d="M1871.9,107.6h72.4c17.5,0,30.4,4,38.5,12s12.2,17.9,12.2,29.7c0,15.8-5.8,26.4-17.3,31.8c7.5,2.8,13.1,7.4,16.8,13.8   c3.7,6.4,5.6,13.2,5.6,20.2c0,12.7-4.3,23.6-12.9,32.6s-21.9,13.5-39.9,13.5h-75.2V107.6H1871.9z M1941,167.5   c13.3,0,20-4.8,20-14.5c0-9.5-5.5-14.3-16.5-14.3h-39.3v28.8H1941z M1948.7,229.8c6.1,0,10.6-1.5,13.4-4.6s4.2-6.6,4.2-10.7   c0-11.3-7.8-16.9-23.5-16.9h-37.5v32.2H1948.7z"/></g><g><path d="M1146.5,353.4c13.1-1.1,14.4-3.4,19.2-7c7.6-5.5,13.9-16.7,18.8-34l67.9-245.6c2.5-9.9,4.2-16.9,5.1-21.1   c0.9-4,1.3-8.2,1.3-12.1c0-8.9-2.8-15-8.7-18.2c-5.7-3.4-8.4-5.5-23-6.5V0h114.8v8.9c-14.6,1.9-17.1,5.1-22.6,9.3   c-5.5,4.2-10.6,14.8-15.4,31.5L1236,295.3c-2.3,8.7-4,15.8-4.9,21.4s-1.5,9.9-1.5,12.7c0,9.1,3.2,15.2,9.7,18.2s8.4,4.9,20.7,5.5   v8.9h-113.5L1146.5,353.4L1146.5,353.4z"/></g></svg>