<svg width="64" height="64" viewBox="0 0 64 64" fill="none" xmlns="http://www.w3.org/2000/svg">
<g clip-path="url(#clip0_433_14625)">
<path d="M32.1592 0.15918C25.8302 0.15918 19.6433 2.03595 14.3809 5.55215C9.11858 9.06836 5.01705 14.0661 2.59505 19.9133C0.173045 25.7605 -0.460662 32.1947 0.774065 38.4021C2.00879 44.6095 5.0565 50.3113 9.53178 54.7866C14.0071 59.2619 19.7089 62.3096 25.9163 63.5443C32.1237 64.779 38.5578 64.1453 44.4051 61.7233C50.2523 59.3013 55.25 55.1998 58.7662 49.9374C62.2824 44.6751 64.1592 38.4882 64.1592 32.1592C64.1592 23.6723 60.7878 15.5329 54.7866 9.53176C48.7855 3.5306 40.6461 0.15918 32.1592 0.15918V0.15918ZM32.1592 57.4223C27.1626 57.4223 22.2782 55.9407 18.1237 53.1647C13.9692 50.3888 10.7312 46.4432 8.81908 41.827C6.90697 37.2107 6.40668 32.1312 7.38146 27.2306C8.35625 22.33 10.7623 17.8285 14.2954 14.2954C17.8286 10.7623 22.33 8.35623 27.2306 7.38145C32.1312 6.40666 37.2107 6.90696 41.827 8.81907C46.4432 10.7312 50.3888 13.9692 53.1647 18.1237C55.9407 22.2782 57.4224 27.1626 57.4224 32.1592C57.4224 38.8594 54.7607 45.2852 50.0229 50.0229C45.2852 54.7607 38.8594 57.4223 32.1592 57.4223V57.4223Z" fill="url(#paint0_linear_433_14625)"/>
<path d="M29.2421 31.7676C30.0318 30.978 31.1027 30.5344 32.2194 30.5344C33.3361 30.5344 34.4071 30.978 35.1967 31.7676L41.7466 38.3158C42.5362 39.1055 42.9798 40.1764 42.9798 41.2931C42.9798 42.4098 42.5362 43.4807 41.7466 44.2704V44.2704C40.9569 45.06 39.886 45.5036 38.7693 45.5036C37.6526 45.5036 36.5817 45.06 35.792 44.2704L29.2421 37.7264C28.8505 37.3353 28.5399 36.8709 28.3279 36.3597C28.1159 35.8484 28.0068 35.3004 28.0068 34.747C28.0068 34.1936 28.1159 33.6456 28.3279 33.1343C28.5399 32.6231 28.8505 32.1587 29.2421 31.7676V31.7676Z" fill="#0FB9B6"/>
<path d="M29.2422 31.7676C30.0318 30.978 31.1028 30.5344 32.2195 30.5344C33.3362 30.5344 34.4071 30.978 35.1967 31.7676L36.3698 32.9415V17.0013C36.3698 15.8846 35.9262 14.8136 35.1365 14.024C34.3469 13.2344 33.276 12.7908 32.1593 12.7908C31.0426 12.7908 29.9716 13.2344 29.182 14.024C28.3923 14.8136 27.9487 15.8846 27.9487 17.0013V34.6855C27.9485 35.2457 28.0606 35.8003 28.2782 36.3165C28.4959 36.8327 28.8148 37.3001 29.2161 37.691C28.4394 36.8992 28.0065 35.833 28.0114 34.7239C28.0163 33.6149 28.4586 32.5525 29.2422 31.7676V31.7676Z" fill="#2402A7"/>
<path d="M41.7463 38.3158L36.3695 32.939V34.683C36.3684 35.5112 36.1231 36.3207 35.6642 37.0101C35.2054 37.6996 34.5534 38.2385 33.7899 38.5593C33.0263 38.88 32.1851 38.9685 31.3715 38.8136C30.5579 38.6587 29.8081 38.2674 29.2158 37.6884C29.2251 37.6985 29.2318 37.7103 29.2419 37.7196L35.7893 44.2729C36.5792 45.0628 37.6507 45.5066 38.7678 45.5066C39.885 45.5066 40.9564 45.0628 41.7463 44.2729C42.5363 43.4829 42.9801 42.4115 42.9801 41.2943C42.9801 40.1772 42.5363 39.1058 41.7463 38.3158V38.3158Z" fill="url(#paint1_linear_433_14625)" fill-opacity="0.6"/>
<path d="M36.3693 34.6855V32.9415L35.1997 31.7676C34.5226 31.0622 33.6211 30.6145 32.65 30.5013C31.6788 30.388 30.6985 30.6162 29.8773 31.1468C29.056 31.6774 28.445 32.4773 28.1491 33.4091C27.8532 34.341 27.8908 35.3468 28.2555 36.254C28.6202 37.1612 29.2893 37.9131 30.1479 38.3809C31.0065 38.8486 32.0011 39.003 32.961 38.8175C33.921 38.632 34.7865 38.1182 35.409 37.3642C36.0315 36.6103 36.3722 35.6632 36.3727 34.6855H36.3693Z" fill="url(#paint2_linear_433_14625)" fill-opacity="0.6"/>
</g>
<defs>
<linearGradient id="paint0_linear_433_14625" x1="32.1592" y1="0.424443" x2="32.1592" y2="61.2649" gradientUnits="userSpaceOnUse">
<stop stop-color="#0C90B9"/>
<stop offset="0.15" stop-color="#107AB6"/>
<stop offset="0.734" stop-color="#1E26AC"/>
<stop offset="1" stop-color="#2405A8"/>
</linearGradient>
<linearGradient id="paint1_linear_433_14625" x1="34.2247" y1="36.7512" x2="40.612" y2="43.1385" gradientUnits="userSpaceOnUse">
<stop stop-color="#00E2FC"/>
<stop offset="0.999" stop-color="#104CFD"/>
</linearGradient>
<linearGradient id="paint2_linear_433_14625" x1="32.19" y1="30.6105" x2="32.19" y2="38.7756" gradientUnits="userSpaceOnUse">
<stop stop-color="#066ECE"/>
<stop offset="1" stop-color="#0459D0"/>
</linearGradient>
<clipPath id="clip0_433_14625">
<rect width="64" height="64" fill="white"/>
</clipPath>
</defs>
</svg>
