<svg width="64" height="64" viewBox="0 0 64 64" fill="none" xmlns="http://www.w3.org/2000/svg">
<g clip-path="url(#clip0_433_14877)">
<path d="M5.66348 56.1074C4.22501 56.1074 2.84547 55.536 1.82832 54.5188C0.811173 53.5017 0.239746 52.1221 0.239746 50.6837V17.139C0.239191 15.7006 0.810042 14.3209 1.82673 13.3033L13.7589 1.37112C14.2626 0.867163 14.8606 0.467389 15.5189 0.194636C16.1771 -0.0781173 16.8826 -0.218506 17.5951 -0.218506C18.3076 -0.218506 19.0132 -0.0781173 19.6714 0.194636C20.3296 0.467389 20.9277 0.867163 21.4313 1.37112L33.3635 13.3033C33.8672 13.8071 34.2666 14.4051 34.5391 15.0632C34.8116 15.7213 34.9517 16.4267 34.9516 17.139V50.6837C34.9516 52.1221 34.3802 53.5017 33.363 54.5188C32.3459 55.536 30.9663 56.1074 29.5279 56.1074H5.66348Z" fill="url(#paint0_linear_433_14877)"/>
<path d="M15.4263 47.4294C15.4263 42.5387 17.3691 37.8482 20.8274 34.3899C24.2857 30.9316 28.9762 28.9888 33.8669 28.9888H58.8161C60.2546 28.9888 61.6341 29.5602 62.6513 30.5773C63.6684 31.5945 64.2398 32.974 64.2398 34.4125V50.6837C64.2398 52.1221 63.6684 53.5017 62.6513 54.5188C61.6341 55.536 60.2546 56.1074 58.8161 56.1074H20.85C19.4115 56.1074 18.032 55.536 17.0148 54.5188C15.9977 53.5017 15.4263 52.1221 15.4263 50.6837V47.4294Z" fill="#FCD458"/>
<path d="M15.6206 52.031C15.1343 54.5414 15.6524 57.1423 17.0634 59.2748C18.4745 61.4073 20.6658 62.901 23.1665 63.435C25.6672 63.9689 28.2775 63.5004 30.4365 62.1303C32.5954 60.7601 34.1306 58.5975 34.7121 56.1075H20.8501C19.6498 56.1042 18.4846 55.7019 17.5379 54.9639C16.5912 54.226 15.9167 53.1942 15.6206 52.031Z" fill="#39F5E0"/>
<path d="M58.8161 56.1075H44.9639C45.5453 58.5975 47.0805 60.7601 49.2395 62.1303C51.3984 63.5004 54.0088 63.9689 56.5094 63.435C59.0101 62.901 61.2015 61.4073 62.6125 59.2748C64.0236 57.1423 64.5416 54.5414 64.0554 52.031C63.7588 53.1958 63.0829 54.2288 62.1342 54.9669C61.1855 55.705 60.0181 56.1063 58.8161 56.1075V56.1075Z" fill="url(#paint1_linear_433_14877)"/>
<path d="M25.1887 44.1751C22.9315 44.1765 20.7445 44.96 18.9999 46.3923C17.2554 47.8246 16.061 49.8171 15.6201 52.0308C15.9165 53.1949 16.5918 54.2274 17.5396 54.9654C18.4874 55.7035 19.6538 56.1052 20.8551 56.1073H34.7008C35.0315 54.6776 35.0348 53.1917 34.7105 51.7606C34.3862 50.3295 33.7426 48.9902 32.8279 47.8428C31.9132 46.6953 30.751 45.7695 29.4282 45.1344C28.1053 44.4993 26.6561 44.1713 25.1887 44.1751V44.1751Z" fill="url(#paint2_linear_433_14877)"/>
<path d="M54.4767 44.1751C53.0095 44.1718 51.5604 44.5 50.2377 45.1352C48.9151 45.7705 47.753 46.6963 46.8383 47.8436C45.9236 48.9909 45.2799 50.33 44.9553 51.7609C44.6306 53.1918 44.6335 54.6776 44.9635 56.1073H58.8157C60.0168 56.1049 61.183 55.7031 62.1306 54.9651C63.0781 54.227 63.7533 53.1948 64.0496 52.0308C63.6086 49.8164 62.4136 47.8233 60.6681 46.3909C58.9227 44.9585 56.7347 44.1755 54.4767 44.1751V44.1751Z" fill="url(#paint3_linear_433_14877)"/>
</g>
<defs>
<linearGradient id="paint0_linear_433_14877" x1="17.5957" y1="5.67213" x2="17.5957" y2="51.8064" gradientUnits="userSpaceOnUse">
<stop stop-color="#3BE2CB"/>
<stop offset="1" stop-color="#F5F3D4"/>
</linearGradient>
<linearGradient id="paint1_linear_433_14877" x1="54.6018" y1="54.9598" x2="54.6018" y2="60.5376" gradientUnits="userSpaceOnUse">
<stop stop-color="#7FE496"/>
<stop offset="1" stop-color="#23FAF4"/>
</linearGradient>
<linearGradient id="paint2_linear_433_14877" x1="25.283" y1="44.2011" x2="25.283" y2="53.1362" gradientUnits="userSpaceOnUse">
<stop offset="0.219" stop-color="#B0D144"/>
<stop offset="1" stop-color="#66DD72"/>
</linearGradient>
<linearGradient id="paint3_linear_433_14877" x1="54.3813" y1="44.5721" x2="54.3813" y2="54.2176" gradientUnits="userSpaceOnUse">
<stop stop-color="#E6C822"/>
<stop offset="1" stop-color="#87D75B"/>
</linearGradient>
<clipPath id="clip0_433_14877">
<rect width="64" height="64" fill="white"/>
</clipPath>
</defs>
</svg>
