<svg width="64" height="64" viewBox="0 0 64 64" fill="none" xmlns="http://www.w3.org/2000/svg">
<g clip-path="url(#clip0_433_14871)">
<path d="M0.498535 48.8155C0.510482 48.7301 0.522429 48.6508 0.536082 48.5688C0.523282 48.6516 0.512189 48.7335 0.498535 48.8155Z" fill="white"/>
<path d="M10.1962 40.4279H27.5624L32.2455 32.6302L24.004 18.9086C23.1278 17.4474 22.6454 15.7839 22.6041 14.0805C22.5628 12.3772 22.9639 10.6923 23.7682 9.1903C24.5726 7.68829 25.7527 6.42054 27.1933 5.51084C28.634 4.60114 30.2859 4.08058 31.9878 4C30.2977 4.00699 28.6379 4.44945 27.1686 5.28469C25.6993 6.11994 24.4701 7.31977 23.5995 8.76843L1.81736 45.0325C1.25464 45.9738 0.853436 47.0026 0.630371 48.0764C1.12133 45.9057 2.3355 43.9664 4.07367 42.5767C5.81184 41.1869 7.97078 40.4292 10.1962 40.4279V40.4279Z" fill="url(#paint0_linear_433_14871)"/>
<path d="M62.6758 45.0325L40.8937 8.76587C40.0227 7.31774 38.7933 6.11846 37.3241 5.28369C35.8548 4.44891 34.1952 4.0068 32.5054 4C34.1335 4.07547 35.7172 4.55526 37.1134 5.39605V5.39605C38.2224 6.062 39.1893 6.93987 39.959 7.97953C40.7288 9.0192 41.2861 10.2003 41.5994 11.4554C41.9126 12.7105 41.9756 14.0149 41.7846 15.2944C41.5937 16.5738 41.1526 17.8031 40.4866 18.912L32.2451 32.6336L36.9282 40.4314H53.7167C56.1235 40.443 58.442 41.3388 60.2315 42.9483C62.021 44.5578 63.1566 46.7688 63.4224 49.1609C63.6882 51.553 63.0656 53.9593 61.6731 55.9224C60.2806 57.8854 58.2152 59.2683 55.8697 59.808C57.4523 59.5444 58.9465 58.8975 60.2218 57.9238C61.497 56.9501 62.5147 55.6791 63.1859 54.2218C63.8571 52.7644 64.1616 51.165 64.0727 49.5629C63.9838 47.9609 63.5042 46.4049 62.6758 45.0308V45.0325Z" fill="url(#paint1_linear_433_14871)"/>
<path d="M24.0052 18.9086L32.2467 32.6302L40.4882 18.9086C41.1542 17.7996 41.5953 16.5704 41.7862 15.291C41.9771 14.0115 41.9142 12.707 41.6009 11.452C41.2877 10.1969 40.7303 9.01578 39.9606 7.97612C39.1909 6.93646 38.2239 6.05859 37.1149 5.39264V5.39264C35.7179 4.55278 34.1336 4.07415 32.5052 4C32.4199 4 32.3346 4 32.2492 4C32.1639 4 32.0786 4 31.9932 4C30.2909 4.0804 28.6385 4.60101 27.1975 5.51095C25.7565 6.4209 24.5762 7.68907 23.7718 9.19157C22.9675 10.6941 22.5666 12.3795 22.6084 14.0832C22.6502 15.787 23.1332 17.4507 24.0103 18.912L24.0052 18.9086Z" fill="#99ED7D"/>
<path d="M0.535645 48.5688C0.561245 48.4041 0.596231 48.2403 0.630365 48.0764C0.597085 48.2394 0.563805 48.4032 0.535645 48.5688Z" fill="white"/>
<path d="M45.7875 55.1753L36.9299 40.428H27.5629L18.7062 55.1753C17.3612 57.4148 15.1818 59.0283 12.6472 59.6609C10.1127 60.2935 7.43062 59.8933 5.19107 58.5485V58.5485C3.54532 57.5601 2.22431 56.1123 1.39048 54.383C0.55665 52.6538 0.24635 50.7186 0.497738 48.8154C0.281063 50.2107 0.370204 51.6363 0.758993 52.9937C1.14778 54.3511 1.82693 55.6078 2.74941 56.6768C3.6719 57.7458 4.81568 58.6015 6.10158 59.1848C7.38748 59.768 8.78477 60.0648 10.1967 60.0546H53.7167C54.4412 60.053 55.1633 59.9708 55.8697 59.8097C53.918 60.1405 51.912 59.8752 50.1134 59.0484C48.3148 58.2217 46.8073 56.8719 45.7875 55.1753V55.1753Z" fill="#A0F9F7"/>
<path d="M5.19014 58.5485C7.42969 59.8933 10.1117 60.2935 12.6463 59.6609C15.1808 59.0283 17.3603 57.4148 18.7052 55.1753L27.5628 40.428H10.1966C7.97119 40.4293 5.81225 41.187 4.07408 42.5767C2.33591 43.9665 1.12174 45.9058 0.630783 48.0764C0.596649 48.2402 0.561662 48.4041 0.536062 48.5688C0.522409 48.6541 0.510462 48.7335 0.498515 48.8154C0.246962 50.7184 0.557005 52.6535 1.39053 54.3827C2.22405 56.1119 3.54471 57.5599 5.19014 58.5485V58.5485Z" fill="#4EFCFB"/>
<path d="M63.5298 50.2413C63.5298 47.6387 62.4959 45.1426 60.6555 43.3022C58.8152 41.4619 56.3191 40.428 53.7165 40.428H36.9297L45.7873 55.1753C46.8313 57.0173 48.4614 58.4573 50.4181 59.2661C52.3749 60.0749 54.5459 60.2061 56.5858 59.6388C58.6258 59.0716 60.4174 57.8384 61.6756 56.1355C62.9339 54.4326 63.5866 52.3579 63.5298 50.2413V50.2413Z" fill="#77E287"/>
<path d="M32.1615 23.3613C37.5812 23.3613 41.9748 18.9677 41.9748 13.548C41.9748 8.1282 37.5812 3.73462 32.1615 3.73462C26.7417 3.73462 22.3481 8.1282 22.3481 13.548C22.3481 18.9677 26.7417 23.3613 32.1615 23.3613Z" fill="#FFC612"/>
<path d="M10.1966 60.0546C15.6164 60.0546 20.01 55.6611 20.01 50.2413C20.01 44.8216 15.6164 40.428 10.1966 40.428C4.77688 40.428 0.383301 44.8216 0.383301 50.2413C0.383301 55.6611 4.77688 60.0546 10.1966 60.0546Z" fill="#FFC612"/>
<path d="M54.348 60.0546C59.7678 60.0546 64.1613 55.6611 64.1613 50.2413C64.1613 44.8216 59.7678 40.428 54.348 40.428C48.9283 40.428 44.5347 44.8216 44.5347 50.2413C44.5347 55.6611 48.9283 60.0546 54.348 60.0546Z" fill="#FFC612"/>
</g>
<defs>
<linearGradient id="paint0_linear_433_14871" x1="13.5985" y1="44.1681" x2="29.0711" y2="18.8966" gradientUnits="userSpaceOnUse">
<stop stop-color="#8CFBFB"/>
<stop offset="1" stop-color="#CEFC7E"/>
</linearGradient>
<linearGradient id="paint1_linear_433_14871" x1="35.7267" y1="19.4206" x2="52.1269" y2="46.071" gradientUnits="userSpaceOnUse">
<stop stop-color="#ABEDBB"/>
<stop offset="1" stop-color="#DDD656"/>
</linearGradient>
<clipPath id="clip0_433_14871">
<rect width="64" height="56.32" fill="white" transform="translate(0 4)"/>
</clipPath>
</defs>
</svg>
