<svg width="64" height="64" viewBox="0 0 64 64" fill="none" xmlns="http://www.w3.org/2000/svg">
<g clip-path="url(#clip0_433_14647)">
<path d="M56.5777 24.5769H45.1116C43.4168 24.577 41.7644 25.107 40.3857 26.0926C39.007 27.0782 37.9709 28.4702 37.4224 30.0738L29.5718 53.0214H46.4139C47.4926 53.0187 48.5441 53.3601 49.4156 53.9958C50.2871 54.6315 50.9332 55.5286 51.26 56.5565C51.5869 57.5845 51.5776 58.69 51.2333 59.7123C50.8891 60.7346 50.2279 61.6205 49.3457 62.2414C50.5323 61.5051 51.4292 60.3826 51.8854 59.0627L61.3818 31.305C61.6443 30.5402 61.7204 29.7238 61.6037 28.9236C61.4871 28.1235 61.1811 27.3627 60.7112 26.7047C60.2414 26.0466 59.6212 25.5102 58.9022 25.1401C58.1833 24.77 57.3864 24.5769 56.5777 24.5769V24.5769Z" fill="#57C3E5"/>
<path d="M48.9288 62.489C48.8993 62.5063 48.8688 62.5215 48.8394 62.5378C48.8698 62.5225 48.8993 62.5053 48.9288 62.489Z" fill="#57C3E5"/>
<path d="M46.4142 63.1799C47.2638 63.1747 48.0982 62.9538 48.8391 62.5378C47.995 62.9599 47.0643 63.1797 46.1206 63.1799H46.4142Z" fill="url(#paint0_linear_433_14647)"/>
<path d="M49.3462 62.2412C49.2091 62.3276 49.074 62.418 48.9287 62.4931C49.0669 62.4078 49.2142 62.3306 49.3462 62.2412Z" fill="url(#paint1_linear_433_14647)"/>
<path d="M28.3969 56.4569L29.5723 53.0212H20.0017C18.6546 53.0212 17.3626 53.5564 16.4101 54.509C15.4575 55.4615 14.9224 56.7535 14.9224 58.1006C14.9224 59.4477 15.4575 60.7397 16.4101 61.6923C17.3626 62.6448 18.6546 63.18 20.0017 63.18H33.203C32.3948 63.18 31.5983 62.9871 30.8796 62.6175C30.161 62.2478 29.5409 61.712 29.0709 61.0545C28.6009 60.3971 28.2945 59.6369 28.1773 58.8373C28.0601 58.0377 28.1354 57.2216 28.3969 56.4569Z" fill="url(#paint2_linear_433_14647)"/>
<path d="M51.4937 58.1006C51.4937 56.7535 50.9586 55.4615 50.006 54.509C49.0534 53.5564 47.7615 53.0212 46.4144 53.0212H29.5722L28.3968 56.4569C28.1353 57.2216 28.06 58.0377 28.1772 58.8373C28.2945 59.6369 28.6008 60.3971 29.0708 61.0545C29.5408 61.712 30.1609 62.2478 30.8796 62.6175C31.5982 62.9871 32.3948 63.18 33.2029 63.18H46.1208C47.0645 63.1798 47.9952 62.96 48.8392 62.5379C48.8687 62.5217 48.8992 62.5064 48.9286 62.4892C49.0739 62.414 49.209 62.3236 49.3462 62.2372C50.0092 61.77 50.5503 61.1505 50.924 60.4306C51.2977 59.7108 51.4931 58.9117 51.4937 58.1006V58.1006Z" fill="#57C3E5"/>
<path d="M51.4937 58.1006C51.4937 56.7535 50.9586 55.4615 50.006 54.509C49.0534 53.5564 47.7615 53.0212 46.4144 53.0212H29.5722L28.3968 56.4569C28.1353 57.2216 28.06 58.0377 28.1772 58.8373C28.2945 59.6369 28.6008 60.3971 29.0708 61.0545C29.5408 61.712 30.1609 62.2478 30.8796 62.6175C31.5982 62.9871 32.3948 63.18 33.2029 63.18H46.1208C47.0645 63.1798 47.9952 62.96 48.8392 62.5379C48.8687 62.5217 48.8992 62.5064 48.9286 62.4892C49.0739 62.414 49.209 62.3236 49.3462 62.2372C50.0092 61.77 50.5503 61.1505 50.924 60.4306C51.2977 59.7108 51.4931 58.9117 51.4937 58.1006V58.1006Z" fill="#1F59F6"/>
<path d="M58.6047 2.22778H4.76345C1.95819 2.22778 -0.315918 4.50189 -0.315918 7.30715V40.831C-0.315918 43.6362 1.95819 45.9103 4.76345 45.9103H58.6047C61.41 45.9103 63.6841 43.6362 63.6841 40.831V7.30715C63.6841 4.50189 61.41 2.22778 58.6047 2.22778Z" fill="url(#paint3_linear_433_14647)"/>
<path d="M56.3858 45.9102L61.3839 31.301C61.6457 30.5362 61.7211 29.72 61.604 28.9203C61.4868 28.1205 61.1806 27.3602 60.7105 26.7026C60.2405 26.0451 59.6203 25.5091 58.9016 25.1394C58.1828 24.7697 57.3861 24.5768 56.5778 24.5769H45.1117C43.4169 24.577 41.7645 25.107 40.3858 26.0926C39.0071 27.0782 37.971 28.4702 37.4225 30.0738L32.0049 45.9102H56.3858Z" fill="url(#paint4_linear_433_14647)"/>
</g>
<defs>
<linearGradient id="paint0_linear_433_14647" x1="14.9222" y1="62.8589" x2="51.4935" y2="62.8589" gradientUnits="userSpaceOnUse">
<stop stop-color="#2A17B5"/>
<stop offset="1" stop-color="#205BF5"/>
</linearGradient>
<linearGradient id="paint1_linear_433_14647" x1="62.1596" y1="82.5014" x2="77.1904" y2="82.5014" gradientUnits="userSpaceOnUse">
<stop stop-color="#2A17B5"/>
<stop offset="1" stop-color="#205BF5"/>
</linearGradient>
<linearGradient id="paint2_linear_433_14647" x1="594.217" y1="827.36" x2="1252.14" y2="827.36" gradientUnits="userSpaceOnUse">
<stop stop-color="#2A17B5"/>
<stop offset="1" stop-color="#205BF5"/>
</linearGradient>
<linearGradient id="paint3_linear_433_14647" x1="-0.315918" y1="24.0691" x2="63.6841" y2="24.0691" gradientUnits="userSpaceOnUse">
<stop stop-color="#1EF8F8"/>
<stop offset="1" stop-color="#0DB9B6"/>
</linearGradient>
<linearGradient id="paint4_linear_433_14647" x1="46.8326" y1="43.7576" x2="46.8326" y2="29.5537" gradientUnits="userSpaceOnUse">
<stop stop-color="#06A5D6"/>
<stop offset="1" stop-color="#0DB9B6" stop-opacity="0"/>
</linearGradient>
<clipPath id="clip0_433_14647">
<rect width="64" height="60.9524" fill="white" transform="translate(0 2)"/>
</clipPath>
</defs>
</svg>
