<svg id="Layer_1" data-name="Layer 1" xmlns="http://www.w3.org/2000/svg" xmlns:xlink="http://www.w3.org/1999/xlink" viewBox="0 0 742 517.45"><defs><style>.cls-1,.cls-10,.cls-2,.cls-3,.cls-4,.cls-5,.cls-6,.cls-63,.cls-7,.cls-8,.cls-9{fill:none;}.cls-10,.cls-2,.cls-3,.cls-4,.cls-5,.cls-6,.cls-7,.cls-8,.cls-9{stroke-width:4px;}.cls-2{stroke:url(#linear-gradient);}.cls-3{stroke:url(#linear-gradient-2);}.cls-4{stroke:url(#linear-gradient-3);}.cls-5{stroke:url(#linear-gradient-4);}.cls-6{stroke:url(#linear-gradient-5);}.cls-7{stroke:url(#linear-gradient-6);}.cls-8{stroke:url(#linear-gradient-7);}.cls-9{stroke:url(#linear-gradient-8);}.cls-10{stroke:url(#linear-gradient-9);}.cls-11,.cls-13,.cls-78{fill:#fff;}.cls-12{fill:#ffc612;}.cls-13,.cls-14{opacity:0.15;}.cls-13,.cls-14,.cls-16,.cls-18,.cls-78{isolation:isolate;}.cls-14,.cls-17{fill:#242c34;}.cls-15{fill:#f9fafd;}.cls-16,.cls-18{opacity:0.1;}.cls-16{fill:url(#linear-gradient-10);}.cls-18{fill:url(#linear-gradient-11);}.cls-19{fill:url(#linear-gradient-12);}.cls-20{fill:url(#linear-gradient-13);}.cls-21{clip-path:url(#clip-path);}.cls-22{fill:url(#linear-gradient-14);}.cls-23{fill:url(#linear-gradient-15);}.cls-24{fill:url(#linear-gradient-16);}.cls-25{fill:url(#linear-gradient-17);}.cls-26{fill:url(#linear-gradient-18);}.cls-27{fill-opacity:0.6;fill:url(#linear-gradient-19);}.cls-28{fill:url(#linear-gradient-20);}.cls-29{fill:#b3c1d1;}.cls-30{fill:#f7f7f7;}.cls-31{fill:#808b91;}.cls-32{fill:#98aab9;}.cls-33{fill:#c9c9c9;}.cls-34{fill:#f4f4f4;}.cls-35{fill:url(#linear-gradient-22);}.cls-36{fill:#eaecee;}.cls-37{fill:#f8fbff;}.cls-38{fill:#c1cee1;}.cls-39{fill:url(#linear-gradient-23);}.cls-40{fill:url(#linear-gradient-24);}.cls-41{fill:url(#linear-gradient-25);}.cls-42{fill:#f6f8fb;}.cls-43{fill:#aeaeae;}.cls-44{fill:#7d7d7d;}.cls-45{fill:#afafaf;}.cls-46{fill:#c1c1c1;}.cls-47{fill:#979797;}.cls-48{fill:#b5b5b5;}.cls-49{fill:#7a7a7a;}.cls-50{fill:#999;}.cls-51{fill:#d2d2d2;}.cls-52{fill:#b6b6b6;}.cls-53{fill:#bdbdbd;}.cls-54{fill:#94a1a8;}.cls-55{fill:#f3f2f3;}.cls-56{fill:#b8b5b9;}.cls-57{fill:#87929f;}.cls-58{fill:#b1b7c2;}.cls-59{fill:#c0c7d0;}.cls-60{fill:#cbd1dd;}.cls-61{fill:#9999ab;}.cls-62{fill:#d8dbe3;}.cls-63{stroke:#242c34;stroke-width:2.5px;}.cls-63,.cls-75,.cls-76{stroke-miterlimit:10;}.cls-64{fill:#bababa;}.cls-65{fill:#f8f7f8;}.cls-66{fill:#cecece;}.cls-67{fill:#e5e5e5;}.cls-68{fill:#2400a7;}.cls-69{fill:#4e32d8;}.cls-70{fill:#424f52;}.cls-71{fill:#f1f1f1;}.cls-72{fill:#d8d8d8;}.cls-73{fill:#666;}.cls-74{fill:#f9f9f9;}.cls-75,.cls-79{fill:#fefefe;}.cls-75{stroke:#f7f7f7;stroke-width:0.15px;}.cls-76{fill:#a0a0a0;stroke:#d8d8d8;stroke-width:0.2px;}.cls-77{fill:#dfdfdf;}.cls-78{opacity:0.4;}.cls-80{fill:#566068;}.cls-81{fill:#252c35;}.cls-82{fill:#bbb;}</style><linearGradient id="linear-gradient" x1="76.72" y1="340" x2="76.72" y2="135.15" gradientTransform="matrix(1, 0, 0, -1, 0, 540)" gradientUnits="userSpaceOnUse"><stop offset="0" stop-color="#ffc612"/><stop offset="1" stop-color="#ffc612" stop-opacity="0"/></linearGradient><linearGradient id="linear-gradient-2" x1="138.22" y1="324" x2="138.22" y2="119.15" xlink:href="#linear-gradient"/><linearGradient id="linear-gradient-3" x1="582.22" y1="324" x2="582.22" y2="118.92" xlink:href="#linear-gradient"/><linearGradient id="linear-gradient-4" x1="207.55" y1="304" x2="207.55" y2="99.15" xlink:href="#linear-gradient"/><linearGradient id="linear-gradient-5" x1="512.56" y1="304" x2="512.56" y2="98.02" xlink:href="#linear-gradient"/><linearGradient id="linear-gradient-6" x1="292.11" y1="304" x2="292.11" y2="99.15" xlink:href="#linear-gradient"/><linearGradient id="linear-gradient-7" x1="428.11" y1="304" x2="428.11" y2="98.35" xlink:href="#linear-gradient"/><linearGradient id="linear-gradient-8" x1="360" y1="304" x2="360" y2="99.15" xlink:href="#linear-gradient"/><linearGradient id="linear-gradient-9" x1="630.72" x2="630.72" y2="135.15" xlink:href="#linear-gradient"/><linearGradient id="linear-gradient-10" x1="195.75" y1="363.65" x2="225.87" y2="324.85" gradientTransform="matrix(1, 0, 0, -1, 0, 540)" gradientUnits="userSpaceOnUse"><stop offset="0"/><stop offset="1" stop-opacity="0"/></linearGradient><linearGradient id="linear-gradient-11" x1="545.84" y1="367.02" x2="562.39" y2="317.61" xlink:href="#linear-gradient-10"/><linearGradient id="linear-gradient-12" x1="527.89" y1="32.16" x2="582.24" y2="79.12" gradientTransform="matrix(1, 0, 0, -1, 0, 540)" gradientUnits="userSpaceOnUse"><stop offset="0" stop-color="#cfdbe6"/><stop offset="1" stop-color="#cfdbe6" stop-opacity="0"/></linearGradient><linearGradient id="linear-gradient-13" x1="431.87" y1="67.35" x2="480.74" y2="100.89" gradientTransform="matrix(1, 0, 0, -1, 0, 540)" gradientUnits="userSpaceOnUse"><stop offset="0" stop-color="#d8e2ea"/><stop offset="1" stop-color="#d8e2ea" stop-opacity="0"/></linearGradient><clipPath id="clip-path"><rect class="cls-1" x="654" y="458" width="66" height="46"/></clipPath><linearGradient id="linear-gradient-14" x1="681.03" y1="43.62" x2="713.53" y2="72.12" xlink:href="#linear-gradient-12"/><linearGradient id="linear-gradient-15" x1="615.86" y1="68.01" x2="648.36" y2="96.51" xlink:href="#linear-gradient-12"/><linearGradient id="linear-gradient-16" x1="368.98" y1="30.45" x2="401.48" y2="58.95" xlink:href="#linear-gradient-12"/><linearGradient id="linear-gradient-17" x1="283.71" y1="81.31" x2="316.21" y2="109.81" xlink:href="#linear-gradient-12"/><linearGradient id="linear-gradient-18" x1="193.38" y1="36.72" x2="235.38" y2="72.72" xlink:href="#linear-gradient-12"/><linearGradient id="linear-gradient-19" x1="113.1" y1="58.51" x2="157.1" y2="80.01" xlink:href="#linear-gradient-12"/><linearGradient id="linear-gradient-20" x1="38.78" y1="25.79" x2="66.26" y2="49.24" xlink:href="#linear-gradient-12"/><linearGradient id="linear-gradient-22" x1="112.49" y1="136.64" x2="112.49" y2="53" gradientTransform="matrix(1, 0, 0, -1, 0, 540)" gradientUnits="userSpaceOnUse"><stop offset="0" stop-color="#e9f0fa"/><stop offset="1" stop-color="#e1e8f2"/></linearGradient><linearGradient id="linear-gradient-23" x1="99.55" y1="159.3" x2="104.66" y2="159.3" gradientTransform="matrix(1, 0, 0, -1, 0, 540)" gradientUnits="userSpaceOnUse"><stop offset="0" stop-color="#e3e9f1"/><stop offset="1" stop-color="#d9e1e9"/></linearGradient><linearGradient id="linear-gradient-24" x1="77.07" y1="130.61" x2="101.41" y2="130.61" xlink:href="#linear-gradient-23"/><linearGradient id="linear-gradient-25" x1="101.46" y1="115.06" x2="127.48" y2="115.06" xlink:href="#linear-gradient-23"/></defs><title>XENON PLATFORM ICON 2</title><path class="cls-2" d="M120.22,200v89.77a2,2,0,0,1-1.31,1.87l-84.38,31a2,2,0,0,0-1.31,1.88V419"/><path class="cls-3" d="M167.22,216v90a2,2,0,0,1-1,1.75l-55.93,30.82a2,2,0,0,0-1,1.75V435"/><path class="cls-4" d="M553.22,216v90.08a2,2,0,0,0,1,1.75l55.94,30.86a2,2,0,0,1,1,1.75v94.8"/><path class="cls-5" d="M226.89,236v90.22a2,2,0,0,1-.73,1.54L189,358.52a2,2,0,0,0-.73,1.54V455"/><path class="cls-6" d="M493.22,236v90.73a2,2,0,0,0,.72,1.53l37.23,30.94a2,2,0,0,1,.72,1.54V456.2"/><path class="cls-7" d="M305,236v90.46a2,2,0,0,1-.44,1.25l-24.9,30.86a2.05,2.05,0,0,0-.44,1.26V455"/><path class="cls-8" d="M415.22,236v90.81a2,2,0,0,0,.44,1.25l24.9,31a2,2,0,0,1,.44,1.25v95.55"/><path class="cls-9" d="M360,236V452"/><path class="cls-10" d="M587.22,200v89.77a2,2,0,0,0,1.31,1.87l84.38,31a2,2,0,0,1,1.31,1.88V419"/><rect class="cls-11" width="720" height="260" rx="8"/><circle class="cls-12" cx="360" cy="63" r="32"/><path class="cls-11" d="M372.46,47.61H366.7l-7.07,10.1-7.07-10.1h-5.75l9.94,14.21L345.68,77.63h5.76l8.19-11.7,8.2,11.7h5.75L362.51,61.82Z"/><path class="cls-13" d="M344.31,47.61h2.5l9.94,14.21h-2.49Z"/><path class="cls-13" d="M372.46,47.61H375L365,61.82h-2.5Z"/><path class="cls-14" d="M376.08,77.63,365,61.82h-2.5l11.07,15.81Z"/><path class="cls-14" d="M343.19,77.63h2.49l11.07-15.81h-2.49Z"/><path class="cls-14" d="M352.56,47.61h1.91L359.64,55v2.68Z"/><path class="cls-14" d="M364.79,47.61,359.64,55v2.68l7.07-10.1Z"/><path class="cls-13" d="M359.63,65.93V68.6l-6.27,9h-1.91Z"/><path class="cls-13" d="M367.83,77.63l-8.2-11.7V68.6l6.29,9Z"/><rect class="cls-15" x="32" y="136" width="312" height="96" rx="8"/><rect class="cls-15" x="376" y="136" width="312" height="96" rx="8"/><path class="cls-16" d="M196.4,232,164,199.91,210.35,154,289,232Z"/><path class="cls-11" d="M210.06,200H165.94a1.94,1.94,0,0,1-1.94-1.94V153.94a1.94,1.94,0,0,1,1.94-1.94h44.11a1.94,1.94,0,0,1,1.94,1.94v44.11A1.93,1.93,0,0,1,210.06,200Z"/><path class="cls-17" d="M192.74,171.76v2.29a1.78,1.78,0,0,0-1.25-.47,2,2,0,0,0-2,2.1,2.06,2.06,0,0,0,2,2.11,1.91,1.91,0,0,0,1.25-.47v.39h.85v-5.94h-.85Zm-1.21,5.16a1.25,1.25,0,0,1,0-2.5,1.25,1.25,0,0,1,0,2.5Z"/><path class="cls-17" d="M188.75,173.75h-.86v4h.86Z"/><path class="cls-17" d="M188.32,172.91a.55.55,0,1,0,0-1.1.55.55,0,0,0,0,1.1Z"/><path class="cls-17" d="M182.92,173.75v.31a1.7,1.7,0,0,0-1.19-.47,2.11,2.11,0,0,0,0,4.21,1.85,1.85,0,0,0,1.19-.47v.39a1.24,1.24,0,0,1-2.08.92l-.49.71a2.1,2.1,0,0,0,3.43-1.63v-4h-.86Zm-1.19,3.17a1.25,1.25,0,0,1,0-2.5,1.25,1.25,0,0,1,0,2.5Z"/><path class="cls-17" d="M199.52,171.76h-1.14l-1.4,2-1.4-2h-1.14l2,2.81-2.19,3.14h1.14l1.62-2.32,1.62,2.32h1.14l-2.19-3.14Z"/><path class="cls-17" d="M186.9,174.52l.19,0,.23-.83a2.55,2.55,0,0,0-.41-.05,2,2,0,0,0-1.25.48v-.39h-.85v4h.85v-2A1.25,1.25,0,0,1,186.9,174.52Z"/><path class="cls-17" d="M174.47,177.16a1.49,1.49,0,0,1-1.07-.44,1.51,1.51,0,0,1,0-2.15l.34.34a1.05,1.05,0,0,0,1.48,1.49,1.08,1.08,0,0,0,0-1.49l.34-.34a1.53,1.53,0,0,1,0,2.15A1.61,1.61,0,0,1,174.47,177.16Z"/><path class="cls-17" d="M174.7,174.22h-.47v1.12h.47Z"/><path class="cls-18" d="M541.07,235,506,192.49,548.69,157,613,235Z"/><path class="cls-11" d="M560.83,180a8.5,8.5,0,0,0-3.36-2.1v-.66A8.55,8.55,0,0,0,554,170a11.45,11.45,0,0,0,.5-3.34,10.81,10.81,0,0,0-3-7.43,10.5,10.5,0,0,0-12.48-2.06,12.82,12.82,0,0,0-1.27-1.49,12.36,12.36,0,0,0-20.15,4,12.14,12.14,0,0,0-.9,4.76,13.24,13.24,0,0,0,.32,2.88,7.92,7.92,0,0,0-4.63,2.35,8.3,8.3,0,0,0-1.94,3.08,9.83,9.83,0,0,0-7.55,3,10.21,10.21,0,0,0,0,14.32,9.66,9.66,0,0,0,7.12,3h24.43a8.55,8.55,0,0,0,2.36,4.35,8.65,8.65,0,0,0,12.31,0,8.52,8.52,0,0,0,1.32-1.67,2.4,2.4,0,0,1,2.47-1,8.48,8.48,0,0,0,7.84-2.41,8.61,8.61,0,0,0,1.89-2.84,8.53,8.53,0,0,0,.63-3.35,8.87,8.87,0,0,0-2.47-6.21Z"/><path class="cls-19" d="M575.68,451,489,501.27l32,15.23,101.54-50.27Z"/><path class="cls-20" d="M503.76,442.59l1-7.71-7,1.52-15.63,5.32L412,467l1.1,1,13.34-4.8,17,2.94,1.65,10.1-9.1,5.43,1.53.82L493,449.33Zm-59.64,14.63,16.74.79-2,9.53-13.44-2.32-1.3-8Zm35-7.74-3.13,8-12.76-.61,1.53-7.26Zm-16.62.74-1.39,6.59-15-.7,16.35-5.89Zm-1.33,16.41,1.8-8.51,11.57.53-13.37,8Zm-15.54-.09,12.16,2.11L447,475.09l-1.38-8.55Zm-16.81-4.18,13.2-4.75,1.18,7.23Zm52.67-19-1.9,4.9-12,.12,13.93-5Zm8.55,6-11.38,6.82,2.62-6.72,8.76-.1Zm1.27-1.22-9.57.1,2.09-5.33Zm1.41-.95-7-4.88,7.74.44-.75,4.42Zm2.29-.8.6-3.53,4.8.29Zm-.84-7.61-.47,2.75-6.15-.36Zm7.74,2.38-4-2.82,5.34-1.88Zm-5.66-2,3.94,2.76-4.38-.26Z"/><g class="cls-21"><path class="cls-22" d="M706.5,458.5l-52.5,30,26.5,16,61.5-30Z"/></g><path class="cls-23" d="M646.5,440,594,470l13,7,61.5-30Z"/><path class="cls-24" d="M396.5,474,344,504l24.5,9.5,61.5-30Z"/><path class="cls-25" d="M303.5,411l-62,34.5,53,30,61.5-30Z"/><path class="cls-26" d="M221.5,455.5,159,492l38,20,74-34.5Z"/><path class="cls-27" d="M169.5,448,107,484.5l8,2,61.5-33Z"/><path class="cls-28" d="M59.74,486,25.86,505.88a4.33,4.33,0,0,0,.25,7.6,21.11,21.11,0,0,0,18.45.26L83.5,495.5Z"/><path class="cls-19" d="M575.68,451,489,501.27l32,15.23,101.54-50.27Z"/><path class="cls-29" d="M372.18,498.07c6.71,3.87,6.75,10.15.08,14a26.71,26.71,0,0,1-24.21,0c-6.7-3.88-6.74-10.16-.08-14a26.71,26.71,0,0,1,24.21,0Z"/><path class="cls-30" d="M376.09,470.13c0,.15,0,.31,0,.46a4.7,4.7,0,0,1-.06.51,3.33,3.33,0,0,1-.1.4,4.34,4.34,0,0,1-.14.48c0,.13-.11.26-.16.39a5.4,5.4,0,0,1-.23.49c-.07.12-.14.24-.22.36s-.24.37-.38.55-.27.35-.42.53l-.1.12c-.21.22-.44.44-.67.66l-.49.4-.44.35c-.15.12-.38.26-.57.38a7.11,7.11,0,0,1-.61.39,13.18,13.18,0,0,1-1.5.76c-.14.07-.3.13-.45.19-.4.18-.82.33-1.25.48-.15.05-.3.11-.46.15s-.54.16-.82.24l-.62.17c-.29.07-.59.12-.88.18l-.6.13c-.6.1-1.2.18-1.81.25l-.56.05-1.08.07-.69,0h-.88c-.24,0-.49,0-.73,0l-.81,0-.73-.06-.8-.09-.71-.1-.84-.14-.66-.14c-.34-.07-.66-.15-1-.24-.18-.05-.37-.09-.54-.15q-.89-.26-1.71-.57l-.8-.34-.42-.19c-.4-.19-.79-.39-1.17-.61a7.8,7.8,0,0,1-3.24-2.64,8,8,0,0,1-1.46-3.92l-.1,34.33a8,8,0,0,0,4.7,6.57,12.88,12.88,0,0,0,1.17.61l.41.18c.24.1.47.22.71.31l.09,0c.56.22,1.13.41,1.71.58l.14,0,.41.1q.48.13,1,.24l.26.07.39.07.85.14a3.43,3.43,0,0,0,.34.06l.37,0,.8.08.38,0c.12,0,.23,0,.35,0l.81,0,.4,0h1.9l1.08-.08.44,0,.13,0c.61-.06,1.22-.14,1.81-.25h.09l.51-.11.88-.19.63-.16c.28-.08.55-.15.82-.24l.17,0,.29-.11c.42-.14.84-.3,1.24-.47l.46-.19c.51-.23,1-.48,1.5-.76l.19-.11c.15-.09.27-.19.41-.28s.39-.25.58-.38.29-.23.44-.35l.49-.4.09-.09c.21-.19.4-.38.58-.57l.1-.13c.11-.12.22-.24.31-.36l.11-.16c.13-.18.26-.37.37-.56s.12-.15.16-.22l.06-.12a4.52,4.52,0,0,0,.23-.5c0-.09.1-.19.14-.28s0-.07,0-.1a4.34,4.34,0,0,0,.14-.48c0-.11.07-.22.09-.32a.28.28,0,0,1,0-.09,4,4,0,0,0,.06-.5,3.11,3.11,0,0,1,0-.32v-.14Z"/><path class="cls-31" d="M371.39,463.56c6.24,3.6,6.27,9.45.08,13a24.81,24.81,0,0,1-22.51,0c-6.24-3.6-6.27-9.45-.08-13a24.77,24.77,0,0,1,22.51,0Z"/><path class="cls-32" d="M376.09,460.6c0,.16,0,.31,0,.47a4.53,4.53,0,0,1-.06.5,4.11,4.11,0,0,1-.1.41,3.64,3.64,0,0,1-.14.47c0,.13-.11.26-.16.39a4.37,4.37,0,0,1-.23.49c-.07.13-.14.24-.22.36s-.24.37-.38.55a5.43,5.43,0,0,1-.42.53l-.1.12c-.21.22-.44.44-.67.66s-.32.27-.49.4l-.44.36c-.15.11-.38.25-.57.38s-.39.26-.61.39a13.12,13.12,0,0,1-1.5.75l-.45.2c-.4.17-.82.33-1.25.47l-.46.16-.82.23-.62.17-.88.19-.6.12c-.6.11-1.2.19-1.81.25l-.56.05c-.36,0-.72.06-1.08.07l-.69,0h-.88c-.24,0-.49,0-.73,0l-.81,0-.73-.06-.8-.09-.71-.1-.84-.15-.66-.13-1-.25-.54-.14c-.59-.17-1.16-.36-1.71-.58-.28-.1-.54-.22-.8-.34l-.42-.18c-.4-.19-.79-.39-1.17-.61a8,8,0,0,1-4.7-6.57l-.1,9.66a7.92,7.92,0,0,0,4.7,6.56,12.88,12.88,0,0,0,1.17.61l.41.19.71.31.09,0c.56.22,1.13.4,1.71.57l.14.05.41.1q.48.14,1,.24l.26.07.39.06.85.15.34.06.37,0c.27,0,.53.07.8.09l.38,0a2.06,2.06,0,0,0,.35,0l.81,0,.4,0h1.65l.25,0c.36,0,.72,0,1.08-.07l.44,0,.13,0c.61-.06,1.22-.14,1.81-.25h.09l.51-.11.88-.19.63-.17.82-.23.17-.05.29-.11c.42-.14.84-.3,1.24-.47l.46-.2a15,15,0,0,0,1.5-.75l.19-.12c.15-.08.27-.18.41-.27l.58-.38.44-.35.49-.41.09-.08a7.93,7.93,0,0,0,.58-.58l.1-.12c.11-.12.22-.24.31-.36l.11-.16c.13-.18.26-.37.37-.56s.12-.15.16-.23l.06-.12c.09-.17.16-.33.23-.5s.1-.19.14-.29,0-.06,0-.1a4.19,4.19,0,0,0,.14-.47c0-.11.07-.22.09-.32a.28.28,0,0,1,0-.09,4.53,4.53,0,0,0,.06-.5c0-.11,0-.22,0-.33v-.14Z"/><path class="cls-29" d="M371.39,454c6.24,3.6,6.27,9.45.08,13a24.81,24.81,0,0,1-22.51,0c-6.24-3.6-6.27-9.45-.08-13a24.81,24.81,0,0,1,22.51,0Z"/><path class="cls-33" d="M369.85,457c0,.1,0,.2,0,.31l-.06.25a2.33,2.33,0,0,1-.09.29,1.73,1.73,0,0,1-.1.24c0,.08-.09.2-.14.3s-.09.14-.13.22l-.23.34-.16.19a5.76,5.76,0,0,1-.41.44l-.16.16L368,460c-.1.08-.17.15-.27.22a3.53,3.53,0,0,1-.35.24l-.37.24a11.24,11.24,0,0,1-1.36.64l-.38.15c-.29.1-.6.19-.91.27s-.65.18-1,.25-.78.15-1.18.2l-.29,0a15,15,0,0,1-1.64.09H360a14.39,14.39,0,0,1-1.62-.09l-.24,0c-.53-.06-1.05-.15-1.57-.26l-.28-.07a12.38,12.38,0,0,1-1.35-.41l-.24-.08a11.31,11.31,0,0,1-1.49-.71,5.6,5.6,0,0,1-2.7-2.93,3.37,3.37,0,0,1-.18-1.09h0v2.74a4.87,4.87,0,0,0,2.88,4,10.57,10.57,0,0,0,1.4.67.19.19,0,0,1,.08,0l.25.08c.28.1.56.21.86.29s.33.08.49.12l.28.07.25.06c.31.07.64.12,1,.17l.35,0,.25,0,.35,0q.48,0,1,.06h1c.36,0,.72,0,1.08-.08h.12a2.89,2.89,0,0,0,.29,0c.28,0,.56-.07.83-.12l.36-.09c.33-.07.66-.15,1-.24l.52-.13c.17-.05.26-.1.4-.15l.38-.14a12.08,12.08,0,0,0,1.36-.65l.12-.07c.09-.05.16-.11.25-.17l.35-.23.27-.22.3-.25s.05,0,.06-.05l.11-.11a5.76,5.76,0,0,0,.41-.44l.09-.1.07-.09c.08-.12.15-.22.22-.35l.09-.14s0,0,0-.07l.14-.3c0-.06.06-.12.08-.18a.07.07,0,0,1,0-.06c0-.1.06-.2.08-.29a1.85,1.85,0,0,0,.06-.2v-.06c0-.1,0-.2,0-.3a1.38,1.38,0,0,1,0-.2v-2.83A1.42,1.42,0,0,1,369.85,457Z"/><path class="cls-34" d="M369.87,456.7c0-3.12-4.35-5.66-9.74-5.67s-9.76,2.5-9.77,5.62,4.35,5.66,9.74,5.68S369.86,459.82,369.87,456.7Z"/><path class="cls-32" d="M354.27,483.47l-2.57,4.77,4.2,2.43-7.67,5.87,1.47-6.76-3-1.75,3.26-7.07Z"/><path class="cls-35" d="M109.35,403.36l-1.93,81a2.94,2.94,0,0,0,1.45,2.19.89.89,0,0,0,.73.24h.24c.24,0,.24,0,.48.24h4.59c.24,0,.24,0,.48-.24h.24c.24-.24.73-.24,1-.49l.24-.24a.24.24,0,0,0,.24-.24l.24-.24v-.25a.24.24,0,0,1,.24-.24v-.48l-1.45-81Z"/><path class="cls-36" d="M124.81,392l-17.15,9.94-7.48-4.12,17.14-10.18Z"/><path class="cls-37" d="M124.81,392v5.09a5.21,5.21,0,0,1-2.66,4.61l-14.49,8.48v-8Z"/><path class="cls-38" d="M107.66,401.91v8.24l-7.48-4.36v-8Z"/><path class="cls-39" d="M100.9,401.67s-4.1-37.82,1.93-42.67c0,0,4.11,1,0,43.39Z"/><path class="cls-40" d="M101.39,407S82.31,417.67,77,412.58c0,0,3.14-4.13,23.9-7.76Z"/><path class="cls-41" d="M102.35,405.06s25.11,33.46,25.11,39.76c0,0-3.14-.49-26.07-39.27Z"/><path class="cls-42" d="M105.25,402.64c1.21,1.94,1.45,3.88-.48,5.09s-5.32,1.45-6.52-.49.24-5.09,2.17-6.3C102.11,399.73,104,400.7,105.25,402.64Z"/><path class="cls-43" d="M459,425.2c0-.47.93-.85,2.1-.85s2.1.38,2.1.85v3.05c0,.46-.93.85-2.1.85s-2.1-.38-2.1-.85Z"/><path class="cls-43" d="M407.13,403.32c0-.46.93-.85,2.1-.85s2.1.38,2.1.85v3.06c0,.46-.93.85-2.1.85s-2.1-.39-2.1-.85Z"/><path class="cls-44" d="M412.73,468.56l.79-.43,2.55-11.7-.79.43Z"/><path class="cls-44" d="M415.75,454.76l.79-.43,2.53-11.57-.8.43Z"/><path class="cls-45" d="M424.93,453.23l.79-.43-9.18,1.53-.79.43Z"/><path class="cls-46" d="M426.35,453l.79-.43-7.35-11.09-.79.43Z"/><path class="cls-46" d="M435.4,466.68l.8-.44-7.85-11.86-.8.44Z"/><path class="cls-45" d="M434.93,451.57l.8-.44-8.59,1.44-.79.43Z"/><path class="cls-47" d="M427,435.24l.8-.43-8,4.33-.79.43Z"/><path class="cls-44" d="M419.07,439.57l.79-.43L423,424.79l-.79.44Z"/><path class="cls-48" d="M435.31,449.41l.79-.43-6.26-13-.79.43Z"/><path class="cls-48" d="M428.17,434.63l.79-.43-5.34-11.05-.79.44Z"/><path class="cls-47" d="M435,431l.79-.44L429,434.2l-.79.43Z"/><path class="cls-49" d="M422.83,423.59l.79-.44,7-5.33-.79.43Z"/><path class="cls-44" d="M423.17,420.79l.79-.43,2.69-12.21-.79.43Z"/><path class="cls-43" d="M435.18,428.07l.8-.43L431.64,417l-.79.44Z"/><path class="cls-43" d="M430.07,415.52l.79-.43-3.45-8.45-.79.43Z"/><path class="cls-49" d="M430.85,417.44l.79-.44,4.26-3.25-.79.43Z"/><path class="cls-44" d="M427,403.26l.79-.43,1.28-5.8-.8.43Z"/><path class="cls-50" d="M430.37,401.6l.79-.43-3.36,1.66-.79.43Z"/><path class="cls-51" d="M434.61,410.08l.79-.43-7.54-4.57-.8.43Z"/><path class="cls-52" d="M431.51,401l.8-.43-1.89-3.78-.79.43Z"/><path class="cls-52" d="M435.07,408.15l.79-.44-2.64-5.3-.8.44Z"/><path class="cls-50" d="M433.89,399.84l.79-.43-2.37,1.19-.8.43Z"/><path class="cls-51" d="M434.1,398.14l.8-.43-4.36-2.64-.79.43Z"/><path class="cls-53" d="M427.63,394.33l7.46-3.33,1,6.62.41,15.48.39,69.9-1.44-.64-.08-13.3-9.27-14-10.86,1.8-2.55,11.7-1.41-1.08L424.79,406Zm7.3,57.24-7-14.49L419,441.91,426.34,453l8.59-1.43Zm-5.14-33.32-7,5.33,5.35,11.05,6.79-3.69-5.16-12.69Zm5.41,14.86L429,436.46l6.26,13-.1-16.3Zm-16.14,6.47,8-4.33-4.84-10-3.12,14.35Zm5.86,13.65-6.66-10-2.53,11.57,9.19-1.54Zm10.47,13.45-.08-13.14-7.77,1.28Zm-.29-52.49-4.27,3.25,4.34,10.65-.07-13.89Zm-9.25-5.59-2.69,12.21,5.84-4.47-3.15-7.74Zm.76-1.51,3.45,8.45,4.63-3.56Zm.44-1.56,7.54,4.57-3.31-6.67-4.21,2.08Zm0-2.27,3.35-1.66-2.08-4.14Zm8-1.71-2.61,1.29,2.65,5.3Zm-5.29-6.05,4.36,2.64-.08-5.31Zm4.15,4.34-4.26-2.59,1.88,3.78Z"/><path class="cls-44" d="M455.38,474.08l-.63-.61-2.15-12.62.63.61Z"/><path class="cls-44" d="M452.84,459.19l-.64-.61-2.13-12.47.64.6Z"/><path class="cls-45" d="M445.53,455.75l-.63-.61,7.3,3.44.64.61Z"/><path class="cls-46" d="M444.4,455.23l-.63-.61,5.71-10,.64.61Z"/><path class="cls-46" d="M437.35,467.54l-.63-.61,6.11-10.68.63.61Z"/><path class="cls-45" d="M437.57,452l-.63-.61,6.83,3.22.63.61Z"/><path class="cls-47" d="M443.67,436.71l-.63-.61,6.36,6.09.64.61Z"/><path class="cls-44" d="M450,442.8l-.64-.61-2.63-15.47.63.61Z"/><path class="cls-48" d="M437.25,449.7l-.63-.61L441.45,437l.63.61Z"/><path class="cls-48" d="M442.76,435.85l-.63-.61,4.13-10.34.63.61Z"/><path class="cls-47" d="M437.33,430.66l-.63-.61,5.43,5.19.63.61Z"/><path class="cls-49" d="M446.89,425.51l-.63-.61-5.6-6.94.64.61Z"/><path class="cls-44" d="M446.58,422.54l-.63-.61-2.26-13.17.64.6Z"/><path class="cls-43" d="M437.13,427.64l-.64-.61,3.33-10.12.63.61Z"/><path class="cls-43" d="M441.05,415.69l-.63-.61,2.65-8,.63.61Z"/><path class="cls-49" d="M440.45,417.52l-.63-.61-3.42-4.22.64.6Z"/><path class="cls-44" d="M443.35,403.63l-.63-.61-1.07-6.26.63.61Z"/><path class="cls-50" d="M440.67,401.23l-.63-.61,2.68,2.4.63.61Z"/><path class="cls-51" d="M437.4,409.15l-.64-.61,5.94-3.2.64.61Z"/><path class="cls-52" d="M439.76,400.41l-.64-.61,1.46-3.52.63.61Z"/><path class="cls-52" d="M437,407.05l-.63-.6,2-4.95.63.6Z"/><path class="cls-50" d="M437.85,398.7l-.63-.61,1.9,1.71.64.61Z"/><path class="cls-51" d="M437.67,396.9l-.63-.61,3.43-1.85.63.61Z"/><path class="cls-54" d="M445.15,406.87l11.33,66.37-1.1.84-2.15-12.62-8.65-4.06L437.37,470l.68,12.62-1.13.37-1-71.12.12-14-.93-6.91,7.68,3.27ZM437.57,452l6.83,3.21,5.72-10L443,438.43Zm3.73-33.44-4,12.09,5.44,5.19,4.12-10.34-5.59-6.94Zm-4.14,14.28.09,16.84,4.84-12.13ZM450,442.81l-2.63-15.47-3.74,9.38,6.37,6.09Zm-4.51,12.94,7.3,3.45-2.13-12.48-5.17,9Zm-8.18,11.8,6.11-10.69-6.19-2.9ZM437,413.3l.09,14.34,3.33-10.12L437,413.29Zm7.29-3.94-2.43,7.38,4.68,5.8-2.26-13.18Zm-.63-1.71-6.37,3.43,3.72,4.61Zm-.37-1.7-3.37-3-2.56,6.2,5.94-3.2Zm0-2.32-1.07-6.26-1.61,3.86,2.68,2.4Zm-6.38-3.4,0,6.82,2-4.95L437,400.23Zm.7-3.33,3.43-1.85-4.19-2.22Zm.18,1.8,1.9,1.71,1.46-3.53-3.36,1.82"/><path class="cls-53" d="M436.4,415.76l0,1.68,22.71,9,6.91-2.85v-2.46l-20.86-15.08-1.79.26,19.81,14.28-3.32,1.15-22.45-12.59-1.29.93,22.13,12.19-.17,2.36Zm23.44,7.83,4.91-1.86v1.43l-4.91,1.74Z"/><path class="cls-43" d="M463.94,422v.5l-4.1,1.53v.83l4.9-1.75v-1.42Z"/><path class="cls-43" d="M460.73,421.43,446,413.16l-1.19.32,15,8.25Z"/><path class="cls-43" d="M458.07,424.64l0-.5-21.05-8.55-1.1.06Z"/><path class="cls-43" d="M463.2,422.82l-.59-.28-2.05.78,1,.58Z"/><path class="cls-53" d="M424.13,413.29l-17.13-10v-2.89l18.89,3.82-.17,1.78-17.59-4.26,0,.94,16.35,9Z"/><path class="cls-53" d="M426.09,401l-14.77-1.23-4.32.65,1.42.29,3.24-.38,14.13,1.47Z"/><path class="cls-43" d="M425.79,401.83l-14.13-1.47-3.24.38,1.42.29,1.48-.12,14.25,1.83Z"/><path class="cls-43" d="M423.6,411.37l-15.49-8.64,0-.94.56.13v.29l15.15,8Z"/><path class="cls-11" d="M681.08,503.67l.28.14L696,495.07V462.85l-14.92,8.66Z"/><path class="cls-55" d="M681.08,471.48,696,462.85,669,448l-14.9,8.25Z"/><path class="cls-56" d="M654.58,456.79l26.13,14.91v31.86h.08l.29.1V471.54l-27-15.26v.84Z"/><path class="cls-57" d="M680.71,471.71l-.54.33V504l.54-.35Z"/><path class="cls-55" d="M654,457.19v31.58l.14.07L680.2,504V472.07l-26.06-14.8-.14-.11Zm8.53,13.67a5.73,5.73,0,0,1,4.72,1,15.85,15.85,0,0,1,5.4,5.78,15.28,15.28,0,0,1,2.17,7.47,5.72,5.72,0,0,1-1.21,4,3.23,3.23,0,0,1-1,.72,5.38,5.38,0,0,1-5.4-.77,15.62,15.62,0,0,1-5.33-5.77,14.76,14.76,0,0,1-2.2-7.41,4.78,4.78,0,0,1,2.24-4.75,4,4,0,0,1,.56-.26Z"/><path class="cls-58" d="M661.52,479.32h4.23a.32.32,0,0,1,0-.14h-3.73l-.53.14Zm12,5.54-3.72-3.17-1-.81h-.35l4.6,3.94h.43Zm-5.43-10.68.46-.17-2-1-.42.15Z"/><path class="cls-59" d="M661.25,474.82a13.16,13.16,0,0,0,.79,4.34h3.72a1.32,1.32,0,0,1,.36-.78l.17-.18-.2-5.1.42-.14,2,1-.25,3.17h.08a1.39,1.39,0,0,1,1,.26,3.27,3.27,0,0,1,.95,1.23,4.16,4.16,0,0,1,.44,1.76,1.57,1.57,0,0,1-.26.92.92.92,0,0,1-.35.24,1.08,1.08,0,0,1-.36.11l3.72,3.17-.9,2-.29-.07-4.48-5.11a2.15,2.15,0,0,1-1.16-.31l-3.31.63a2.64,2.64,0,0,0,.15.29,15.28,15.28,0,0,0,5.32,5.77,3.32,3.32,0,0,0,1.94,1.5,3.38,3.38,0,0,0,2.44-.22,3.33,3.33,0,0,0,1.64-1.8,3.29,3.29,0,0,0,0-2.43,15.45,15.45,0,0,0-2.16-7.48,16,16,0,0,0-5.4-5.77,5.8,5.8,0,0,0-2.27-1,6,6,0,0,0-2.49,0,5.54,5.54,0,0,0-1.25,4Z"/><path class="cls-60" d="M662.65,482.14l.73-.14,3.3-.64a1.44,1.44,0,0,1-.49-.39,1.52,1.52,0,0,1-.3-.56,2.69,2.69,0,0,1-.14-1.09h-4.22l1.09,2.86Zm10.43,2.68-4.61-3.95c-.08.57-.3.81-.64.81l4.47,5.11.77-2Zm-6.8-6.59c.4-.08.88.31,1.44,1.12l.35-5.18-2-1.06.21,5.11Z"/><path class="cls-61" d="M659.66,475.85a14.67,14.67,0,0,0,2.23,7.44,15.49,15.49,0,0,0,5.33,5.78,5.25,5.25,0,0,0,2.59,1.12,5.4,5.4,0,0,0,2.81-.35,3.36,3.36,0,0,0,1-.72,6.07,6.07,0,0,1-2.51,0,5.9,5.9,0,0,1-2.28-1,15.46,15.46,0,0,1-5.32-5.78,1.59,1.59,0,0,1-.15-.29l-.72.14-1.1-2.85.53-.14a13.37,13.37,0,0,1-.79-4.34,5.74,5.74,0,0,1,1.25-4,4.17,4.17,0,0,0-.57.26,4.95,4.95,0,0,0-2.26,4.77Z"/><path class="cls-61" d="M668.08,479.27h-.39c-.57-.8-1.05-1.17-1.44-1.09l-.17.17a1.37,1.37,0,0,0-.36.78.33.33,0,0,0,0,.14,2.52,2.52,0,0,0,.13,1.09,1.77,1.77,0,0,0,.3.56,1.72,1.72,0,0,0,.49.4,2.18,2.18,0,0,0,1.17.31c.34,0,.55-.24.64-.81h.39l1,.81a.89.89,0,0,0,.35-.11.88.88,0,0,0,.36-.24,1.49,1.49,0,0,0,.25-.92,4.15,4.15,0,0,0-.43-1.76,3.4,3.4,0,0,0-1-1.18,1.38,1.38,0,0,0-1-.25h-.07Z"/><path class="cls-62" d="M680.17,472l.54-.33-26.1-14.87-.5.28v.15Z"/><path class="cls-63" d="M27.42,466.69v31.76a7.12,7.12,0,0,0,3.74,6.25l5.71,3.05a7.11,7.11,0,0,0,6.78-.06l13.29-7.39a9.92,9.92,0,0,0,4.89-6.76,9.85,9.85,0,0,0-2.06-8.09L30,449.1"/><path class="cls-55" d="M25.32,495.56,16,489.89a4.11,4.11,0,0,1-2-3.49v-4.68l11.34,5.86Z"/><path class="cls-55" d="M31.07,436.49l9.68,5.28L23,456.46l-9-4.76v-1.39a10.62,10.62,0,0,1,5.31-9.24l7.85-4.53a4,4,0,0,1,3.91-.05Z"/><path class="cls-55" d="M23,455.54l-9-3.86v31.65l9.22,5.31Z"/><path class="cls-11" d="M23,455.55,23.21,492a4.05,4.05,0,0,0,.55,2,4.12,4.12,0,0,0,1.5,1.49,3.94,3.94,0,0,0,2,.54,4.15,4.15,0,0,0,2-.54L40.7,489a4.12,4.12,0,0,0,1.48-1.48,4.05,4.05,0,0,0,.53-2l-.18-40.38a4,4,0,0,0-6-3.46l-8.15,4.71A10.65,10.65,0,0,0,23,455.55Z"/><path class="cls-64" d="M27.41,462.17c0,.49.35.7.79.43l.62-.36.2-.87h-.24c-.31.06-.49.09-.49-.28v-.19s0-.24.39-.46l1-.67.73-2.09a1.43,1.43,0,0,1,.44-.67c.72-.49,1.45-1,2.18-1.37l1.34-.78a22.78,22.78,0,0,1,2.18-1.14.33.33,0,0,1,.26,0,.35.35,0,0,1,.2.16l.74,1.24,1.05-.54c.39-.22.39,0,.39,0v.2c0,.38-.19.54-.5.87l-.24.26.32,1v1.26l-.22.49a15.47,15.47,0,0,1-4.74,3.92l-.09.06-.1.05c-.59.34-3.72,2.09-4.72,1.52L28.7,464v-1.36l-.54.31c-.61.34-1.1.06-1.1-.64v-1.16l.31-.18Zm6.27-4c1-.56,1.94-1.1,2.92-1.6l.64-.33s.33-.19.2-.43l-.2-.44-.3-.48-.37-.58a26.63,26.63,0,0,0-2.82,1.43,32.34,32.34,0,0,0-2.82,1.83l-.37,1-.29.82-.18.66c-.15.38.17.22.19.21l.68-.44.47-.32c.75-.46,1.5-.9,2.25-1.34Zm3.61.73a1,1,0,0,0,.28-.3,1,1,0,0,0,.12-.4v-.64l-1,.57-.58,1.43,1.16-.66Zm-7.42,3.8c0,.25.17.39.39.26l1.16-.67-.59-.76-1,.56v.62Zm2.55-.79,2.72-1.57V460l-2.72,1.57Zm0-.68,2.72-1.57v-.36l-2.72,1.57Z"/><path class="cls-64" d="M32.77,451l.68,1.28-1.12.65,2.05,1.56-.39-1.8.81-.47-.87-1.89Z"/><path class="cls-64" d="M28.7,464.66v1a.45.45,0,0,0,0,.23.42.42,0,0,0,.17.18.37.37,0,0,0,.23.05.43.43,0,0,0,.22-.09l1.19-.69a1.39,1.39,0,0,0,.43-.44,1.6,1.6,0,0,0,.2-.58,3.48,3.48,0,0,1-2.47.33Z"/><path class="cls-64" d="M38.83,458.81a9.51,9.51,0,0,1-2.46,2.52c0,.34.31.47.65.28l1.19-.69a1.41,1.41,0,0,0,.44-.47,1.39,1.39,0,0,0,.18-.63Z"/><path class="cls-11" d="M196.18,480.34,221,468.73v30.4L196.18,512Z"/><path class="cls-65" d="M158,459.83l38.18,20.51V512L158,492.11Z"/><path class="cls-55" d="M182.78,448,221,468.73l-24.82,11.61L158,459.83Z"/><path class="cls-66" d="M186.55,501.9c3.36-.4,5.5-5.55,4.79-11.5s-4-10.44-7.36-10-5.49,5.56-4.78,11.5S183.2,502.31,186.55,501.9Z"/><path class="cls-46" d="M187.73,501.08c-3.39,0-6.53-4.83-7-10.8-.35-4.36.82-8.11,2.8-9.81-2.91.75-4.83,5.23-4.39,10.67.48,6,3.62,10.8,7,10.8a3.81,3.81,0,0,0,2.47-1A3.73,3.73,0,0,1,187.73,501.08Z"/><path class="cls-65" d="M185.52,493.27c.67-.08,1.09-1.1.95-2.28s-.79-2.07-1.46-2-1.09,1.11-.95,2.29S184.86,493.35,185.52,493.27Z"/><path class="cls-65" d="M185,491.33l-2.77-8.5a2.69,2.69,0,0,1,1.52-1.58,2.65,2.65,0,0,1,2.18.07l-.62,9.82Z"/><path class="cls-65" d="M185.88,491.47l5.19.86a18.15,18.15,0,0,1-1.68,7.17l-4-7.43Z"/><path class="cls-65" d="M184.46,491.14l-3.81,1.16a7.32,7.32,0,0,0,1.71,5.25l2.61-5.72Z"/><path class="cls-67" d="M199.4,482.79l18.38-8.91v1.78l-18.38,8.91Z"/><path class="cls-67" d="M199.4,486l18.38-8.9v1.78l-18.38,8.9Z"/><path class="cls-67" d="M199.4,489.42l18.38-8.9v1.78l-18.38,8.9Z"/><path class="cls-46" d="M174.69,493.84l-13.85-7.69V468.22l13.85,7.07Z"/><path class="cls-65" d="M175.89,479l-16.25-8.9v-.78l16.25,8.9Z"/><path class="cls-65" d="M175.89,481.3l-16.25-8.9v-.78l16.25,8.9Z"/><path class="cls-65" d="M175.89,483.61l-16.25-8.89v-.78l16.25,8.89Z"/><path class="cls-65" d="M175.89,485.93,159.64,477v-.78l16.25,8.9Z"/><path class="cls-65" d="M175.89,488.24l-16.25-8.9v-.78l16.25,8.9Z"/><path class="cls-65" d="M175.89,490.56l-16.25-8.9v-.78l16.25,8.9Z"/><path class="cls-65" d="M175.89,492.87,159.64,484v-.78l16.25,8.89Z"/><path class="cls-65" d="M162.68,468.25h-.63v20.62h.63Z"/><path class="cls-65" d="M165.18,469.59h-.64v20.62h.64Z"/><path class="cls-65" d="M167.68,470.78h-.63V491.4h.63Z"/><path class="cls-65" d="M170.18,471h-.64v20.62h.64Z"/><path class="cls-65" d="M172.68,472.65h-.63v20.62h.63Z"/><path class="cls-33" d="M294.69,473.8l19-11.29V446.82l-1,1.43v14l-17.05,10.26Z"/><path class="cls-34" d="M296.81,470.78l-1.2,1.71,17.05-10.26v-14l-1.08,1.52,0,12Z"/><path class="cls-68" d="M317,441.9l-52.48-29.83L239,444.61,291.39,476Z"/><path class="cls-69" d="M291.39,476l10.94-14.58-38.9-47.9L245,436.9l17.06,21.57Z"/><path class="cls-11" d="M273.23,466l18.11,10.87,26.66-35-18.32-10.5Zm13.13-15.41,2-.48,5.59,3.28.27,1.83L290,460.83l-2,.47-5.57-3.3-.27-1.83Zm6.35-8.31,2-.48,5.6,3.25.28,1.83-4.25,5.56-2,.48-5.58-3.27-.27-1.82ZM307,438.58l-4.25,5.56-2,.48-5.59-3.24-.28-1.81,4.23-5.53,2-.49,5.61,3.22ZM311.2,449l-2.05.48-5.65-3.27-.29-1.83,4.25-5.56,2-.48,5.66,3.25.3,1.83Zm-6.38,8.38-2.05.48-5.64-3.3-.28-1.84,4.25-5.56,2-.48,5.65,3.27.29,1.84Zm-6.4,8.4-2.05.47L290.74,463l-.28-1.84,4.26-5.58,2-.48,5.64,3.31.28,1.84Zm-14.33,3.67,4.26-5.59,2-.46,5.62,3.32.28,1.86L292,474.22l-2,.47-5.61-3.36Zm-8-3.14-.27-1.84,4.25-5.56,2-.47,5.57,3.3.27,1.84-4.26,5.59-2,.47Z"/><path class="cls-11" d="M255.45,455.37,273.23,466l26.46-34.63-18-10.29Zm13-15.25,2-.48,5.47,3.22.27,1.81L272,450.18l-2,.47-5.46-3.23-.26-1.81Zm6.3-8.22,2-.48,5.49,3.19.27,1.8-4.23,5.51-2,.48-5.48-3.22-.25-1.8Zm14.07-3.74-4.21,5.5-2,.48L277.14,431l-.27-1.79,4.2-5.48,2-.48,5.51,3.16Zm4.09,10.31-2,.47-5.55-3.21-.26-1.81,4.21-5.5,2-.48,5.55,3.18.28,1.81Zm-6.34,8.29-2,.47L279.05,444l-.26-1.8,4.22-5.52,2-.47,5.54,3.21.28,1.81Zm-6.35,8.31-2,.47-5.51-3.27-.27-1.81,4.23-5.52,2-.47,5.53,3.24.27,1.82Zm-14.14,3.67,4.23-5.53,2-.47,5.51,3.26.27,1.83-4.25,5.56-2,.46-5.5-3.29Zm-7.91-3.07-.26-1.81,4.23-5.51,2-.47,5.46,3.24.26,1.81-4.23,5.53-2,.46Z"/><path class="cls-11" d="M238,444.91l17.44,10.45,26.28-34.26L264.1,411Zm12.92-15.1,2-.47,5.37,3.15.25,1.78-4.19,5.46-2,.47L247,437l-.24-1.78Zm6.26-8.13,2-.48,5.38,3.13.26,1.77-4.19,5.45-2,.48-5.39-3.16L253,427.1ZM271.08,418l-4.18,5.44-2,.48-5.39-3.13-.24-1.76,4.17-5.43,2-.48,5.4,3.1Zm4,10.15-2,.48-5.44-3.15-.25-1.78,4.18-5.44,2-.48,5.45,3.12.26,1.78Zm-6.29,8.21-2,.47-5.42-3.17-.25-1.79,4.19-5.45,2-.48,5.43,3.15.26,1.79Zm-6.31,8.22-2,.47L255,441.8l-.24-1.8,4.19-5.46,2-.47,5.42,3.17.25,1.8ZM248.5,448.2l4.2-5.47,2-.47,5.41,3.2.25,1.81-4.22,5.5-2,.46L248.74,450Zm-7.78-3-.24-1.78,4.19-5.45,2-.47,5.36,3.18.25,1.79L248,447.92l-2,.47Z"/><path class="cls-46" d="M318,441.9l1,1.67L292.45,478l-1.1-1.1Z"/><path class="cls-46" d="M292.45,478l-53.72-32.08-.73-1,53.35,32Z"/><path class="cls-70" d="M568.29,487.73l-10.69-3,7.37-4.26,3.72,3.63Z"/><path class="cls-70" d="M527.39,509.15l-10.65-3,7.37-4.26,3.72,3.6Z"/><path class="cls-70" d="M519.58,504.89a4.27,4.27,0,0,1,3.69-.38l2,1.1a3.13,3.13,0,0,1,1.69,3.06c0,3-2.41,6.63-5.35,8.11a4.26,4.26,0,0,1-3.74.35s-2-1.07-2.22-1.2a3.16,3.16,0,0,1-1.41-2.93C514.24,510,516.65,506.37,519.58,504.89Z"/><path class="cls-70" d="M516.24,514.1c0,3,2.41,4.2,5.34,2.71s5.34-5.14,5.34-8.1-2.4-4.2-5.34-2.72S516.24,511.14,516.24,514.1Z"/><path class="cls-66" d="M517.43,513.5c0,2.34,1.87,3.28,4.18,2.11a8,8,0,0,0,4.19-6.34c0-2.33-1.88-3.28-4.19-2.11A8,8,0,0,0,517.43,513.5Z"/><path class="cls-70" d="M518.86,515.39a2.28,2.28,0,0,1-1-2.08v-.22l2.35-.38Z"/><path class="cls-70" d="M520.71,510.73l-2.44.53a7.38,7.38,0,0,1,2.53-3.18Z"/><path class="cls-70" d="M522.49,509.87l-.1-2.58a2.19,2.19,0,0,1,2.53.63Z"/><path class="cls-70" d="M525.36,509.27v.22a5.88,5.88,0,0,1-1,3.13L523,511.29Z"/><path class="cls-70" d="M521.61,513l1.44,1.17a6.54,6.54,0,0,1-1.44,1,4,4,0,0,1-1.44.45Z"/><path class="cls-70" d="M560.44,484.13a4.27,4.27,0,0,1,3.69-.38l2,1.11a3.11,3.11,0,0,1,1.69,3.06c0,3-2.41,6.62-5.34,8.1a4.28,4.28,0,0,1-3.75.35s-2-1.07-2.22-1.2a3.15,3.15,0,0,1-1.41-2.93C555.07,489.24,557.48,485.64,560.44,484.13Z"/><path class="cls-70" d="M557.07,493.34c0,3,2.41,4.2,5.34,2.71s5.35-5.14,5.35-8.1-2.41-4.2-5.35-2.72S557.07,490.35,557.07,493.34Z"/><path class="cls-66" d="M558.26,492.74c0,2.34,1.87,3.28,4.18,2.12a8,8,0,0,0,4.19-6.34c0-2.34-1.87-3.29-4.19-2.12A8,8,0,0,0,558.26,492.74Z"/><path class="cls-70" d="M559.66,494.64a2.31,2.31,0,0,1-1-2.09v-.22L561,492Z"/><path class="cls-70" d="M561.57,490l-2.44.53a7.38,7.38,0,0,1,2.53-3.18Z"/><path class="cls-70" d="M563.32,489.08l-.1-2.58a2.21,2.21,0,0,1,2.54.63Z"/><path class="cls-70" d="M566.19,488.48v.22a5.88,5.88,0,0,1-1,3.13l-1.34-1.33Z"/><path class="cls-70" d="M562.44,492.27l1.44,1.17a6.59,6.59,0,0,1-1.44,1,4,4,0,0,1-1.43.44Z"/><path class="cls-71" d="M489.28,493c4.09-3.69,21.77-17.73,24.74-19.94s13.65-9,20.84-10.85,8.09-.76,9.53-1.11a22.73,22.73,0,0,1,12.24.63c2.75.86,6,1.8,8.66,4.2,3.53,3.19,6.24,8.11,7.56,10.79l.28.91a6,6,0,0,1-.56,4.8,23.58,23.58,0,0,1-2.32,3.41c-.59.66-1.31,1.38-1.93,2v-.15c0-2.28-1.31-3.73-3.35-3.73a5.35,5.35,0,0,0-2.56.7c-3.09,1.54-5.56,5.33-5.56,8.45a4.52,4.52,0,0,0,.13,1.17l-29.53,14.89a4.05,4.05,0,0,0,0-.7c0-2.27-1.32-3.72-3.35-3.72a5.35,5.35,0,0,0-2.56.7c-3.09,1.54-5.56,5.33-5.56,8.45a5.27,5.27,0,0,0,.09,1l-2.37,1.17a26.85,26.85,0,0,1-7.25.91c-2.81-.25-8.65-2.17-13.34-4.54s-8.62-6.47-8.71-8.61C484.37,503,485.19,496.72,489.28,493Z"/><path class="cls-72" d="M505.68,480.47a6.75,6.75,0,0,0,0-2.27c-.25-.44-.69-1.17-1.28-.63a3.23,3.23,0,0,0-.63,3.38C504.37,482.27,505.68,480.47,505.68,480.47Z"/><path class="cls-73" d="M561.32,476.18,526.86,496.5s3.34-14.8,15.12-20.79S561.32,476.18,561.32,476.18Z"/><path class="cls-73" d="M547,465.2c-4.59-2.17-8.34-2.84-8.34-3.31s11.81-1,19.09,2.65,6.93,6.88,4.15,6.53-6.47-.63-7.62-1.23S550.85,467.06,547,465.2Z"/><path class="cls-17" d="M562,470.6c.28,0,.93-.07,1-.57.15-.73-.82-2.78-5.75-5.27-5.41-2.71-13.06-2.93-15.25-2.93-1.12,0-2,0-2.56.09.31.1.63.22,1,.32a46.16,46.16,0,0,1,6.4,2.49,32.14,32.14,0,0,1,5.78,3.6,16.23,16.23,0,0,0,1.53,1c.91.44,3.66.75,6.1,1,.5.06,1,.09,1.43.16A1.06,1.06,0,0,0,562,470.6Z"/><path class="cls-73" d="M531.08,482c.44,1.17-6.41,12.81-8.53,13.38s-8.47.38-14.71-3.12-7.47-6.19-7.13-7.16,12.37-11.2,14.34-11.39S530.55,480.53,531.08,482Z"/><path class="cls-74" d="M513.9,506.78a4.54,4.54,0,0,0-3-1.36c-2.22-.22-4.94,0-6.94,1.8-1.5,1.36-2.06,1.93-2.06,1.93s4.28,1.42,6.4,1.1S513.9,506.78,513.9,506.78Z"/><rect class="cls-1" x="485.32" y="493.83" width="4.16" height="9.18"/><path class="cls-74" d="M488.59,502.36s-3-3.06-2.9-3.91,2.65-5.2,3-4.57,1,1.67.75,2.55A40.9,40.9,0,0,0,488.59,502.36Z"/><path class="cls-70" d="M507.83,515.24l.1.94s-9.5-1.23-15.47-4.92-7.4-6.62-7.4-6.62A33.64,33.64,0,0,0,495.28,512,60.49,60.49,0,0,0,507.83,515.24Z"/><path class="cls-17" d="M502.06,484.26c1.09-1,3.15-2.9,5.74-5,4.25-3.47,6.75-5.08,7.35-5.14h0c.87,0,4.34,1.45,8.21,3.47,4.44,2.3,6.81,3.91,7.16,4.42,0,.59-1.22,3.15-3.38,6.68-2.4,3.88-4.15,5.81-4.71,6a5.81,5.81,0,0,1-1.19.19,35.27,35.27,0,0,1-12.37-4.32C504.9,488.14,503,485.83,502.06,484.26Z"/><path class="cls-17" d="M558.41,475.36l.44,1.36-13.25,7.82-2.12-8.61.06-.1a20.54,20.54,0,0,1,8.28-1.86A16.54,16.54,0,0,1,558.41,475.36Z"/><path class="cls-17" d="M530.45,493.47l-.53-3.28c.22-.51.47-1,.75-1.52,2-3.81,5.53-9,11.12-12l1.32,9.3Z"/><path class="cls-17" d="M559.13,480.06l.5.57s-3.56,2.33-3.87,1.86S559.13,480.06,559.13,480.06Z"/><rect class="cls-1" x="541.03" y="488.62" width="2.3" height="2.95"/><path class="cls-17" d="M544,488.7l.5.57s-3.56,2.34-3.87,1.86S544,488.7,544,488.7Z"/><path class="cls-75" d="M557,489.34a1.12,1.12,0,0,0,.15-.19c.32-.76.79-1.45,1.07-2.21.15-.51.4-1,.56-1.48a18.35,18.35,0,0,0,.59-2.62,19.66,19.66,0,0,0,.25-2.75,5,5,0,0,1,0-1.16,9.19,9.19,0,0,0,0-1.39c0-.07,0-.13-.09-.13s-.06.1-.09.16a2.31,2.31,0,0,0,.06.69c0,.7,0,1.39,0,2.05a16.34,16.34,0,0,1-.16,2.09,19.3,19.3,0,0,1-.84,3.65c-.19.51-.35,1-.57,1.46s-.65,1.23-.93,1.86c0,0,0,0,0,.06v0a1.4,1.4,0,0,0-.1.16c-.28.54-.59,1-.87,1.58a37.59,37.59,0,0,1-2.07,3.28.91.91,0,0,1-.37.41c-.34.16-.69.38-1,.53-1.44.76-2.91,1.46-4.34,2.21-.88.48-1.75.89-2.66,1.33a.45.45,0,0,1-.25.09v-.41c.09-.85.16-1.67.19-2.52s.09-1.83.06-2.78a3.21,3.21,0,0,0,0-.76c-.06-.47-.06-1-.09-1.45s-.06-.85-.13-1.29c-.09-.76-.18-1.51-.31-2.27-.09-.41-.16-.82-.22-1.23,0-.06,0-.16-.12-.13s-.06.1-.06.16c.15,1,.34,2,.46,2.93s.19,1.61.22,2.43a8,8,0,0,1,0,1.55,11.58,11.58,0,0,0,0,1.45c0,1-.06,2-.12,3,0,.44-.07.88-.1,1.32a.19.19,0,0,1-.15.19,7.62,7.62,0,0,1-.85.44c-1.15.6-2.34,1.17-3.49,1.77s-2.22,1.1-3.29,1.67-2.34,1.17-3.49,1.8c-.88.47-1.75.88-2.63,1.32s-1.81.92-2.72,1.39a.57.57,0,0,1-.25.1,8.62,8.62,0,0,1-.09-1.52c-.06-.69-.06-1.35-.09-2.05s-.1-1.54-.16-2.3a14.27,14.27,0,0,0-.22-2.05c-.18-1-.43-2.08-.65-3.13,0,0,0-.18-.1-.12s-.06.09-.06.19c.25,1.26.59,2.52.72,3.82.06.66.15,1.29.19,1.95,0,.32,0,.66.06,1,.06.88.09,1.73.12,2.62,0,.47.07,1,.07,1.45a4.62,4.62,0,0,0,.06.57,2.35,2.35,0,0,0,.22-.1c.75-.38,1.53-.75,2.28-1.17,1.09-.6,2.22-1.1,3.31-1.7s2.12-1.07,3.18-1.64,2.16-1.07,3.22-1.64,2.13-1.07,3.16-1.61c1.19-.63,2.4-1.23,3.62-1.86,1-.5,1.91-.95,2.88-1.45,1.18-.63,2.4-1.26,3.59-1.86a1,1,0,0,0,.37-.32c.25-.31.44-.66.66-1a41.92,41.92,0,0,0,2.41-4.1.62.62,0,0,0,.09-.25C557,489.37,557,489.34,557,489.34Z"/><path class="cls-76" d="M556.91,489.62a39.93,39.93,0,0,1-2.4,4.1c-.22.32-.41.66-.66,1a.86.86,0,0,1-.37.31c-1.22.63-2.41,1.23-3.59,1.87-.94.5-1.91,1-2.88,1.45-1.19.63-2.41,1.23-3.62,1.86-1,.57-2.13,1.07-3.16,1.61s-2.15,1.07-3.22,1.64-2.12,1.07-3.18,1.64-2.22,1.1-3.31,1.7c-.75.41-1.54.76-2.28,1.17L528,508a3.57,3.57,0,0,1-.07-.56c0-.51,0-1-.06-1.46,0-.88-.06-1.73-.12-2.61,0-.32,0-.67-.07-1,0-.66-.12-1.3-.18-2-.13-1.29-.47-2.55-.72-3.82,0-.06,0-.15.06-.19s.1.1.1.13c.21,1,.5,2.08.65,3.12a14,14,0,0,1,.22,2.06c0,.75.09,1.54.16,2.3s.06,1.39.09,2.05a8.51,8.51,0,0,0,.09,1.51c.1,0,.16-.06.25-.09.91-.47,1.81-1,2.72-1.39s1.75-.85,2.63-1.32c1.15-.64,2.34-1.17,3.49-1.8s2.22-1.11,3.28-1.67,2.32-1.17,3.5-1.77a7.62,7.62,0,0,1,.85-.44A.21.21,0,0,0,545,499c0-.44.06-.89.1-1.33,0-1,.09-2,.12-3a11.66,11.66,0,0,1,0-1.45,6.15,6.15,0,0,0,0-1.55,19.94,19.94,0,0,0-.22-2.43c-.12-1-.31-1.95-.47-2.93,0-.07,0-.16.07-.16s.09.06.12.13c.06.41.16.82.22,1.23.16.75.22,1.51.31,2.27.06.41.1.85.13,1.29s0,1,.09,1.45c0,.25-.06.51,0,.76,0,.91,0,1.83-.06,2.77a23.15,23.15,0,0,1-.19,2.53,1.86,1.86,0,0,0,0,.41.66.66,0,0,0,.25-.1l2.66-1.32c1.43-.76,2.9-1.48,4.34-2.21a11.15,11.15,0,0,1,1-.53,1,1,0,0,0,.37-.41c.75-1.08,1.41-2.15,2.07-3.29.28-.5.59-1,.87-1.57C556.82,489.59,556.85,489.59,556.91,489.62Z"/><path class="cls-76" d="M556.91,489.34c.29-.64.63-1.23.94-1.86s.38-1,.56-1.46a17.58,17.58,0,0,0,.85-3.66,16,16,0,0,0,.15-2.08c0-.69.07-1.39,0-2a5.38,5.38,0,0,1-.07-.69c0-.07,0-.13.1-.16s.12.06.09.13c0,.47.09.91,0,1.38s0,.76,0,1.17a19.66,19.66,0,0,1-.25,2.75,17.91,17.91,0,0,1-.59,2.61,15.15,15.15,0,0,1-.57,1.49,21.29,21.29,0,0,1-1.06,2.2.37.37,0,0,1-.15.19S557,489.34,556.91,489.34Z"/><path class="cls-76" d="M556.91,489.34h.1v.06a.66.66,0,0,1-.1.25l-.12,0,.09-.16s0,0,.07,0,0,0-.07,0S556.88,489.34,556.91,489.34Z"/><path class="cls-76" d="M556.85,489.37s0,0,.06,0,0,0-.06,0Z"/><path class="cls-76" d="M557,489.37v-.07S557,489.37,557,489.37Z"/><path class="cls-77" d="M506.65,507.16v-.25a.14.14,0,0,0,.09-.13.74.74,0,0,1,.94-.6,1.47,1.47,0,0,1,.65.32,2.35,2.35,0,0,1,1,1.8.77.77,0,0,1-.85.88,1.62,1.62,0,0,1-.65-.22,2.33,2.33,0,0,1-1.16-1.71C506.74,507.19,506.68,507.16,506.65,507.16Z"/><path class="cls-77" d="M504.55,507.67v-.23l.1-.09a.48.48,0,0,1,.59-.35,1.76,1.76,0,0,1,1.22,1.48.51.51,0,0,1-.37.57,1,1,0,0,1-.5-.06,1.87,1.87,0,0,1-.94-1.07C504.62,507.82,504.65,507.73,504.55,507.67Z"/><path class="cls-11" d="M509.74,508.26a.92.92,0,0,0,.5.76c.28.16.5,0,.5-.25a.92.92,0,0,0-.5-.76A.3.3,0,0,0,509.74,508.26Z"/><path class="cls-11" d="M510.52,506.53a.93.93,0,0,0,.5.76c.28.15.5,0,.5-.26a.9.9,0,0,0-.5-.75C510.74,506.12,510.52,506.24,510.52,506.53Z"/><path class="cls-11" d="M488.7,496c.18-.14.14-.48-.08-.77s-.55-.41-.72-.27-.14.48.08.77S488.53,496.15,488.7,496Z"/><path class="cls-11" d="M486.84,496.59a.92.92,0,0,0,.5.76c.28.16.5,0,.5-.25a.92.92,0,0,0-.5-.76A.3.3,0,0,0,486.84,496.59Z"/><path class="cls-77" d="M486.53,497.57v-.19l.09-.09a.61.61,0,0,1,.82-.48,2,2,0,0,1,1.43,1.8.65.65,0,0,1-.84.73,1.91,1.91,0,0,1-1.19-.95A6.63,6.63,0,0,1,486.53,497.57Z"/><path class="cls-11" d="M487.47,499.43v-.19s.06-.09.09-.12a.37.37,0,0,1,.34-.35,1.15,1.15,0,0,1,.94.38v.09c-.06.47-.16,1-.22,1.45,0,.16-.09.1-.15.07a1.79,1.79,0,0,1-.91-1.11A.25.25,0,0,0,487.47,499.43Z"/><path class="cls-78" d="M513.8,506.72a4.15,4.15,0,0,1-.87,0c-.78,0-1.6,0-2.38,0a13.26,13.26,0,0,0-2.28.25,27,27,0,0,0-4.34,1.39c-.53.22-1.09.41-1.62.63a.86.86,0,0,1-.29,0,3,3,0,0,1,.41-.44c.34-.32.69-.6,1-.95a7.26,7.26,0,0,1,3.91-2.05,10.72,10.72,0,0,1,2.46-.16,7.83,7.83,0,0,1,2.1.29A5.14,5.14,0,0,1,513.8,506.72Z"/><path class="cls-72" d="M531.64,491.26a7.4,7.4,0,0,0-2.31,1.73,3,3,0,0,0-.69,1.49s4.41,1,6.63-.44S531.64,491.26,531.64,491.26Z"/><path class="cls-73" d="M520,495l-.81-.06-7.44-3.66-.4-.75-4.53-2.12L507,488l8.66,3.91-.25.32-3.35-1.51.19.22,7.25,3.5Z"/><path class="cls-73" d="M512.15,493h-.69l-5.94-4.44-.72-1.71-2.28-2.93.16-.22,4.28,4.92-.19.25-1.15-1,.34.57,6,4.2Z"/><path class="cls-70" d="M503.18,507.16l-2.47,2.24a28.85,28.85,0,0,1-6.75-2.33,18.46,18.46,0,0,1-5.09-3.89l.25-3.24a13.15,13.15,0,0,0,5.63,4.73A32,32,0,0,0,503.18,507.16Z"/><path class="cls-79" d="M484.62,503a2.85,2.85,0,0,0,.28,1.39,10.91,10.91,0,0,0,2,2.77c.37.41.78.73,1.18,1.11a18.51,18.51,0,0,0,1.69,1.35,23.52,23.52,0,0,0,4.59,2.68c1.72.79,3.47,1.49,5.28,2.12,1,.34,2.09.66,3.16.94s1.93.48,2.9.67a18.71,18.71,0,0,0,2.22.28,1.66,1.66,0,0,0,1.66-1.8,11.72,11.72,0,0,0-.22-1.64,1,1,0,0,0-1.1-.88,25.43,25.43,0,0,1-2.75-.13c-.75-.09-1.49-.22-2.21-.38A37.36,37.36,0,0,1,498.4,510c-1.09-.41-2.16-.85-3.19-1.32a22,22,0,0,1-2.46-1.27,14.93,14.93,0,0,1-1.53-.94,22.73,22.73,0,0,1-3.75-3.25c-.28-.32-.6-.63-.85-1s-.78-1-1.15-1.51c-.16-.19-.38-.16-.44.06A5.79,5.79,0,0,0,484.62,503Z"/><path class="cls-66" d="M484.63,503a8.12,8.12,0,0,1,.37-2.21c.06-.22.28-.25.44-.06.4.5.78,1,1.15,1.51s.57.66.85,1a22.92,22.92,0,0,0,3.75,3.25,16.1,16.1,0,0,0,1.53.94,24.91,24.91,0,0,0,2.46,1.27c1.07.47,2.13.91,3.19,1.32a37.36,37.36,0,0,0,4.94,1.48c.75.16,1.47.29,2.21.38a19.55,19.55,0,0,0,2.75.13,1,1,0,0,1,1.1.88,6.22,6.22,0,0,1,.22,1.64,1.66,1.66,0,0,1-1.66,1.8,18,18,0,0,1-2.22-.28c-1-.19-2-.41-2.9-.67s-2.1-.6-3.16-.94a45.44,45.44,0,0,1-5.28-2.12,27.66,27.66,0,0,1-4.59-2.68c-.56-.44-1.16-.85-1.69-1.35s-.81-.73-1.18-1.11a11.11,11.11,0,0,1-2-2.77A3,3,0,0,1,484.63,503Z"/><path class="cls-80" d="M515.27,474.1c.28.09.59.13.88.22.78.28,1.56.57,2.31.88,1.78.76,3.5,1.61,5.21,2.5s3.16,1.67,4.69,2.65a16.94,16.94,0,0,1,2,1.42.42.42,0,0,1,.15.5,6.22,6.22,0,0,1-.28.79c0,.09-.09.16-.22.09-1.09-.34-2.18-.63-3.27-.88-.85-.19-1.69-.35-2.57-.47s-1.72-.22-2.59-.32c-.31,0-.66,0-1-.06-.81-.06-1.59,0-2.4-.06s-1.69,0-2.57.09-1.68.16-2.53.25c-1,.13-2,.32-3,.54a32.25,32.25,0,0,0-4.32,1.23,29.61,29.61,0,0,0-3.06,1.23c-.22.09-.31.09-.43-.13-.19-.38-.22-.38.09-.66.84-.76,1.65-1.55,2.53-2.27s1.69-1.45,2.53-2.15c.59-.5,1.22-1,1.81-1.45,1.13-.91,2.31-1.76,3.5-2.62a13.19,13.19,0,0,1,1.88-1.13l.4-.19Z"/><path class="cls-81" d="M616.69,447.8a1,1,0,0,1-.85-.47,1,1,0,0,1,.38-1.32l5.11-2.92a7.5,7.5,0,0,0,3.78-6.59V424a2,2,0,0,0-1-1.79,2.32,2.32,0,0,0-2.08-.1l-6.34,3.39a1,1,0,1,1-.94-1.69L621,420.4a4.06,4.06,0,0,1,6,3.58V436.5a9.47,9.47,0,0,1-4.73,8.2l-5.1,2.91A1,1,0,0,1,616.69,447.8Z"/><path class="cls-11" d="M606.1,423.5l.19,53.5,13-7.54-.1-53.49Z"/><path class="cls-55" d="M606.1,423.5l-12.1-7,.19,53.4,12.1,7.06Z"/><path class="cls-55" d="M619.15,416l-12.1-7-13,7.54,12.1,7Z"/><path class="cls-82" d="M609,432c0,.28.19.47.57.28L610,432l.09-.56h-.18c-.19,0-.38.09-.38-.19v-.1s0-.18.28-.28l.66-.47.47-1.41a1.92,1.92,0,0,1,.29-.47,13,13,0,0,1,1.42-.95l.85-.47a10.22,10.22,0,0,1,1.42-.75.18.18,0,0,1,.28.09l.47.85.67-.38c.28-.18.28,0,.28,0v.1a.67.67,0,0,1-.28.56l.18.29.19.66v.84l-.19.38c-.66,1.13-2.74,2.36-3.12,2.64h-.18c-.38.19-2.46,1.41-3.13,1l-.18-.19v-.94l-.29.29c-.38.18-.76,0-.76-.38v-.75l.19-.1Zm4.17-2.64a20.81,20.81,0,0,1,2-1l.47-.19a.21.21,0,0,0,.1-.28l-.1-.29-.19-.28-.28-.38a18.56,18.56,0,0,0-1.89.95,20.09,20.09,0,0,0-1.89,1.22l-.29.66-.19.57-.09.37c-.09.29.09.19.09.1l.48-.29.28-.18C612.25,430,612.72,429.63,613.2,429.34Zm2.45.57a.51.51,0,0,0,.29-.47v-.38l-.66.38-.38.94Zm-5,2.45c0,.19.1.28.28.19l.76-.47-.38-.48-.66.38Zm1.7-.47,1.8-1v-.28l-1.8,1Zm0-.47,1.8-1v-.28l-1.8,1Z"/><path class="cls-82" d="M612.63,424.54l.47.85-.76.47,1.33,1-.19-1.22.47-.28-.57-1.23Z"/><path class="cls-82" d="M609.89,433.68v.65c0,.29.18.38.47.29l.75-.47a.81.81,0,0,0,.38-.66A2.55,2.55,0,0,1,609.89,433.68Z"/><path class="cls-82" d="M616.69,429.82a9.07,9.07,0,0,1-1.6,1.69c0,.19.19.28.47.19l.76-.47a1,1,0,0,0,.37-.76Z"/></svg>