<svg id="Layer_1" data-name="Layer 1" xmlns="http://www.w3.org/2000/svg" viewBox="0 0 576 331.2"><defs><style>.cls-1,.cls-16,.cls-26{fill:#404041;}.cls-2{fill:#bbbdbf;}.cls-3{opacity:0.25;}.cls-4{fill:#fbb03b;}.cls-5{fill:#58595b;}.cls-6{fill:#d1d3d4;}.cls-7{fill:#029089;}.cls-8{fill:#fff;}.cls-9{fill:#a6a8ab;}.cls-10{fill:#808184;}.cls-11{fill:#0bb7b4;}.cls-12{fill:#d0d2d3;}.cls-13{fill:#e0e0e0;}.cls-14,.cls-27{opacity:0.4;}.cls-15{opacity:0.7;}.cls-16,.cls-22,.cls-23{opacity:0.2;}.cls-17,.cls-18{fill:#6d6e71;}.cls-18,.cls-25,.cls-26{opacity:0.5;}.cls-19,.cls-22{fill:#5273b8;}.cls-20{fill:#a7a9ac;}.cls-21{fill:#808285;}.cls-23{fill:#bcbec0;}.cls-24{fill:#6d6e70;}.cls-25{fill:#929497;}.cls-27{fill:#231f20;}.cls-28{fill:#263238;}.cls-29{fill:#e6e6e6;}.cls-30{fill:#b3b3b3;}.cls-31{fill:#ffc612;}</style></defs><title>XENON FULL ICON 2</title><path class="cls-1" d="M157.64,321.49c0,.81-.39,1.42-.86,1.42h-5.49c-.48,0-.86-.61-.86-1.42h0c0-.81.38-1.42.86-1.42h5.49c.47,0,.86.61.86,1.42Z"/><path class="cls-2" d="M222.08,317.75a.75.75,0,0,1-.75.76H201.8a.76.76,0,0,1-.76-.76h0a.76.76,0,0,1,.76-.75h19.53a.75.75,0,0,1,.75.75Z"/><g class="cls-3"><rect class="cls-4" x="211.28" y="251.79" width="0.7" height="43.34"/><rect class="cls-4" x="211.28" y="251.7" width="61.8" height="0.7"/><rect class="cls-4" x="327.14" y="250.42" width="0.7" height="25.11"/><rect class="cls-4" x="302.18" y="250.12" width="25.66" height="0.7"/><rect class="cls-4" x="27.02" y="194.53" width="0.7" height="56.37"/><rect class="cls-4" x="546.59" y="194.53" width="0.7" height="99.2"/><rect class="cls-4" x="477.18" y="213.14" width="0.7" height="35.29"/><rect class="cls-4" x="85.32" y="213.24" width="0.7" height="71.54"/><rect class="cls-4" x="425.35" y="232.98" width="0.7" height="51.8"/><rect class="cls-4" x="391.5" y="194.53" width="155.77" height="0.7"/><rect class="cls-4" x="361.82" y="213.14" width="116.05" height="0.7"/><rect class="cls-4" x="153.74" y="232.98" width="0.7" height="51.8"/><rect class="cls-4" x="27.11" y="194.53" width="156.67" height="0.7"/><rect class="cls-4" x="85.32" y="213.14" width="128.23" height="0.7"/><rect class="cls-4" x="153.74" y="232.73" width="89.59" height="0.7"/><rect class="cls-4" x="331.96" y="232.73" width="94.09" height="0.7"/><rect class="cls-4" x="183.08" y="158.28" width="0.7" height="36.95"/><rect class="cls-4" x="212.86" y="159.23" width="0.7" height="53.97"/><rect class="cls-4" x="242.63" y="158.28" width="0.7" height="75.04"/><rect class="cls-4" x="272.4" y="158.28" width="0.7" height="93.94"/><rect class="cls-4" x="302.18" y="158.28" width="0.7" height="92.53"/><rect class="cls-4" x="331.95" y="158.28" width="0.7" height="75.15"/><rect class="cls-4" x="361.73" y="158.28" width="0.7" height="55.56"/><rect class="cls-4" x="391.5" y="158.28" width="0.7" height="36.95"/></g><path class="cls-5" d="M3.45,268.87a.51.51,0,0,1-.51-.51v-3.69a.51.51,0,0,1,1,0v3.69A.51.51,0,0,1,3.45,268.87Z"/><path class="cls-5" d="M5.36,266.26a.45.45,0,0,1-.44.45H2.12a.45.45,0,0,1-.45-.45h0a.45.45,0,0,1,.45-.44h2.8a.44.44,0,0,1,.44.44Z"/><path class="cls-5" d="M5.36,268.43a.44.44,0,0,1-.44.44H2.12a.45.45,0,0,1-.45-.44h0a.45.45,0,0,1,.45-.45h2.8a.45.45,0,0,1,.44.45Z"/><path class="cls-5" d="M51.16,268.87a.51.51,0,0,1-.51-.51v-3.69a.51.51,0,0,1,1,0v3.69A.51.51,0,0,1,51.16,268.87Z"/><path class="cls-5" d="M53.07,266.26a.45.45,0,0,1-.44.45h-2.8a.45.45,0,0,1-.45-.45h0a.45.45,0,0,1,.45-.44h2.8a.44.44,0,0,1,.44.44Z"/><path class="cls-5" d="M53.07,268.43a.44.44,0,0,1-.44.44h-2.8a.45.45,0,0,1-.45-.44h0a.45.45,0,0,1,.45-.45h2.8a.45.45,0,0,1,.44.45Z"/><path class="cls-5" d="M50.53,286.81a.51.51,0,0,1-.51-.51v-3.69a.51.51,0,0,1,1,0v3.69A.51.51,0,0,1,50.53,286.81Z"/><path class="cls-5" d="M52.43,284.2a.44.44,0,0,1-.44.45h-2.8a.44.44,0,0,1-.44-.45h0a.44.44,0,0,1,.44-.44H52a.44.44,0,0,1,.44.44Z"/><path class="cls-5" d="M52.43,286.37a.44.44,0,0,1-.44.44h-2.8a.44.44,0,0,1-.44-.44h0a.44.44,0,0,1,.44-.45H52a.44.44,0,0,1,.44.45Z"/><path class="cls-5" d="M3.45,286.81a.51.51,0,0,1-.51-.51v-3.69a.51.51,0,0,1,1,0v3.69A.51.51,0,0,1,3.45,286.81Z"/><path class="cls-5" d="M5.36,284.2a.45.45,0,0,1-.44.45H2.12a.45.45,0,0,1-.45-.45h0a.45.45,0,0,1,.45-.44h2.8a.44.44,0,0,1,.44.44Z"/><path class="cls-5" d="M5.36,286.37a.44.44,0,0,1-.44.44H2.12a.45.45,0,0,1-.45-.44h0a.45.45,0,0,1,.45-.45h2.8a.45.45,0,0,1,.44.45Z"/><path class="cls-5" d="M43.25,322.91a.51.51,0,0,1-.5-.43L32,251.21l-9.46,1L12.21,322.48a.52.52,0,0,1-.58.43.52.52,0,0,1-.43-.58l10.37-70.61a.49.49,0,0,1,.44-.43l10.34-1.15a.51.51,0,0,1,.56.43l10.84,71.76a.51.51,0,0,1-.42.58Z"/><path class="cls-5" d="M51.89,265.31H3.18a.51.51,0,0,1-.25-.95l18.51-10.24a.52.52,0,0,1,.69.2.5.5,0,0,1-.2.69L5.15,264.29H50L32.59,254a.51.51,0,0,1-.18-.69.49.49,0,0,1,.69-.18l19,11.19a.52.52,0,0,1,.24.58A.5.5,0,0,1,51.89,265.31Z"/><path class="cls-5" d="M51.12,283.12H3.18a.5.5,0,0,1-.47-.31.51.51,0,0,1,.1-.55l17-17.8a.51.51,0,0,1,.73.71L4.37,282.1H50l-15.78-17a.51.51,0,1,1,.74-.7L51.5,282.27a.52.52,0,0,1,.09.55A.51.51,0,0,1,51.12,283.12Z"/><path class="cls-5" d="M34.42,264.51a.5.5,0,0,1-.35-.15l-12.36-12.2a.51.51,0,0,1,0-.72.52.52,0,0,1,.72,0l12.35,12.2a.52.52,0,0,1,0,.72A.52.52,0,0,1,34.42,264.51Z"/><path class="cls-5" d="M20.28,264.51a.49.49,0,0,1-.34-.14.51.51,0,0,1,0-.72L32,250.31a.51.51,0,1,1,.75.68L20.66,264.34A.53.53,0,0,1,20.28,264.51Z"/><path class="cls-5" d="M14.29,305.36c-.13,0,0,0-.09-.14s-.46-.54-.26-.73l22.58-22L19.82,265a.52.52,0,0,1,0-.72.51.51,0,0,1,.72,0l17.05,17.87a.52.52,0,0,1,0,.72L14.65,305.22A.54.54,0,0,1,14.29,305.36Z"/><path class="cls-5" d="M40.41,305.38a.51.51,0,0,1-.36-.15L17.11,282.91a.5.5,0,0,1,0-.71l17.05-17.88a.51.51,0,0,1,.74.71l-16.7,17.51,22.58,22a.5.5,0,0,1,0,.72A.52.52,0,0,1,40.41,305.38Z"/><path class="cls-5" d="M40.73,306.28H14.14c-.28,0-.39-.25-.39-.53s.11-.49.39-.49H40.73a.51.51,0,1,1,0,1Z"/><path class="cls-5" d="M11.81,322.18a.51.51,0,0,1-.41-.8l10.93-15.9a.51.51,0,1,1,.84.58L12.23,322A.5.5,0,0,1,11.81,322.18Z"/><path class="cls-5" d="M43.23,322.18a.49.49,0,0,1-.41-.22l-10.94-15.9a.51.51,0,0,1,.84-.58L43.37,321c.16.23.38.95.15,1.11A.52.52,0,0,1,43.23,322.18Z"/><rect class="cls-1" x="86.64" y="294.02" width="5.18" height="27.99"/><path class="cls-1" d="M95.19,322.71c0,.06-.08.12-.15.12l-11.53.08a.49.49,0,0,1-.5-.46v-.57a.51.51,0,0,1,.17-.34.52.52,0,0,1,.36-.14l11.5.2c.07,0,.15,0,.15.11Z"/><path class="cls-6" d="M113.77,284.28l-43.85.55a.78.78,0,0,0-.65.41l-12,23.58c-.11.23,0,.42.23.42l43.79.26a.83.83,0,0,0,.68-.43l12-24.37A.27.27,0,0,0,113.77,284.28Z"/><path class="cls-7" d="M82.43,286.31l-11.93.14a.8.8,0,0,0-.65.41l-2.75,5.42c-.11.23,0,.41.23.41l11.93-.07a.85.85,0,0,0,.66-.42l2.75-5.48C82.79,286.49,82.68,286.31,82.43,286.31Z"/><path class="cls-7" d="M96.78,286.15l-12.19.14a.82.82,0,0,0-.66.42l-2.75,5.48c-.12.23,0,.41.24.41l12.18-.08a.81.81,0,0,0,.67-.42L97,286.57C97.14,286.34,97,286.15,96.78,286.15Z"/><path class="cls-7" d="M111.43,286,99,286.13a.84.84,0,0,0-.67.42l-2.75,5.54a.26.26,0,0,0,.25.42l12.44-.08a.84.84,0,0,0,.68-.43l2.76-5.59C111.81,286.17,111.69,286,111.43,286Z"/><path class="cls-7" d="M78.68,293.78l-11.93.07a.81.81,0,0,0-.65.41l-2.76,5.45c-.11.23,0,.41.23.41H75.49a.81.81,0,0,0,.66-.42l2.77-5.5C79,294,78.92,293.78,78.68,293.78Z"/><path class="cls-7" d="M93,293.7l-12.18.07a.81.81,0,0,0-.66.42l-2.77,5.5c-.11.23,0,.42.24.42H89.83a.83.83,0,0,0,.67-.43l2.77-5.55C93.38,293.88,93.27,293.7,93,293.7Z"/><path class="cls-7" d="M107.67,293.62l-12.45.07a.84.84,0,0,0-.67.42l-2.77,5.56c-.11.24,0,.43.25.43l12.44,0a.83.83,0,0,0,.68-.42l2.78-5.62C108,293.8,107.93,293.61,107.67,293.62Z"/><path class="cls-7" d="M74.91,301.28H63a.78.78,0,0,0-.65.41l-2.78,5.48c-.11.23,0,.41.23.41l11.92.06a.82.82,0,0,0,.66-.42l2.78-5.52C75.26,301.47,75.15,301.28,74.91,301.28Z"/><path class="cls-7" d="M89.24,301.28H77.06a.84.84,0,0,0-.66.42l-2.77,5.53c-.12.23,0,.42.23.42l12.18.06a.84.84,0,0,0,.67-.42l2.78-5.59C89.6,301.47,89.49,301.28,89.24,301.28Z"/><path class="cls-7" d="M103.88,301.28H91.44a.84.84,0,0,0-.67.42l-3,6,12.9.06a.84.84,0,0,0,.68-.43l2.78-5.65A.27.27,0,0,0,103.88,301.28Z"/><path class="cls-8" d="M101.05,308.68h0l-8.48,0a.12.12,0,0,1-.12-.13.13.13,0,0,1,.13-.13h0l8.48,0h0c.18,0,.4-.22.51-.44l4.43-9a.13.13,0,1,1,.23.12l-4.43,9A1,1,0,0,1,101.05,308.68Z"/><path class="cls-8" d="M66,293.32H66a.12.12,0,0,1-.06-.17l3.79-7.48a.93.93,0,0,1,.81-.4l9.32-.11h0a.12.12,0,0,1,.13.12.13.13,0,0,1-.13.14l-9.32.11a.67.67,0,0,0-.58.26l-3.79,7.47A.12.12,0,0,1,66,293.32Z"/><polygon class="cls-5" points="151.99 320.23 153.11 268.62 156.18 268.62 156.18 321.49 151.99 320.23"/><path class="cls-9" d="M170.33,242.72c-.6-3-10.58,14.24-13.89,18.47s-.73,5.57-.73,5.57l.44.41h0a3,3,0,0,0,3.29-1.41C162.5,260.31,170.82,245.15,170.33,242.72Z"/><path class="cls-9" d="M170.24,294.89c2.91.9-7.42-16.11-9.55-21s-4.5-3.27-4.5-3.27l-.53.22h0a2.85,2.85,0,0,0-.38,3.53C158.6,279.63,167.87,294.16,170.24,294.89Z"/><path class="cls-9" d="M124.94,273.72c-2.55-1.65,17.11-4.64,22.26-6.18s5.37,1.35,5.37,1.35l.14.56h0a2.73,2.73,0,0,1-2.43,2.55C144.09,272.86,127,275.07,124.94,273.72Z"/><path class="cls-10" d="M157.78,269.87a3.09,3.09,0,1,1-1.8-4A3.09,3.09,0,0,1,157.78,269.87Z"/><path class="cls-9" d="M154.89,271a2.38,2.38,0,0,1-.78-.14,2.22,2.22,0,0,1-.13-4.09,2.2,2.2,0,0,1,1.69,0,2.24,2.24,0,0,1,1.24,1.16,2.2,2.2,0,0,1,.05,1.69h0A2.22,2.22,0,0,1,154.89,271Zm0-4.11a2,2,0,0,0-.78.17,1.9,1.9,0,1,0,2.56,2.39h0a1.89,1.89,0,0,0,0-1.44,1.88,1.88,0,0,0-1.73-1.12Z"/><rect class="cls-5" x="186.47" y="296.51" width="50.33" height="25.17"/><rect class="cls-1" x="185.92" y="295.27" width="51.43" height="1.24" rx="0.17"/><rect class="cls-1" x="185.92" y="321.67" width="51.43" height="1.24" rx="0.17"/><rect class="cls-2" x="190.46" y="298.98" width="4.81" height="20.49" rx="0.17"/><rect class="cls-1" x="190.87" y="299.81" width="3.99" height="0.55"/><rect class="cls-1" x="190.87" y="301.32" width="3.99" height="0.55"/><rect class="cls-1" x="190.87" y="302.83" width="3.99" height="0.55"/><rect class="cls-1" x="190.87" y="304.35" width="3.99" height="0.55"/><rect class="cls-1" x="190.87" y="305.86" width="3.99" height="0.55"/><rect class="cls-1" x="190.87" y="307.37" width="3.99" height="0.55"/><rect class="cls-1" x="190.87" y="308.88" width="3.99" height="0.55"/><rect class="cls-1" x="190.87" y="310.4" width="3.99" height="0.55"/><rect class="cls-1" x="190.87" y="311.91" width="3.99" height="0.55"/><rect class="cls-1" x="190.87" y="313.42" width="3.99" height="0.55"/><rect class="cls-1" x="190.87" y="314.94" width="3.99" height="0.55"/><rect class="cls-1" x="190.87" y="316.45" width="3.99" height="0.55"/><rect class="cls-1" x="190.87" y="317.96" width="3.99" height="0.55"/><rect class="cls-2" x="227.86" y="298.98" width="4.81" height="20.49" rx="0.17"/><rect class="cls-1" x="228.27" y="299.81" width="3.99" height="0.55"/><rect class="cls-1" x="228.27" y="301.32" width="3.99" height="0.55"/><rect class="cls-1" x="228.27" y="302.83" width="3.99" height="0.55"/><rect class="cls-1" x="228.27" y="304.35" width="3.99" height="0.55"/><rect class="cls-1" x="228.27" y="305.86" width="3.99" height="0.55"/><rect class="cls-1" x="228.27" y="307.37" width="3.99" height="0.55"/><rect class="cls-1" x="228.27" y="308.88" width="3.99" height="0.55"/><rect class="cls-1" x="228.27" y="310.4" width="3.99" height="0.55"/><rect class="cls-1" x="228.27" y="311.91" width="3.99" height="0.55"/><rect class="cls-1" x="228.27" y="313.42" width="3.99" height="0.55"/><rect class="cls-1" x="228.27" y="314.94" width="3.99" height="0.55"/><rect class="cls-1" x="228.27" y="316.45" width="3.99" height="0.55"/><rect class="cls-1" x="228.27" y="317.96" width="3.99" height="0.55"/><path class="cls-11" d="M215,306.66s0,0-.06,0h-2.77a.07.07,0,0,1,0,0,.06.06,0,0,1,0-.06l1.15-4.52a.07.07,0,0,0,0-.08.1.1,0,0,0-.09,0l-4.94,6.63a.17.17,0,0,0,0,.1s0,.08.06.08h2.54s0,0,.05,0,0,0,0,0L209.8,314a.07.07,0,0,0,0,.07.06.06,0,0,0,.08,0l5.07-7.33A.08.08,0,0,0,215,306.66Z"/><rect class="cls-5" x="519.96" y="294.19" width="53.95" height="27.37"/><path class="cls-1" d="M519.74,292.85h54.41a.18.18,0,0,1,.18.18v1a.19.19,0,0,1-.19.19H519.74a.18.18,0,0,1-.18-.18v-1A.19.19,0,0,1,519.74,292.85Z"/><path class="cls-1" d="M519.74,321.57h54.41a.18.18,0,0,1,.18.18v1a.19.19,0,0,1-.19.19h-54.4a.19.19,0,0,1-.19-.19v-1A.18.18,0,0,1,519.74,321.57Z"/><circle class="cls-2" cx="546.94" cy="307.88" r="9.35"/><circle class="cls-5" cx="546.94" cy="307.88" r="3.09"/><path class="cls-5" d="M483.37,256.2l2.49.16a6,6,0,0,1,1.84.3h0a3,3,0,0,1,1.6,1.94l1.43,4.47a.82.82,0,0,1-.41,1l-1.16.51a.71.71,0,0,1-1-.48l-.91-2.88a.32.32,0,0,0-.3-.23l-3.8-.2A6.84,6.84,0,0,1,483.37,256.2Z"/><path class="cls-12" d="M465.52,248.62H485a0,0,0,0,1,0,0v70.17a2.62,2.62,0,0,1-2.62,2.62H468.14a2.62,2.62,0,0,1-2.62-2.62V248.62A0,0,0,0,1,465.52,248.62Z" transform="translate(950.55 570.03) rotate(180)"/><path class="cls-5" d="M465.53,251.62v8.86H485l.12-9c0-2.11-1.57-3-3.53-3l-12.57-.07C467,248.39,465.52,249,465.53,251.62Z"/><rect class="cls-1" x="470.32" y="255.92" width="9.91" height="22.61" rx="0.63" transform="translate(950.55 534.46) rotate(180)"/><rect class="cls-1" x="461.1" y="319.91" width="28.7" height="3" transform="translate(950.91 642.82) rotate(180)"/><path class="cls-13" d="M484.84,269.35v6.3l3.06-2v-2h-.25a2.89,2.89,0,0,1-2.42-1.31A2.58,2.58,0,0,1,484.84,269.35Z"/><path class="cls-1" d="M490,306.48a3,3,0,0,0,1.5-.4c1.58-.88,2.49-3.06,2.49-6,0,0,0,0,0-.06a76.61,76.61,0,0,0-1.36-9.43c-.53-2.74-.39-5.64-1-10.69-.29-2.41-1.06-15.93-1.06-16l-1.33.63c0,.21.8,13,1.11,15.53.63,5.1.49,8,1,10.8a74.51,74.51,0,0,1,1.33,9.23c0,2.32-.67,4.07-1.79,4.7a2,2,0,0,1-2.27-.27c-1.48-1.12-2.84-4.18-2.21-9.42,1.51-7.25,2.44-12.81,2.39-18.09-.12-9.81-1.37-12.16-1.51-12.39l-1.09.76s1.19,2.28,1.31,11.65c0,5.14-.87,10.62-2.37,17.8,0,0,0,0,0,.06-.6,5,.43,9,2.75,10.77A3.48,3.48,0,0,0,490,306.48Z"/><path class="cls-1" d="M485,261.68v3.85a1.85,1.85,0,0,0,.58.09,2,2,0,0,0,.55-.08,2.07,2.07,0,0,0,0-3.86,1.67,1.67,0,0,0-.55-.09A1.85,1.85,0,0,0,485,261.68Z"/><polygon class="cls-5" points="475.63 286.75 471.96 294.35 475.54 294.35 473.75 299.72 478.21 292.21 474.69 292.21 475.63 286.75"/><path class="cls-5" d="M477.86,275.31h-4.81a.36.36,0,0,1-.34-.39V261.68a.37.37,0,0,1,.34-.39H474l0-1a.36.36,0,0,1,.34-.39h2.33a.36.36,0,0,1,.34.39v1.05h.9a.37.37,0,0,1,.34.39v13.24A.36.36,0,0,1,477.86,275.31Zm-4.81-13.62,0,13.23h4.79l0-13.24h-.91a.38.38,0,0,1-.34-.39v-1.05h-2.3l0,1.05a.38.38,0,0,1-.34.39Z"/><g class="cls-14"><rect class="cls-11" x="473.58" y="262.24" width="3.75" height="0.99" rx="0.23"/></g><g class="cls-14"><rect class="cls-11" x="473.58" y="263.61" width="3.75" height="0.99" rx="0.23"/></g><g class="cls-15"><rect class="cls-11" x="473.58" y="264.98" width="3.75" height="0.99" rx="0.23"/></g><g class="cls-15"><rect class="cls-11" x="473.58" y="266.35" width="3.75" height="0.99" rx="0.23"/></g><g class="cls-15"><rect class="cls-11" x="473.58" y="267.72" width="3.75" height="0.99" rx="0.23"/></g><rect class="cls-11" x="473.58" y="269.08" width="3.75" height="0.99" rx="0.23"/><rect class="cls-11" x="473.58" y="270.45" width="3.75" height="0.99" rx="0.23"/><rect class="cls-11" x="473.58" y="271.83" width="3.75" height="0.99" rx="0.23"/><rect class="cls-11" x="473.58" y="273.22" width="3.75" height="0.99" rx="0.23"/><path class="cls-5" d="M425.7,300.91c-7.76,0-14.06-.83-14.06-1.85v22c0,1,6.3,1.84,14.06,1.84s14.05-.82,14.05-1.84v-22C439.75,300.08,433.46,300.91,425.7,300.91Z"/><path class="cls-12" d="M411.64,275.22v23.84c0,1,6.3,1.85,14.06,1.85s14.05-.83,14.05-1.85V275.22Z"/><ellipse class="cls-10" cx="425.7" cy="275.22" rx="14.05" ry="1.84"/><path class="cls-1" d="M425.7,272.85c-3.88,0-7,.41-7,.92v1.31c0,.51,3.15.92,7,.92s7-.41,7-.92v-1.31C432.73,273.26,429.58,272.85,425.7,272.85Z"/><polygon class="cls-5" points="429.84 286.72 427.04 286.72 427.04 283.92 424.35 283.92 424.35 286.72 421.56 286.72 421.56 289.41 424.35 289.41 424.35 292.21 427.04 292.21 427.04 289.41 429.84 289.41 429.84 286.72"/><rect class="cls-12" x="421.56" y="311.5" width="8.29" height="2.69"/><path class="cls-1" d="M329.46,299.88h-9.13c-3.91,0-7.09,5.14-7.09,11.47s3.18,11.48,7.09,11.48h9.13c3.92,0,7.09-5.14,7.09-11.48S333.38,299.88,329.46,299.88Z"/><path class="cls-16" d="M329.46,299.88h-9.13c-3.91,0-7.09,5.14-7.09,11.47s3.18,11.48,7.09,11.48h9.13c3.92,0,7.09-5.14,7.09-11.48S333.38,299.88,329.46,299.88Z"/><path class="cls-1" d="M288.24,299.88h-9.13c-3.92,0-7.09,5.14-7.09,11.47s3.17,11.48,7.09,11.48h9.13c3.92,0,7.09-5.14,7.09-11.48S292.16,299.88,288.24,299.88Z"/><path class="cls-16" d="M288.24,299.88h-9.13c-3.92,0-7.09,5.14-7.09,11.47s3.17,11.48,7.09,11.48h9.13c3.92,0,7.09-5.14,7.09-11.48S292.16,299.88,288.24,299.88Z"/><path class="cls-12" d="M375.4,291.16l2.08,1.79a3.49,3.49,0,0,1,1.11,3.44l-.47,2Z"/><path class="cls-17" d="M379.17,302.81h0a34.51,34.51,0,0,0-3-11.31l-.71-1.54H358.14l9,25.8h0a20.61,20.61,0,0,0,8.53-4.44l.21-.18A9.87,9.87,0,0,0,379.17,302.81Z"/><path class="cls-18" d="M379.17,302.81h0a34.51,34.51,0,0,0-3-11.31l-.71-1.54H358.14l9,25.8h0a20.61,20.61,0,0,0,8.53-4.44l.21-.18A9.87,9.87,0,0,0,379.17,302.81Z"/><path class="cls-19" d="M356.22,322.83c-3.91,0-7.09-5.14-7.09-11.47s3.18-11.48,7.09-11.48h9.1v22.95Z"/><ellipse class="cls-20" cx="365.36" cy="311.36" rx="7.09" ry="11.48"/><ellipse class="cls-10" cx="365.36" cy="311.36" rx="4.97" ry="7.26"/><path class="cls-17" d="M304.46,315.76,287.4,288.39s13.49-13.64,43-13.64c25.51,0,40.79,8.42,45.06,15.21l-10.11,9.92c-9.79,0-9.73,10.38-11.07,14.75a1.61,1.61,0,0,1-1.55,1.13H304.46"/><path class="cls-18" d="M304.46,315.76,287.4,288.39s13.49-13.64,43-13.64c25.51,0,40.79,8.42,45.06,15.21l-10.11,9.92c-9.79,0-9.73,10.38-11.07,14.75a1.61,1.61,0,0,1-1.55,1.13H304.46"/><path class="cls-21" d="M315,322.83c-3.92,0-7.09-5.14-7.09-11.47s3.17-11.48,7.09-11.48h9.1v22.95Z"/><ellipse class="cls-20" cx="324.13" cy="311.36" rx="7.09" ry="11.48"/><ellipse class="cls-10" cx="324.64" cy="311.36" rx="4.47" ry="7.26"/><path class="cls-17" d="M311.65,313.5c.87-5.13,6-13.62,12.45-13.62l6.27-11.49h-43c-2.74,0-15.55,4.63-20.21,9.29-3.26,3.27-3.6,6.55-4,14.91a3.26,3.26,0,0,0,3.38,3.18c15.85,0,35,.06,42,.08A3,3,0,0,0,311.65,313.5Z"/><path class="cls-18" d="M311.65,313.5c.87-5.13,6-13.62,12.45-13.62l6.27-11.49h-43c-2.74,0-15.55,4.63-20.21,9.29-3.26,3.27-3.6,6.55-4,14.91a3.26,3.26,0,0,0,3.38,3.18c15.85,0,35,.06,42,.08A3,3,0,0,0,311.65,313.5Z"/><path class="cls-12" d="M330.37,274.75c-29.29,0-42.66,13.43-43,13.64H317s12.74-11,21.19-13.36C335.73,274.85,333.11,274.75,330.37,274.75Z"/><path class="cls-12" d="M293.72,300.11c4.06-1.54,16.34-5.86,19.69-4.74s-4.76,5.14-6.8,5.67-3.39-.53-6.44.95S288.79,302,293.72,300.11Z"/><path class="cls-22" d="M344.07,315.91l-.08,0a.16.16,0,0,1-.05-.22c.06-.09,6.07-9.14,6.07-27.28a.16.16,0,0,1,.16-.16.16.16,0,0,1,.15.16c0,18.25-6.06,27.37-6.12,27.46A.16.16,0,0,1,344.07,315.91Z"/><path class="cls-12" d="M279,301.91h0L270.79,300a.15.15,0,0,1-.11-.19.14.14,0,0,1,.18-.11L279,301.6l13.45-1.54a.16.16,0,0,1,.17.14.15.15,0,0,1-.13.17L279,301.91Z"/><path class="cls-23" d="M365.32,300a.15.15,0,0,1-.11,0,.16.16,0,0,1,0-.22c2.85-2.8,4.37-9.33,4.37-13a.16.16,0,0,1,.16-.15.15.15,0,0,1,.15.15c0,3.7-1.55,10.33-4.46,13.19A.15.15,0,0,1,365.32,300Z"/><path class="cls-12" d="M342.35,291.51h4.07a.58.58,0,0,0,.57-.57h0a.58.58,0,0,0-.57-.58h-4.07a.58.58,0,0,0-.57.58h0A.58.58,0,0,0,342.35,291.51Z"/><path class="cls-19" d="M360.19,291.51h4.06a.57.57,0,0,0,.57-.57h0a.57.57,0,0,0-.57-.58h-4.06a.58.58,0,0,0-.58.58h0A.58.58,0,0,0,360.19,291.51Z"/><path class="cls-12" d="M270.54,300.26c-.84-.51-2.21-1.31-3.76-2.14a10,10,0,0,0-2,3.08,4.2,4.2,0,0,1,1.67.83C268.42,303.56,273.72,302.21,270.54,300.26Z"/><path class="cls-12" d="M322.28,288.39H363.7a12.33,12.33,0,0,0,6-1.59h0s-6.7-6.09-20.2-8.71a65.81,65.81,0,0,0-12.41-1.39A62.79,62.79,0,0,0,322.28,288.39Z"/><path class="cls-12" d="M297.44,313.86H268a.82.82,0,0,1-.61-1.37l.76-.86a.85.85,0,0,1,.62-.27h27.92a.82.82,0,0,1,.61.27l.77.86A.83.83,0,0,1,297.44,313.86Z"/><path class="cls-24" d="M374.68,300.16l-1.85.36v-5l1.85.36c.26,0,.44.38.44.79v2.73C375.12,299.77,374.94,300.11,374.68,300.16Z"/><path class="cls-24" d="M343.43,325.1c-1.47,0-2.29-.36-2.29-1s.64-1,1.94-1.27a25.28,25.28,0,0,1,5.3-.44h23.79a4.22,4.22,0,0,0,3.32-1.29c2.15-2.34,1.67-7.62,1.32-11.48-.12-1.31-.24-2.55-.24-3.51a24.71,24.71,0,0,1,.36-3.83c.22-1.5.4-2.68-.08-3.24a2.67,2.67,0,0,0-2-.54v-.94a3.4,3.4,0,0,1,2.72.87c.76.88.56,2.25.3,4a24.63,24.63,0,0,0-.35,3.7c0,.92.11,2.14.23,3.43.39,4.25.87,9.55-1.55,12.2a5.23,5.23,0,0,1-4,1.59H348.38c-3.84,0-5.55.45-6.11.73a3.81,3.81,0,0,0,1.16.14Z"/><path class="cls-24" d="M374.84,296.38v3.25a1.63,1.63,0,1,0,0-3.25Z"/><rect class="cls-5" x="348.38" y="249.33" width="12.46" height="74.9"/><rect class="cls-24" x="349.45" y="248.41" width="14.81" height="0.92"/><rect class="cls-1" x="360.84" y="248.41" width="3.42" height="0.92"/><polygon class="cls-11" points="356.66 255.97 354.57 255.97 356.4 253.07 354.1 253.07 352.56 257.17 354.47 257.17 353.3 260.87 356.66 255.97"/><circle class="cls-25" cx="354.61" cy="296.66" r="2.62"/><path class="cls-24" d="M343.43,325.1a.47.47,0,0,1-.47-.47.46.46,0,0,1,.47-.46,3.9,3.9,0,0,0,3.19-1.15c1.45-1.76.73-5.55,0-9.57a44.1,44.1,0,0,1-1-8c0-6,3.22-9.26,9.07-9.26a.47.47,0,0,1,0,.94c-3.71,0-8.13,1.44-8.13,8.32a43.59,43.59,0,0,0,1,7.82c.81,4.24,1.58,8.25-.16,10.35A4.74,4.74,0,0,1,343.43,325.1Z"/><rect class="cls-26" x="349.93" y="273.09" width="9.35" height="18.9"/><polygon class="cls-26" points="349.93 273.09 349.93 291.98 353.28 275.72 349.93 273.09"/><polygon class="cls-1" points="357.51 279.46 357.7 278.54 355.15 278.54 354.96 279.46 353.97 279.46 352.16 288.24 356.71 288.24 358.52 279.46 357.51 279.46"/><path class="cls-11" d="M357.27,282.58l-.93,4.52a.68.68,0,0,1-.67.55H353.4a.42.42,0,0,1-.41-.5l.93-4.52a.7.7,0,0,1,.68-.55h2.27A.41.41,0,0,1,357.27,282.58Z"/><polygon class="cls-27" points="349.93 273.09 359.29 273.09 359.29 275.72 353.28 275.72 349.93 273.09"/><rect class="cls-28" x="360.84" y="249.33" width="4.48" height="74.9" transform="translate(726.16 573.56) rotate(180)"/><rect class="cls-1" x="360.84" y="249.33" width="4.48" height="74.9" transform="translate(726.16 573.56) rotate(180)"/><path class="cls-7" d="M416.05,44.39V156.05a3.4,3.4,0,0,1-3.54,3.24h-249a3.4,3.4,0,0,1-3.54-3.24V44.39a3.41,3.41,0,0,1,3.54-3.25h249A3.41,3.41,0,0,1,416.05,44.39Z"/><rect class="cls-29" x="176.57" y="105.69" width="103.12" height="36.98" rx="3.4"/><path class="cls-30" d="M274.65,142.67c-11.62-11.4-23.6-22.46-35.1-34-8,8-14.81,14.9-22.83,22.85,4.16,3.65,8.19,7.38,12.2,11.12Z"/><rect class="cls-8" x="216.7" y="108.71" width="22.85" height="22.85"/><path d="M220.83,118.49a1.36,1.36,0,0,1,1.11.49v-.4h.73v3.09a1.61,1.61,0,0,1-.48,1.24,1.83,1.83,0,0,1-1.31.45,2.89,2.89,0,0,1-.76-.1,2,2,0,0,1-.63-.28l.26-.62a2.12,2.12,0,0,0,1.13.34,1.1,1.1,0,0,0,.78-.26,1,1,0,0,0,.28-.73v-.27a1.35,1.35,0,0,1-1.11.48,1.38,1.38,0,0,1-.56-.12,1.63,1.63,0,0,1-.49-.33,1.5,1.5,0,0,1-.36-.54,2.06,2.06,0,0,1,0-1.44,1.67,1.67,0,0,1,.85-.88A1.38,1.38,0,0,1,220.83,118.49Zm.19.69a1,1,0,0,0-.72.29,1.06,1.06,0,0,0-.26.74,1,1,0,0,0,.26.73.92.92,0,0,0,.72.3,1,1,0,0,0,.71-.29,1.15,1.15,0,0,0,0-1.48A1,1,0,0,0,221,119.18Z"/><path d="M225.49,118.49a1.56,1.56,0,0,1,.56.1l-.17.72a1.22,1.22,0,0,0-.56-.13.75.75,0,0,0-.57.24.92.92,0,0,0-.22.66v1.83h-.72v-3.33h.71V119A1.11,1.11,0,0,1,225.49,118.49Z"/><path d="M226.79,117.07a.51.51,0,0,1,.87.36.46.46,0,0,1-.15.36.51.51,0,0,1-.72,0,.46.46,0,0,1-.15-.36A.49.49,0,0,1,226.79,117.07Zm.73,1.51v3.33h-.73v-3.33Z"/><path d="M230.08,118.49a1.26,1.26,0,0,1,1,.49v-2.07h.73v5h-.73v-.4a1.25,1.25,0,0,1-1,.48,1.55,1.55,0,0,1-1.18-.49,1.88,1.88,0,0,1,0-2.51A1.56,1.56,0,0,1,230.08,118.49Zm.09.69a.9.9,0,0,0-.73.31,1,1,0,0,0-.28.75,1.07,1.07,0,0,0,.28.76.9.9,0,0,0,.73.31,1,1,0,0,0,.72-.3,1.19,1.19,0,0,0,0-1.53A1,1,0,0,0,230.17,119.18Z"/><path d="M236.9,117.05l-1.66,2.38,1.73,2.48H236L234.77,120l-1.27,1.87h-.92l1.72-2.48-1.66-2.38h1l1.19,1.77,1.2-1.77Z"/><rect class="cls-29" x="296.31" y="105.69" width="103.12" height="36.98" rx="3.4"/><path class="cls-30" d="M387.1,142.67c-7.91-7.75-23.79-23.1-23.79-23.1l-27.2,12s8.19,7.38,12.21,11.12Z"/><path class="cls-8" d="M359.32,117.62a7.28,7.28,0,0,1,6.12,5.92c.52,3.52-1.33,7.44-5.76,8H336.25a7.31,7.31,0,0,1-6-6.87,7.13,7.13,0,0,1,3.69-6.15,6.5,6.5,0,0,1,3-6.4,6.66,6.66,0,0,1,5.64-.39,6.09,6.09,0,0,1,6.35-2.94,6.73,6.73,0,0,1,5.08,4.88,4.56,4.56,0,0,1,3.38,1A5.78,5.78,0,0,1,359.32,117.62Z"/><circle class="cls-31" cx="288.97" cy="73.42" r="15.65"/><polygon class="cls-8" points="290.52 72.98 295.89 65.3 292.8 65.3 288.98 70.77 285.14 65.3 282.05 65.3 287.42 72.98 281.44 81.53 284.56 81.53 288.97 75.2 293.41 81.53 296.51 81.53 290.52 72.98"/></svg>