<svg id="Layer_1" data-name="Layer 1" xmlns="http://www.w3.org/2000/svg" viewBox="0 0 72 72"><defs><style>.cls-1{fill:#0bb7b4;}.cls-2{fill:#2402a7;}</style></defs><title>FOCUS ICON</title><path class="cls-1" d="M70.71,34.49a3.86,3.86,0,0,0-3.49-2.24H56.55A1.32,1.32,0,0,1,56,32.1a1.3,1.3,0,0,1-.46-.41,1.2,1.2,0,0,1-.21-.58.88.88,0,0,1,0-.28l0-.1a.32.32,0,0,0,0-.09l9.36-19.85a3.79,3.79,0,0,0,.36-1.88,3.84,3.84,0,0,0-.59-1.82,3.78,3.78,0,0,0-1.41-1.31,3.9,3.9,0,0,0-1.86-.48h-15a6.51,6.51,0,0,0-1,.09l-.3.06a4.74,4.74,0,0,0-.65.16L44,5.74A5.31,5.31,0,0,0,43.4,6a3.65,3.65,0,0,0-.34.18,4.94,4.94,0,0,0-.49.3l-.32.23c-.14.12-.29.24-.42.37a3.7,3.7,0,0,0-.28.28,5.2,5.2,0,0,0-.38.44,3.25,3.25,0,0,0-.23.29,5.33,5.33,0,0,0-.33.55,2,2,0,0,0-.16.28,6.43,6.43,0,0,0-.37.91L30.84,39.25a3.85,3.85,0,0,0,.58,3.43,3.91,3.91,0,0,0,3.12,1.57h9.31a1.15,1.15,0,0,1,.38.31,1.27,1.27,0,0,1,.25,1.09L40.86,62a3.84,3.84,0,0,0,4.5,4.64,3.83,3.83,0,0,0,2.15-1.28L70.14,38.63a3.94,3.94,0,0,0,.57-4.14Z"/><rect class="cls-2" x="9.99" y="8.54" width="24.88" height="6.79" rx="2.58"/><rect class="cls-2" x="5.14" y="23.08" width="24.88" height="6.79" rx="2.58"/><rect class="cls-2" x="0.94" y="37.62" width="24.88" height="6.79" rx="2.58"/><rect class="cls-2" x="13.22" y="52.16" width="24.88" height="6.79" rx="2.58"/></svg>