<svg id="Layer_1" data-name="Layer 1" xmlns="http://www.w3.org/2000/svg" viewBox="0 0 72 72"><defs><style>.cls-1{fill:#2402a7;}.cls-2{fill:#0bb7b4;}</style></defs><title>FOCUS ICON</title><path class="cls-1" d="M16.25,30.75a5.07,5.07,0,0,1,0-7.16L37.36,2.48A5,5,0,0,1,39,1.37,5.06,5.06,0,0,1,41,1l15.47.29a5.07,5.07,0,0,1,5,5l.29,15.47a5,5,0,0,1-.37,2,5,5,0,0,1-1.11,1.68L39.17,46.51a5.07,5.07,0,0,1-7.16,0Z"/><path class="cls-2" d="M11.72,53.76a5.07,5.07,0,0,1,0-7.16L32.83,25.49a5,5,0,0,1,1.68-1.11,5,5,0,0,1,2-.37L52,24.3a5.07,5.07,0,0,1,5,5l.29,15.47a5.06,5.06,0,0,1-.37,2,5,5,0,0,1-1.11,1.68L34.64,69.52a5.07,5.07,0,0,1-7.16,0Z"/></svg>