<svg id="Layer_1" data-name="Layer 1" xmlns="http://www.w3.org/2000/svg" xmlns:xlink="http://www.w3.org/1999/xlink" viewBox="0 0 72 72"><defs><style>.cls-1,.cls-2{fill-opacity:0.6;}.cls-1{fill:url(#linear-gradient);}.cls-2{fill:url(#linear-gradient-2);}.cls-3{fill:#2402a7;}.cls-4{fill:#0bb7b4;}</style><linearGradient id="linear-gradient" x1="-2468" y1="6399.4" x2="-2468" y2="6390.47" gradientTransform="matrix(1, 0, 0, -1, 2504, 6433.7)" gradientUnits="userSpaceOnUse"><stop offset="0" stop-color="#066ece"/><stop offset="1" stop-color="#0459d0"/></linearGradient><linearGradient id="linear-gradient-2" x1="-2465.74" y1="6392.68" x2="-2458.75" y2="6385.69" gradientTransform="matrix(1, 0, 0, -1, 2504, 6433.7)" gradientUnits="userSpaceOnUse"><stop offset="0" stop-color="#00e2fc"/><stop offset="1" stop-color="#104cfd"/></linearGradient></defs><title>FOCUS ICON</title><path class="cls-1" d="M40.61,38.76v-1.9l-1.28-1.29a4.63,4.63,0,0,0-5.83-.68,4.68,4.68,0,0,0-1.89,2.48,4.6,4.6,0,0,0,5.27,5.91,4.62,4.62,0,0,0,3.73-4.52Z"/><path class="cls-2" d="M46.49,42.73l-5.88-5.88v1.91a4.64,4.64,0,0,1-.78,2.55,4.61,4.61,0,0,1-4.69,2,4.65,4.65,0,0,1-2.36-1.23l0,0L40,49.25a4.61,4.61,0,0,0,6.52-6.52Z"/><path class="cls-3" d="M32.81,35.57a4.6,4.6,0,0,1,6.51,0l1.29,1.29V19.42a4.61,4.61,0,1,0-9.22,0V38.76a4.59,4.59,0,0,0,.37,1.79,4.49,4.49,0,0,0,1,1.5,4.6,4.6,0,0,1,0-6.48Z"/><path class="cls-4" d="M32.81,35.57a4.6,4.6,0,0,1,6.51,0l7.17,7.16a4.64,4.64,0,0,1,0,6.52h0a4.61,4.61,0,0,1-6.52,0l-7.16-7.16a4.62,4.62,0,0,1-1.35-3.26,4.64,4.64,0,0,1,.35-1.76,4.59,4.59,0,0,1,1-1.5Z"/><path class="cls-4" d="M36,1A35,35,0,1,0,60.75,11.25,34.94,34.94,0,0,0,36,1Zm0,62.63a27.62,27.62,0,1,1,19.54-8.09A27.6,27.6,0,0,1,36,63.63Z"/></svg>